{
  "header": {
    "keySignatures": [
      {
        "key": "D",
        "scale": "major",
        "ticks": 0
      }
    ],
    "meta": [
      {
        "text": "kanon.mid, produced by PMX 2.19",
        "ticks": 0,
        "type": "text"
      }
    ],
    "name": "",
    "ppq": 240,
    "tempos": [
      {
        "bpm": 40,
        "ticks": 0
      },
      {
        "bpm": 160,
        "ticks": 54720
      }
    ],
    "timeSignatures": [
      {
        "ticks": 0,
        "timeSignature": [
          4,
          4
        ],
        "measures": 0
      },
      {
        "ticks": 54720,
        "timeSignature": [
          12,
          8
        ],
        "measures": 57
      }
    ]
  },
  "tracks": [
    {
      "channel": 0,
      "controlChanges": {},
      "pitchBends": [],
      "instrument": {
        "family": "strings",
        "number": 40,
        "name": "violin"
      },
      "name": "Violino I",
      "notes": [
        {
          "duration": 1.4875000000000007,
          "durationTicks": 238,
          "midi": 78,
          "name": "F#5",
          "ticks": 1920,
          "time": 12,
          "velocity": 1
        },
        {
          "duration": 1.4875000000000007,
          "durationTicks": 238,
          "midi": 76,
          "name": "E5",
          "ticks": 2160,
          "time": 13.5,
          "velocity": 1
        },
        {
          "duration": 1.4875000000000007,
          "durationTicks": 238,
          "midi": 74,
          "name": "D5",
          "ticks": 2400,
          "time": 15,
          "velocity": 1
        },
        {
          "duration": 1.4875000000000007,
          "durationTicks": 238,
          "midi": 73,
          "name": "C#5",
          "ticks": 2640,
          "time": 16.5,
          "velocity": 1
        },
        {
          "duration": 1.4875000000000007,
          "durationTicks": 238,
          "midi": 71,
          "name": "B4",
          "ticks": 2880,
          "time": 18,
          "velocity": 1
        },
        {
          "duration": 1.4875000000000007,
          "durationTicks": 238,
          "midi": 69,
          "name": "A4",
          "ticks": 3120,
          "time": 19.5,
          "velocity": 1
        },
        {
          "duration": 1.4875000000000007,
          "durationTicks": 238,
          "midi": 71,
          "name": "B4",
          "ticks": 3360,
          "time": 21,
          "velocity": 1
        },
        {
          "duration": 1.4875000000000007,
          "durationTicks": 238,
          "midi": 73,
          "name": "C#5",
          "ticks": 3600,
          "time": 22.5,
          "velocity": 1
        },
        {
          "duration": 1.4875000000000007,
          "durationTicks": 238,
          "midi": 74,
          "name": "D5",
          "ticks": 3840,
          "time": 24,
          "velocity": 1
        },
        {
          "duration": 1.4875000000000007,
          "durationTicks": 238,
          "midi": 73,
          "name": "C#5",
          "ticks": 4080,
          "time": 25.5,
          "velocity": 1
        },
        {
          "duration": 1.4875000000000007,
          "durationTicks": 238,
          "midi": 71,
          "name": "B4",
          "ticks": 4320,
          "time": 27,
          "velocity": 1
        },
        {
          "duration": 1.4875000000000007,
          "durationTicks": 238,
          "midi": 69,
          "name": "A4",
          "ticks": 4560,
          "time": 28.5,
          "velocity": 1
        },
        {
          "duration": 1.4875000000000007,
          "durationTicks": 238,
          "midi": 67,
          "name": "G4",
          "ticks": 4800,
          "time": 30,
          "velocity": 1
        },
        {
          "duration": 1.4874999999999972,
          "durationTicks": 238,
          "midi": 66,
          "name": "F#4",
          "ticks": 5040,
          "time": 31.5,
          "velocity": 1
        },
        {
          "duration": 1.4874999999999972,
          "durationTicks": 238,
          "midi": 67,
          "name": "G4",
          "ticks": 5280,
          "time": 33,
          "velocity": 1
        },
        {
          "duration": 1.4874999999999972,
          "durationTicks": 238,
          "midi": 64,
          "name": "E4",
          "ticks": 5520,
          "time": 34.5,
          "velocity": 1
        },
        {
          "duration": 0.7374999999999972,
          "durationTicks": 118,
          "midi": 62,
          "name": "D4",
          "ticks": 5760,
          "time": 36,
          "velocity": 1
        },
        {
          "duration": 0.7374999999999972,
          "durationTicks": 118,
          "midi": 66,
          "name": "F#4",
          "ticks": 5880,
          "time": 36.75,
          "velocity": 1
        },
        {
          "duration": 0.7374999999999972,
          "durationTicks": 118,
          "midi": 69,
          "name": "A4",
          "ticks": 6000,
          "time": 37.5,
          "velocity": 1
        },
        {
          "duration": 0.7374999999999972,
          "durationTicks": 118,
          "midi": 67,
          "name": "G4",
          "ticks": 6120,
          "time": 38.25,
          "velocity": 1
        },
        {
          "duration": 0.7374999999999972,
          "durationTicks": 118,
          "midi": 66,
          "name": "F#4",
          "ticks": 6240,
          "time": 39,
          "velocity": 1
        },
        {
          "duration": 0.7374999999999972,
          "durationTicks": 118,
          "midi": 62,
          "name": "D4",
          "ticks": 6360,
          "time": 39.75,
          "velocity": 1
        },
        {
          "duration": 0.7374999999999972,
          "durationTicks": 118,
          "midi": 66,
          "name": "F#4",
          "ticks": 6480,
          "time": 40.5,
          "velocity": 1
        },
        {
          "duration": 0.7374999999999972,
          "durationTicks": 118,
          "midi": 64,
          "name": "E4",
          "ticks": 6600,
          "time": 41.25,
          "velocity": 1
        },
        {
          "duration": 0.7374999999999972,
          "durationTicks": 118,
          "midi": 62,
          "name": "D4",
          "ticks": 6720,
          "time": 42,
          "velocity": 1
        },
        {
          "duration": 0.7374999999999972,
          "durationTicks": 118,
          "midi": 59,
          "name": "B3",
          "ticks": 6840,
          "time": 42.75,
          "velocity": 1
        },
        {
          "duration": 0.7374999999999972,
          "durationTicks": 118,
          "midi": 62,
          "name": "D4",
          "ticks": 6960,
          "time": 43.5,
          "velocity": 1
        },
        {
          "duration": 0.7374999999999972,
          "durationTicks": 118,
          "midi": 69,
          "name": "A4",
          "ticks": 7080,
          "time": 44.25,
          "velocity": 1
        },
        {
          "duration": 0.7374999999999972,
          "durationTicks": 118,
          "midi": 67,
          "name": "G4",
          "ticks": 7200,
          "time": 45,
          "velocity": 1
        },
        {
          "duration": 0.7374999999999972,
          "durationTicks": 118,
          "midi": 71,
          "name": "B4",
          "ticks": 7320,
          "time": 45.75,
          "velocity": 1
        },
        {
          "duration": 0.7374999999999972,
          "durationTicks": 118,
          "midi": 69,
          "name": "A4",
          "ticks": 7440,
          "time": 46.5,
          "velocity": 1
        },
        {
          "duration": 0.7374999999999972,
          "durationTicks": 118,
          "midi": 67,
          "name": "G4",
          "ticks": 7560,
          "time": 47.25,
          "velocity": 1
        },
        {
          "duration": 0.7374999999999972,
          "durationTicks": 118,
          "midi": 66,
          "name": "F#4",
          "ticks": 7680,
          "time": 48,
          "velocity": 1
        },
        {
          "duration": 0.7374999999999972,
          "durationTicks": 118,
          "midi": 62,
          "name": "D4",
          "ticks": 7800,
          "time": 48.75,
          "velocity": 1
        },
        {
          "duration": 0.7374999999999972,
          "durationTicks": 118,
          "midi": 64,
          "name": "E4",
          "ticks": 7920,
          "time": 49.5,
          "velocity": 1
        },
        {
          "duration": 0.7374999999999972,
          "durationTicks": 118,
          "midi": 73,
          "name": "C#5",
          "ticks": 8040,
          "time": 50.25,
          "velocity": 1
        },
        {
          "duration": 0.7374999999999972,
          "durationTicks": 118,
          "midi": 74,
          "name": "D5",
          "ticks": 8160,
          "time": 51,
          "velocity": 1
        },
        {
          "duration": 0.7374999999999972,
          "durationTicks": 118,
          "midi": 78,
          "name": "F#5",
          "ticks": 8280,
          "time": 51.75,
          "velocity": 1
        },
        {
          "duration": 0.7374999999999972,
          "durationTicks": 118,
          "midi": 81,
          "name": "A5",
          "ticks": 8400,
          "time": 52.5,
          "velocity": 1
        },
        {
          "duration": 0.7374999999999972,
          "durationTicks": 118,
          "midi": 69,
          "name": "A4",
          "ticks": 8520,
          "time": 53.25,
          "velocity": 1
        },
        {
          "duration": 0.7374999999999972,
          "durationTicks": 118,
          "midi": 71,
          "name": "B4",
          "ticks": 8640,
          "time": 54,
          "velocity": 1
        },
        {
          "duration": 0.7374999999999972,
          "durationTicks": 118,
          "midi": 67,
          "name": "G4",
          "ticks": 8760,
          "time": 54.75,
          "velocity": 1
        },
        {
          "duration": 0.7374999999999972,
          "durationTicks": 118,
          "midi": 69,
          "name": "A4",
          "ticks": 8880,
          "time": 55.5,
          "velocity": 1
        },
        {
          "duration": 0.7374999999999972,
          "durationTicks": 118,
          "midi": 66,
          "name": "F#4",
          "ticks": 9000,
          "time": 56.25,
          "velocity": 1
        },
        {
          "duration": 0.7374999999999972,
          "durationTicks": 118,
          "midi": 62,
          "name": "D4",
          "ticks": 9120,
          "time": 57,
          "velocity": 1
        },
        {
          "duration": 0.7374999999999972,
          "durationTicks": 118,
          "midi": 74,
          "name": "D5",
          "ticks": 9240,
          "time": 57.75,
          "velocity": 1
        },
        {
          "duration": 1.1124999999999972,
          "durationTicks": 178,
          "midi": 74,
          "name": "D5",
          "ticks": 9360,
          "time": 58.5,
          "velocity": 1
        },
        {
          "duration": 0.36249999999999716,
          "durationTicks": 58,
          "midi": 73,
          "name": "C#5",
          "ticks": 9540,
          "time": 59.625,
          "velocity": 1
        },
        {
          "duration": 0.36249999999999716,
          "durationTicks": 58,
          "midi": 74,
          "name": "D5",
          "ticks": 9600,
          "time": 60,
          "velocity": 1
        },
        {
          "duration": 0.36249999999999716,
          "durationTicks": 58,
          "midi": 73,
          "name": "C#5",
          "ticks": 9660,
          "time": 60.375,
          "velocity": 1
        },
        {
          "duration": 0.36249999999999716,
          "durationTicks": 58,
          "midi": 74,
          "name": "D5",
          "ticks": 9720,
          "time": 60.75,
          "velocity": 1
        },
        {
          "duration": 0.36249999999999716,
          "durationTicks": 58,
          "midi": 62,
          "name": "D4",
          "ticks": 9780,
          "time": 61.125,
          "velocity": 1
        },
        {
          "duration": 0.36249999999999716,
          "durationTicks": 58,
          "midi": 61,
          "name": "C#4",
          "ticks": 9840,
          "time": 61.5,
          "velocity": 1
        },
        {
          "duration": 0.36249999999999716,
          "durationTicks": 58,
          "midi": 69,
          "name": "A4",
          "ticks": 9900,
          "time": 61.875,
          "velocity": 1
        },
        {
          "duration": 0.36249999999999716,
          "durationTicks": 58,
          "midi": 64,
          "name": "E4",
          "ticks": 9960,
          "time": 62.25,
          "velocity": 1
        },
        {
          "duration": 0.36249999999999716,
          "durationTicks": 58,
          "midi": 66,
          "name": "F#4",
          "ticks": 10020,
          "time": 62.625,
          "velocity": 1
        },
        {
          "duration": 0.36249999999999716,
          "durationTicks": 58,
          "midi": 62,
          "name": "D4",
          "ticks": 10080,
          "time": 63,
          "velocity": 1
        },
        {
          "duration": 0.36249999999999716,
          "durationTicks": 58,
          "midi": 74,
          "name": "D5",
          "ticks": 10140,
          "time": 63.375,
          "velocity": 1
        },
        {
          "duration": 0.36249999999999716,
          "durationTicks": 58,
          "midi": 73,
          "name": "C#5",
          "ticks": 10200,
          "time": 63.75,
          "velocity": 1
        },
        {
          "duration": 0.36249999999999716,
          "durationTicks": 58,
          "midi": 71,
          "name": "B4",
          "ticks": 10260,
          "time": 64.125,
          "velocity": 1
        },
        {
          "duration": 0.36249999999999716,
          "durationTicks": 58,
          "midi": 73,
          "name": "C#5",
          "ticks": 10320,
          "time": 64.5,
          "velocity": 1
        },
        {
          "duration": 0.36249999999999716,
          "durationTicks": 58,
          "midi": 78,
          "name": "F#5",
          "ticks": 10380,
          "time": 64.875,
          "velocity": 1
        },
        {
          "duration": 0.36249999999999716,
          "durationTicks": 58,
          "midi": 81,
          "name": "A5",
          "ticks": 10440,
          "time": 65.25,
          "velocity": 1
        },
        {
          "duration": 0.36249999999999716,
          "durationTicks": 58,
          "midi": 83,
          "name": "B5",
          "ticks": 10500,
          "time": 65.625,
          "velocity": 1
        },
        {
          "duration": 0.36249999999999716,
          "durationTicks": 58,
          "midi": 79,
          "name": "G5",
          "ticks": 10560,
          "time": 66,
          "velocity": 1
        },
        {
          "duration": 0.36249999999999716,
          "durationTicks": 58,
          "midi": 78,
          "name": "F#5",
          "ticks": 10620,
          "time": 66.375,
          "velocity": 1
        },
        {
          "duration": 0.36249999999999716,
          "durationTicks": 58,
          "midi": 76,
          "name": "E5",
          "ticks": 10680,
          "time": 66.75,
          "velocity": 1
        },
        {
          "duration": 0.36249999999999716,
          "durationTicks": 58,
          "midi": 79,
          "name": "G5",
          "ticks": 10740,
          "time": 67.125,
          "velocity": 1
        },
        {
          "duration": 0.36249999999999716,
          "durationTicks": 58,
          "midi": 78,
          "name": "F#5",
          "ticks": 10800,
          "time": 67.5,
          "velocity": 1
        },
        {
          "duration": 0.36249999999999716,
          "durationTicks": 58,
          "midi": 76,
          "name": "E5",
          "ticks": 10860,
          "time": 67.875,
          "velocity": 1
        },
        {
          "duration": 0.36249999999999716,
          "durationTicks": 58,
          "midi": 74,
          "name": "D5",
          "ticks": 10920,
          "time": 68.25,
          "velocity": 1
        },
        {
          "duration": 0.36249999999999716,
          "durationTicks": 58,
          "midi": 73,
          "name": "C#5",
          "ticks": 10980,
          "time": 68.625,
          "velocity": 1
        },
        {
          "duration": 0.36249999999999716,
          "durationTicks": 58,
          "midi": 71,
          "name": "B4",
          "ticks": 11040,
          "time": 69,
          "velocity": 1
        },
        {
          "duration": 0.36249999999999716,
          "durationTicks": 58,
          "midi": 69,
          "name": "A4",
          "ticks": 11100,
          "time": 69.375,
          "velocity": 1
        },
        {
          "duration": 0.36249999999999716,
          "durationTicks": 58,
          "midi": 67,
          "name": "G4",
          "ticks": 11160,
          "time": 69.75,
          "velocity": 1
        },
        {
          "duration": 0.36249999999999716,
          "durationTicks": 58,
          "midi": 66,
          "name": "F#4",
          "ticks": 11220,
          "time": 70.125,
          "velocity": 1
        },
        {
          "duration": 0.36249999999999716,
          "durationTicks": 58,
          "midi": 64,
          "name": "E4",
          "ticks": 11280,
          "time": 70.5,
          "velocity": 1
        },
        {
          "duration": 0.36249999999999716,
          "durationTicks": 58,
          "midi": 67,
          "name": "G4",
          "ticks": 11340,
          "time": 70.875,
          "velocity": 1
        },
        {
          "duration": 0.36249999999999716,
          "durationTicks": 58,
          "midi": 66,
          "name": "F#4",
          "ticks": 11400,
          "time": 71.25,
          "velocity": 1
        },
        {
          "duration": 0.36249999999999716,
          "durationTicks": 58,
          "midi": 64,
          "name": "E4",
          "ticks": 11460,
          "time": 71.625,
          "velocity": 1
        },
        {
          "duration": 0.36249999999999716,
          "durationTicks": 58,
          "midi": 62,
          "name": "D4",
          "ticks": 11520,
          "time": 72,
          "velocity": 1
        },
        {
          "duration": 0.36249999999999716,
          "durationTicks": 58,
          "midi": 64,
          "name": "E4",
          "ticks": 11580,
          "time": 72.375,
          "velocity": 1
        },
        {
          "duration": 0.36249999999999716,
          "durationTicks": 58,
          "midi": 66,
          "name": "F#4",
          "ticks": 11640,
          "time": 72.75,
          "velocity": 1
        },
        {
          "duration": 0.36249999999999716,
          "durationTicks": 58,
          "midi": 67,
          "name": "G4",
          "ticks": 11700,
          "time": 73.125,
          "velocity": 1
        },
        {
          "duration": 0.36249999999999716,
          "durationTicks": 58,
          "midi": 69,
          "name": "A4",
          "ticks": 11760,
          "time": 73.5,
          "velocity": 1
        },
        {
          "duration": 0.36249999999999716,
          "durationTicks": 58,
          "midi": 64,
          "name": "E4",
          "ticks": 11820,
          "time": 73.875,
          "velocity": 1
        },
        {
          "duration": 0.36249999999999716,
          "durationTicks": 58,
          "midi": 69,
          "name": "A4",
          "ticks": 11880,
          "time": 74.25,
          "velocity": 1
        },
        {
          "duration": 0.36249999999999716,
          "durationTicks": 58,
          "midi": 67,
          "name": "G4",
          "ticks": 11940,
          "time": 74.625,
          "velocity": 1
        },
        {
          "duration": 0.36249999999999716,
          "durationTicks": 58,
          "midi": 66,
          "name": "F#4",
          "ticks": 12000,
          "time": 75,
          "velocity": 1
        },
        {
          "duration": 0.36249999999999716,
          "durationTicks": 58,
          "midi": 71,
          "name": "B4",
          "ticks": 12060,
          "time": 75.375,
          "velocity": 1
        },
        {
          "duration": 0.36249999999999716,
          "durationTicks": 58,
          "midi": 69,
          "name": "A4",
          "ticks": 12120,
          "time": 75.75,
          "velocity": 1
        },
        {
          "duration": 0.36249999999999716,
          "durationTicks": 58,
          "midi": 67,
          "name": "G4",
          "ticks": 12180,
          "time": 76.125,
          "velocity": 1
        },
        {
          "duration": 0.36249999999999716,
          "durationTicks": 58,
          "midi": 69,
          "name": "A4",
          "ticks": 12240,
          "time": 76.5,
          "velocity": 1
        },
        {
          "duration": 0.36249999999999716,
          "durationTicks": 58,
          "midi": 67,
          "name": "G4",
          "ticks": 12300,
          "time": 76.875,
          "velocity": 1
        },
        {
          "duration": 0.36249999999999716,
          "durationTicks": 58,
          "midi": 66,
          "name": "F#4",
          "ticks": 12360,
          "time": 77.25,
          "velocity": 1
        },
        {
          "duration": 0.36249999999999716,
          "durationTicks": 58,
          "midi": 64,
          "name": "E4",
          "ticks": 12420,
          "time": 77.625,
          "velocity": 1
        },
        {
          "duration": 0.36249999999999716,
          "durationTicks": 58,
          "midi": 62,
          "name": "D4",
          "ticks": 12480,
          "time": 78,
          "velocity": 1
        },
        {
          "duration": 0.36249999999999716,
          "durationTicks": 58,
          "midi": 59,
          "name": "B3",
          "ticks": 12540,
          "time": 78.375,
          "velocity": 1
        },
        {
          "duration": 0.36249999999999716,
          "durationTicks": 58,
          "midi": 71,
          "name": "B4",
          "ticks": 12600,
          "time": 78.75,
          "velocity": 1
        },
        {
          "duration": 0.36249999999999716,
          "durationTicks": 58,
          "midi": 73,
          "name": "C#5",
          "ticks": 12660,
          "time": 79.125,
          "velocity": 1
        },
        {
          "duration": 0.36249999999999716,
          "durationTicks": 58,
          "midi": 74,
          "name": "D5",
          "ticks": 12720,
          "time": 79.5,
          "velocity": 1
        },
        {
          "duration": 0.36249999999999716,
          "durationTicks": 58,
          "midi": 73,
          "name": "C#5",
          "ticks": 12780,
          "time": 79.875,
          "velocity": 1
        },
        {
          "duration": 0.36249999999999716,
          "durationTicks": 58,
          "midi": 71,
          "name": "B4",
          "ticks": 12840,
          "time": 80.25,
          "velocity": 1
        },
        {
          "duration": 0.36249999999999716,
          "durationTicks": 58,
          "midi": 69,
          "name": "A4",
          "ticks": 12900,
          "time": 80.625,
          "velocity": 1
        },
        {
          "duration": 0.36249999999999716,
          "durationTicks": 58,
          "midi": 67,
          "name": "G4",
          "ticks": 12960,
          "time": 81,
          "velocity": 1
        },
        {
          "duration": 0.36249999999999716,
          "durationTicks": 58,
          "midi": 66,
          "name": "F#4",
          "ticks": 13020,
          "time": 81.375,
          "velocity": 1
        },
        {
          "duration": 0.36249999999999716,
          "durationTicks": 58,
          "midi": 64,
          "name": "E4",
          "ticks": 13080,
          "time": 81.75,
          "velocity": 1
        },
        {
          "duration": 0.36249999999999716,
          "durationTicks": 58,
          "midi": 71,
          "name": "B4",
          "ticks": 13140,
          "time": 82.125,
          "velocity": 1
        },
        {
          "duration": 0.36249999999999716,
          "durationTicks": 58,
          "midi": 69,
          "name": "A4",
          "ticks": 13200,
          "time": 82.5,
          "velocity": 1
        },
        {
          "duration": 0.36249999999999716,
          "durationTicks": 58,
          "midi": 71,
          "name": "B4",
          "ticks": 13260,
          "time": 82.875,
          "velocity": 1
        },
        {
          "duration": 0.36249999999999716,
          "durationTicks": 58,
          "midi": 69,
          "name": "A4",
          "ticks": 13320,
          "time": 83.25,
          "velocity": 1
        },
        {
          "duration": 0.36249999999999716,
          "durationTicks": 58,
          "midi": 67,
          "name": "G4",
          "ticks": 13380,
          "time": 83.625,
          "velocity": 1
        },
        {
          "duration": 0.7374999999999972,
          "durationTicks": 118,
          "midi": 66,
          "name": "F#4",
          "ticks": 13440,
          "time": 84,
          "velocity": 1
        },
        {
          "duration": 0.7374999999999972,
          "durationTicks": 118,
          "midi": 78,
          "name": "F#5",
          "ticks": 13560,
          "time": 84.75,
          "velocity": 1
        },
        {
          "duration": 1.4874999999999972,
          "durationTicks": 238,
          "midi": 76,
          "name": "E5",
          "ticks": 13680,
          "time": 85.5,
          "velocity": 1
        },
        {
          "duration": 0.7374999999999972,
          "durationTicks": 118,
          "midi": 74,
          "name": "D5",
          "ticks": 14040,
          "time": 87.75,
          "velocity": 1
        },
        {
          "duration": 1.4874999999999972,
          "durationTicks": 238,
          "midi": 78,
          "name": "F#5",
          "ticks": 14160,
          "time": 88.5,
          "velocity": 1
        },
        {
          "duration": 1.4874999999999972,
          "durationTicks": 238,
          "midi": 83,
          "name": "B5",
          "ticks": 14400,
          "time": 90,
          "velocity": 1
        },
        {
          "duration": 1.4874999999999972,
          "durationTicks": 238,
          "midi": 81,
          "name": "A5",
          "ticks": 14640,
          "time": 91.5,
          "velocity": 1
        },
        {
          "duration": 1.4874999999999972,
          "durationTicks": 238,
          "midi": 83,
          "name": "B5",
          "ticks": 14880,
          "time": 93,
          "velocity": 1
        },
        {
          "duration": 1.4874999999999972,
          "durationTicks": 238,
          "midi": 85,
          "name": "C#6",
          "ticks": 15120,
          "time": 94.5,
          "velocity": 1
        },
        {
          "duration": 0.737499999999983,
          "durationTicks": 118,
          "midi": 86,
          "name": "D6",
          "ticks": 15360,
          "time": 96,
          "velocity": 1
        },
        {
          "duration": 0.737499999999983,
          "durationTicks": 118,
          "midi": 74,
          "name": "D5",
          "ticks": 15480,
          "time": 96.75,
          "velocity": 1
        },
        {
          "duration": 1.487499999999983,
          "durationTicks": 238,
          "midi": 73,
          "name": "C#5",
          "ticks": 15600,
          "time": 97.5,
          "velocity": 1
        },
        {
          "duration": 0.737499999999983,
          "durationTicks": 118,
          "midi": 71,
          "name": "B4",
          "ticks": 15960,
          "time": 99.75,
          "velocity": 1
        },
        {
          "duration": 1.487499999999983,
          "durationTicks": 238,
          "midi": 74,
          "name": "D5",
          "ticks": 16080,
          "time": 100.5,
          "velocity": 1
        },
        {
          "duration": 2.237499999999983,
          "durationTicks": 358,
          "midi": 74,
          "name": "D5",
          "ticks": 16320,
          "time": 102,
          "velocity": 1
        },
        {
          "duration": 0.737499999999983,
          "durationTicks": 118,
          "midi": 74,
          "name": "D5",
          "ticks": 16680,
          "time": 104.25,
          "velocity": 1
        },
        {
          "duration": 0.737499999999983,
          "durationTicks": 118,
          "midi": 74,
          "name": "D5",
          "ticks": 16800,
          "time": 105,
          "velocity": 1
        },
        {
          "duration": 0.737499999999983,
          "durationTicks": 118,
          "midi": 79,
          "name": "G5",
          "ticks": 16920,
          "time": 105.75,
          "velocity": 1
        },
        {
          "duration": 0.737499999999983,
          "durationTicks": 118,
          "midi": 76,
          "name": "E5",
          "ticks": 17040,
          "time": 106.5,
          "velocity": 1
        },
        {
          "duration": 0.737499999999983,
          "durationTicks": 118,
          "midi": 81,
          "name": "A5",
          "ticks": 17160,
          "time": 107.25,
          "velocity": 1
        },
        {
          "duration": 0.36249999999998295,
          "durationTicks": 58,
          "midi": 81,
          "name": "A5",
          "ticks": 17280,
          "time": 108,
          "velocity": 1
        },
        {
          "duration": 0.17499999999998295,
          "durationTicks": 28,
          "midi": 78,
          "name": "F#5",
          "ticks": 17340,
          "time": 108.375,
          "velocity": 1
        },
        {
          "duration": 0.17499999999998295,
          "durationTicks": 28,
          "midi": 79,
          "name": "G5",
          "ticks": 17370,
          "time": 108.5625,
          "velocity": 1
        },
        {
          "duration": 0.36249999999998295,
          "durationTicks": 58,
          "midi": 81,
          "name": "A5",
          "ticks": 17400,
          "time": 108.75,
          "velocity": 1
        },
        {
          "duration": 0.17499999999998295,
          "durationTicks": 28,
          "midi": 78,
          "name": "F#5",
          "ticks": 17460,
          "time": 109.125,
          "velocity": 1
        },
        {
          "duration": 0.17499999999998295,
          "durationTicks": 28,
          "midi": 79,
          "name": "G5",
          "ticks": 17490,
          "time": 109.3125,
          "velocity": 1
        },
        {
          "duration": 0.17499999999998295,
          "durationTicks": 28,
          "midi": 81,
          "name": "A5",
          "ticks": 17520,
          "time": 109.5,
          "velocity": 1
        },
        {
          "duration": 0.17499999999998295,
          "durationTicks": 28,
          "midi": 69,
          "name": "A4",
          "ticks": 17550,
          "time": 109.6875,
          "velocity": 1
        },
        {
          "duration": 0.17499999999998295,
          "durationTicks": 28,
          "midi": 71,
          "name": "B4",
          "ticks": 17580,
          "time": 109.875,
          "velocity": 1
        },
        {
          "duration": 0.17499999999998295,
          "durationTicks": 28,
          "midi": 73,
          "name": "C#5",
          "ticks": 17610,
          "time": 110.0625,
          "velocity": 1
        },
        {
          "duration": 0.17499999999998295,
          "durationTicks": 28,
          "midi": 74,
          "name": "D5",
          "ticks": 17640,
          "time": 110.25,
          "velocity": 1
        },
        {
          "duration": 0.17499999999998295,
          "durationTicks": 28,
          "midi": 76,
          "name": "E5",
          "ticks": 17670,
          "time": 110.4375,
          "velocity": 1
        },
        {
          "duration": 0.17499999999998295,
          "durationTicks": 28,
          "midi": 78,
          "name": "F#5",
          "ticks": 17700,
          "time": 110.625,
          "velocity": 1
        },
        {
          "duration": 0.17499999999998295,
          "durationTicks": 28,
          "midi": 79,
          "name": "G5",
          "ticks": 17730,
          "time": 110.8125,
          "velocity": 1
        },
        {
          "duration": 0.36249999999998295,
          "durationTicks": 58,
          "midi": 78,
          "name": "F#5",
          "ticks": 17760,
          "time": 111,
          "velocity": 1
        },
        {
          "duration": 0.17499999999998295,
          "durationTicks": 28,
          "midi": 74,
          "name": "D5",
          "ticks": 17820,
          "time": 111.375,
          "velocity": 1
        },
        {
          "duration": 0.17499999999998295,
          "durationTicks": 28,
          "midi": 76,
          "name": "E5",
          "ticks": 17850,
          "time": 111.5625,
          "velocity": 1
        },
        {
          "duration": 0.36249999999998295,
          "durationTicks": 58,
          "midi": 78,
          "name": "F#5",
          "ticks": 17880,
          "time": 111.75,
          "velocity": 1
        },
        {
          "duration": 0.17499999999998295,
          "durationTicks": 28,
          "midi": 66,
          "name": "F#4",
          "ticks": 17940,
          "time": 112.125,
          "velocity": 1
        },
        {
          "duration": 0.17499999999998295,
          "durationTicks": 28,
          "midi": 67,
          "name": "G4",
          "ticks": 17970,
          "time": 112.3125,
          "velocity": 1
        },
        {
          "duration": 0.17499999999998295,
          "durationTicks": 28,
          "midi": 69,
          "name": "A4",
          "ticks": 18000,
          "time": 112.5,
          "velocity": 1
        },
        {
          "duration": 0.17499999999998295,
          "durationTicks": 28,
          "midi": 71,
          "name": "B4",
          "ticks": 18030,
          "time": 112.6875,
          "velocity": 1
        },
        {
          "duration": 0.17499999999998295,
          "durationTicks": 28,
          "midi": 69,
          "name": "A4",
          "ticks": 18060,
          "time": 112.875,
          "velocity": 1
        },
        {
          "duration": 0.17499999999998295,
          "durationTicks": 28,
          "midi": 67,
          "name": "G4",
          "ticks": 18090,
          "time": 113.0625,
          "velocity": 1
        },
        {
          "duration": 0.17499999999998295,
          "durationTicks": 28,
          "midi": 69,
          "name": "A4",
          "ticks": 18120,
          "time": 113.25,
          "velocity": 1
        },
        {
          "duration": 0.17499999999998295,
          "durationTicks": 28,
          "midi": 66,
          "name": "F#4",
          "ticks": 18150,
          "time": 113.4375,
          "velocity": 1
        },
        {
          "duration": 0.17499999999998295,
          "durationTicks": 28,
          "midi": 67,
          "name": "G4",
          "ticks": 18180,
          "time": 113.625,
          "velocity": 1
        },
        {
          "duration": 0.17499999999998295,
          "durationTicks": 28,
          "midi": 69,
          "name": "A4",
          "ticks": 18210,
          "time": 113.8125,
          "velocity": 1
        },
        {
          "duration": 0.36249999999998295,
          "durationTicks": 58,
          "midi": 67,
          "name": "G4",
          "ticks": 18240,
          "time": 114,
          "velocity": 1
        },
        {
          "duration": 0.17499999999998295,
          "durationTicks": 28,
          "midi": 71,
          "name": "B4",
          "ticks": 18300,
          "time": 114.375,
          "velocity": 1
        },
        {
          "duration": 0.17499999999998295,
          "durationTicks": 28,
          "midi": 69,
          "name": "A4",
          "ticks": 18330,
          "time": 114.5625,
          "velocity": 1
        },
        {
          "duration": 0.36249999999998295,
          "durationTicks": 58,
          "midi": 67,
          "name": "G4",
          "ticks": 18360,
          "time": 114.75,
          "velocity": 1
        },
        {
          "duration": 0.17499999999998295,
          "durationTicks": 28,
          "midi": 66,
          "name": "F#4",
          "ticks": 18420,
          "time": 115.125,
          "velocity": 1
        },
        {
          "duration": 0.17499999999998295,
          "durationTicks": 28,
          "midi": 64,
          "name": "E4",
          "ticks": 18450,
          "time": 115.3125,
          "velocity": 1
        },
        {
          "duration": 0.17499999999998295,
          "durationTicks": 28,
          "midi": 66,
          "name": "F#4",
          "ticks": 18480,
          "time": 115.5,
          "velocity": 1
        },
        {
          "duration": 0.17499999999998295,
          "durationTicks": 28,
          "midi": 64,
          "name": "E4",
          "ticks": 18510,
          "time": 115.6875,
          "velocity": 1
        },
        {
          "duration": 0.17499999999998295,
          "durationTicks": 28,
          "midi": 62,
          "name": "D4",
          "ticks": 18540,
          "time": 115.875,
          "velocity": 1
        },
        {
          "duration": 0.17499999999998295,
          "durationTicks": 28,
          "midi": 64,
          "name": "E4",
          "ticks": 18570,
          "time": 116.0625,
          "velocity": 1
        },
        {
          "duration": 0.17499999999998295,
          "durationTicks": 28,
          "midi": 66,
          "name": "F#4",
          "ticks": 18600,
          "time": 116.25,
          "velocity": 1
        },
        {
          "duration": 0.17499999999998295,
          "durationTicks": 28,
          "midi": 67,
          "name": "G4",
          "ticks": 18630,
          "time": 116.4375,
          "velocity": 1
        },
        {
          "duration": 0.17499999999998295,
          "durationTicks": 28,
          "midi": 69,
          "name": "A4",
          "ticks": 18660,
          "time": 116.625,
          "velocity": 1
        },
        {
          "duration": 0.17499999999998295,
          "durationTicks": 28,
          "midi": 71,
          "name": "B4",
          "ticks": 18690,
          "time": 116.8125,
          "velocity": 1
        },
        {
          "duration": 0.36249999999998295,
          "durationTicks": 58,
          "midi": 67,
          "name": "G4",
          "ticks": 18720,
          "time": 117,
          "velocity": 1
        },
        {
          "duration": 0.17499999999998295,
          "durationTicks": 28,
          "midi": 71,
          "name": "B4",
          "ticks": 18780,
          "time": 117.375,
          "velocity": 1
        },
        {
          "duration": 0.17499999999998295,
          "durationTicks": 28,
          "midi": 69,
          "name": "A4",
          "ticks": 18810,
          "time": 117.5625,
          "velocity": 1
        },
        {
          "duration": 0.36249999999998295,
          "durationTicks": 58,
          "midi": 71,
          "name": "B4",
          "ticks": 18840,
          "time": 117.75,
          "velocity": 1
        },
        {
          "duration": 0.17499999999998295,
          "durationTicks": 28,
          "midi": 73,
          "name": "C#5",
          "ticks": 18900,
          "time": 118.125,
          "velocity": 1
        },
        {
          "duration": 0.17499999999998295,
          "durationTicks": 28,
          "midi": 74,
          "name": "D5",
          "ticks": 18930,
          "time": 118.3125,
          "velocity": 1
        },
        {
          "duration": 0.17499999999998295,
          "durationTicks": 28,
          "midi": 69,
          "name": "A4",
          "ticks": 18960,
          "time": 118.5,
          "velocity": 1
        },
        {
          "duration": 0.17499999999998295,
          "durationTicks": 28,
          "midi": 71,
          "name": "B4",
          "ticks": 18990,
          "time": 118.6875,
          "velocity": 1
        },
        {
          "duration": 0.17499999999998295,
          "durationTicks": 28,
          "midi": 73,
          "name": "C#5",
          "ticks": 19020,
          "time": 118.875,
          "velocity": 1
        },
        {
          "duration": 0.17499999999998295,
          "durationTicks": 28,
          "midi": 74,
          "name": "D5",
          "ticks": 19050,
          "time": 119.0625,
          "velocity": 1
        },
        {
          "duration": 0.17499999999998295,
          "durationTicks": 28,
          "midi": 76,
          "name": "E5",
          "ticks": 19080,
          "time": 119.25,
          "velocity": 1
        },
        {
          "duration": 0.17499999999998295,
          "durationTicks": 28,
          "midi": 78,
          "name": "F#5",
          "ticks": 19110,
          "time": 119.4375,
          "velocity": 1
        },
        {
          "duration": 0.17499999999998295,
          "durationTicks": 28,
          "midi": 79,
          "name": "G5",
          "ticks": 19140,
          "time": 119.625,
          "velocity": 1
        },
        {
          "duration": 0.17499999999998295,
          "durationTicks": 28,
          "midi": 81,
          "name": "A5",
          "ticks": 19170,
          "time": 119.8125,
          "velocity": 1
        },
        {
          "duration": 0.36249999999998295,
          "durationTicks": 58,
          "midi": 78,
          "name": "F#5",
          "ticks": 19200,
          "time": 120,
          "velocity": 1
        },
        {
          "duration": 0.17499999999998295,
          "durationTicks": 28,
          "midi": 74,
          "name": "D5",
          "ticks": 19260,
          "time": 120.375,
          "velocity": 1
        },
        {
          "duration": 0.17499999999998295,
          "durationTicks": 28,
          "midi": 76,
          "name": "E5",
          "ticks": 19290,
          "time": 120.5625,
          "velocity": 1
        },
        {
          "duration": 0.36249999999998295,
          "durationTicks": 58,
          "midi": 78,
          "name": "F#5",
          "ticks": 19320,
          "time": 120.75,
          "velocity": 1
        },
        {
          "duration": 0.17499999999998295,
          "durationTicks": 28,
          "midi": 76,
          "name": "E5",
          "ticks": 19380,
          "time": 121.125,
          "velocity": 1
        },
        {
          "duration": 0.17499999999998295,
          "durationTicks": 28,
          "midi": 74,
          "name": "D5",
          "ticks": 19410,
          "time": 121.3125,
          "velocity": 1
        },
        {
          "duration": 0.17499999999998295,
          "durationTicks": 28,
          "midi": 76,
          "name": "E5",
          "ticks": 19440,
          "time": 121.5,
          "velocity": 1
        },
        {
          "duration": 0.17499999999998295,
          "durationTicks": 28,
          "midi": 73,
          "name": "C#5",
          "ticks": 19470,
          "time": 121.6875,
          "velocity": 1
        },
        {
          "duration": 0.17499999999998295,
          "durationTicks": 28,
          "midi": 74,
          "name": "D5",
          "ticks": 19500,
          "time": 121.875,
          "velocity": 1
        },
        {
          "duration": 0.17499999999998295,
          "durationTicks": 28,
          "midi": 76,
          "name": "E5",
          "ticks": 19530,
          "time": 122.0625,
          "velocity": 1
        },
        {
          "duration": 0.17499999999998295,
          "durationTicks": 28,
          "midi": 78,
          "name": "F#5",
          "ticks": 19560,
          "time": 122.25,
          "velocity": 1
        },
        {
          "duration": 0.17499999999998295,
          "durationTicks": 28,
          "midi": 76,
          "name": "E5",
          "ticks": 19590,
          "time": 122.4375,
          "velocity": 1
        },
        {
          "duration": 0.17499999999998295,
          "durationTicks": 28,
          "midi": 74,
          "name": "D5",
          "ticks": 19620,
          "time": 122.625,
          "velocity": 1
        },
        {
          "duration": 0.17499999999998295,
          "durationTicks": 28,
          "midi": 73,
          "name": "C#5",
          "ticks": 19650,
          "time": 122.8125,
          "velocity": 1
        },
        {
          "duration": 0.36249999999998295,
          "durationTicks": 58,
          "midi": 74,
          "name": "D5",
          "ticks": 19680,
          "time": 123,
          "velocity": 1
        },
        {
          "duration": 0.17499999999998295,
          "durationTicks": 28,
          "midi": 71,
          "name": "B4",
          "ticks": 19740,
          "time": 123.375,
          "velocity": 1
        },
        {
          "duration": 0.17499999999998295,
          "durationTicks": 28,
          "midi": 73,
          "name": "C#5",
          "ticks": 19770,
          "time": 123.5625,
          "velocity": 1
        },
        {
          "duration": 0.36249999999998295,
          "durationTicks": 58,
          "midi": 74,
          "name": "D5",
          "ticks": 19800,
          "time": 123.75,
          "velocity": 1
        },
        {
          "duration": 0.17499999999998295,
          "durationTicks": 28,
          "midi": 62,
          "name": "D4",
          "ticks": 19860,
          "time": 124.125,
          "velocity": 1
        },
        {
          "duration": 0.17499999999998295,
          "durationTicks": 28,
          "midi": 64,
          "name": "E4",
          "ticks": 19890,
          "time": 124.3125,
          "velocity": 1
        },
        {
          "duration": 0.17499999999998295,
          "durationTicks": 28,
          "midi": 66,
          "name": "F#4",
          "ticks": 19920,
          "time": 124.5,
          "velocity": 1
        },
        {
          "duration": 0.17499999999998295,
          "durationTicks": 28,
          "midi": 67,
          "name": "G4",
          "ticks": 19950,
          "time": 124.6875,
          "velocity": 1
        },
        {
          "duration": 0.17499999999998295,
          "durationTicks": 28,
          "midi": 66,
          "name": "F#4",
          "ticks": 19980,
          "time": 124.875,
          "velocity": 1
        },
        {
          "duration": 0.17499999999998295,
          "durationTicks": 28,
          "midi": 64,
          "name": "E4",
          "ticks": 20010,
          "time": 125.0625,
          "velocity": 1
        },
        {
          "duration": 0.17499999999998295,
          "durationTicks": 28,
          "midi": 66,
          "name": "F#4",
          "ticks": 20040,
          "time": 125.25,
          "velocity": 1
        },
        {
          "duration": 0.17499999999998295,
          "durationTicks": 28,
          "midi": 74,
          "name": "D5",
          "ticks": 20070,
          "time": 125.4375,
          "velocity": 1
        },
        {
          "duration": 0.17499999999998295,
          "durationTicks": 28,
          "midi": 73,
          "name": "C#5",
          "ticks": 20100,
          "time": 125.625,
          "velocity": 1
        },
        {
          "duration": 0.17499999999998295,
          "durationTicks": 28,
          "midi": 74,
          "name": "D5",
          "ticks": 20130,
          "time": 125.8125,
          "velocity": 1
        },
        {
          "duration": 0.36249999999998295,
          "durationTicks": 58,
          "midi": 71,
          "name": "B4",
          "ticks": 20160,
          "time": 126,
          "velocity": 1
        },
        {
          "duration": 0.17499999999998295,
          "durationTicks": 28,
          "midi": 74,
          "name": "D5",
          "ticks": 20220,
          "time": 126.375,
          "velocity": 1
        },
        {
          "duration": 0.17499999999998295,
          "durationTicks": 28,
          "midi": 73,
          "name": "C#5",
          "ticks": 20250,
          "time": 126.5625,
          "velocity": 1
        },
        {
          "duration": 0.36249999999998295,
          "durationTicks": 58,
          "midi": 71,
          "name": "B4",
          "ticks": 20280,
          "time": 126.75,
          "velocity": 1
        },
        {
          "duration": 0.17499999999998295,
          "durationTicks": 28,
          "midi": 69,
          "name": "A4",
          "ticks": 20340,
          "time": 127.125,
          "velocity": 1
        },
        {
          "duration": 0.17499999999998295,
          "durationTicks": 28,
          "midi": 67,
          "name": "G4",
          "ticks": 20370,
          "time": 127.3125,
          "velocity": 1
        },
        {
          "duration": 0.17499999999998295,
          "durationTicks": 28,
          "midi": 69,
          "name": "A4",
          "ticks": 20400,
          "time": 127.5,
          "velocity": 1
        },
        {
          "duration": 0.17499999999998295,
          "durationTicks": 28,
          "midi": 67,
          "name": "G4",
          "ticks": 20430,
          "time": 127.6875,
          "velocity": 1
        },
        {
          "duration": 0.17499999999998295,
          "durationTicks": 28,
          "midi": 66,
          "name": "F#4",
          "ticks": 20460,
          "time": 127.875,
          "velocity": 1
        },
        {
          "duration": 0.17499999999998295,
          "durationTicks": 28,
          "midi": 67,
          "name": "G4",
          "ticks": 20490,
          "time": 128.0625,
          "velocity": 1
        },
        {
          "duration": 0.17499999999998295,
          "durationTicks": 28,
          "midi": 69,
          "name": "A4",
          "ticks": 20520,
          "time": 128.25,
          "velocity": 1
        },
        {
          "duration": 0.17499999999998295,
          "durationTicks": 28,
          "midi": 71,
          "name": "B4",
          "ticks": 20550,
          "time": 128.4375,
          "velocity": 1
        },
        {
          "duration": 0.17499999999998295,
          "durationTicks": 28,
          "midi": 73,
          "name": "C#5",
          "ticks": 20580,
          "time": 128.625,
          "velocity": 1
        },
        {
          "duration": 0.17499999999998295,
          "durationTicks": 28,
          "midi": 74,
          "name": "D5",
          "ticks": 20610,
          "time": 128.8125,
          "velocity": 1
        },
        {
          "duration": 0.36249999999998295,
          "durationTicks": 58,
          "midi": 71,
          "name": "B4",
          "ticks": 20640,
          "time": 129,
          "velocity": 1
        },
        {
          "duration": 0.17499999999998295,
          "durationTicks": 28,
          "midi": 74,
          "name": "D5",
          "ticks": 20700,
          "time": 129.375,
          "velocity": 1
        },
        {
          "duration": 0.17499999999998295,
          "durationTicks": 28,
          "midi": 73,
          "name": "C#5",
          "ticks": 20730,
          "time": 129.5625,
          "velocity": 1
        },
        {
          "duration": 0.36249999999998295,
          "durationTicks": 58,
          "midi": 74,
          "name": "D5",
          "ticks": 20760,
          "time": 129.75,
          "velocity": 1
        },
        {
          "duration": 0.17499999999998295,
          "durationTicks": 28,
          "midi": 73,
          "name": "C#5",
          "ticks": 20820,
          "time": 130.125,
          "velocity": 1
        },
        {
          "duration": 0.17499999999998295,
          "durationTicks": 28,
          "midi": 71,
          "name": "B4",
          "ticks": 20850,
          "time": 130.3125,
          "velocity": 1
        },
        {
          "duration": 0.17499999999998295,
          "durationTicks": 28,
          "midi": 73,
          "name": "C#5",
          "ticks": 20880,
          "time": 130.5,
          "velocity": 1
        },
        {
          "duration": 0.17499999999998295,
          "durationTicks": 28,
          "midi": 74,
          "name": "D5",
          "ticks": 20910,
          "time": 130.6875,
          "velocity": 1
        },
        {
          "duration": 0.17499999999998295,
          "durationTicks": 28,
          "midi": 76,
          "name": "E5",
          "ticks": 20940,
          "time": 130.875,
          "velocity": 1
        },
        {
          "duration": 0.17499999999998295,
          "durationTicks": 28,
          "midi": 74,
          "name": "D5",
          "ticks": 20970,
          "time": 131.0625,
          "velocity": 1
        },
        {
          "duration": 0.17499999999998295,
          "durationTicks": 28,
          "midi": 73,
          "name": "C#5",
          "ticks": 21000,
          "time": 131.25,
          "velocity": 1
        },
        {
          "duration": 0.17499999999998295,
          "durationTicks": 28,
          "midi": 74,
          "name": "D5",
          "ticks": 21030,
          "time": 131.4375,
          "velocity": 1
        },
        {
          "duration": 0.17499999999998295,
          "durationTicks": 28,
          "midi": 71,
          "name": "B4",
          "ticks": 21060,
          "time": 131.625,
          "velocity": 1
        },
        {
          "duration": 0.17499999999998295,
          "durationTicks": 28,
          "midi": 73,
          "name": "C#5",
          "ticks": 21090,
          "time": 131.8125,
          "velocity": 1
        },
        {
          "duration": 0.737499999999983,
          "durationTicks": 118,
          "midi": 74,
          "name": "D5",
          "ticks": 21120,
          "time": 132,
          "velocity": 1
        },
        {
          "duration": 0.737499999999983,
          "durationTicks": 118,
          "midi": 73,
          "name": "C#5",
          "ticks": 21360,
          "time": 133.5,
          "velocity": 1
        },
        {
          "duration": 0.737499999999983,
          "durationTicks": 118,
          "midi": 71,
          "name": "B4",
          "ticks": 21600,
          "time": 135,
          "velocity": 1
        },
        {
          "duration": 0.737499999999983,
          "durationTicks": 118,
          "midi": 74,
          "name": "D5",
          "ticks": 21840,
          "time": 136.5,
          "velocity": 1
        },
        {
          "duration": 0.737499999999983,
          "durationTicks": 118,
          "midi": 62,
          "name": "D4",
          "ticks": 22080,
          "time": 138,
          "velocity": 1
        },
        {
          "duration": 0.737499999999983,
          "durationTicks": 118,
          "midi": 62,
          "name": "D4",
          "ticks": 22320,
          "time": 139.5,
          "velocity": 1
        },
        {
          "duration": 0.737499999999983,
          "durationTicks": 118,
          "midi": 62,
          "name": "D4",
          "ticks": 22560,
          "time": 141,
          "velocity": 1
        },
        {
          "duration": 0.737499999999983,
          "durationTicks": 118,
          "midi": 64,
          "name": "E4",
          "ticks": 22800,
          "time": 142.5,
          "velocity": 1
        },
        {
          "duration": 0.737499999999983,
          "durationTicks": 118,
          "midi": 69,
          "name": "A4",
          "ticks": 23160,
          "time": 144.75,
          "velocity": 1
        },
        {
          "duration": 0.737499999999983,
          "durationTicks": 118,
          "midi": 69,
          "name": "A4",
          "ticks": 23400,
          "time": 146.25,
          "velocity": 1
        },
        {
          "duration": 0.737499999999983,
          "durationTicks": 118,
          "midi": 66,
          "name": "F#4",
          "ticks": 23640,
          "time": 147.75,
          "velocity": 1
        },
        {
          "duration": 0.737499999999983,
          "durationTicks": 118,
          "midi": 69,
          "name": "A4",
          "ticks": 23880,
          "time": 149.25,
          "velocity": 1
        },
        {
          "duration": 0.737499999999983,
          "durationTicks": 118,
          "midi": 67,
          "name": "G4",
          "ticks": 24120,
          "time": 150.75,
          "velocity": 1
        },
        {
          "duration": 0.737499999999983,
          "durationTicks": 118,
          "midi": 66,
          "name": "F#4",
          "ticks": 24360,
          "time": 152.25,
          "velocity": 1
        },
        {
          "duration": 0.737499999999983,
          "durationTicks": 118,
          "midi": 67,
          "name": "G4",
          "ticks": 24600,
          "time": 153.75,
          "velocity": 1
        },
        {
          "duration": 0.737499999999983,
          "durationTicks": 118,
          "midi": 76,
          "name": "E5",
          "ticks": 24840,
          "time": 155.25,
          "velocity": 1
        },
        {
          "duration": 0.36249999999998295,
          "durationTicks": 58,
          "midi": 78,
          "name": "F#5",
          "ticks": 24960,
          "time": 156,
          "velocity": 1
        },
        {
          "duration": 0.36249999999998295,
          "durationTicks": 58,
          "midi": 66,
          "name": "F#4",
          "ticks": 25020,
          "time": 156.375,
          "velocity": 1
        },
        {
          "duration": 0.36249999999998295,
          "durationTicks": 58,
          "midi": 67,
          "name": "G4",
          "ticks": 25080,
          "time": 156.75,
          "velocity": 1
        },
        {
          "duration": 0.36249999999998295,
          "durationTicks": 58,
          "midi": 66,
          "name": "F#4",
          "ticks": 25140,
          "time": 157.125,
          "velocity": 1
        },
        {
          "duration": 0.36249999999998295,
          "durationTicks": 58,
          "midi": 64,
          "name": "E4",
          "ticks": 25200,
          "time": 157.5,
          "velocity": 1
        },
        {
          "duration": 0.36249999999998295,
          "durationTicks": 58,
          "midi": 76,
          "name": "E5",
          "ticks": 25260,
          "time": 157.875,
          "velocity": 1
        },
        {
          "duration": 0.36249999999998295,
          "durationTicks": 58,
          "midi": 78,
          "name": "F#5",
          "ticks": 25320,
          "time": 158.25,
          "velocity": 1
        },
        {
          "duration": 0.36249999999998295,
          "durationTicks": 58,
          "midi": 76,
          "name": "E5",
          "ticks": 25380,
          "time": 158.625,
          "velocity": 1
        },
        {
          "duration": 0.36249999999998295,
          "durationTicks": 58,
          "midi": 74,
          "name": "D5",
          "ticks": 25440,
          "time": 159,
          "velocity": 1
        },
        {
          "duration": 0.36249999999998295,
          "durationTicks": 58,
          "midi": 66,
          "name": "F#4",
          "ticks": 25500,
          "time": 159.375,
          "velocity": 1
        },
        {
          "duration": 0.36249999999998295,
          "durationTicks": 58,
          "midi": 62,
          "name": "D4",
          "ticks": 25560,
          "time": 159.75,
          "velocity": 1
        },
        {
          "duration": 0.36249999999998295,
          "durationTicks": 58,
          "midi": 71,
          "name": "B4",
          "ticks": 25620,
          "time": 160.125,
          "velocity": 1
        },
        {
          "duration": 0.36249999999998295,
          "durationTicks": 58,
          "midi": 69,
          "name": "A4",
          "ticks": 25680,
          "time": 160.5,
          "velocity": 1
        },
        {
          "duration": 0.36249999999998295,
          "durationTicks": 58,
          "midi": 57,
          "name": "A3",
          "ticks": 25740,
          "time": 160.875,
          "velocity": 1
        },
        {
          "duration": 0.36249999999998295,
          "durationTicks": 58,
          "midi": 55,
          "name": "G3",
          "ticks": 25800,
          "time": 161.25,
          "velocity": 1
        },
        {
          "duration": 0.36249999999998295,
          "durationTicks": 58,
          "midi": 57,
          "name": "A3",
          "ticks": 25860,
          "time": 161.625,
          "velocity": 1
        },
        {
          "duration": 0.36249999999998295,
          "durationTicks": 58,
          "midi": 59,
          "name": "B3",
          "ticks": 25920,
          "time": 162,
          "velocity": 1
        },
        {
          "duration": 0.36249999999998295,
          "durationTicks": 58,
          "midi": 71,
          "name": "B4",
          "ticks": 25980,
          "time": 162.375,
          "velocity": 1
        },
        {
          "duration": 0.36249999999998295,
          "durationTicks": 58,
          "midi": 73,
          "name": "C#5",
          "ticks": 26040,
          "time": 162.75,
          "velocity": 1
        },
        {
          "duration": 0.36249999999998295,
          "durationTicks": 58,
          "midi": 71,
          "name": "B4",
          "ticks": 26100,
          "time": 163.125,
          "velocity": 1
        },
        {
          "duration": 0.36249999999998295,
          "durationTicks": 58,
          "midi": 69,
          "name": "A4",
          "ticks": 26160,
          "time": 163.5,
          "velocity": 1
        },
        {
          "duration": 0.36249999999998295,
          "durationTicks": 58,
          "midi": 57,
          "name": "A3",
          "ticks": 26220,
          "time": 163.875,
          "velocity": 1
        },
        {
          "duration": 0.36249999999998295,
          "durationTicks": 58,
          "midi": 55,
          "name": "G3",
          "ticks": 26280,
          "time": 164.25,
          "velocity": 1
        },
        {
          "duration": 0.36249999999998295,
          "durationTicks": 58,
          "midi": 57,
          "name": "A3",
          "ticks": 26340,
          "time": 164.625,
          "velocity": 1
        },
        {
          "duration": 0.36249999999998295,
          "durationTicks": 58,
          "midi": 59,
          "name": "B3",
          "ticks": 26400,
          "time": 165,
          "velocity": 1
        },
        {
          "duration": 0.36249999999998295,
          "durationTicks": 58,
          "midi": 71,
          "name": "B4",
          "ticks": 26460,
          "time": 165.375,
          "velocity": 1
        },
        {
          "duration": 0.36249999999998295,
          "durationTicks": 58,
          "midi": 69,
          "name": "A4",
          "ticks": 26520,
          "time": 165.75,
          "velocity": 1
        },
        {
          "duration": 0.36249999999998295,
          "durationTicks": 58,
          "midi": 71,
          "name": "B4",
          "ticks": 26580,
          "time": 166.125,
          "velocity": 1
        },
        {
          "duration": 0.36249999999998295,
          "durationTicks": 58,
          "midi": 73,
          "name": "C#5",
          "ticks": 26640,
          "time": 166.5,
          "velocity": 1
        },
        {
          "duration": 0.36249999999998295,
          "durationTicks": 58,
          "midi": 61,
          "name": "C#4",
          "ticks": 26700,
          "time": 166.875,
          "velocity": 1
        },
        {
          "duration": 0.36249999999998295,
          "durationTicks": 58,
          "midi": 59,
          "name": "B3",
          "ticks": 26760,
          "time": 167.25,
          "velocity": 1
        },
        {
          "duration": 0.36249999999998295,
          "durationTicks": 58,
          "midi": 61,
          "name": "C#4",
          "ticks": 26820,
          "time": 167.625,
          "velocity": 1
        },
        {
          "duration": 0.36249999999998295,
          "durationTicks": 58,
          "midi": 62,
          "name": "D4",
          "ticks": 26880,
          "time": 168,
          "velocity": 1
        },
        {
          "duration": 0.36249999999998295,
          "durationTicks": 58,
          "midi": 74,
          "name": "D5",
          "ticks": 26940,
          "time": 168.375,
          "velocity": 1
        },
        {
          "duration": 0.36249999999998295,
          "durationTicks": 58,
          "midi": 76,
          "name": "E5",
          "ticks": 27000,
          "time": 168.75,
          "velocity": 1
        },
        {
          "duration": 0.36249999999998295,
          "durationTicks": 58,
          "midi": 74,
          "name": "D5",
          "ticks": 27060,
          "time": 169.125,
          "velocity": 1
        },
        {
          "duration": 0.36249999999998295,
          "durationTicks": 58,
          "midi": 73,
          "name": "C#5",
          "ticks": 27120,
          "time": 169.5,
          "velocity": 1
        },
        {
          "duration": 0.36249999999998295,
          "durationTicks": 58,
          "midi": 61,
          "name": "C#4",
          "ticks": 27180,
          "time": 169.875,
          "velocity": 1
        },
        {
          "duration": 0.36249999999998295,
          "durationTicks": 58,
          "midi": 62,
          "name": "D4",
          "ticks": 27240,
          "time": 170.25,
          "velocity": 1
        },
        {
          "duration": 0.36249999999998295,
          "durationTicks": 58,
          "midi": 61,
          "name": "C#4",
          "ticks": 27300,
          "time": 170.625,
          "velocity": 1
        },
        {
          "duration": 0.36249999999998295,
          "durationTicks": 58,
          "midi": 59,
          "name": "B3",
          "ticks": 27360,
          "time": 171,
          "velocity": 1
        },
        {
          "duration": 0.36249999999998295,
          "durationTicks": 58,
          "midi": 71,
          "name": "B4",
          "ticks": 27420,
          "time": 171.375,
          "velocity": 1
        },
        {
          "duration": 0.36249999999998295,
          "durationTicks": 58,
          "midi": 69,
          "name": "A4",
          "ticks": 27480,
          "time": 171.75,
          "velocity": 1
        },
        {
          "duration": 0.36249999999998295,
          "durationTicks": 58,
          "midi": 71,
          "name": "B4",
          "ticks": 27540,
          "time": 172.125,
          "velocity": 1
        },
        {
          "duration": 0.36249999999998295,
          "durationTicks": 58,
          "midi": 73,
          "name": "C#5",
          "ticks": 27600,
          "time": 172.5,
          "velocity": 1
        },
        {
          "duration": 0.36249999999998295,
          "durationTicks": 58,
          "midi": 61,
          "name": "C#4",
          "ticks": 27660,
          "time": 172.875,
          "velocity": 1
        },
        {
          "duration": 0.36249999999998295,
          "durationTicks": 58,
          "midi": 66,
          "name": "F#4",
          "ticks": 27720,
          "time": 173.25,
          "velocity": 1
        },
        {
          "duration": 0.36249999999998295,
          "durationTicks": 58,
          "midi": 64,
          "name": "E4",
          "ticks": 27780,
          "time": 173.625,
          "velocity": 1
        },
        {
          "duration": 0.36249999999998295,
          "durationTicks": 58,
          "midi": 62,
          "name": "D4",
          "ticks": 27840,
          "time": 174,
          "velocity": 1
        },
        {
          "duration": 0.36249999999998295,
          "durationTicks": 58,
          "midi": 74,
          "name": "D5",
          "ticks": 27900,
          "time": 174.375,
          "velocity": 1
        },
        {
          "duration": 0.36249999999998295,
          "durationTicks": 58,
          "midi": 76,
          "name": "E5",
          "ticks": 27960,
          "time": 174.75,
          "velocity": 1
        },
        {
          "duration": 0.36249999999998295,
          "durationTicks": 58,
          "midi": 79,
          "name": "G5",
          "ticks": 28020,
          "time": 175.125,
          "velocity": 1
        },
        {
          "duration": 0.36249999999998295,
          "durationTicks": 58,
          "midi": 78,
          "name": "F#5",
          "ticks": 28080,
          "time": 175.5,
          "velocity": 1
        },
        {
          "duration": 0.36249999999998295,
          "durationTicks": 58,
          "midi": 66,
          "name": "F#4",
          "ticks": 28140,
          "time": 175.875,
          "velocity": 1
        },
        {
          "duration": 0.36249999999998295,
          "durationTicks": 58,
          "midi": 69,
          "name": "A4",
          "ticks": 28200,
          "time": 176.25,
          "velocity": 1
        },
        {
          "duration": 0.36249999999998295,
          "durationTicks": 58,
          "midi": 78,
          "name": "F#5",
          "ticks": 28260,
          "time": 176.625,
          "velocity": 1
        },
        {
          "duration": 0.36249999999998295,
          "durationTicks": 58,
          "midi": 74,
          "name": "D5",
          "ticks": 28320,
          "time": 177,
          "velocity": 1
        },
        {
          "duration": 0.36249999999998295,
          "durationTicks": 58,
          "midi": 79,
          "name": "G5",
          "ticks": 28380,
          "time": 177.375,
          "velocity": 1
        },
        {
          "duration": 0.36249999999998295,
          "durationTicks": 58,
          "midi": 78,
          "name": "F#5",
          "ticks": 28440,
          "time": 177.75,
          "velocity": 1
        },
        {
          "duration": 0.36249999999998295,
          "durationTicks": 58,
          "midi": 79,
          "name": "G5",
          "ticks": 28500,
          "time": 178.125,
          "velocity": 1
        },
        {
          "duration": 0.36249999999998295,
          "durationTicks": 58,
          "midi": 76,
          "name": "E5",
          "ticks": 28560,
          "time": 178.5,
          "velocity": 1
        },
        {
          "duration": 0.36249999999998295,
          "durationTicks": 58,
          "midi": 69,
          "name": "A4",
          "ticks": 28620,
          "time": 178.875,
          "velocity": 1
        },
        {
          "duration": 0.36249999999998295,
          "durationTicks": 58,
          "midi": 67,
          "name": "G4",
          "ticks": 28680,
          "time": 179.25,
          "velocity": 1
        },
        {
          "duration": 0.36249999999998295,
          "durationTicks": 58,
          "midi": 69,
          "name": "A4",
          "ticks": 28740,
          "time": 179.625,
          "velocity": 1
        },
        {
          "duration": 0.36249999999998295,
          "durationTicks": 58,
          "midi": 66,
          "name": "F#4",
          "ticks": 28800,
          "time": 180,
          "velocity": 1
        },
        {
          "duration": 0.36249999999998295,
          "durationTicks": 58,
          "midi": 69,
          "name": "A4",
          "ticks": 28860,
          "time": 180.375,
          "velocity": 1
        },
        {
          "duration": 0.36249999999998295,
          "durationTicks": 58,
          "midi": 69,
          "name": "A4",
          "ticks": 28920,
          "time": 180.75,
          "velocity": 1
        },
        {
          "duration": 0.36249999999998295,
          "durationTicks": 58,
          "midi": 69,
          "name": "A4",
          "ticks": 28980,
          "time": 181.125,
          "velocity": 1
        },
        {
          "duration": 0.36249999999998295,
          "durationTicks": 58,
          "midi": 69,
          "name": "A4",
          "ticks": 29040,
          "time": 181.5,
          "velocity": 1
        },
        {
          "duration": 0.36249999999998295,
          "durationTicks": 58,
          "midi": 69,
          "name": "A4",
          "ticks": 29100,
          "time": 181.875,
          "velocity": 1
        },
        {
          "duration": 0.36249999999998295,
          "durationTicks": 58,
          "midi": 69,
          "name": "A4",
          "ticks": 29160,
          "time": 182.25,
          "velocity": 1
        },
        {
          "duration": 0.36249999999998295,
          "durationTicks": 58,
          "midi": 69,
          "name": "A4",
          "ticks": 29220,
          "time": 182.625,
          "velocity": 1
        },
        {
          "duration": 0.36249999999998295,
          "durationTicks": 58,
          "midi": 66,
          "name": "F#4",
          "ticks": 29280,
          "time": 183,
          "velocity": 1
        },
        {
          "duration": 0.36249999999998295,
          "durationTicks": 58,
          "midi": 66,
          "name": "F#4",
          "ticks": 29340,
          "time": 183.375,
          "velocity": 1
        },
        {
          "duration": 0.36249999999998295,
          "durationTicks": 58,
          "midi": 66,
          "name": "F#4",
          "ticks": 29400,
          "time": 183.75,
          "velocity": 1
        },
        {
          "duration": 0.36249999999998295,
          "durationTicks": 58,
          "midi": 66,
          "name": "F#4",
          "ticks": 29460,
          "time": 184.125,
          "velocity": 1
        },
        {
          "duration": 0.36249999999998295,
          "durationTicks": 58,
          "midi": 66,
          "name": "F#4",
          "ticks": 29520,
          "time": 184.5,
          "velocity": 1
        },
        {
          "duration": 0.36249999999998295,
          "durationTicks": 58,
          "midi": 66,
          "name": "F#4",
          "ticks": 29580,
          "time": 184.875,
          "velocity": 1
        },
        {
          "duration": 0.36249999999998295,
          "durationTicks": 58,
          "midi": 69,
          "name": "A4",
          "ticks": 29640,
          "time": 185.25,
          "velocity": 1
        },
        {
          "duration": 0.36249999999998295,
          "durationTicks": 58,
          "midi": 69,
          "name": "A4",
          "ticks": 29700,
          "time": 185.625,
          "velocity": 1
        },
        {
          "duration": 0.36249999999998295,
          "durationTicks": 58,
          "midi": 67,
          "name": "G4",
          "ticks": 29760,
          "time": 186,
          "velocity": 1
        },
        {
          "duration": 0.36249999999998295,
          "durationTicks": 58,
          "midi": 67,
          "name": "G4",
          "ticks": 29820,
          "time": 186.375,
          "velocity": 1
        },
        {
          "duration": 0.36249999999998295,
          "durationTicks": 58,
          "midi": 67,
          "name": "G4",
          "ticks": 29880,
          "time": 186.75,
          "velocity": 1
        },
        {
          "duration": 0.36249999999998295,
          "durationTicks": 58,
          "midi": 74,
          "name": "D5",
          "ticks": 29940,
          "time": 187.125,
          "velocity": 1
        },
        {
          "duration": 0.36249999999998295,
          "durationTicks": 58,
          "midi": 74,
          "name": "D5",
          "ticks": 30000,
          "time": 187.5,
          "velocity": 1
        },
        {
          "duration": 0.36249999999998295,
          "durationTicks": 58,
          "midi": 74,
          "name": "D5",
          "ticks": 30060,
          "time": 187.875,
          "velocity": 1
        },
        {
          "duration": 0.36249999999998295,
          "durationTicks": 58,
          "midi": 74,
          "name": "D5",
          "ticks": 30120,
          "time": 188.25,
          "velocity": 1
        },
        {
          "duration": 0.36249999999998295,
          "durationTicks": 58,
          "midi": 74,
          "name": "D5",
          "ticks": 30180,
          "time": 188.625,
          "velocity": 1
        },
        {
          "duration": 0.36249999999998295,
          "durationTicks": 58,
          "midi": 74,
          "name": "D5",
          "ticks": 30240,
          "time": 189,
          "velocity": 1
        },
        {
          "duration": 0.36249999999998295,
          "durationTicks": 58,
          "midi": 74,
          "name": "D5",
          "ticks": 30300,
          "time": 189.375,
          "velocity": 1
        },
        {
          "duration": 0.36249999999998295,
          "durationTicks": 58,
          "midi": 71,
          "name": "B4",
          "ticks": 30360,
          "time": 189.75,
          "velocity": 1
        },
        {
          "duration": 0.36249999999998295,
          "durationTicks": 58,
          "midi": 71,
          "name": "B4",
          "ticks": 30420,
          "time": 190.125,
          "velocity": 1
        },
        {
          "duration": 0.36249999999998295,
          "durationTicks": 58,
          "midi": 69,
          "name": "A4",
          "ticks": 30480,
          "time": 190.5,
          "velocity": 1
        },
        {
          "duration": 0.36249999999998295,
          "durationTicks": 58,
          "midi": 69,
          "name": "A4",
          "ticks": 30540,
          "time": 190.875,
          "velocity": 1
        },
        {
          "duration": 0.36249999999998295,
          "durationTicks": 58,
          "midi": 76,
          "name": "E5",
          "ticks": 30600,
          "time": 191.25,
          "velocity": 1
        },
        {
          "duration": 0.36249999999998295,
          "durationTicks": 58,
          "midi": 73,
          "name": "C#5",
          "ticks": 30660,
          "time": 191.625,
          "velocity": 1
        },
        {
          "duration": 0.36250000000001137,
          "durationTicks": 58,
          "midi": 69,
          "name": "A4",
          "ticks": 30720,
          "time": 192,
          "velocity": 1
        },
        {
          "duration": 0.36250000000001137,
          "durationTicks": 58,
          "midi": 78,
          "name": "F#5",
          "ticks": 30780,
          "time": 192.375,
          "velocity": 1
        },
        {
          "duration": 0.36250000000001137,
          "durationTicks": 58,
          "midi": 78,
          "name": "F#5",
          "ticks": 30840,
          "time": 192.75,
          "velocity": 1
        },
        {
          "duration": 0.36250000000001137,
          "durationTicks": 58,
          "midi": 78,
          "name": "F#5",
          "ticks": 30900,
          "time": 193.125,
          "velocity": 1
        },
        {
          "duration": 0.36250000000001137,
          "durationTicks": 58,
          "midi": 76,
          "name": "E5",
          "ticks": 30960,
          "time": 193.5,
          "velocity": 1
        },
        {
          "duration": 0.36250000000001137,
          "durationTicks": 58,
          "midi": 76,
          "name": "E5",
          "ticks": 31020,
          "time": 193.875,
          "velocity": 1
        },
        {
          "duration": 0.36250000000001137,
          "durationTicks": 58,
          "midi": 76,
          "name": "E5",
          "ticks": 31080,
          "time": 194.25,
          "velocity": 1
        },
        {
          "duration": 0.36250000000001137,
          "durationTicks": 58,
          "midi": 76,
          "name": "E5",
          "ticks": 31140,
          "time": 194.625,
          "velocity": 1
        },
        {
          "duration": 0.36250000000001137,
          "durationTicks": 58,
          "midi": 74,
          "name": "D5",
          "ticks": 31200,
          "time": 195,
          "velocity": 1
        },
        {
          "duration": 0.36250000000001137,
          "durationTicks": 58,
          "midi": 74,
          "name": "D5",
          "ticks": 31260,
          "time": 195.375,
          "velocity": 1
        },
        {
          "duration": 0.36250000000001137,
          "durationTicks": 58,
          "midi": 74,
          "name": "D5",
          "ticks": 31320,
          "time": 195.75,
          "velocity": 1
        },
        {
          "duration": 0.36250000000001137,
          "durationTicks": 58,
          "midi": 74,
          "name": "D5",
          "ticks": 31380,
          "time": 196.125,
          "velocity": 1
        },
        {
          "duration": 0.36250000000001137,
          "durationTicks": 58,
          "midi": 81,
          "name": "A5",
          "ticks": 31440,
          "time": 196.5,
          "velocity": 1
        },
        {
          "duration": 0.36250000000001137,
          "durationTicks": 58,
          "midi": 81,
          "name": "A5",
          "ticks": 31500,
          "time": 196.875,
          "velocity": 1
        },
        {
          "duration": 0.36250000000001137,
          "durationTicks": 58,
          "midi": 81,
          "name": "A5",
          "ticks": 31560,
          "time": 197.25,
          "velocity": 1
        },
        {
          "duration": 0.36250000000001137,
          "durationTicks": 58,
          "midi": 81,
          "name": "A5",
          "ticks": 31620,
          "time": 197.625,
          "velocity": 1
        },
        {
          "duration": 0.36250000000001137,
          "durationTicks": 58,
          "midi": 83,
          "name": "B5",
          "ticks": 31680,
          "time": 198,
          "velocity": 1
        },
        {
          "duration": 0.36250000000001137,
          "durationTicks": 58,
          "midi": 83,
          "name": "B5",
          "ticks": 31740,
          "time": 198.375,
          "velocity": 1
        },
        {
          "duration": 0.36250000000001137,
          "durationTicks": 58,
          "midi": 83,
          "name": "B5",
          "ticks": 31800,
          "time": 198.75,
          "velocity": 1
        },
        {
          "duration": 0.36250000000001137,
          "durationTicks": 58,
          "midi": 83,
          "name": "B5",
          "ticks": 31860,
          "time": 199.125,
          "velocity": 1
        },
        {
          "duration": 0.36250000000001137,
          "durationTicks": 58,
          "midi": 81,
          "name": "A5",
          "ticks": 31920,
          "time": 199.5,
          "velocity": 1
        },
        {
          "duration": 0.36250000000001137,
          "durationTicks": 58,
          "midi": 81,
          "name": "A5",
          "ticks": 31980,
          "time": 199.875,
          "velocity": 1
        },
        {
          "duration": 0.36250000000001137,
          "durationTicks": 58,
          "midi": 81,
          "name": "A5",
          "ticks": 32040,
          "time": 200.25,
          "velocity": 1
        },
        {
          "duration": 0.36250000000001137,
          "durationTicks": 58,
          "midi": 81,
          "name": "A5",
          "ticks": 32100,
          "time": 200.625,
          "velocity": 1
        },
        {
          "duration": 0.36250000000001137,
          "durationTicks": 58,
          "midi": 83,
          "name": "B5",
          "ticks": 32160,
          "time": 201,
          "velocity": 1
        },
        {
          "duration": 0.36250000000001137,
          "durationTicks": 58,
          "midi": 83,
          "name": "B5",
          "ticks": 32220,
          "time": 201.375,
          "velocity": 1
        },
        {
          "duration": 0.36250000000001137,
          "durationTicks": 58,
          "midi": 83,
          "name": "B5",
          "ticks": 32280,
          "time": 201.75,
          "velocity": 1
        },
        {
          "duration": 0.36250000000001137,
          "durationTicks": 58,
          "midi": 83,
          "name": "B5",
          "ticks": 32340,
          "time": 202.125,
          "velocity": 1
        },
        {
          "duration": 0.36250000000001137,
          "durationTicks": 58,
          "midi": 85,
          "name": "C#6",
          "ticks": 32400,
          "time": 202.5,
          "velocity": 1
        },
        {
          "duration": 0.36250000000001137,
          "durationTicks": 58,
          "midi": 73,
          "name": "C#5",
          "ticks": 32460,
          "time": 202.875,
          "velocity": 1
        },
        {
          "duration": 0.36250000000001137,
          "durationTicks": 58,
          "midi": 73,
          "name": "C#5",
          "ticks": 32520,
          "time": 203.25,
          "velocity": 1
        },
        {
          "duration": 0.36250000000001137,
          "durationTicks": 58,
          "midi": 73,
          "name": "C#5",
          "ticks": 32580,
          "time": 203.625,
          "velocity": 1
        },
        {
          "duration": 0.36250000000001137,
          "durationTicks": 58,
          "midi": 74,
          "name": "D5",
          "ticks": 32640,
          "time": 204,
          "velocity": 1
        },
        {
          "duration": 0.17500000000001137,
          "durationTicks": 28,
          "midi": 62,
          "name": "D4",
          "ticks": 32700,
          "time": 204.375,
          "velocity": 1
        },
        {
          "duration": 0.17500000000001137,
          "durationTicks": 28,
          "midi": 64,
          "name": "E4",
          "ticks": 32730,
          "time": 204.5625,
          "velocity": 1
        },
        {
          "duration": 0.36250000000001137,
          "durationTicks": 58,
          "midi": 66,
          "name": "F#4",
          "ticks": 32760,
          "time": 204.75,
          "velocity": 1
        },
        {
          "duration": 0.36250000000001137,
          "durationTicks": 58,
          "midi": 62,
          "name": "D4",
          "ticks": 32820,
          "time": 205.125,
          "velocity": 1
        },
        {
          "duration": 0.36250000000001137,
          "durationTicks": 58,
          "midi": 61,
          "name": "C#4",
          "ticks": 32880,
          "time": 205.5,
          "velocity": 1
        },
        {
          "duration": 0.17500000000001137,
          "durationTicks": 28,
          "midi": 73,
          "name": "C#5",
          "ticks": 32940,
          "time": 205.875,
          "velocity": 1
        },
        {
          "duration": 0.17500000000001137,
          "durationTicks": 28,
          "midi": 74,
          "name": "D5",
          "ticks": 32970,
          "time": 206.0625,
          "velocity": 1
        },
        {
          "duration": 0.36250000000001137,
          "durationTicks": 58,
          "midi": 76,
          "name": "E5",
          "ticks": 33000,
          "time": 206.25,
          "velocity": 1
        },
        {
          "duration": 0.36250000000001137,
          "durationTicks": 58,
          "midi": 73,
          "name": "C#5",
          "ticks": 33060,
          "time": 206.625,
          "velocity": 1
        },
        {
          "duration": 0.36250000000001137,
          "durationTicks": 58,
          "midi": 71,
          "name": "B4",
          "ticks": 33120,
          "time": 207,
          "velocity": 1
        },
        {
          "duration": 0.17500000000001137,
          "durationTicks": 28,
          "midi": 59,
          "name": "B3",
          "ticks": 33180,
          "time": 207.375,
          "velocity": 1
        },
        {
          "duration": 0.17500000000001137,
          "durationTicks": 28,
          "midi": 61,
          "name": "C#4",
          "ticks": 33210,
          "time": 207.5625,
          "velocity": 1
        },
        {
          "duration": 0.36250000000001137,
          "durationTicks": 58,
          "midi": 62,
          "name": "D4",
          "ticks": 33240,
          "time": 207.75,
          "velocity": 1
        },
        {
          "duration": 0.36250000000001137,
          "durationTicks": 58,
          "midi": 59,
          "name": "B3",
          "ticks": 33300,
          "time": 208.125,
          "velocity": 1
        },
        {
          "duration": 0.36250000000001137,
          "durationTicks": 58,
          "midi": 61,
          "name": "C#4",
          "ticks": 33360,
          "time": 208.5,
          "velocity": 1
        },
        {
          "duration": 0.17500000000001137,
          "durationTicks": 28,
          "midi": 69,
          "name": "A4",
          "ticks": 33420,
          "time": 208.875,
          "velocity": 1
        },
        {
          "duration": 0.17500000000001137,
          "durationTicks": 28,
          "midi": 67,
          "name": "G4",
          "ticks": 33450,
          "time": 209.0625,
          "velocity": 1
        },
        {
          "duration": 0.36250000000001137,
          "durationTicks": 58,
          "midi": 66,
          "name": "F#4",
          "ticks": 33480,
          "time": 209.25,
          "velocity": 1
        },
        {
          "duration": 0.36250000000001137,
          "durationTicks": 58,
          "midi": 64,
          "name": "E4",
          "ticks": 33540,
          "time": 209.625,
          "velocity": 1
        },
        {
          "duration": 0.36250000000001137,
          "durationTicks": 58,
          "midi": 62,
          "name": "D4",
          "ticks": 33600,
          "time": 210,
          "velocity": 1
        },
        {
          "duration": 0.17500000000001137,
          "durationTicks": 28,
          "midi": 67,
          "name": "G4",
          "ticks": 33660,
          "time": 210.375,
          "velocity": 1
        },
        {
          "duration": 0.17500000000001137,
          "durationTicks": 28,
          "midi": 66,
          "name": "F#4",
          "ticks": 33690,
          "time": 210.5625,
          "velocity": 1
        },
        {
          "duration": 0.36250000000001137,
          "durationTicks": 58,
          "midi": 64,
          "name": "E4",
          "ticks": 33720,
          "time": 210.75,
          "velocity": 1
        },
        {
          "duration": 0.36250000000001137,
          "durationTicks": 58,
          "midi": 67,
          "name": "G4",
          "ticks": 33780,
          "time": 211.125,
          "velocity": 1
        },
        {
          "duration": 0.36250000000001137,
          "durationTicks": 58,
          "midi": 66,
          "name": "F#4",
          "ticks": 33840,
          "time": 211.5,
          "velocity": 1
        },
        {
          "duration": 0.17500000000001137,
          "durationTicks": 28,
          "midi": 62,
          "name": "D4",
          "ticks": 33900,
          "time": 211.875,
          "velocity": 1
        },
        {
          "duration": 0.17500000000001137,
          "durationTicks": 28,
          "midi": 64,
          "name": "E4",
          "ticks": 33930,
          "time": 212.0625,
          "velocity": 1
        },
        {
          "duration": 0.36250000000001137,
          "durationTicks": 58,
          "midi": 66,
          "name": "F#4",
          "ticks": 33960,
          "time": 212.25,
          "velocity": 1
        },
        {
          "duration": 0.36250000000001137,
          "durationTicks": 58,
          "midi": 69,
          "name": "A4",
          "ticks": 34020,
          "time": 212.625,
          "velocity": 1
        },
        {
          "duration": 0.36250000000001137,
          "durationTicks": 58,
          "midi": 67,
          "name": "G4",
          "ticks": 34080,
          "time": 213,
          "velocity": 1
        },
        {
          "duration": 0.17500000000001137,
          "durationTicks": 28,
          "midi": 71,
          "name": "B4",
          "ticks": 34140,
          "time": 213.375,
          "velocity": 1
        },
        {
          "duration": 0.17500000000001137,
          "durationTicks": 28,
          "midi": 69,
          "name": "A4",
          "ticks": 34170,
          "time": 213.5625,
          "velocity": 1
        },
        {
          "duration": 0.36250000000001137,
          "durationTicks": 58,
          "midi": 67,
          "name": "G4",
          "ticks": 34200,
          "time": 213.75,
          "velocity": 1
        },
        {
          "duration": 0.36250000000001137,
          "durationTicks": 58,
          "midi": 66,
          "name": "F#4",
          "ticks": 34260,
          "time": 214.125,
          "velocity": 1
        },
        {
          "duration": 0.36250000000001137,
          "durationTicks": 58,
          "midi": 64,
          "name": "E4",
          "ticks": 34320,
          "time": 214.5,
          "velocity": 1
        },
        {
          "duration": 0.17500000000001137,
          "durationTicks": 28,
          "midi": 69,
          "name": "A4",
          "ticks": 34380,
          "time": 214.875,
          "velocity": 1
        },
        {
          "duration": 0.17500000000001137,
          "durationTicks": 28,
          "midi": 67,
          "name": "G4",
          "ticks": 34410,
          "time": 215.0625,
          "velocity": 1
        },
        {
          "duration": 0.36250000000001137,
          "durationTicks": 58,
          "midi": 66,
          "name": "F#4",
          "ticks": 34440,
          "time": 215.25,
          "velocity": 1
        },
        {
          "duration": 0.36250000000001137,
          "durationTicks": 58,
          "midi": 64,
          "name": "E4",
          "ticks": 34500,
          "time": 215.625,
          "velocity": 1
        },
        {
          "duration": 0.36250000000001137,
          "durationTicks": 58,
          "midi": 66,
          "name": "F#4",
          "ticks": 34560,
          "time": 216,
          "velocity": 1
        },
        {
          "duration": 0.17500000000001137,
          "durationTicks": 28,
          "midi": 74,
          "name": "D5",
          "ticks": 34620,
          "time": 216.375,
          "velocity": 1
        },
        {
          "duration": 0.17500000000001137,
          "durationTicks": 28,
          "midi": 73,
          "name": "C#5",
          "ticks": 34650,
          "time": 216.5625,
          "velocity": 1
        },
        {
          "duration": 0.36250000000001137,
          "durationTicks": 58,
          "midi": 74,
          "name": "D5",
          "ticks": 34680,
          "time": 216.75,
          "velocity": 1
        },
        {
          "duration": 0.36250000000001137,
          "durationTicks": 58,
          "midi": 66,
          "name": "F#4",
          "ticks": 34740,
          "time": 217.125,
          "velocity": 1
        },
        {
          "duration": 0.36250000000001137,
          "durationTicks": 58,
          "midi": 69,
          "name": "A4",
          "ticks": 34800,
          "time": 217.5,
          "velocity": 1
        },
        {
          "duration": 0.17500000000001137,
          "durationTicks": 28,
          "midi": 69,
          "name": "A4",
          "ticks": 34860,
          "time": 217.875,
          "velocity": 1
        },
        {
          "duration": 0.17500000000001137,
          "durationTicks": 28,
          "midi": 71,
          "name": "B4",
          "ticks": 34890,
          "time": 218.0625,
          "velocity": 1
        },
        {
          "duration": 0.36250000000001137,
          "durationTicks": 58,
          "midi": 73,
          "name": "C#5",
          "ticks": 34920,
          "time": 218.25,
          "velocity": 1
        },
        {
          "duration": 0.36250000000001137,
          "durationTicks": 58,
          "midi": 69,
          "name": "A4",
          "ticks": 34980,
          "time": 218.625,
          "velocity": 1
        },
        {
          "duration": 0.36250000000001137,
          "durationTicks": 58,
          "midi": 66,
          "name": "F#4",
          "ticks": 35040,
          "time": 219,
          "velocity": 1
        },
        {
          "duration": 0.17500000000001137,
          "durationTicks": 28,
          "midi": 74,
          "name": "D5",
          "ticks": 35100,
          "time": 219.375,
          "velocity": 1
        },
        {
          "duration": 0.17500000000001137,
          "durationTicks": 28,
          "midi": 76,
          "name": "E5",
          "ticks": 35130,
          "time": 219.5625,
          "velocity": 1
        },
        {
          "duration": 0.36250000000001137,
          "durationTicks": 58,
          "midi": 78,
          "name": "F#5",
          "ticks": 35160,
          "time": 219.75,
          "velocity": 1
        },
        {
          "duration": 0.36250000000001137,
          "durationTicks": 58,
          "midi": 74,
          "name": "D5",
          "ticks": 35220,
          "time": 220.125,
          "velocity": 1
        },
        {
          "duration": 0.36250000000001137,
          "durationTicks": 58,
          "midi": 78,
          "name": "F#5",
          "ticks": 35280,
          "time": 220.5,
          "velocity": 1
        },
        {
          "duration": 0.17500000000001137,
          "durationTicks": 28,
          "midi": 78,
          "name": "F#5",
          "ticks": 35340,
          "time": 220.875,
          "velocity": 1
        },
        {
          "duration": 0.17500000000001137,
          "durationTicks": 28,
          "midi": 76,
          "name": "E5",
          "ticks": 35370,
          "time": 221.0625,
          "velocity": 1
        },
        {
          "duration": 0.36250000000001137,
          "durationTicks": 58,
          "midi": 74,
          "name": "D5",
          "ticks": 35400,
          "time": 221.25,
          "velocity": 1
        },
        {
          "duration": 0.36250000000001137,
          "durationTicks": 58,
          "midi": 73,
          "name": "C#5",
          "ticks": 35460,
          "time": 221.625,
          "velocity": 1
        },
        {
          "duration": 0.36250000000001137,
          "durationTicks": 58,
          "midi": 71,
          "name": "B4",
          "ticks": 35520,
          "time": 222,
          "velocity": 1
        },
        {
          "duration": 0.17500000000001137,
          "durationTicks": 28,
          "midi": 71,
          "name": "B4",
          "ticks": 35580,
          "time": 222.375,
          "velocity": 1
        },
        {
          "duration": 0.17500000000001137,
          "durationTicks": 28,
          "midi": 69,
          "name": "A4",
          "ticks": 35610,
          "time": 222.5625,
          "velocity": 1
        },
        {
          "duration": 0.36250000000001137,
          "durationTicks": 58,
          "midi": 71,
          "name": "B4",
          "ticks": 35640,
          "time": 222.75,
          "velocity": 1
        },
        {
          "duration": 0.36250000000001137,
          "durationTicks": 58,
          "midi": 73,
          "name": "C#5",
          "ticks": 35700,
          "time": 223.125,
          "velocity": 1
        },
        {
          "duration": 0.36250000000001137,
          "durationTicks": 58,
          "midi": 74,
          "name": "D5",
          "ticks": 35760,
          "time": 223.5,
          "velocity": 1
        },
        {
          "duration": 0.17500000000001137,
          "durationTicks": 28,
          "midi": 78,
          "name": "F#5",
          "ticks": 35820,
          "time": 223.875,
          "velocity": 1
        },
        {
          "duration": 0.17500000000001137,
          "durationTicks": 28,
          "midi": 76,
          "name": "E5",
          "ticks": 35850,
          "time": 224.0625,
          "velocity": 1
        },
        {
          "duration": 0.36250000000001137,
          "durationTicks": 58,
          "midi": 74,
          "name": "D5",
          "ticks": 35880,
          "time": 224.25,
          "velocity": 1
        },
        {
          "duration": 0.36250000000001137,
          "durationTicks": 58,
          "midi": 78,
          "name": "F#5",
          "ticks": 35940,
          "time": 224.625,
          "velocity": 1
        },
        {
          "duration": 0.36250000000001137,
          "durationTicks": 58,
          "midi": 79,
          "name": "G5",
          "ticks": 36000,
          "time": 225,
          "velocity": 1
        },
        {
          "duration": 0.17500000000001137,
          "durationTicks": 28,
          "midi": 74,
          "name": "D5",
          "ticks": 36060,
          "time": 225.375,
          "velocity": 1
        },
        {
          "duration": 0.17500000000001137,
          "durationTicks": 28,
          "midi": 73,
          "name": "C#5",
          "ticks": 36090,
          "time": 225.5625,
          "velocity": 1
        },
        {
          "duration": 0.36250000000001137,
          "durationTicks": 58,
          "midi": 71,
          "name": "B4",
          "ticks": 36120,
          "time": 225.75,
          "velocity": 1
        },
        {
          "duration": 0.36250000000001137,
          "durationTicks": 58,
          "midi": 71,
          "name": "B4",
          "ticks": 36180,
          "time": 226.125,
          "velocity": 1
        },
        {
          "duration": 0.36250000000001137,
          "durationTicks": 58,
          "midi": 69,
          "name": "A4",
          "ticks": 36240,
          "time": 226.5,
          "velocity": 1
        },
        {
          "duration": 0.36250000000001137,
          "durationTicks": 58,
          "midi": 64,
          "name": "E4",
          "ticks": 36300,
          "time": 226.875,
          "velocity": 1
        },
        {
          "duration": 0.36250000000001137,
          "durationTicks": 58,
          "midi": 69,
          "name": "A4",
          "ticks": 36360,
          "time": 227.25,
          "velocity": 1
        },
        {
          "duration": 0.36250000000001137,
          "durationTicks": 58,
          "midi": 69,
          "name": "A4",
          "ticks": 36420,
          "time": 227.625,
          "velocity": 1
        },
        {
          "duration": 2.2375000000000114,
          "durationTicks": 358,
          "midi": 69,
          "name": "A4",
          "ticks": 36480,
          "time": 228,
          "velocity": 1
        },
        {
          "duration": 0.7375000000000114,
          "durationTicks": 118,
          "midi": 69,
          "name": "A4",
          "ticks": 36840,
          "time": 230.25,
          "velocity": 1
        },
        {
          "duration": 2.2375000000000114,
          "durationTicks": 358,
          "midi": 62,
          "name": "D4",
          "ticks": 36960,
          "time": 231,
          "velocity": 1
        },
        {
          "duration": 0.7375000000000114,
          "durationTicks": 118,
          "midi": 69,
          "name": "A4",
          "ticks": 37320,
          "time": 233.25,
          "velocity": 1
        },
        {
          "duration": 1.4875000000000114,
          "durationTicks": 238,
          "midi": 67,
          "name": "G4",
          "ticks": 37440,
          "time": 234,
          "velocity": 1
        },
        {
          "duration": 1.4875000000000114,
          "durationTicks": 238,
          "midi": 69,
          "name": "A4",
          "ticks": 37680,
          "time": 235.5,
          "velocity": 1
        },
        {
          "duration": 0.7375000000000114,
          "durationTicks": 118,
          "midi": 67,
          "name": "G4",
          "ticks": 37920,
          "time": 237,
          "velocity": 1
        },
        {
          "duration": 0.7375000000000114,
          "durationTicks": 118,
          "midi": 62,
          "name": "D4",
          "ticks": 38040,
          "time": 237.75,
          "velocity": 1
        },
        {
          "duration": 1.1125000000000114,
          "durationTicks": 178,
          "midi": 62,
          "name": "D4",
          "ticks": 38160,
          "time": 238.5,
          "velocity": 1
        },
        {
          "duration": 0.36250000000001137,
          "durationTicks": 58,
          "midi": 61,
          "name": "C#4",
          "ticks": 38340,
          "time": 239.625,
          "velocity": 1
        },
        {
          "duration": 0.7375000000000114,
          "durationTicks": 118,
          "midi": 62,
          "name": "D4",
          "ticks": 38400,
          "time": 240,
          "velocity": 1
        },
        {
          "duration": 0.7375000000000114,
          "durationTicks": 118,
          "midi": 74,
          "name": "D5",
          "ticks": 38520,
          "time": 240.75,
          "velocity": 1
        },
        {
          "duration": 1.4875000000000114,
          "durationTicks": 238,
          "midi": 73,
          "name": "C#5",
          "ticks": 38640,
          "time": 241.5,
          "velocity": 1
        },
        {
          "duration": 1.4875000000000114,
          "durationTicks": 238,
          "midi": 71,
          "name": "B4",
          "ticks": 38880,
          "time": 243,
          "velocity": 1
        },
        {
          "duration": 1.4875000000000114,
          "durationTicks": 238,
          "midi": 69,
          "name": "A4",
          "ticks": 39120,
          "time": 244.5,
          "velocity": 1
        },
        {
          "duration": 1.1125000000000114,
          "durationTicks": 178,
          "midi": 62,
          "name": "D4",
          "ticks": 39360,
          "time": 246,
          "velocity": 1
        },
        {
          "duration": 0.36250000000001137,
          "durationTicks": 58,
          "midi": 64,
          "name": "E4",
          "ticks": 39540,
          "time": 247.125,
          "velocity": 1
        },
        {
          "duration": 1.4875000000000114,
          "durationTicks": 238,
          "midi": 66,
          "name": "F#4",
          "ticks": 39600,
          "time": 247.5,
          "velocity": 1
        },
        {
          "duration": 1.4875000000000114,
          "durationTicks": 238,
          "midi": 71,
          "name": "B4",
          "ticks": 39840,
          "time": 249,
          "velocity": 1
        },
        {
          "duration": 1.4875000000000114,
          "durationTicks": 238,
          "midi": 64,
          "name": "E4",
          "ticks": 40080,
          "time": 250.5,
          "velocity": 1
        },
        {
          "duration": 1.1125000000000114,
          "durationTicks": 178,
          "midi": 66,
          "name": "F#4",
          "ticks": 40320,
          "time": 252,
          "velocity": 1
        },
        {
          "duration": 0.36250000000001137,
          "durationTicks": 58,
          "midi": 78,
          "name": "F#5",
          "ticks": 40500,
          "time": 253.125,
          "velocity": 1
        },
        {
          "duration": 0.36250000000001137,
          "durationTicks": 58,
          "midi": 78,
          "name": "F#5",
          "ticks": 40560,
          "time": 253.5,
          "velocity": 1
        },
        {
          "duration": 0.36250000000001137,
          "durationTicks": 58,
          "midi": 79,
          "name": "G5",
          "ticks": 40620,
          "time": 253.875,
          "velocity": 1
        },
        {
          "duration": 0.36250000000001137,
          "durationTicks": 58,
          "midi": 78,
          "name": "F#5",
          "ticks": 40680,
          "time": 254.25,
          "velocity": 1
        },
        {
          "duration": 0.36250000000001137,
          "durationTicks": 58,
          "midi": 76,
          "name": "E5",
          "ticks": 40740,
          "time": 254.625,
          "velocity": 1
        },
        {
          "duration": 1.1125000000000114,
          "durationTicks": 178,
          "midi": 74,
          "name": "D5",
          "ticks": 40800,
          "time": 255,
          "velocity": 1
        },
        {
          "duration": 0.36250000000001137,
          "durationTicks": 58,
          "midi": 74,
          "name": "D5",
          "ticks": 40980,
          "time": 256.125,
          "velocity": 1
        },
        {
          "duration": 0.36250000000001137,
          "durationTicks": 58,
          "midi": 74,
          "name": "D5",
          "ticks": 41040,
          "time": 256.5,
          "velocity": 1
        },
        {
          "duration": 0.36250000000001137,
          "durationTicks": 58,
          "midi": 76,
          "name": "E5",
          "ticks": 41100,
          "time": 256.875,
          "velocity": 1
        },
        {
          "duration": 0.36250000000001137,
          "durationTicks": 58,
          "midi": 74,
          "name": "D5",
          "ticks": 41160,
          "time": 257.25,
          "velocity": 1
        },
        {
          "duration": 0.36250000000001137,
          "durationTicks": 58,
          "midi": 73,
          "name": "C#5",
          "ticks": 41220,
          "time": 257.625,
          "velocity": 1
        },
        {
          "duration": 1.4875000000000114,
          "durationTicks": 238,
          "midi": 71,
          "name": "B4",
          "ticks": 41280,
          "time": 258,
          "velocity": 1
        },
        {
          "duration": 1.4875000000000114,
          "durationTicks": 238,
          "midi": 74,
          "name": "D5",
          "ticks": 41520,
          "time": 259.5,
          "velocity": 1
        },
        {
          "duration": 0.36250000000001137,
          "durationTicks": 58,
          "midi": 74,
          "name": "D5",
          "ticks": 41760,
          "time": 261,
          "velocity": 1
        },
        {
          "duration": 0.36250000000001137,
          "durationTicks": 58,
          "midi": 72,
          "name": "C5",
          "ticks": 41820,
          "time": 261.375,
          "velocity": 1
        },
        {
          "duration": 0.36250000000001137,
          "durationTicks": 58,
          "midi": 71,
          "name": "B4",
          "ticks": 41880,
          "time": 261.75,
          "velocity": 1
        },
        {
          "duration": 0.36250000000001137,
          "durationTicks": 58,
          "midi": 72,
          "name": "C5",
          "ticks": 41940,
          "time": 262.125,
          "velocity": 1
        },
        {
          "duration": 1.4875000000000114,
          "durationTicks": 238,
          "midi": 69,
          "name": "A4",
          "ticks": 42000,
          "time": 262.5,
          "velocity": 1
        },
        {
          "duration": 1.1125000000000114,
          "durationTicks": 178,
          "midi": 69,
          "name": "A4",
          "ticks": 42240,
          "time": 264,
          "velocity": 1
        },
        {
          "duration": 0.36250000000001137,
          "durationTicks": 58,
          "midi": 81,
          "name": "A5",
          "ticks": 42420,
          "time": 265.125,
          "velocity": 1
        },
        {
          "duration": 0.36250000000001137,
          "durationTicks": 58,
          "midi": 81,
          "name": "A5",
          "ticks": 42480,
          "time": 265.5,
          "velocity": 1
        },
        {
          "duration": 0.36250000000001137,
          "durationTicks": 58,
          "midi": 83,
          "name": "B5",
          "ticks": 42540,
          "time": 265.875,
          "velocity": 1
        },
        {
          "duration": 0.36250000000001137,
          "durationTicks": 58,
          "midi": 81,
          "name": "A5",
          "ticks": 42600,
          "time": 266.25,
          "velocity": 1
        },
        {
          "duration": 0.36250000000001137,
          "durationTicks": 58,
          "midi": 79,
          "name": "G5",
          "ticks": 42660,
          "time": 266.625,
          "velocity": 1
        },
        {
          "duration": 1.1125000000000114,
          "durationTicks": 178,
          "midi": 78,
          "name": "F#5",
          "ticks": 42720,
          "time": 267,
          "velocity": 1
        },
        {
          "duration": 0.36250000000001137,
          "durationTicks": 58,
          "midi": 78,
          "name": "F#5",
          "ticks": 42900,
          "time": 268.125,
          "velocity": 1
        },
        {
          "duration": 0.36250000000001137,
          "durationTicks": 58,
          "midi": 78,
          "name": "F#5",
          "ticks": 42960,
          "time": 268.5,
          "velocity": 1
        },
        {
          "duration": 0.36250000000001137,
          "durationTicks": 58,
          "midi": 79,
          "name": "G5",
          "ticks": 43020,
          "time": 268.875,
          "velocity": 1
        },
        {
          "duration": 0.36250000000001137,
          "durationTicks": 58,
          "midi": 78,
          "name": "F#5",
          "ticks": 43080,
          "time": 269.25,
          "velocity": 1
        },
        {
          "duration": 0.36250000000001137,
          "durationTicks": 58,
          "midi": 76,
          "name": "E5",
          "ticks": 43140,
          "time": 269.625,
          "velocity": 1
        },
        {
          "duration": 0.36250000000001137,
          "durationTicks": 58,
          "midi": 74,
          "name": "D5",
          "ticks": 43200,
          "time": 270,
          "velocity": 1
        },
        {
          "duration": 0.36250000000001137,
          "durationTicks": 58,
          "midi": 72,
          "name": "C5",
          "ticks": 43260,
          "time": 270.375,
          "velocity": 1
        },
        {
          "duration": 0.36250000000001137,
          "durationTicks": 58,
          "midi": 71,
          "name": "B4",
          "ticks": 43320,
          "time": 270.75,
          "velocity": 1
        },
        {
          "duration": 0.36250000000001137,
          "durationTicks": 58,
          "midi": 72,
          "name": "C5",
          "ticks": 43380,
          "time": 271.125,
          "velocity": 1
        },
        {
          "duration": 1.1125000000000114,
          "durationTicks": 178,
          "midi": 69,
          "name": "A4",
          "ticks": 43440,
          "time": 271.5,
          "velocity": 1
        },
        {
          "duration": 0.36250000000001137,
          "durationTicks": 58,
          "midi": 69,
          "name": "A4",
          "ticks": 43620,
          "time": 272.625,
          "velocity": 1
        },
        {
          "duration": 0.7375000000000114,
          "durationTicks": 118,
          "midi": 67,
          "name": "G4",
          "ticks": 43680,
          "time": 273,
          "velocity": 1
        },
        {
          "duration": 0.7375000000000114,
          "durationTicks": 118,
          "midi": 74,
          "name": "D5",
          "ticks": 43800,
          "time": 273.75,
          "velocity": 1
        },
        {
          "duration": 1.1125000000000114,
          "durationTicks": 178,
          "midi": 73,
          "name": "C#5",
          "ticks": 43920,
          "time": 274.5,
          "velocity": 1
        },
        {
          "duration": 0.36250000000001137,
          "durationTicks": 58,
          "midi": 73,
          "name": "C#5",
          "ticks": 44100,
          "time": 275.625,
          "velocity": 1
        },
        {
          "duration": 0.7375000000000114,
          "durationTicks": 118,
          "midi": 74,
          "name": "D5",
          "ticks": 44160,
          "time": 276,
          "velocity": 1
        },
        {
          "duration": 1.4875000000000114,
          "durationTicks": 238,
          "midi": 74,
          "name": "D5",
          "ticks": 44280,
          "time": 276.75,
          "velocity": 1
        },
        {
          "duration": 1.4875000000000114,
          "durationTicks": 238,
          "midi": 73,
          "name": "C#5",
          "ticks": 44520,
          "time": 278.25,
          "velocity": 1
        },
        {
          "duration": 1.4875000000000114,
          "durationTicks": 238,
          "midi": 71,
          "name": "B4",
          "ticks": 44760,
          "time": 279.75,
          "velocity": 1
        },
        {
          "duration": 1.4875000000000114,
          "durationTicks": 238,
          "midi": 69,
          "name": "A4",
          "ticks": 45000,
          "time": 281.25,
          "velocity": 1
        },
        {
          "duration": 1.4875000000000114,
          "durationTicks": 238,
          "midi": 67,
          "name": "G4",
          "ticks": 45240,
          "time": 282.75,
          "velocity": 1
        },
        {
          "duration": 1.8625000000000114,
          "durationTicks": 298,
          "midi": 66,
          "name": "F#4",
          "ticks": 45480,
          "time": 284.25,
          "velocity": 1
        },
        {
          "duration": 0.36250000000001137,
          "durationTicks": 58,
          "midi": 64,
          "name": "E4",
          "ticks": 45780,
          "time": 286.125,
          "velocity": 1
        },
        {
          "duration": 1.4875000000000114,
          "durationTicks": 238,
          "midi": 64,
          "name": "E4",
          "ticks": 45840,
          "time": 286.5,
          "velocity": 1
        },
        {
          "duration": 0.7375000000000114,
          "durationTicks": 118,
          "midi": 66,
          "name": "F#4",
          "ticks": 46080,
          "time": 288,
          "velocity": 1
        },
        {
          "duration": 1.4875000000000114,
          "durationTicks": 238,
          "midi": 78,
          "name": "F#5",
          "ticks": 46200,
          "time": 288.75,
          "velocity": 1
        },
        {
          "duration": 0.7375000000000114,
          "durationTicks": 118,
          "midi": 76,
          "name": "E5",
          "ticks": 46440,
          "time": 290.25,
          "velocity": 1
        },
        {
          "duration": 0.7375000000000114,
          "durationTicks": 118,
          "midi": 74,
          "name": "D5",
          "ticks": 46560,
          "time": 291,
          "velocity": 1
        },
        {
          "duration": 1.4875000000000114,
          "durationTicks": 238,
          "midi": 86,
          "name": "D6",
          "ticks": 46680,
          "time": 291.75,
          "velocity": 1
        },
        {
          "duration": 0.7375000000000114,
          "durationTicks": 118,
          "midi": 84,
          "name": "C6",
          "ticks": 46920,
          "time": 293.25,
          "velocity": 1
        },
        {
          "duration": 1.4875000000000114,
          "durationTicks": 238,
          "midi": 83,
          "name": "B5",
          "ticks": 47040,
          "time": 294,
          "velocity": 1
        },
        {
          "duration": 0.7375000000000114,
          "durationTicks": 118,
          "midi": 86,
          "name": "D6",
          "ticks": 47280,
          "time": 295.5,
          "velocity": 1
        },
        {
          "duration": 0.7375000000000114,
          "durationTicks": 118,
          "midi": 81,
          "name": "A5",
          "ticks": 47400,
          "time": 296.25,
          "velocity": 1
        },
        {
          "duration": 1.4875000000000114,
          "durationTicks": 238,
          "midi": 83,
          "name": "B5",
          "ticks": 47520,
          "time": 297,
          "velocity": 1
        },
        {
          "duration": 1.4875000000000114,
          "durationTicks": 238,
          "midi": 81,
          "name": "A5",
          "ticks": 47760,
          "time": 298.5,
          "velocity": 1
        },
        {
          "duration": 1.4875000000000114,
          "durationTicks": 238,
          "midi": 81,
          "name": "A5",
          "ticks": 48000,
          "time": 300,
          "velocity": 1
        },
        {
          "duration": 1.1125000000000114,
          "durationTicks": 178,
          "midi": 69,
          "name": "A4",
          "ticks": 48240,
          "time": 301.5,
          "velocity": 1
        },
        {
          "duration": 0.36250000000001137,
          "durationTicks": 58,
          "midi": 67,
          "name": "G4",
          "ticks": 48420,
          "time": 302.625,
          "velocity": 1
        },
        {
          "duration": 1.4875000000000114,
          "durationTicks": 238,
          "midi": 66,
          "name": "F#4",
          "ticks": 48480,
          "time": 303,
          "velocity": 1
        },
        {
          "duration": 1.1125000000000114,
          "durationTicks": 178,
          "midi": 78,
          "name": "F#5",
          "ticks": 48720,
          "time": 304.5,
          "velocity": 1
        },
        {
          "duration": 0.36250000000001137,
          "durationTicks": 58,
          "midi": 76,
          "name": "E5",
          "ticks": 48900,
          "time": 305.625,
          "velocity": 1
        },
        {
          "duration": 2.2375000000000114,
          "durationTicks": 358,
          "midi": 74,
          "name": "D5",
          "ticks": 48960,
          "time": 306,
          "velocity": 1
        },
        {
          "duration": 0.7375000000000114,
          "durationTicks": 118,
          "midi": 74,
          "name": "D5",
          "ticks": 49320,
          "time": 308.25,
          "velocity": 1
        },
        {
          "duration": 1.4875000000000114,
          "durationTicks": 238,
          "midi": 74,
          "name": "D5",
          "ticks": 49440,
          "time": 309,
          "velocity": 1
        },
        {
          "duration": 1.4875000000000114,
          "durationTicks": 238,
          "midi": 73,
          "name": "C#5",
          "ticks": 49680,
          "time": 310.5,
          "velocity": 1
        },
        {
          "duration": 0.7375000000000114,
          "durationTicks": 118,
          "midi": 74,
          "name": "D5",
          "ticks": 49920,
          "time": 312,
          "velocity": 1
        },
        {
          "duration": 0.7375000000000114,
          "durationTicks": 118,
          "midi": 62,
          "name": "D4",
          "ticks": 50040,
          "time": 312.75,
          "velocity": 1
        },
        {
          "duration": 0.7375000000000114,
          "durationTicks": 118,
          "midi": 61,
          "name": "C#4",
          "ticks": 50160,
          "time": 313.5,
          "velocity": 1
        },
        {
          "duration": 0.7375000000000114,
          "durationTicks": 118,
          "midi": 73,
          "name": "C#5",
          "ticks": 50280,
          "time": 314.25,
          "velocity": 1
        },
        {
          "duration": 0.7375000000000114,
          "durationTicks": 118,
          "midi": 71,
          "name": "B4",
          "ticks": 50400,
          "time": 315,
          "velocity": 1
        },
        {
          "duration": 0.7375000000000114,
          "durationTicks": 118,
          "midi": 59,
          "name": "B3",
          "ticks": 50520,
          "time": 315.75,
          "velocity": 1
        },
        {
          "duration": 0.7375000000000114,
          "durationTicks": 118,
          "midi": 57,
          "name": "A3",
          "ticks": 50640,
          "time": 316.5,
          "velocity": 1
        },
        {
          "duration": 0.7375000000000114,
          "durationTicks": 118,
          "midi": 69,
          "name": "A4",
          "ticks": 50760,
          "time": 317.25,
          "velocity": 1
        },
        {
          "duration": 0.7375000000000114,
          "durationTicks": 118,
          "midi": 67,
          "name": "G4",
          "ticks": 50880,
          "time": 318,
          "velocity": 1
        },
        {
          "duration": 0.7375000000000114,
          "durationTicks": 118,
          "midi": 79,
          "name": "G5",
          "ticks": 51000,
          "time": 318.75,
          "velocity": 1
        },
        {
          "duration": 0.7375000000000114,
          "durationTicks": 118,
          "midi": 78,
          "name": "F#5",
          "ticks": 51120,
          "time": 319.5,
          "velocity": 1
        },
        {
          "duration": 0.7375000000000114,
          "durationTicks": 118,
          "midi": 66,
          "name": "F#4",
          "ticks": 51240,
          "time": 320.25,
          "velocity": 1
        },
        {
          "duration": 0.7375000000000114,
          "durationTicks": 118,
          "midi": 64,
          "name": "E4",
          "ticks": 51360,
          "time": 321,
          "velocity": 1
        },
        {
          "duration": 0.7375000000000114,
          "durationTicks": 118,
          "midi": 71,
          "name": "B4",
          "ticks": 51480,
          "time": 321.75,
          "velocity": 1
        },
        {
          "duration": 0.7375000000000114,
          "durationTicks": 118,
          "midi": 64,
          "name": "E4",
          "ticks": 51600,
          "time": 322.5,
          "velocity": 1
        },
        {
          "duration": 0.7375000000000114,
          "durationTicks": 118,
          "midi": 76,
          "name": "E5",
          "ticks": 51720,
          "time": 323.25,
          "velocity": 1
        },
        {
          "duration": 0.7375000000000114,
          "durationTicks": 118,
          "midi": 78,
          "name": "F#5",
          "ticks": 51840,
          "time": 324,
          "velocity": 1
        },
        {
          "duration": 0.7375000000000114,
          "durationTicks": 118,
          "midi": 66,
          "name": "F#4",
          "ticks": 51960,
          "time": 324.75,
          "velocity": 1
        },
        {
          "duration": 0.7375000000000114,
          "durationTicks": 118,
          "midi": 64,
          "name": "E4",
          "ticks": 52080,
          "time": 325.5,
          "velocity": 1
        },
        {
          "duration": 0.7375000000000114,
          "durationTicks": 118,
          "midi": 76,
          "name": "E5",
          "ticks": 52200,
          "time": 326.25,
          "velocity": 1
        },
        {
          "duration": 0.7375000000000114,
          "durationTicks": 118,
          "midi": 74,
          "name": "D5",
          "ticks": 52320,
          "time": 327,
          "velocity": 1
        },
        {
          "duration": 0.7375000000000114,
          "durationTicks": 118,
          "midi": 62,
          "name": "D4",
          "ticks": 52440,
          "time": 327.75,
          "velocity": 1
        },
        {
          "duration": 0.7375000000000114,
          "durationTicks": 118,
          "midi": 61,
          "name": "C#4",
          "ticks": 52560,
          "time": 328.5,
          "velocity": 1
        },
        {
          "duration": 0.7375000000000114,
          "durationTicks": 118,
          "midi": 73,
          "name": "C#5",
          "ticks": 52680,
          "time": 329.25,
          "velocity": 1
        },
        {
          "duration": 0.7375000000000114,
          "durationTicks": 118,
          "midi": 71,
          "name": "B4",
          "ticks": 52800,
          "time": 330,
          "velocity": 1
        },
        {
          "duration": 0.7375000000000114,
          "durationTicks": 118,
          "midi": 83,
          "name": "B5",
          "ticks": 52920,
          "time": 330.75,
          "velocity": 1
        },
        {
          "duration": 0.7375000000000114,
          "durationTicks": 118,
          "midi": 81,
          "name": "A5",
          "ticks": 53040,
          "time": 331.5,
          "velocity": 1
        },
        {
          "duration": 0.7375000000000114,
          "durationTicks": 118,
          "midi": 69,
          "name": "A4",
          "ticks": 53160,
          "time": 332.25,
          "velocity": 1
        },
        {
          "duration": 1.1125000000000114,
          "durationTicks": 178,
          "midi": 67,
          "name": "G4",
          "ticks": 53280,
          "time": 333,
          "velocity": 1
        },
        {
          "duration": 0.36250000000001137,
          "durationTicks": 58,
          "midi": 76,
          "name": "E5",
          "ticks": 53460,
          "time": 334.125,
          "velocity": 1
        },
        {
          "duration": 0.7375000000000114,
          "durationTicks": 118,
          "midi": 69,
          "name": "A4",
          "ticks": 53520,
          "time": 334.5,
          "velocity": 1
        },
        {
          "duration": 0.7375000000000114,
          "durationTicks": 118,
          "midi": 69,
          "name": "A4",
          "ticks": 53640,
          "time": 335.25,
          "velocity": 1
        },
        {
          "duration": 1.4875000000000114,
          "durationTicks": 238,
          "midi": 69,
          "name": "A4",
          "ticks": 53760,
          "time": 336,
          "velocity": 1
        },
        {
          "duration": 0.37187499999998863,
          "durationTicks": 238,
          "midi": 86,
          "name": "D6",
          "ticks": 58320,
          "time": 347.625,
          "velocity": 1
        },
        {
          "duration": 0.18437499999998863,
          "durationTicks": 118,
          "midi": 85,
          "name": "C#6",
          "ticks": 58560,
          "time": 348,
          "velocity": 1
        },
        {
          "duration": 0.18437499999998863,
          "durationTicks": 118,
          "midi": 83,
          "name": "B5",
          "ticks": 58680,
          "time": 348.1875,
          "velocity": 1
        },
        {
          "duration": 0.18437499999998863,
          "durationTicks": 118,
          "midi": 85,
          "name": "C#6",
          "ticks": 58800,
          "time": 348.375,
          "velocity": 1
        },
        {
          "duration": 0.18437499999998863,
          "durationTicks": 118,
          "midi": 81,
          "name": "A5",
          "ticks": 58920,
          "time": 348.5625,
          "velocity": 1
        },
        {
          "duration": 0.18437499999998863,
          "durationTicks": 118,
          "midi": 79,
          "name": "G5",
          "ticks": 59040,
          "time": 348.75,
          "velocity": 1
        },
        {
          "duration": 0.18437499999998863,
          "durationTicks": 118,
          "midi": 81,
          "name": "A5",
          "ticks": 59160,
          "time": 348.9375,
          "velocity": 1
        },
        {
          "duration": 0.18437499999998863,
          "durationTicks": 118,
          "midi": 78,
          "name": "F#5",
          "ticks": 59280,
          "time": 349.125,
          "velocity": 1
        },
        {
          "duration": 0.18437499999998863,
          "durationTicks": 118,
          "midi": 76,
          "name": "E5",
          "ticks": 59400,
          "time": 349.3125,
          "velocity": 1
        },
        {
          "duration": 0.18437499999998863,
          "durationTicks": 118,
          "midi": 78,
          "name": "F#5",
          "ticks": 59520,
          "time": 349.5,
          "velocity": 1
        },
        {
          "duration": 0.18437499999998863,
          "durationTicks": 118,
          "midi": 74,
          "name": "D5",
          "ticks": 59640,
          "time": 349.6875,
          "velocity": 1
        },
        {
          "duration": 0.5593749999999886,
          "durationTicks": 358,
          "midi": 73,
          "name": "C#5",
          "ticks": 59760,
          "time": 349.875,
          "velocity": 1
        },
        {
          "duration": 0.37187499999998863,
          "durationTicks": 238,
          "midi": 74,
          "name": "D5",
          "ticks": 60120,
          "time": 350.4375,
          "velocity": 1
        },
        {
          "duration": 0.18437499999998863,
          "durationTicks": 118,
          "midi": 76,
          "name": "E5",
          "ticks": 60360,
          "time": 350.8125,
          "velocity": 1
        },
        {
          "duration": 0.18437499999998863,
          "durationTicks": 118,
          "midi": 78,
          "name": "F#5",
          "ticks": 60480,
          "time": 351,
          "velocity": 1
        },
        {
          "duration": 0.18437499999998863,
          "durationTicks": 118,
          "midi": 79,
          "name": "G5",
          "ticks": 60600,
          "time": 351.1875,
          "velocity": 1
        },
        {
          "duration": 0.18437499999998863,
          "durationTicks": 118,
          "midi": 76,
          "name": "E5",
          "ticks": 60720,
          "time": 351.375,
          "velocity": 1
        },
        {
          "duration": 0.18437499999998863,
          "durationTicks": 118,
          "midi": 74,
          "name": "D5",
          "ticks": 60840,
          "time": 351.5625,
          "velocity": 1
        },
        {
          "duration": 0.18437499999998863,
          "durationTicks": 118,
          "midi": 76,
          "name": "E5",
          "ticks": 60960,
          "time": 351.75,
          "velocity": 1
        },
        {
          "duration": 0.18437499999998863,
          "durationTicks": 118,
          "midi": 73,
          "name": "C#5",
          "ticks": 61080,
          "time": 351.9375,
          "velocity": 1
        },
        {
          "duration": 0.18437499999998863,
          "durationTicks": 118,
          "midi": 71,
          "name": "B4",
          "ticks": 61200,
          "time": 352.125,
          "velocity": 1
        },
        {
          "duration": 0.18437499999998863,
          "durationTicks": 118,
          "midi": 69,
          "name": "A4",
          "ticks": 61320,
          "time": 352.3125,
          "velocity": 1
        },
        {
          "duration": 0.18437499999998863,
          "durationTicks": 118,
          "midi": 71,
          "name": "B4",
          "ticks": 61440,
          "time": 352.5,
          "velocity": 1
        },
        {
          "duration": 0.5593749999999886,
          "durationTicks": 358,
          "midi": 64,
          "name": "E4",
          "ticks": 61560,
          "time": 352.6875,
          "velocity": 1
        },
        {
          "duration": 0.5593749999999886,
          "durationTicks": 358,
          "midi": 64,
          "name": "E4",
          "ticks": 61920,
          "time": 353.25,
          "velocity": 1
        },
        {
          "duration": 0.37187499999998863,
          "durationTicks": 238,
          "midi": 81,
          "name": "A5",
          "ticks": 63360,
          "time": 355.5,
          "velocity": 1
        },
        {
          "duration": 0.18437499999998863,
          "durationTicks": 118,
          "midi": 79,
          "name": "G5",
          "ticks": 63600,
          "time": 355.875,
          "velocity": 1
        },
        {
          "duration": 0.18437499999998863,
          "durationTicks": 118,
          "midi": 78,
          "name": "F#5",
          "ticks": 63720,
          "time": 356.0625,
          "velocity": 1
        },
        {
          "duration": 0.18437499999998863,
          "durationTicks": 118,
          "midi": 79,
          "name": "G5",
          "ticks": 63840,
          "time": 356.25,
          "velocity": 1
        },
        {
          "duration": 0.18437499999998863,
          "durationTicks": 118,
          "midi": 76,
          "name": "E5",
          "ticks": 63960,
          "time": 356.4375,
          "velocity": 1
        },
        {
          "duration": 0.18437499999998863,
          "durationTicks": 118,
          "midi": 74,
          "name": "D5",
          "ticks": 64080,
          "time": 356.625,
          "velocity": 1
        },
        {
          "duration": 0.18437499999998863,
          "durationTicks": 118,
          "midi": 76,
          "name": "E5",
          "ticks": 64200,
          "time": 356.8125,
          "velocity": 1
        },
        {
          "duration": 0.18437499999998863,
          "durationTicks": 118,
          "midi": 73,
          "name": "C#5",
          "ticks": 64320,
          "time": 357,
          "velocity": 1
        },
        {
          "duration": 0.18437499999998863,
          "durationTicks": 118,
          "midi": 71,
          "name": "B4",
          "ticks": 64440,
          "time": 357.1875,
          "velocity": 1
        },
        {
          "duration": 0.18437499999998863,
          "durationTicks": 118,
          "midi": 73,
          "name": "C#5",
          "ticks": 64560,
          "time": 357.375,
          "velocity": 1
        },
        {
          "duration": 0.18437499999998863,
          "durationTicks": 118,
          "midi": 69,
          "name": "A4",
          "ticks": 64680,
          "time": 357.5625,
          "velocity": 1
        },
        {
          "duration": 0.18437499999998863,
          "durationTicks": 118,
          "midi": 68,
          "name": "G#4",
          "ticks": 64800,
          "time": 357.75,
          "velocity": 1
        },
        {
          "duration": 0.18437499999998863,
          "durationTicks": 118,
          "midi": 64,
          "name": "E4",
          "ticks": 64920,
          "time": 357.9375,
          "velocity": 1
        },
        {
          "duration": 0.18437499999998863,
          "durationTicks": 118,
          "midi": 68,
          "name": "G#4",
          "ticks": 65040,
          "time": 358.125,
          "velocity": 1
        },
        {
          "duration": 0.18437499999998863,
          "durationTicks": 118,
          "midi": 69,
          "name": "A4",
          "ticks": 65160,
          "time": 358.3125,
          "velocity": 1
        },
        {
          "duration": 0.18437499999998863,
          "durationTicks": 118,
          "midi": 66,
          "name": "F#4",
          "ticks": 65280,
          "time": 358.5,
          "velocity": 1
        },
        {
          "duration": 0.18437499999998863,
          "durationTicks": 118,
          "midi": 69,
          "name": "A4",
          "ticks": 65400,
          "time": 358.6875,
          "velocity": 1
        },
        {
          "duration": 0.18437499999998863,
          "durationTicks": 118,
          "midi": 71,
          "name": "B4",
          "ticks": 65520,
          "time": 358.875,
          "velocity": 1
        },
        {
          "duration": 0.18437499999998863,
          "durationTicks": 118,
          "midi": 68,
          "name": "G#4",
          "ticks": 65640,
          "time": 359.0625,
          "velocity": 1
        },
        {
          "duration": 0.18437499999998863,
          "durationTicks": 118,
          "midi": 71,
          "name": "B4",
          "ticks": 65760,
          "time": 359.25,
          "velocity": 1
        },
        {
          "duration": 0.18437499999998863,
          "durationTicks": 118,
          "midi": 73,
          "name": "C#5",
          "ticks": 65880,
          "time": 359.4375,
          "velocity": 1
        },
        {
          "duration": 0.18437499999998863,
          "durationTicks": 118,
          "midi": 69,
          "name": "A4",
          "ticks": 66000,
          "time": 359.625,
          "velocity": 1
        },
        {
          "duration": 0.18437499999998863,
          "durationTicks": 118,
          "midi": 73,
          "name": "C#5",
          "ticks": 66120,
          "time": 359.8125,
          "velocity": 1
        },
        {
          "duration": 0.18437499999998863,
          "durationTicks": 118,
          "midi": 71,
          "name": "B4",
          "ticks": 66240,
          "time": 360,
          "velocity": 1
        },
        {
          "duration": 0.18437499999998863,
          "durationTicks": 118,
          "midi": 68,
          "name": "G#4",
          "ticks": 66360,
          "time": 360.1875,
          "velocity": 1
        },
        {
          "duration": 0.18437499999998863,
          "durationTicks": 118,
          "midi": 71,
          "name": "B4",
          "ticks": 66480,
          "time": 360.375,
          "velocity": 1
        },
        {
          "duration": 0.18437499999998863,
          "durationTicks": 118,
          "midi": 73,
          "name": "C#5",
          "ticks": 66600,
          "time": 360.5625,
          "velocity": 1
        },
        {
          "duration": 0.18437499999998863,
          "durationTicks": 118,
          "midi": 69,
          "name": "A4",
          "ticks": 66720,
          "time": 360.75,
          "velocity": 1
        },
        {
          "duration": 0.18437499999998863,
          "durationTicks": 118,
          "midi": 73,
          "name": "C#5",
          "ticks": 66840,
          "time": 360.9375,
          "velocity": 1
        },
        {
          "duration": 0.18437499999998863,
          "durationTicks": 118,
          "midi": 71,
          "name": "B4",
          "ticks": 66960,
          "time": 361.125,
          "velocity": 1
        },
        {
          "duration": 0.18437499999998863,
          "durationTicks": 118,
          "midi": 68,
          "name": "G#4",
          "ticks": 67080,
          "time": 361.3125,
          "velocity": 1
        },
        {
          "duration": 0.18437499999998863,
          "durationTicks": 118,
          "midi": 73,
          "name": "C#5",
          "ticks": 67200,
          "time": 361.5,
          "velocity": 1
        },
        {
          "duration": 0.5593749999999886,
          "durationTicks": 358,
          "midi": 71,
          "name": "B4",
          "ticks": 67320,
          "time": 361.6875,
          "velocity": 1
        },
        {
          "duration": 0.18437499999998863,
          "durationTicks": 118,
          "midi": 73,
          "name": "C#5",
          "ticks": 67680,
          "time": 362.25,
          "velocity": 1
        },
        {
          "duration": 0.18437499999998863,
          "durationTicks": 118,
          "midi": 69,
          "name": "A4",
          "ticks": 67800,
          "time": 362.4375,
          "velocity": 1
        },
        {
          "duration": 0.18437499999998863,
          "durationTicks": 118,
          "midi": 74,
          "name": "D5",
          "ticks": 67920,
          "time": 362.625,
          "velocity": 1
        },
        {
          "duration": 0.37187499999998863,
          "durationTicks": 238,
          "midi": 73,
          "name": "C#5",
          "ticks": 68040,
          "time": 362.8125,
          "velocity": 1
        },
        {
          "duration": 0.18437499999998863,
          "durationTicks": 118,
          "midi": 71,
          "name": "B4",
          "ticks": 68280,
          "time": 363.1875,
          "velocity": 1
        },
        {
          "duration": 1.1218749999999886,
          "durationTicks": 718,
          "midi": 73,
          "name": "C#5",
          "ticks": 68400,
          "time": 363.375,
          "velocity": 1
        },
        {
          "duration": 0.37187499999998863,
          "durationTicks": 238,
          "midi": 86,
          "name": "D6",
          "ticks": 72720,
          "time": 370.125,
          "velocity": 1
        },
        {
          "duration": 0.18437499999998863,
          "durationTicks": 118,
          "midi": 85,
          "name": "C#6",
          "ticks": 72960,
          "time": 370.5,
          "velocity": 1
        },
        {
          "duration": 0.18437499999998863,
          "durationTicks": 118,
          "midi": 83,
          "name": "B5",
          "ticks": 73080,
          "time": 370.6875,
          "velocity": 1
        },
        {
          "duration": 0.18437499999998863,
          "durationTicks": 118,
          "midi": 85,
          "name": "C#6",
          "ticks": 73200,
          "time": 370.875,
          "velocity": 1
        },
        {
          "duration": 0.18437499999998863,
          "durationTicks": 118,
          "midi": 81,
          "name": "A5",
          "ticks": 73320,
          "time": 371.0625,
          "velocity": 1
        },
        {
          "duration": 0.18437499999998863,
          "durationTicks": 118,
          "midi": 79,
          "name": "G5",
          "ticks": 73440,
          "time": 371.25,
          "velocity": 1
        },
        {
          "duration": 0.18437499999998863,
          "durationTicks": 118,
          "midi": 81,
          "name": "A5",
          "ticks": 73560,
          "time": 371.4375,
          "velocity": 1
        },
        {
          "duration": 0.18437499999998863,
          "durationTicks": 118,
          "midi": 78,
          "name": "F#5",
          "ticks": 73680,
          "time": 371.625,
          "velocity": 1
        },
        {
          "duration": 0.18437499999998863,
          "durationTicks": 118,
          "midi": 76,
          "name": "E5",
          "ticks": 73800,
          "time": 371.8125,
          "velocity": 1
        },
        {
          "duration": 0.18437499999998863,
          "durationTicks": 118,
          "midi": 78,
          "name": "F#5",
          "ticks": 73920,
          "time": 372,
          "velocity": 1
        },
        {
          "duration": 0.18437499999998863,
          "durationTicks": 118,
          "midi": 74,
          "name": "D5",
          "ticks": 74040,
          "time": 372.1875,
          "velocity": 1
        },
        {
          "duration": 0.5593749999999886,
          "durationTicks": 358,
          "midi": 73,
          "name": "C#5",
          "ticks": 74160,
          "time": 372.375,
          "velocity": 1
        },
        {
          "duration": 0.37187499999998863,
          "durationTicks": 238,
          "midi": 74,
          "name": "D5",
          "ticks": 74520,
          "time": 372.9375,
          "velocity": 1
        },
        {
          "duration": 0.18437499999998863,
          "durationTicks": 118,
          "midi": 76,
          "name": "E5",
          "ticks": 74760,
          "time": 373.3125,
          "velocity": 1
        },
        {
          "duration": 0.18437499999998863,
          "durationTicks": 118,
          "midi": 78,
          "name": "F#5",
          "ticks": 74880,
          "time": 373.5,
          "velocity": 1
        },
        {
          "duration": 0.18437499999998863,
          "durationTicks": 118,
          "midi": 79,
          "name": "G5",
          "ticks": 75000,
          "time": 373.6875,
          "velocity": 1
        },
        {
          "duration": 0.18437499999998863,
          "durationTicks": 118,
          "midi": 76,
          "name": "E5",
          "ticks": 75120,
          "time": 373.875,
          "velocity": 1
        },
        {
          "duration": 0.18437499999998863,
          "durationTicks": 118,
          "midi": 74,
          "name": "D5",
          "ticks": 75240,
          "time": 374.0625,
          "velocity": 1
        },
        {
          "duration": 0.18437499999998863,
          "durationTicks": 118,
          "midi": 76,
          "name": "E5",
          "ticks": 75360,
          "time": 374.25,
          "velocity": 1
        },
        {
          "duration": 0.18437499999998863,
          "durationTicks": 118,
          "midi": 73,
          "name": "C#5",
          "ticks": 75480,
          "time": 374.4375,
          "velocity": 1
        },
        {
          "duration": 0.18437499999998863,
          "durationTicks": 118,
          "midi": 71,
          "name": "B4",
          "ticks": 75600,
          "time": 374.625,
          "velocity": 1
        },
        {
          "duration": 0.18437499999998863,
          "durationTicks": 118,
          "midi": 69,
          "name": "A4",
          "ticks": 75720,
          "time": 374.8125,
          "velocity": 1
        },
        {
          "duration": 0.18437499999998863,
          "durationTicks": 118,
          "midi": 71,
          "name": "B4",
          "ticks": 75840,
          "time": 375,
          "velocity": 1
        },
        {
          "duration": 0.5593749999999886,
          "durationTicks": 358,
          "midi": 64,
          "name": "E4",
          "ticks": 75960,
          "time": 375.1875,
          "velocity": 1
        },
        {
          "duration": 0.5593749999999886,
          "durationTicks": 358,
          "midi": 64,
          "name": "E4",
          "ticks": 76320,
          "time": 375.75,
          "velocity": 1
        },
        {
          "duration": 0.37187499999998863,
          "durationTicks": 238,
          "midi": 81,
          "name": "A5",
          "ticks": 77760,
          "time": 378,
          "velocity": 1
        },
        {
          "duration": 0.18437499999998863,
          "durationTicks": 118,
          "midi": 79,
          "name": "G5",
          "ticks": 78000,
          "time": 378.375,
          "velocity": 1
        },
        {
          "duration": 0.18437499999998863,
          "durationTicks": 118,
          "midi": 78,
          "name": "F#5",
          "ticks": 78120,
          "time": 378.5625,
          "velocity": 1
        },
        {
          "duration": 0.18437499999998863,
          "durationTicks": 118,
          "midi": 79,
          "name": "G5",
          "ticks": 78240,
          "time": 378.75,
          "velocity": 1
        },
        {
          "duration": 0.18437499999998863,
          "durationTicks": 118,
          "midi": 76,
          "name": "E5",
          "ticks": 78360,
          "time": 378.9375,
          "velocity": 1
        },
        {
          "duration": 0.18437499999998863,
          "durationTicks": 118,
          "midi": 74,
          "name": "D5",
          "ticks": 78480,
          "time": 379.125,
          "velocity": 1
        },
        {
          "duration": 0.18437499999998863,
          "durationTicks": 118,
          "midi": 76,
          "name": "E5",
          "ticks": 78600,
          "time": 379.3125,
          "velocity": 1
        },
        {
          "duration": 0.18437499999998863,
          "durationTicks": 118,
          "midi": 73,
          "name": "C#5",
          "ticks": 78720,
          "time": 379.5,
          "velocity": 1
        },
        {
          "duration": 0.18437499999998863,
          "durationTicks": 118,
          "midi": 71,
          "name": "B4",
          "ticks": 78840,
          "time": 379.6875,
          "velocity": 1
        },
        {
          "duration": 0.18437499999998863,
          "durationTicks": 118,
          "midi": 73,
          "name": "C#5",
          "ticks": 78960,
          "time": 379.875,
          "velocity": 1
        },
        {
          "duration": 0.18437499999998863,
          "durationTicks": 118,
          "midi": 69,
          "name": "A4",
          "ticks": 79080,
          "time": 380.0625,
          "velocity": 1
        },
        {
          "duration": 0.18437499999998863,
          "durationTicks": 118,
          "midi": 68,
          "name": "G#4",
          "ticks": 79200,
          "time": 380.25,
          "velocity": 1
        },
        {
          "duration": 0.18437499999998863,
          "durationTicks": 118,
          "midi": 64,
          "name": "E4",
          "ticks": 79320,
          "time": 380.4375,
          "velocity": 1
        },
        {
          "duration": 0.18437499999998863,
          "durationTicks": 118,
          "midi": 68,
          "name": "G#4",
          "ticks": 79440,
          "time": 380.625,
          "velocity": 1
        },
        {
          "duration": 0.18437499999998863,
          "durationTicks": 118,
          "midi": 69,
          "name": "A4",
          "ticks": 79560,
          "time": 380.8125,
          "velocity": 1
        },
        {
          "duration": 0.18437499999998863,
          "durationTicks": 118,
          "midi": 66,
          "name": "F#4",
          "ticks": 79680,
          "time": 381,
          "velocity": 1
        },
        {
          "duration": 0.18437499999998863,
          "durationTicks": 118,
          "midi": 69,
          "name": "A4",
          "ticks": 79800,
          "time": 381.1875,
          "velocity": 1
        },
        {
          "duration": 0.18437499999998863,
          "durationTicks": 118,
          "midi": 71,
          "name": "B4",
          "ticks": 79920,
          "time": 381.375,
          "velocity": 1
        },
        {
          "duration": 0.18437499999998863,
          "durationTicks": 118,
          "midi": 68,
          "name": "G#4",
          "ticks": 80040,
          "time": 381.5625,
          "velocity": 1
        },
        {
          "duration": 0.18437499999998863,
          "durationTicks": 118,
          "midi": 71,
          "name": "B4",
          "ticks": 80160,
          "time": 381.75,
          "velocity": 1
        },
        {
          "duration": 0.18437499999998863,
          "durationTicks": 118,
          "midi": 73,
          "name": "C#5",
          "ticks": 80280,
          "time": 381.9375,
          "velocity": 1
        },
        {
          "duration": 0.18437499999998863,
          "durationTicks": 118,
          "midi": 69,
          "name": "A4",
          "ticks": 80400,
          "time": 382.125,
          "velocity": 1
        },
        {
          "duration": 0.18437499999998863,
          "durationTicks": 118,
          "midi": 73,
          "name": "C#5",
          "ticks": 80520,
          "time": 382.3125,
          "velocity": 1
        },
        {
          "duration": 0.18437499999998863,
          "durationTicks": 118,
          "midi": 71,
          "name": "B4",
          "ticks": 80640,
          "time": 382.5,
          "velocity": 1
        },
        {
          "duration": 0.18437499999998863,
          "durationTicks": 118,
          "midi": 68,
          "name": "G#4",
          "ticks": 80760,
          "time": 382.6875,
          "velocity": 1
        },
        {
          "duration": 0.18437499999998863,
          "durationTicks": 118,
          "midi": 71,
          "name": "B4",
          "ticks": 80880,
          "time": 382.875,
          "velocity": 1
        },
        {
          "duration": 0.18437499999998863,
          "durationTicks": 118,
          "midi": 73,
          "name": "C#5",
          "ticks": 81000,
          "time": 383.0625,
          "velocity": 1
        },
        {
          "duration": 0.18437499999998863,
          "durationTicks": 118,
          "midi": 69,
          "name": "A4",
          "ticks": 81120,
          "time": 383.25,
          "velocity": 1
        },
        {
          "duration": 0.18437499999998863,
          "durationTicks": 118,
          "midi": 73,
          "name": "C#5",
          "ticks": 81240,
          "time": 383.4375,
          "velocity": 1
        },
        {
          "duration": 0.18437499999998863,
          "durationTicks": 118,
          "midi": 71,
          "name": "B4",
          "ticks": 81360,
          "time": 383.625,
          "velocity": 1
        },
        {
          "duration": 0.18437499999998863,
          "durationTicks": 118,
          "midi": 68,
          "name": "G#4",
          "ticks": 81480,
          "time": 383.8125,
          "velocity": 1
        },
        {
          "duration": 0.18437499999998863,
          "durationTicks": 118,
          "midi": 73,
          "name": "C#5",
          "ticks": 81600,
          "time": 384,
          "velocity": 1
        },
        {
          "duration": 0.5593749999999886,
          "durationTicks": 358,
          "midi": 71,
          "name": "B4",
          "ticks": 81720,
          "time": 384.1875,
          "velocity": 1
        },
        {
          "duration": 0.18437499999998863,
          "durationTicks": 118,
          "midi": 73,
          "name": "C#5",
          "ticks": 82080,
          "time": 384.75,
          "velocity": 1
        },
        {
          "duration": 0.18437499999998863,
          "durationTicks": 118,
          "midi": 69,
          "name": "A4",
          "ticks": 82200,
          "time": 384.9375,
          "velocity": 1
        },
        {
          "duration": 0.18437499999998863,
          "durationTicks": 118,
          "midi": 74,
          "name": "D5",
          "ticks": 82320,
          "time": 385.125,
          "velocity": 1
        },
        {
          "duration": 0.37187499999998863,
          "durationTicks": 238,
          "midi": 73,
          "name": "C#5",
          "ticks": 82440,
          "time": 385.3125,
          "velocity": 1
        },
        {
          "duration": 0.18437499999998863,
          "durationTicks": 118,
          "midi": 71,
          "name": "B4",
          "ticks": 82680,
          "time": 385.6875,
          "velocity": 1
        },
        {
          "duration": 1.1218749999999886,
          "durationTicks": 718,
          "midi": 73,
          "name": "C#5",
          "ticks": 82800,
          "time": 385.875,
          "velocity": 1
        },
        {
          "duration": 0.37187499999998863,
          "durationTicks": 238,
          "midi": 74,
          "name": "D5",
          "ticks": 87840,
          "time": 393.75,
          "velocity": 1
        },
        {
          "duration": 0.18437499999998863,
          "durationTicks": 118,
          "midi": 81,
          "name": "A5",
          "ticks": 88080,
          "time": 394.125,
          "velocity": 1
        },
        {
          "duration": 0.27812499999998863,
          "durationTicks": 178,
          "midi": 78,
          "name": "F#5",
          "ticks": 88200,
          "time": 394.3125,
          "velocity": 1
        },
        {
          "duration": 0.09062499999998863,
          "durationTicks": 58,
          "midi": 76,
          "name": "E5",
          "ticks": 88380,
          "time": 394.59375,
          "velocity": 1
        },
        {
          "duration": 0.18437499999998863,
          "durationTicks": 118,
          "midi": 78,
          "name": "F#5",
          "ticks": 88440,
          "time": 394.6875,
          "velocity": 1
        },
        {
          "duration": 0.18437499999998863,
          "durationTicks": 118,
          "midi": 74,
          "name": "D5",
          "ticks": 88560,
          "time": 394.875,
          "velocity": 1
        },
        {
          "duration": 0.18437499999998863,
          "durationTicks": 118,
          "midi": 69,
          "name": "A4",
          "ticks": 88680,
          "time": 395.0625,
          "velocity": 1
        },
        {
          "duration": 0.18437499999998863,
          "durationTicks": 118,
          "midi": 74,
          "name": "D5",
          "ticks": 88800,
          "time": 395.25,
          "velocity": 1
        },
        {
          "duration": 0.18437499999998863,
          "durationTicks": 118,
          "midi": 78,
          "name": "F#5",
          "ticks": 88920,
          "time": 395.4375,
          "velocity": 1
        },
        {
          "duration": 0.18437499999998863,
          "durationTicks": 118,
          "midi": 74,
          "name": "D5",
          "ticks": 89040,
          "time": 395.625,
          "velocity": 1
        },
        {
          "duration": 0.18437499999998863,
          "durationTicks": 118,
          "midi": 78,
          "name": "F#5",
          "ticks": 89160,
          "time": 395.8125,
          "velocity": 1
        },
        {
          "duration": 0.37187499999998863,
          "durationTicks": 238,
          "midi": 79,
          "name": "G5",
          "ticks": 89280,
          "time": 396,
          "velocity": 1
        },
        {
          "duration": 0.18437499999998863,
          "durationTicks": 118,
          "midi": 78,
          "name": "F#5",
          "ticks": 89520,
          "time": 396.375,
          "velocity": 1
        },
        {
          "duration": 0.37187499999998863,
          "durationTicks": 238,
          "midi": 76,
          "name": "E5",
          "ticks": 89640,
          "time": 396.5625,
          "velocity": 1
        },
        {
          "duration": 0.18437499999998863,
          "durationTicks": 118,
          "midi": 74,
          "name": "D5",
          "ticks": 89880,
          "time": 396.9375,
          "velocity": 1
        },
        {
          "duration": 0.18437499999998863,
          "durationTicks": 118,
          "midi": 73,
          "name": "C#5",
          "ticks": 90000,
          "time": 397.125,
          "velocity": 1
        },
        {
          "duration": 0.18437499999998863,
          "durationTicks": 118,
          "midi": 66,
          "name": "F#4",
          "ticks": 90120,
          "time": 397.3125,
          "velocity": 1
        },
        {
          "duration": 0.18437499999998863,
          "durationTicks": 118,
          "midi": 74,
          "name": "D5",
          "ticks": 90240,
          "time": 397.5,
          "velocity": 1
        },
        {
          "duration": 0.5593749999999886,
          "durationTicks": 358,
          "midi": 73,
          "name": "C#5",
          "ticks": 90360,
          "time": 397.6875,
          "velocity": 1
        },
        {
          "duration": 0.5593749999999886,
          "durationTicks": 358,
          "midi": 71,
          "name": "B4",
          "ticks": 90720,
          "time": 398.25,
          "velocity": 1
        },
        {
          "duration": 0.37187499999998863,
          "durationTicks": 238,
          "midi": 71,
          "name": "B4",
          "ticks": 91080,
          "time": 398.8125,
          "velocity": 1
        },
        {
          "duration": 0.18437499999998863,
          "durationTicks": 118,
          "midi": 76,
          "name": "E5",
          "ticks": 91320,
          "time": 399.1875,
          "velocity": 1
        },
        {
          "duration": 0.27812499999998863,
          "durationTicks": 178,
          "midi": 73,
          "name": "C#5",
          "ticks": 91440,
          "time": 399.375,
          "velocity": 1
        },
        {
          "duration": 0.09062499999998863,
          "durationTicks": 58,
          "midi": 71,
          "name": "B4",
          "ticks": 91620,
          "time": 399.65625,
          "velocity": 1
        },
        {
          "duration": 0.18437499999998863,
          "durationTicks": 118,
          "midi": 73,
          "name": "C#5",
          "ticks": 91680,
          "time": 399.75,
          "velocity": 1
        },
        {
          "duration": 0.5593749999999886,
          "durationTicks": 358,
          "midi": 74,
          "name": "D5",
          "ticks": 91800,
          "time": 399.9375,
          "velocity": 1
        },
        {
          "duration": 0.37187499999998863,
          "durationTicks": 238,
          "midi": 74,
          "name": "D5",
          "ticks": 92160,
          "time": 400.5,
          "velocity": 1
        },
        {
          "duration": 0.18437499999998863,
          "durationTicks": 118,
          "midi": 79,
          "name": "G5",
          "ticks": 92400,
          "time": 400.875,
          "velocity": 1
        },
        {
          "duration": 0.27812499999998863,
          "durationTicks": 178,
          "midi": 76,
          "name": "E5",
          "ticks": 92520,
          "time": 401.0625,
          "velocity": 1
        },
        {
          "duration": 0.09062499999998863,
          "durationTicks": 58,
          "midi": 74,
          "name": "D5",
          "ticks": 92700,
          "time": 401.34375,
          "velocity": 1
        },
        {
          "duration": 0.18437499999998863,
          "durationTicks": 118,
          "midi": 76,
          "name": "E5",
          "ticks": 92760,
          "time": 401.4375,
          "velocity": 1
        },
        {
          "duration": 0.5593749999999886,
          "durationTicks": 358,
          "midi": 78,
          "name": "F#5",
          "ticks": 92880,
          "time": 401.625,
          "velocity": 1
        },
        {
          "duration": 0.5593749999999886,
          "durationTicks": 358,
          "midi": 81,
          "name": "A5",
          "ticks": 93240,
          "time": 402.1875,
          "velocity": 1
        },
        {
          "duration": 0.5593749999999886,
          "durationTicks": 358,
          "midi": 81,
          "name": "A5",
          "ticks": 93600,
          "time": 402.75,
          "velocity": 1
        },
        {
          "duration": 0.18437499999998863,
          "durationTicks": 118,
          "midi": 85,
          "name": "C#6",
          "ticks": 93960,
          "time": 403.3125,
          "velocity": 1
        },
        {
          "duration": 0.18437499999998863,
          "durationTicks": 118,
          "midi": 81,
          "name": "A5",
          "ticks": 94080,
          "time": 403.5,
          "velocity": 1
        },
        {
          "duration": 0.18437499999998863,
          "durationTicks": 118,
          "midi": 85,
          "name": "C#6",
          "ticks": 94200,
          "time": 403.6875,
          "velocity": 1
        },
        {
          "duration": 0.18437499999998863,
          "durationTicks": 118,
          "midi": 86,
          "name": "D6",
          "ticks": 94320,
          "time": 403.875,
          "velocity": 1
        },
        {
          "duration": 0.18437499999998863,
          "durationTicks": 118,
          "midi": 83,
          "name": "B5",
          "ticks": 94440,
          "time": 404.0625,
          "velocity": 1
        },
        {
          "duration": 0.18437499999998863,
          "durationTicks": 118,
          "midi": 86,
          "name": "D6",
          "ticks": 94560,
          "time": 404.25,
          "velocity": 1
        },
        {
          "duration": 0.18437499999998863,
          "durationTicks": 118,
          "midi": 85,
          "name": "C#6",
          "ticks": 94680,
          "time": 404.4375,
          "velocity": 1
        },
        {
          "duration": 0.18437499999998863,
          "durationTicks": 118,
          "midi": 81,
          "name": "A5",
          "ticks": 94800,
          "time": 404.625,
          "velocity": 1
        },
        {
          "duration": 0.18437499999998863,
          "durationTicks": 118,
          "midi": 85,
          "name": "C#6",
          "ticks": 94920,
          "time": 404.8125,
          "velocity": 1
        },
        {
          "duration": 0.18437499999998863,
          "durationTicks": 118,
          "midi": 86,
          "name": "D6",
          "ticks": 95040,
          "time": 405,
          "velocity": 1
        },
        {
          "duration": 0.18437499999998863,
          "durationTicks": 118,
          "midi": 83,
          "name": "B5",
          "ticks": 95160,
          "time": 405.1875,
          "velocity": 1
        },
        {
          "duration": 0.18437499999998863,
          "durationTicks": 118,
          "midi": 86,
          "name": "D6",
          "ticks": 95280,
          "time": 405.375,
          "velocity": 1
        },
        {
          "duration": 0.18437499999998863,
          "durationTicks": 118,
          "midi": 85,
          "name": "C#6",
          "ticks": 95400,
          "time": 405.5625,
          "velocity": 1
        },
        {
          "duration": 0.18437499999998863,
          "durationTicks": 118,
          "midi": 81,
          "name": "A5",
          "ticks": 95520,
          "time": 405.75,
          "velocity": 1
        },
        {
          "duration": 0.18437499999998863,
          "durationTicks": 118,
          "midi": 85,
          "name": "C#6",
          "ticks": 95640,
          "time": 405.9375,
          "velocity": 1
        },
        {
          "duration": 0.18437499999998863,
          "durationTicks": 118,
          "midi": 86,
          "name": "D6",
          "ticks": 95760,
          "time": 406.125,
          "velocity": 1
        },
        {
          "duration": 0.18437499999998863,
          "durationTicks": 118,
          "midi": 83,
          "name": "B5",
          "ticks": 95880,
          "time": 406.3125,
          "velocity": 1
        },
        {
          "duration": 0.18437499999998863,
          "durationTicks": 118,
          "midi": 86,
          "name": "D6",
          "ticks": 96000,
          "time": 406.5,
          "velocity": 1
        },
        {
          "duration": 0.37187499999998863,
          "durationTicks": 238,
          "midi": 86,
          "name": "D6",
          "ticks": 96120,
          "time": 406.6875,
          "velocity": 1
        },
        {
          "duration": 0.18437499999998863,
          "durationTicks": 118,
          "midi": 85,
          "name": "C#6",
          "ticks": 96360,
          "time": 407.0625,
          "velocity": 1
        },
        {
          "duration": 0.5593749999999886,
          "durationTicks": 358,
          "midi": 86,
          "name": "D6",
          "ticks": 96480,
          "time": 407.25,
          "velocity": 1
        },
        {
          "duration": 0.37187499999998863,
          "durationTicks": 238,
          "midi": 86,
          "name": "D6",
          "ticks": 96840,
          "time": 407.8125,
          "velocity": 1
        },
        {
          "duration": 0.18437499999998863,
          "durationTicks": 118,
          "midi": 85,
          "name": "C#6",
          "ticks": 97080,
          "time": 408.1875,
          "velocity": 1
        },
        {
          "duration": 1.1218749999999886,
          "durationTicks": 718,
          "midi": 86,
          "name": "D6",
          "ticks": 97200,
          "time": 408.375,
          "velocity": 1
        },
        {
          "duration": 0.37187499999998863,
          "durationTicks": 238,
          "midi": 74,
          "name": "D5",
          "ticks": 102240,
          "time": 416.25,
          "velocity": 1
        },
        {
          "duration": 0.18437499999998863,
          "durationTicks": 118,
          "midi": 81,
          "name": "A5",
          "ticks": 102480,
          "time": 416.625,
          "velocity": 1
        },
        {
          "duration": 0.27812499999998863,
          "durationTicks": 178,
          "midi": 78,
          "name": "F#5",
          "ticks": 102600,
          "time": 416.8125,
          "velocity": 1
        },
        {
          "duration": 0.09062499999998863,
          "durationTicks": 58,
          "midi": 76,
          "name": "E5",
          "ticks": 102780,
          "time": 417.09375,
          "velocity": 1
        },
        {
          "duration": 0.18437499999998863,
          "durationTicks": 118,
          "midi": 78,
          "name": "F#5",
          "ticks": 102840,
          "time": 417.1875,
          "velocity": 1
        },
        {
          "duration": 0.18437499999998863,
          "durationTicks": 118,
          "midi": 74,
          "name": "D5",
          "ticks": 102960,
          "time": 417.375,
          "velocity": 1
        },
        {
          "duration": 0.18437499999998863,
          "durationTicks": 118,
          "midi": 69,
          "name": "A4",
          "ticks": 103080,
          "time": 417.5625,
          "velocity": 1
        },
        {
          "duration": 0.18437499999998863,
          "durationTicks": 118,
          "midi": 74,
          "name": "D5",
          "ticks": 103200,
          "time": 417.75,
          "velocity": 1
        },
        {
          "duration": 0.18437499999998863,
          "durationTicks": 118,
          "midi": 78,
          "name": "F#5",
          "ticks": 103320,
          "time": 417.9375,
          "velocity": 1
        },
        {
          "duration": 0.18437499999998863,
          "durationTicks": 118,
          "midi": 74,
          "name": "D5",
          "ticks": 103440,
          "time": 418.125,
          "velocity": 1
        },
        {
          "duration": 0.18437499999998863,
          "durationTicks": 118,
          "midi": 78,
          "name": "F#5",
          "ticks": 103560,
          "time": 418.3125,
          "velocity": 1
        },
        {
          "duration": 0.37187499999998863,
          "durationTicks": 238,
          "midi": 79,
          "name": "G5",
          "ticks": 103680,
          "time": 418.5,
          "velocity": 1
        },
        {
          "duration": 0.18437499999998863,
          "durationTicks": 118,
          "midi": 78,
          "name": "F#5",
          "ticks": 103920,
          "time": 418.875,
          "velocity": 1
        },
        {
          "duration": 0.37187499999998863,
          "durationTicks": 238,
          "midi": 76,
          "name": "E5",
          "ticks": 104040,
          "time": 419.0625,
          "velocity": 1
        },
        {
          "duration": 0.18437499999998863,
          "durationTicks": 118,
          "midi": 74,
          "name": "D5",
          "ticks": 104280,
          "time": 419.4375,
          "velocity": 1
        },
        {
          "duration": 0.18437499999998863,
          "durationTicks": 118,
          "midi": 73,
          "name": "C#5",
          "ticks": 104400,
          "time": 419.625,
          "velocity": 1
        },
        {
          "duration": 0.18437499999998863,
          "durationTicks": 118,
          "midi": 66,
          "name": "F#4",
          "ticks": 104520,
          "time": 419.8125,
          "velocity": 1
        },
        {
          "duration": 0.18437499999998863,
          "durationTicks": 118,
          "midi": 74,
          "name": "D5",
          "ticks": 104640,
          "time": 420,
          "velocity": 1
        },
        {
          "duration": 0.5593749999999886,
          "durationTicks": 358,
          "midi": 73,
          "name": "C#5",
          "ticks": 104760,
          "time": 420.1875,
          "velocity": 1
        },
        {
          "duration": 0.5593749999999886,
          "durationTicks": 358,
          "midi": 71,
          "name": "B4",
          "ticks": 105120,
          "time": 420.75,
          "velocity": 1
        },
        {
          "duration": 0.37187499999998863,
          "durationTicks": 238,
          "midi": 71,
          "name": "B4",
          "ticks": 105480,
          "time": 421.3125,
          "velocity": 1
        },
        {
          "duration": 0.18437499999998863,
          "durationTicks": 118,
          "midi": 76,
          "name": "E5",
          "ticks": 105720,
          "time": 421.6875,
          "velocity": 1
        },
        {
          "duration": 0.27812499999998863,
          "durationTicks": 178,
          "midi": 73,
          "name": "C#5",
          "ticks": 105840,
          "time": 421.875,
          "velocity": 1
        },
        {
          "duration": 0.09062499999998863,
          "durationTicks": 58,
          "midi": 71,
          "name": "B4",
          "ticks": 106020,
          "time": 422.15625,
          "velocity": 1
        },
        {
          "duration": 0.18437499999998863,
          "durationTicks": 118,
          "midi": 73,
          "name": "C#5",
          "ticks": 106080,
          "time": 422.25,
          "velocity": 1
        },
        {
          "duration": 0.5593749999999886,
          "durationTicks": 358,
          "midi": 74,
          "name": "D5",
          "ticks": 106200,
          "time": 422.4375,
          "velocity": 1
        },
        {
          "duration": 0.37187499999998863,
          "durationTicks": 238,
          "midi": 74,
          "name": "D5",
          "ticks": 106560,
          "time": 423,
          "velocity": 1
        },
        {
          "duration": 0.18437499999998863,
          "durationTicks": 118,
          "midi": 79,
          "name": "G5",
          "ticks": 106800,
          "time": 423.375,
          "velocity": 1
        },
        {
          "duration": 0.27812499999998863,
          "durationTicks": 178,
          "midi": 76,
          "name": "E5",
          "ticks": 106920,
          "time": 423.5625,
          "velocity": 1
        },
        {
          "duration": 0.09062499999998863,
          "durationTicks": 58,
          "midi": 74,
          "name": "D5",
          "ticks": 107100,
          "time": 423.84375,
          "velocity": 1
        },
        {
          "duration": 0.18437499999998863,
          "durationTicks": 118,
          "midi": 76,
          "name": "E5",
          "ticks": 107160,
          "time": 423.9375,
          "velocity": 1
        },
        {
          "duration": 0.5593749999999886,
          "durationTicks": 358,
          "midi": 78,
          "name": "F#5",
          "ticks": 107280,
          "time": 424.125,
          "velocity": 1
        },
        {
          "duration": 0.5593749999999886,
          "durationTicks": 358,
          "midi": 81,
          "name": "A5",
          "ticks": 107640,
          "time": 424.6875,
          "velocity": 1
        },
        {
          "duration": 0.5593749999999886,
          "durationTicks": 358,
          "midi": 81,
          "name": "A5",
          "ticks": 108000,
          "time": 425.25,
          "velocity": 1
        },
        {
          "duration": 0.18437499999998863,
          "durationTicks": 118,
          "midi": 85,
          "name": "C#6",
          "ticks": 108360,
          "time": 425.8125,
          "velocity": 1
        },
        {
          "duration": 0.18437499999998863,
          "durationTicks": 118,
          "midi": 81,
          "name": "A5",
          "ticks": 108480,
          "time": 426,
          "velocity": 1
        },
        {
          "duration": 0.18437499999998863,
          "durationTicks": 118,
          "midi": 85,
          "name": "C#6",
          "ticks": 108600,
          "time": 426.1875,
          "velocity": 1
        },
        {
          "duration": 0.18437499999998863,
          "durationTicks": 118,
          "midi": 86,
          "name": "D6",
          "ticks": 108720,
          "time": 426.375,
          "velocity": 1
        },
        {
          "duration": 0.18437499999998863,
          "durationTicks": 118,
          "midi": 83,
          "name": "B5",
          "ticks": 108840,
          "time": 426.5625,
          "velocity": 1
        },
        {
          "duration": 0.18437499999998863,
          "durationTicks": 118,
          "midi": 86,
          "name": "D6",
          "ticks": 108960,
          "time": 426.75,
          "velocity": 1
        },
        {
          "duration": 0.18437499999998863,
          "durationTicks": 118,
          "midi": 85,
          "name": "C#6",
          "ticks": 109080,
          "time": 426.9375,
          "velocity": 1
        },
        {
          "duration": 0.18437499999998863,
          "durationTicks": 118,
          "midi": 81,
          "name": "A5",
          "ticks": 109200,
          "time": 427.125,
          "velocity": 1
        },
        {
          "duration": 0.18437499999998863,
          "durationTicks": 118,
          "midi": 85,
          "name": "C#6",
          "ticks": 109320,
          "time": 427.3125,
          "velocity": 1
        },
        {
          "duration": 0.18437499999998863,
          "durationTicks": 118,
          "midi": 86,
          "name": "D6",
          "ticks": 109440,
          "time": 427.5,
          "velocity": 1
        },
        {
          "duration": 0.18437499999998863,
          "durationTicks": 118,
          "midi": 83,
          "name": "B5",
          "ticks": 109560,
          "time": 427.6875,
          "velocity": 1
        },
        {
          "duration": 0.18437499999998863,
          "durationTicks": 118,
          "midi": 86,
          "name": "D6",
          "ticks": 109680,
          "time": 427.875,
          "velocity": 1
        },
        {
          "duration": 0.18437499999998863,
          "durationTicks": 118,
          "midi": 85,
          "name": "C#6",
          "ticks": 109800,
          "time": 428.0625,
          "velocity": 1
        },
        {
          "duration": 0.18437499999998863,
          "durationTicks": 118,
          "midi": 81,
          "name": "A5",
          "ticks": 109920,
          "time": 428.25,
          "velocity": 1
        },
        {
          "duration": 0.18437499999998863,
          "durationTicks": 118,
          "midi": 85,
          "name": "C#6",
          "ticks": 110040,
          "time": 428.4375,
          "velocity": 1
        },
        {
          "duration": 0.18437499999998863,
          "durationTicks": 118,
          "midi": 86,
          "name": "D6",
          "ticks": 110160,
          "time": 428.625,
          "velocity": 1
        },
        {
          "duration": 0.18437499999998863,
          "durationTicks": 118,
          "midi": 83,
          "name": "B5",
          "ticks": 110280,
          "time": 428.8125,
          "velocity": 1
        },
        {
          "duration": 0.18437499999998863,
          "durationTicks": 118,
          "midi": 86,
          "name": "D6",
          "ticks": 110400,
          "time": 429,
          "velocity": 1
        },
        {
          "duration": 0.37187499999998863,
          "durationTicks": 238,
          "midi": 86,
          "name": "D6",
          "ticks": 110520,
          "time": 429.1875,
          "velocity": 1
        },
        {
          "duration": 0.18437499999998863,
          "durationTicks": 118,
          "midi": 85,
          "name": "C#6",
          "ticks": 110760,
          "time": 429.5625,
          "velocity": 1
        },
        {
          "duration": 0.5593749999999886,
          "durationTicks": 358,
          "midi": 86,
          "name": "D6",
          "ticks": 110880,
          "time": 429.75,
          "velocity": 1
        },
        {
          "duration": 0.37187499999998863,
          "durationTicks": 238,
          "midi": 86,
          "name": "D6",
          "ticks": 111240,
          "time": 430.3125,
          "velocity": 1
        },
        {
          "duration": 0.18437499999998863,
          "durationTicks": 118,
          "midi": 85,
          "name": "C#6",
          "ticks": 111480,
          "time": 430.6875,
          "velocity": 1
        },
        {
          "duration": 1.1218749999999886,
          "durationTicks": 718,
          "midi": 86,
          "name": "D6",
          "ticks": 111600,
          "time": 430.875,
          "velocity": 1
        }
      ],
      "endOfTrackTicks": 112318
    },
    {
      "channel": 1,
      "controlChanges": {},
      "pitchBends": [],
      "instrument": {
        "family": "strings",
        "number": 40,
        "name": "violin"
      },
      "name": "Violino II",
      "notes": [
        {
          "duration": 1.4875000000000007,
          "durationTicks": 238,
          "midi": 78,
          "name": "F#5",
          "ticks": 3840,
          "time": 24,
          "velocity": 1
        },
        {
          "duration": 1.4875000000000007,
          "durationTicks": 238,
          "midi": 76,
          "name": "E5",
          "ticks": 4080,
          "time": 25.5,
          "velocity": 1
        },
        {
          "duration": 1.4875000000000007,
          "durationTicks": 238,
          "midi": 74,
          "name": "D5",
          "ticks": 4320,
          "time": 27,
          "velocity": 1
        },
        {
          "duration": 1.4875000000000007,
          "durationTicks": 238,
          "midi": 73,
          "name": "C#5",
          "ticks": 4560,
          "time": 28.5,
          "velocity": 1
        },
        {
          "duration": 1.4875000000000007,
          "durationTicks": 238,
          "midi": 71,
          "name": "B4",
          "ticks": 4800,
          "time": 30,
          "velocity": 1
        },
        {
          "duration": 1.4874999999999972,
          "durationTicks": 238,
          "midi": 69,
          "name": "A4",
          "ticks": 5040,
          "time": 31.5,
          "velocity": 1
        },
        {
          "duration": 1.4874999999999972,
          "durationTicks": 238,
          "midi": 71,
          "name": "B4",
          "ticks": 5280,
          "time": 33,
          "velocity": 1
        },
        {
          "duration": 1.4874999999999972,
          "durationTicks": 238,
          "midi": 73,
          "name": "C#5",
          "ticks": 5520,
          "time": 34.5,
          "velocity": 1
        },
        {
          "duration": 1.4874999999999972,
          "durationTicks": 238,
          "midi": 74,
          "name": "D5",
          "ticks": 5760,
          "time": 36,
          "velocity": 1
        },
        {
          "duration": 1.4874999999999972,
          "durationTicks": 238,
          "midi": 73,
          "name": "C#5",
          "ticks": 6000,
          "time": 37.5,
          "velocity": 1
        },
        {
          "duration": 1.4874999999999972,
          "durationTicks": 238,
          "midi": 71,
          "name": "B4",
          "ticks": 6240,
          "time": 39,
          "velocity": 1
        },
        {
          "duration": 1.4874999999999972,
          "durationTicks": 238,
          "midi": 69,
          "name": "A4",
          "ticks": 6480,
          "time": 40.5,
          "velocity": 1
        },
        {
          "duration": 1.4874999999999972,
          "durationTicks": 238,
          "midi": 67,
          "name": "G4",
          "ticks": 6720,
          "time": 42,
          "velocity": 1
        },
        {
          "duration": 1.4874999999999972,
          "durationTicks": 238,
          "midi": 66,
          "name": "F#4",
          "ticks": 6960,
          "time": 43.5,
          "velocity": 1
        },
        {
          "duration": 1.4874999999999972,
          "durationTicks": 238,
          "midi": 67,
          "name": "G4",
          "ticks": 7200,
          "time": 45,
          "velocity": 1
        },
        {
          "duration": 1.4874999999999972,
          "durationTicks": 238,
          "midi": 64,
          "name": "E4",
          "ticks": 7440,
          "time": 46.5,
          "velocity": 1
        },
        {
          "duration": 0.7374999999999972,
          "durationTicks": 118,
          "midi": 62,
          "name": "D4",
          "ticks": 7680,
          "time": 48,
          "velocity": 1
        },
        {
          "duration": 0.7374999999999972,
          "durationTicks": 118,
          "midi": 66,
          "name": "F#4",
          "ticks": 7800,
          "time": 48.75,
          "velocity": 1
        },
        {
          "duration": 0.7374999999999972,
          "durationTicks": 118,
          "midi": 69,
          "name": "A4",
          "ticks": 7920,
          "time": 49.5,
          "velocity": 1
        },
        {
          "duration": 0.7374999999999972,
          "durationTicks": 118,
          "midi": 67,
          "name": "G4",
          "ticks": 8040,
          "time": 50.25,
          "velocity": 1
        },
        {
          "duration": 0.7374999999999972,
          "durationTicks": 118,
          "midi": 66,
          "name": "F#4",
          "ticks": 8160,
          "time": 51,
          "velocity": 1
        },
        {
          "duration": 0.7374999999999972,
          "durationTicks": 118,
          "midi": 62,
          "name": "D4",
          "ticks": 8280,
          "time": 51.75,
          "velocity": 1
        },
        {
          "duration": 0.7374999999999972,
          "durationTicks": 118,
          "midi": 66,
          "name": "F#4",
          "ticks": 8400,
          "time": 52.5,
          "velocity": 1
        },
        {
          "duration": 0.7374999999999972,
          "durationTicks": 118,
          "midi": 64,
          "name": "E4",
          "ticks": 8520,
          "time": 53.25,
          "velocity": 1
        },
        {
          "duration": 0.7374999999999972,
          "durationTicks": 118,
          "midi": 62,
          "name": "D4",
          "ticks": 8640,
          "time": 54,
          "velocity": 1
        },
        {
          "duration": 0.7374999999999972,
          "durationTicks": 118,
          "midi": 59,
          "name": "B3",
          "ticks": 8760,
          "time": 54.75,
          "velocity": 1
        },
        {
          "duration": 0.7374999999999972,
          "durationTicks": 118,
          "midi": 62,
          "name": "D4",
          "ticks": 8880,
          "time": 55.5,
          "velocity": 1
        },
        {
          "duration": 0.7374999999999972,
          "durationTicks": 118,
          "midi": 69,
          "name": "A4",
          "ticks": 9000,
          "time": 56.25,
          "velocity": 1
        },
        {
          "duration": 0.7374999999999972,
          "durationTicks": 118,
          "midi": 67,
          "name": "G4",
          "ticks": 9120,
          "time": 57,
          "velocity": 1
        },
        {
          "duration": 0.7374999999999972,
          "durationTicks": 118,
          "midi": 71,
          "name": "B4",
          "ticks": 9240,
          "time": 57.75,
          "velocity": 1
        },
        {
          "duration": 0.7374999999999972,
          "durationTicks": 118,
          "midi": 69,
          "name": "A4",
          "ticks": 9360,
          "time": 58.5,
          "velocity": 1
        },
        {
          "duration": 0.7374999999999972,
          "durationTicks": 118,
          "midi": 67,
          "name": "G4",
          "ticks": 9480,
          "time": 59.25,
          "velocity": 1
        },
        {
          "duration": 0.7374999999999972,
          "durationTicks": 118,
          "midi": 66,
          "name": "F#4",
          "ticks": 9600,
          "time": 60,
          "velocity": 1
        },
        {
          "duration": 0.7374999999999972,
          "durationTicks": 118,
          "midi": 62,
          "name": "D4",
          "ticks": 9720,
          "time": 60.75,
          "velocity": 1
        },
        {
          "duration": 0.7374999999999972,
          "durationTicks": 118,
          "midi": 64,
          "name": "E4",
          "ticks": 9840,
          "time": 61.5,
          "velocity": 1
        },
        {
          "duration": 0.7374999999999972,
          "durationTicks": 118,
          "midi": 73,
          "name": "C#5",
          "ticks": 9960,
          "time": 62.25,
          "velocity": 1
        },
        {
          "duration": 0.7374999999999972,
          "durationTicks": 118,
          "midi": 74,
          "name": "D5",
          "ticks": 10080,
          "time": 63,
          "velocity": 1
        },
        {
          "duration": 0.7374999999999972,
          "durationTicks": 118,
          "midi": 78,
          "name": "F#5",
          "ticks": 10200,
          "time": 63.75,
          "velocity": 1
        },
        {
          "duration": 0.7374999999999972,
          "durationTicks": 118,
          "midi": 81,
          "name": "A5",
          "ticks": 10320,
          "time": 64.5,
          "velocity": 1
        },
        {
          "duration": 0.7374999999999972,
          "durationTicks": 118,
          "midi": 69,
          "name": "A4",
          "ticks": 10440,
          "time": 65.25,
          "velocity": 1
        },
        {
          "duration": 0.7374999999999972,
          "durationTicks": 118,
          "midi": 71,
          "name": "B4",
          "ticks": 10560,
          "time": 66,
          "velocity": 1
        },
        {
          "duration": 0.7374999999999972,
          "durationTicks": 118,
          "midi": 67,
          "name": "G4",
          "ticks": 10680,
          "time": 66.75,
          "velocity": 1
        },
        {
          "duration": 0.7374999999999972,
          "durationTicks": 118,
          "midi": 69,
          "name": "A4",
          "ticks": 10800,
          "time": 67.5,
          "velocity": 1
        },
        {
          "duration": 0.7374999999999972,
          "durationTicks": 118,
          "midi": 66,
          "name": "F#4",
          "ticks": 10920,
          "time": 68.25,
          "velocity": 1
        },
        {
          "duration": 0.7374999999999972,
          "durationTicks": 118,
          "midi": 62,
          "name": "D4",
          "ticks": 11040,
          "time": 69,
          "velocity": 1
        },
        {
          "duration": 0.7374999999999972,
          "durationTicks": 118,
          "midi": 74,
          "name": "D5",
          "ticks": 11160,
          "time": 69.75,
          "velocity": 1
        },
        {
          "duration": 1.1124999999999972,
          "durationTicks": 178,
          "midi": 74,
          "name": "D5",
          "ticks": 11280,
          "time": 70.5,
          "velocity": 1
        },
        {
          "duration": 0.36249999999999716,
          "durationTicks": 58,
          "midi": 73,
          "name": "C#5",
          "ticks": 11460,
          "time": 71.625,
          "velocity": 1
        },
        {
          "duration": 0.36249999999999716,
          "durationTicks": 58,
          "midi": 74,
          "name": "D5",
          "ticks": 11520,
          "time": 72,
          "velocity": 1
        },
        {
          "duration": 0.36249999999999716,
          "durationTicks": 58,
          "midi": 73,
          "name": "C#5",
          "ticks": 11580,
          "time": 72.375,
          "velocity": 1
        },
        {
          "duration": 0.36249999999999716,
          "durationTicks": 58,
          "midi": 74,
          "name": "D5",
          "ticks": 11640,
          "time": 72.75,
          "velocity": 1
        },
        {
          "duration": 0.36249999999999716,
          "durationTicks": 58,
          "midi": 62,
          "name": "D4",
          "ticks": 11700,
          "time": 73.125,
          "velocity": 1
        },
        {
          "duration": 0.36249999999999716,
          "durationTicks": 58,
          "midi": 61,
          "name": "C#4",
          "ticks": 11760,
          "time": 73.5,
          "velocity": 1
        },
        {
          "duration": 0.36249999999999716,
          "durationTicks": 58,
          "midi": 69,
          "name": "A4",
          "ticks": 11820,
          "time": 73.875,
          "velocity": 1
        },
        {
          "duration": 0.36249999999999716,
          "durationTicks": 58,
          "midi": 64,
          "name": "E4",
          "ticks": 11880,
          "time": 74.25,
          "velocity": 1
        },
        {
          "duration": 0.36249999999999716,
          "durationTicks": 58,
          "midi": 66,
          "name": "F#4",
          "ticks": 11940,
          "time": 74.625,
          "velocity": 1
        },
        {
          "duration": 0.36249999999999716,
          "durationTicks": 58,
          "midi": 62,
          "name": "D4",
          "ticks": 12000,
          "time": 75,
          "velocity": 1
        },
        {
          "duration": 0.36249999999999716,
          "durationTicks": 58,
          "midi": 74,
          "name": "D5",
          "ticks": 12060,
          "time": 75.375,
          "velocity": 1
        },
        {
          "duration": 0.36249999999999716,
          "durationTicks": 58,
          "midi": 73,
          "name": "C#5",
          "ticks": 12120,
          "time": 75.75,
          "velocity": 1
        },
        {
          "duration": 0.36249999999999716,
          "durationTicks": 58,
          "midi": 71,
          "name": "B4",
          "ticks": 12180,
          "time": 76.125,
          "velocity": 1
        },
        {
          "duration": 0.36249999999999716,
          "durationTicks": 58,
          "midi": 73,
          "name": "C#5",
          "ticks": 12240,
          "time": 76.5,
          "velocity": 1
        },
        {
          "duration": 0.36249999999999716,
          "durationTicks": 58,
          "midi": 78,
          "name": "F#5",
          "ticks": 12300,
          "time": 76.875,
          "velocity": 1
        },
        {
          "duration": 0.36249999999999716,
          "durationTicks": 58,
          "midi": 81,
          "name": "A5",
          "ticks": 12360,
          "time": 77.25,
          "velocity": 1
        },
        {
          "duration": 0.36249999999999716,
          "durationTicks": 58,
          "midi": 83,
          "name": "B5",
          "ticks": 12420,
          "time": 77.625,
          "velocity": 1
        },
        {
          "duration": 0.36249999999999716,
          "durationTicks": 58,
          "midi": 79,
          "name": "G5",
          "ticks": 12480,
          "time": 78,
          "velocity": 1
        },
        {
          "duration": 0.36249999999999716,
          "durationTicks": 58,
          "midi": 78,
          "name": "F#5",
          "ticks": 12540,
          "time": 78.375,
          "velocity": 1
        },
        {
          "duration": 0.36249999999999716,
          "durationTicks": 58,
          "midi": 76,
          "name": "E5",
          "ticks": 12600,
          "time": 78.75,
          "velocity": 1
        },
        {
          "duration": 0.36249999999999716,
          "durationTicks": 58,
          "midi": 79,
          "name": "G5",
          "ticks": 12660,
          "time": 79.125,
          "velocity": 1
        },
        {
          "duration": 0.36249999999999716,
          "durationTicks": 58,
          "midi": 78,
          "name": "F#5",
          "ticks": 12720,
          "time": 79.5,
          "velocity": 1
        },
        {
          "duration": 0.36249999999999716,
          "durationTicks": 58,
          "midi": 76,
          "name": "E5",
          "ticks": 12780,
          "time": 79.875,
          "velocity": 1
        },
        {
          "duration": 0.36249999999999716,
          "durationTicks": 58,
          "midi": 74,
          "name": "D5",
          "ticks": 12840,
          "time": 80.25,
          "velocity": 1
        },
        {
          "duration": 0.36249999999999716,
          "durationTicks": 58,
          "midi": 73,
          "name": "C#5",
          "ticks": 12900,
          "time": 80.625,
          "velocity": 1
        },
        {
          "duration": 0.36249999999999716,
          "durationTicks": 58,
          "midi": 71,
          "name": "B4",
          "ticks": 12960,
          "time": 81,
          "velocity": 1
        },
        {
          "duration": 0.36249999999999716,
          "durationTicks": 58,
          "midi": 69,
          "name": "A4",
          "ticks": 13020,
          "time": 81.375,
          "velocity": 1
        },
        {
          "duration": 0.36249999999999716,
          "durationTicks": 58,
          "midi": 67,
          "name": "G4",
          "ticks": 13080,
          "time": 81.75,
          "velocity": 1
        },
        {
          "duration": 0.36249999999999716,
          "durationTicks": 58,
          "midi": 66,
          "name": "F#4",
          "ticks": 13140,
          "time": 82.125,
          "velocity": 1
        },
        {
          "duration": 0.36249999999999716,
          "durationTicks": 58,
          "midi": 64,
          "name": "E4",
          "ticks": 13200,
          "time": 82.5,
          "velocity": 1
        },
        {
          "duration": 0.36249999999999716,
          "durationTicks": 58,
          "midi": 67,
          "name": "G4",
          "ticks": 13260,
          "time": 82.875,
          "velocity": 1
        },
        {
          "duration": 0.36249999999999716,
          "durationTicks": 58,
          "midi": 66,
          "name": "F#4",
          "ticks": 13320,
          "time": 83.25,
          "velocity": 1
        },
        {
          "duration": 0.36249999999999716,
          "durationTicks": 58,
          "midi": 64,
          "name": "E4",
          "ticks": 13380,
          "time": 83.625,
          "velocity": 1
        },
        {
          "duration": 0.36249999999999716,
          "durationTicks": 58,
          "midi": 62,
          "name": "D4",
          "ticks": 13440,
          "time": 84,
          "velocity": 1
        },
        {
          "duration": 0.36249999999999716,
          "durationTicks": 58,
          "midi": 64,
          "name": "E4",
          "ticks": 13500,
          "time": 84.375,
          "velocity": 1
        },
        {
          "duration": 0.36249999999999716,
          "durationTicks": 58,
          "midi": 66,
          "name": "F#4",
          "ticks": 13560,
          "time": 84.75,
          "velocity": 1
        },
        {
          "duration": 0.36249999999999716,
          "durationTicks": 58,
          "midi": 67,
          "name": "G4",
          "ticks": 13620,
          "time": 85.125,
          "velocity": 1
        },
        {
          "duration": 0.36249999999999716,
          "durationTicks": 58,
          "midi": 69,
          "name": "A4",
          "ticks": 13680,
          "time": 85.5,
          "velocity": 1
        },
        {
          "duration": 0.36249999999999716,
          "durationTicks": 58,
          "midi": 64,
          "name": "E4",
          "ticks": 13740,
          "time": 85.875,
          "velocity": 1
        },
        {
          "duration": 0.36249999999999716,
          "durationTicks": 58,
          "midi": 69,
          "name": "A4",
          "ticks": 13800,
          "time": 86.25,
          "velocity": 1
        },
        {
          "duration": 0.36249999999999716,
          "durationTicks": 58,
          "midi": 67,
          "name": "G4",
          "ticks": 13860,
          "time": 86.625,
          "velocity": 1
        },
        {
          "duration": 0.36249999999999716,
          "durationTicks": 58,
          "midi": 66,
          "name": "F#4",
          "ticks": 13920,
          "time": 87,
          "velocity": 1
        },
        {
          "duration": 0.36249999999999716,
          "durationTicks": 58,
          "midi": 71,
          "name": "B4",
          "ticks": 13980,
          "time": 87.375,
          "velocity": 1
        },
        {
          "duration": 0.36249999999999716,
          "durationTicks": 58,
          "midi": 69,
          "name": "A4",
          "ticks": 14040,
          "time": 87.75,
          "velocity": 1
        },
        {
          "duration": 0.36249999999999716,
          "durationTicks": 58,
          "midi": 67,
          "name": "G4",
          "ticks": 14100,
          "time": 88.125,
          "velocity": 1
        },
        {
          "duration": 0.36249999999999716,
          "durationTicks": 58,
          "midi": 69,
          "name": "A4",
          "ticks": 14160,
          "time": 88.5,
          "velocity": 1
        },
        {
          "duration": 0.36249999999999716,
          "durationTicks": 58,
          "midi": 67,
          "name": "G4",
          "ticks": 14220,
          "time": 88.875,
          "velocity": 1
        },
        {
          "duration": 0.36249999999999716,
          "durationTicks": 58,
          "midi": 66,
          "name": "F#4",
          "ticks": 14280,
          "time": 89.25,
          "velocity": 1
        },
        {
          "duration": 0.36249999999999716,
          "durationTicks": 58,
          "midi": 64,
          "name": "E4",
          "ticks": 14340,
          "time": 89.625,
          "velocity": 1
        },
        {
          "duration": 0.36249999999999716,
          "durationTicks": 58,
          "midi": 62,
          "name": "D4",
          "ticks": 14400,
          "time": 90,
          "velocity": 1
        },
        {
          "duration": 0.36249999999999716,
          "durationTicks": 58,
          "midi": 59,
          "name": "B3",
          "ticks": 14460,
          "time": 90.375,
          "velocity": 1
        },
        {
          "duration": 0.36249999999999716,
          "durationTicks": 58,
          "midi": 71,
          "name": "B4",
          "ticks": 14520,
          "time": 90.75,
          "velocity": 1
        },
        {
          "duration": 0.36249999999999716,
          "durationTicks": 58,
          "midi": 73,
          "name": "C#5",
          "ticks": 14580,
          "time": 91.125,
          "velocity": 1
        },
        {
          "duration": 0.36249999999999716,
          "durationTicks": 58,
          "midi": 74,
          "name": "D5",
          "ticks": 14640,
          "time": 91.5,
          "velocity": 1
        },
        {
          "duration": 0.36249999999999716,
          "durationTicks": 58,
          "midi": 73,
          "name": "C#5",
          "ticks": 14700,
          "time": 91.875,
          "velocity": 1
        },
        {
          "duration": 0.36249999999999716,
          "durationTicks": 58,
          "midi": 71,
          "name": "B4",
          "ticks": 14760,
          "time": 92.25,
          "velocity": 1
        },
        {
          "duration": 0.36249999999999716,
          "durationTicks": 58,
          "midi": 69,
          "name": "A4",
          "ticks": 14820,
          "time": 92.625,
          "velocity": 1
        },
        {
          "duration": 0.36249999999999716,
          "durationTicks": 58,
          "midi": 67,
          "name": "G4",
          "ticks": 14880,
          "time": 93,
          "velocity": 1
        },
        {
          "duration": 0.36249999999999716,
          "durationTicks": 58,
          "midi": 66,
          "name": "F#4",
          "ticks": 14940,
          "time": 93.375,
          "velocity": 1
        },
        {
          "duration": 0.36249999999999716,
          "durationTicks": 58,
          "midi": 64,
          "name": "E4",
          "ticks": 15000,
          "time": 93.75,
          "velocity": 1
        },
        {
          "duration": 0.36249999999999716,
          "durationTicks": 58,
          "midi": 71,
          "name": "B4",
          "ticks": 15060,
          "time": 94.125,
          "velocity": 1
        },
        {
          "duration": 0.36249999999999716,
          "durationTicks": 58,
          "midi": 69,
          "name": "A4",
          "ticks": 15120,
          "time": 94.5,
          "velocity": 1
        },
        {
          "duration": 0.36249999999999716,
          "durationTicks": 58,
          "midi": 71,
          "name": "B4",
          "ticks": 15180,
          "time": 94.875,
          "velocity": 1
        },
        {
          "duration": 0.36249999999999716,
          "durationTicks": 58,
          "midi": 69,
          "name": "A4",
          "ticks": 15240,
          "time": 95.25,
          "velocity": 1
        },
        {
          "duration": 0.36249999999999716,
          "durationTicks": 58,
          "midi": 67,
          "name": "G4",
          "ticks": 15300,
          "time": 95.625,
          "velocity": 1
        },
        {
          "duration": 0.737499999999983,
          "durationTicks": 118,
          "midi": 66,
          "name": "F#4",
          "ticks": 15360,
          "time": 96,
          "velocity": 1
        },
        {
          "duration": 0.737499999999983,
          "durationTicks": 118,
          "midi": 78,
          "name": "F#5",
          "ticks": 15480,
          "time": 96.75,
          "velocity": 1
        },
        {
          "duration": 1.487499999999983,
          "durationTicks": 238,
          "midi": 76,
          "name": "E5",
          "ticks": 15600,
          "time": 97.5,
          "velocity": 1
        },
        {
          "duration": 0.737499999999983,
          "durationTicks": 118,
          "midi": 74,
          "name": "D5",
          "ticks": 15960,
          "time": 99.75,
          "velocity": 1
        },
        {
          "duration": 1.487499999999983,
          "durationTicks": 238,
          "midi": 78,
          "name": "F#5",
          "ticks": 16080,
          "time": 100.5,
          "velocity": 1
        },
        {
          "duration": 1.487499999999983,
          "durationTicks": 238,
          "midi": 83,
          "name": "B5",
          "ticks": 16320,
          "time": 102,
          "velocity": 1
        },
        {
          "duration": 1.487499999999983,
          "durationTicks": 238,
          "midi": 81,
          "name": "A5",
          "ticks": 16560,
          "time": 103.5,
          "velocity": 1
        },
        {
          "duration": 1.487499999999983,
          "durationTicks": 238,
          "midi": 83,
          "name": "B5",
          "ticks": 16800,
          "time": 105,
          "velocity": 1
        },
        {
          "duration": 1.487499999999983,
          "durationTicks": 238,
          "midi": 85,
          "name": "C#6",
          "ticks": 17040,
          "time": 106.5,
          "velocity": 1
        },
        {
          "duration": 0.737499999999983,
          "durationTicks": 118,
          "midi": 86,
          "name": "D6",
          "ticks": 17280,
          "time": 108,
          "velocity": 1
        },
        {
          "duration": 0.737499999999983,
          "durationTicks": 118,
          "midi": 74,
          "name": "D5",
          "ticks": 17400,
          "time": 108.75,
          "velocity": 1
        },
        {
          "duration": 1.487499999999983,
          "durationTicks": 238,
          "midi": 73,
          "name": "C#5",
          "ticks": 17520,
          "time": 109.5,
          "velocity": 1
        },
        {
          "duration": 0.737499999999983,
          "durationTicks": 118,
          "midi": 71,
          "name": "B4",
          "ticks": 17880,
          "time": 111.75,
          "velocity": 1
        },
        {
          "duration": 1.487499999999983,
          "durationTicks": 238,
          "midi": 74,
          "name": "D5",
          "ticks": 18000,
          "time": 112.5,
          "velocity": 1
        },
        {
          "duration": 2.237499999999983,
          "durationTicks": 358,
          "midi": 74,
          "name": "D5",
          "ticks": 18240,
          "time": 114,
          "velocity": 1
        },
        {
          "duration": 0.737499999999983,
          "durationTicks": 118,
          "midi": 74,
          "name": "D5",
          "ticks": 18600,
          "time": 116.25,
          "velocity": 1
        },
        {
          "duration": 0.737499999999983,
          "durationTicks": 118,
          "midi": 74,
          "name": "D5",
          "ticks": 18720,
          "time": 117,
          "velocity": 1
        },
        {
          "duration": 0.737499999999983,
          "durationTicks": 118,
          "midi": 79,
          "name": "G5",
          "ticks": 18840,
          "time": 117.75,
          "velocity": 1
        },
        {
          "duration": 0.737499999999983,
          "durationTicks": 118,
          "midi": 76,
          "name": "E5",
          "ticks": 18960,
          "time": 118.5,
          "velocity": 1
        },
        {
          "duration": 0.737499999999983,
          "durationTicks": 118,
          "midi": 81,
          "name": "A5",
          "ticks": 19080,
          "time": 119.25,
          "velocity": 1
        },
        {
          "duration": 0.36249999999998295,
          "durationTicks": 58,
          "midi": 81,
          "name": "A5",
          "ticks": 19200,
          "time": 120,
          "velocity": 1
        },
        {
          "duration": 0.17499999999998295,
          "durationTicks": 28,
          "midi": 78,
          "name": "F#5",
          "ticks": 19260,
          "time": 120.375,
          "velocity": 1
        },
        {
          "duration": 0.17499999999998295,
          "durationTicks": 28,
          "midi": 79,
          "name": "G5",
          "ticks": 19290,
          "time": 120.5625,
          "velocity": 1
        },
        {
          "duration": 0.36249999999998295,
          "durationTicks": 58,
          "midi": 81,
          "name": "A5",
          "ticks": 19320,
          "time": 120.75,
          "velocity": 1
        },
        {
          "duration": 0.17499999999998295,
          "durationTicks": 28,
          "midi": 78,
          "name": "F#5",
          "ticks": 19380,
          "time": 121.125,
          "velocity": 1
        },
        {
          "duration": 0.17499999999998295,
          "durationTicks": 28,
          "midi": 79,
          "name": "G5",
          "ticks": 19410,
          "time": 121.3125,
          "velocity": 1
        },
        {
          "duration": 0.17499999999998295,
          "durationTicks": 28,
          "midi": 81,
          "name": "A5",
          "ticks": 19440,
          "time": 121.5,
          "velocity": 1
        },
        {
          "duration": 0.17499999999998295,
          "durationTicks": 28,
          "midi": 69,
          "name": "A4",
          "ticks": 19470,
          "time": 121.6875,
          "velocity": 1
        },
        {
          "duration": 0.17499999999998295,
          "durationTicks": 28,
          "midi": 71,
          "name": "B4",
          "ticks": 19500,
          "time": 121.875,
          "velocity": 1
        },
        {
          "duration": 0.17499999999998295,
          "durationTicks": 28,
          "midi": 73,
          "name": "C#5",
          "ticks": 19530,
          "time": 122.0625,
          "velocity": 1
        },
        {
          "duration": 0.17499999999998295,
          "durationTicks": 28,
          "midi": 74,
          "name": "D5",
          "ticks": 19560,
          "time": 122.25,
          "velocity": 1
        },
        {
          "duration": 0.17499999999998295,
          "durationTicks": 28,
          "midi": 76,
          "name": "E5",
          "ticks": 19590,
          "time": 122.4375,
          "velocity": 1
        },
        {
          "duration": 0.17499999999998295,
          "durationTicks": 28,
          "midi": 78,
          "name": "F#5",
          "ticks": 19620,
          "time": 122.625,
          "velocity": 1
        },
        {
          "duration": 0.17499999999998295,
          "durationTicks": 28,
          "midi": 79,
          "name": "G5",
          "ticks": 19650,
          "time": 122.8125,
          "velocity": 1
        },
        {
          "duration": 0.36249999999998295,
          "durationTicks": 58,
          "midi": 78,
          "name": "F#5",
          "ticks": 19680,
          "time": 123,
          "velocity": 1
        },
        {
          "duration": 0.17499999999998295,
          "durationTicks": 28,
          "midi": 74,
          "name": "D5",
          "ticks": 19740,
          "time": 123.375,
          "velocity": 1
        },
        {
          "duration": 0.17499999999998295,
          "durationTicks": 28,
          "midi": 76,
          "name": "E5",
          "ticks": 19770,
          "time": 123.5625,
          "velocity": 1
        },
        {
          "duration": 0.36249999999998295,
          "durationTicks": 58,
          "midi": 78,
          "name": "F#5",
          "ticks": 19800,
          "time": 123.75,
          "velocity": 1
        },
        {
          "duration": 0.17499999999998295,
          "durationTicks": 28,
          "midi": 66,
          "name": "F#4",
          "ticks": 19860,
          "time": 124.125,
          "velocity": 1
        },
        {
          "duration": 0.17499999999998295,
          "durationTicks": 28,
          "midi": 67,
          "name": "G4",
          "ticks": 19890,
          "time": 124.3125,
          "velocity": 1
        },
        {
          "duration": 0.17499999999998295,
          "durationTicks": 28,
          "midi": 69,
          "name": "A4",
          "ticks": 19920,
          "time": 124.5,
          "velocity": 1
        },
        {
          "duration": 0.17499999999998295,
          "durationTicks": 28,
          "midi": 71,
          "name": "B4",
          "ticks": 19950,
          "time": 124.6875,
          "velocity": 1
        },
        {
          "duration": 0.17499999999998295,
          "durationTicks": 28,
          "midi": 69,
          "name": "A4",
          "ticks": 19980,
          "time": 124.875,
          "velocity": 1
        },
        {
          "duration": 0.17499999999998295,
          "durationTicks": 28,
          "midi": 67,
          "name": "G4",
          "ticks": 20010,
          "time": 125.0625,
          "velocity": 1
        },
        {
          "duration": 0.17499999999998295,
          "durationTicks": 28,
          "midi": 69,
          "name": "A4",
          "ticks": 20040,
          "time": 125.25,
          "velocity": 1
        },
        {
          "duration": 0.17499999999998295,
          "durationTicks": 28,
          "midi": 66,
          "name": "F#4",
          "ticks": 20070,
          "time": 125.4375,
          "velocity": 1
        },
        {
          "duration": 0.17499999999998295,
          "durationTicks": 28,
          "midi": 67,
          "name": "G4",
          "ticks": 20100,
          "time": 125.625,
          "velocity": 1
        },
        {
          "duration": 0.17499999999998295,
          "durationTicks": 28,
          "midi": 69,
          "name": "A4",
          "ticks": 20130,
          "time": 125.8125,
          "velocity": 1
        },
        {
          "duration": 0.36249999999998295,
          "durationTicks": 58,
          "midi": 67,
          "name": "G4",
          "ticks": 20160,
          "time": 126,
          "velocity": 1
        },
        {
          "duration": 0.17499999999998295,
          "durationTicks": 28,
          "midi": 71,
          "name": "B4",
          "ticks": 20220,
          "time": 126.375,
          "velocity": 1
        },
        {
          "duration": 0.17499999999998295,
          "durationTicks": 28,
          "midi": 69,
          "name": "A4",
          "ticks": 20250,
          "time": 126.5625,
          "velocity": 1
        },
        {
          "duration": 0.36249999999998295,
          "durationTicks": 58,
          "midi": 67,
          "name": "G4",
          "ticks": 20280,
          "time": 126.75,
          "velocity": 1
        },
        {
          "duration": 0.17499999999998295,
          "durationTicks": 28,
          "midi": 66,
          "name": "F#4",
          "ticks": 20340,
          "time": 127.125,
          "velocity": 1
        },
        {
          "duration": 0.17499999999998295,
          "durationTicks": 28,
          "midi": 64,
          "name": "E4",
          "ticks": 20370,
          "time": 127.3125,
          "velocity": 1
        },
        {
          "duration": 0.17499999999998295,
          "durationTicks": 28,
          "midi": 66,
          "name": "F#4",
          "ticks": 20400,
          "time": 127.5,
          "velocity": 1
        },
        {
          "duration": 0.17499999999998295,
          "durationTicks": 28,
          "midi": 64,
          "name": "E4",
          "ticks": 20430,
          "time": 127.6875,
          "velocity": 1
        },
        {
          "duration": 0.17499999999998295,
          "durationTicks": 28,
          "midi": 62,
          "name": "D4",
          "ticks": 20460,
          "time": 127.875,
          "velocity": 1
        },
        {
          "duration": 0.17499999999998295,
          "durationTicks": 28,
          "midi": 64,
          "name": "E4",
          "ticks": 20490,
          "time": 128.0625,
          "velocity": 1
        },
        {
          "duration": 0.17499999999998295,
          "durationTicks": 28,
          "midi": 66,
          "name": "F#4",
          "ticks": 20520,
          "time": 128.25,
          "velocity": 1
        },
        {
          "duration": 0.17499999999998295,
          "durationTicks": 28,
          "midi": 67,
          "name": "G4",
          "ticks": 20550,
          "time": 128.4375,
          "velocity": 1
        },
        {
          "duration": 0.17499999999998295,
          "durationTicks": 28,
          "midi": 69,
          "name": "A4",
          "ticks": 20580,
          "time": 128.625,
          "velocity": 1
        },
        {
          "duration": 0.17499999999998295,
          "durationTicks": 28,
          "midi": 71,
          "name": "B4",
          "ticks": 20610,
          "time": 128.8125,
          "velocity": 1
        },
        {
          "duration": 0.36249999999998295,
          "durationTicks": 58,
          "midi": 67,
          "name": "G4",
          "ticks": 20640,
          "time": 129,
          "velocity": 1
        },
        {
          "duration": 0.17499999999998295,
          "durationTicks": 28,
          "midi": 71,
          "name": "B4",
          "ticks": 20700,
          "time": 129.375,
          "velocity": 1
        },
        {
          "duration": 0.17499999999998295,
          "durationTicks": 28,
          "midi": 69,
          "name": "A4",
          "ticks": 20730,
          "time": 129.5625,
          "velocity": 1
        },
        {
          "duration": 0.36249999999998295,
          "durationTicks": 58,
          "midi": 71,
          "name": "B4",
          "ticks": 20760,
          "time": 129.75,
          "velocity": 1
        },
        {
          "duration": 0.17499999999998295,
          "durationTicks": 28,
          "midi": 73,
          "name": "C#5",
          "ticks": 20820,
          "time": 130.125,
          "velocity": 1
        },
        {
          "duration": 0.17499999999998295,
          "durationTicks": 28,
          "midi": 74,
          "name": "D5",
          "ticks": 20850,
          "time": 130.3125,
          "velocity": 1
        },
        {
          "duration": 0.17499999999998295,
          "durationTicks": 28,
          "midi": 69,
          "name": "A4",
          "ticks": 20880,
          "time": 130.5,
          "velocity": 1
        },
        {
          "duration": 0.17499999999998295,
          "durationTicks": 28,
          "midi": 71,
          "name": "B4",
          "ticks": 20910,
          "time": 130.6875,
          "velocity": 1
        },
        {
          "duration": 0.17499999999998295,
          "durationTicks": 28,
          "midi": 73,
          "name": "C#5",
          "ticks": 20940,
          "time": 130.875,
          "velocity": 1
        },
        {
          "duration": 0.17499999999998295,
          "durationTicks": 28,
          "midi": 74,
          "name": "D5",
          "ticks": 20970,
          "time": 131.0625,
          "velocity": 1
        },
        {
          "duration": 0.17499999999998295,
          "durationTicks": 28,
          "midi": 76,
          "name": "E5",
          "ticks": 21000,
          "time": 131.25,
          "velocity": 1
        },
        {
          "duration": 0.17499999999998295,
          "durationTicks": 28,
          "midi": 78,
          "name": "F#5",
          "ticks": 21030,
          "time": 131.4375,
          "velocity": 1
        },
        {
          "duration": 0.17499999999998295,
          "durationTicks": 28,
          "midi": 79,
          "name": "G5",
          "ticks": 21060,
          "time": 131.625,
          "velocity": 1
        },
        {
          "duration": 0.17499999999998295,
          "durationTicks": 28,
          "midi": 81,
          "name": "A5",
          "ticks": 21090,
          "time": 131.8125,
          "velocity": 1
        },
        {
          "duration": 0.36249999999998295,
          "durationTicks": 58,
          "midi": 78,
          "name": "F#5",
          "ticks": 21120,
          "time": 132,
          "velocity": 1
        },
        {
          "duration": 0.17499999999998295,
          "durationTicks": 28,
          "midi": 74,
          "name": "D5",
          "ticks": 21180,
          "time": 132.375,
          "velocity": 1
        },
        {
          "duration": 0.17499999999998295,
          "durationTicks": 28,
          "midi": 76,
          "name": "E5",
          "ticks": 21210,
          "time": 132.5625,
          "velocity": 1
        },
        {
          "duration": 0.36249999999998295,
          "durationTicks": 58,
          "midi": 78,
          "name": "F#5",
          "ticks": 21240,
          "time": 132.75,
          "velocity": 1
        },
        {
          "duration": 0.17499999999998295,
          "durationTicks": 28,
          "midi": 76,
          "name": "E5",
          "ticks": 21300,
          "time": 133.125,
          "velocity": 1
        },
        {
          "duration": 0.17499999999998295,
          "durationTicks": 28,
          "midi": 74,
          "name": "D5",
          "ticks": 21330,
          "time": 133.3125,
          "velocity": 1
        },
        {
          "duration": 0.17499999999998295,
          "durationTicks": 28,
          "midi": 76,
          "name": "E5",
          "ticks": 21360,
          "time": 133.5,
          "velocity": 1
        },
        {
          "duration": 0.17499999999998295,
          "durationTicks": 28,
          "midi": 73,
          "name": "C#5",
          "ticks": 21390,
          "time": 133.6875,
          "velocity": 1
        },
        {
          "duration": 0.17499999999998295,
          "durationTicks": 28,
          "midi": 74,
          "name": "D5",
          "ticks": 21420,
          "time": 133.875,
          "velocity": 1
        },
        {
          "duration": 0.17499999999998295,
          "durationTicks": 28,
          "midi": 76,
          "name": "E5",
          "ticks": 21450,
          "time": 134.0625,
          "velocity": 1
        },
        {
          "duration": 0.17499999999998295,
          "durationTicks": 28,
          "midi": 78,
          "name": "F#5",
          "ticks": 21480,
          "time": 134.25,
          "velocity": 1
        },
        {
          "duration": 0.17499999999998295,
          "durationTicks": 28,
          "midi": 76,
          "name": "E5",
          "ticks": 21510,
          "time": 134.4375,
          "velocity": 1
        },
        {
          "duration": 0.17499999999998295,
          "durationTicks": 28,
          "midi": 74,
          "name": "D5",
          "ticks": 21540,
          "time": 134.625,
          "velocity": 1
        },
        {
          "duration": 0.17499999999998295,
          "durationTicks": 28,
          "midi": 73,
          "name": "C#5",
          "ticks": 21570,
          "time": 134.8125,
          "velocity": 1
        },
        {
          "duration": 0.36249999999998295,
          "durationTicks": 58,
          "midi": 74,
          "name": "D5",
          "ticks": 21600,
          "time": 135,
          "velocity": 1
        },
        {
          "duration": 0.17499999999998295,
          "durationTicks": 28,
          "midi": 71,
          "name": "B4",
          "ticks": 21660,
          "time": 135.375,
          "velocity": 1
        },
        {
          "duration": 0.17499999999998295,
          "durationTicks": 28,
          "midi": 73,
          "name": "C#5",
          "ticks": 21690,
          "time": 135.5625,
          "velocity": 1
        },
        {
          "duration": 0.36249999999998295,
          "durationTicks": 58,
          "midi": 74,
          "name": "D5",
          "ticks": 21720,
          "time": 135.75,
          "velocity": 1
        },
        {
          "duration": 0.17499999999998295,
          "durationTicks": 28,
          "midi": 62,
          "name": "D4",
          "ticks": 21780,
          "time": 136.125,
          "velocity": 1
        },
        {
          "duration": 0.17499999999998295,
          "durationTicks": 28,
          "midi": 64,
          "name": "E4",
          "ticks": 21810,
          "time": 136.3125,
          "velocity": 1
        },
        {
          "duration": 0.17499999999998295,
          "durationTicks": 28,
          "midi": 66,
          "name": "F#4",
          "ticks": 21840,
          "time": 136.5,
          "velocity": 1
        },
        {
          "duration": 0.17499999999998295,
          "durationTicks": 28,
          "midi": 67,
          "name": "G4",
          "ticks": 21870,
          "time": 136.6875,
          "velocity": 1
        },
        {
          "duration": 0.17499999999998295,
          "durationTicks": 28,
          "midi": 66,
          "name": "F#4",
          "ticks": 21900,
          "time": 136.875,
          "velocity": 1
        },
        {
          "duration": 0.17499999999998295,
          "durationTicks": 28,
          "midi": 64,
          "name": "E4",
          "ticks": 21930,
          "time": 137.0625,
          "velocity": 1
        },
        {
          "duration": 0.17499999999998295,
          "durationTicks": 28,
          "midi": 66,
          "name": "F#4",
          "ticks": 21960,
          "time": 137.25,
          "velocity": 1
        },
        {
          "duration": 0.17499999999998295,
          "durationTicks": 28,
          "midi": 74,
          "name": "D5",
          "ticks": 21990,
          "time": 137.4375,
          "velocity": 1
        },
        {
          "duration": 0.17499999999998295,
          "durationTicks": 28,
          "midi": 73,
          "name": "C#5",
          "ticks": 22020,
          "time": 137.625,
          "velocity": 1
        },
        {
          "duration": 0.17499999999998295,
          "durationTicks": 28,
          "midi": 74,
          "name": "D5",
          "ticks": 22050,
          "time": 137.8125,
          "velocity": 1
        },
        {
          "duration": 0.36249999999998295,
          "durationTicks": 58,
          "midi": 71,
          "name": "B4",
          "ticks": 22080,
          "time": 138,
          "velocity": 1
        },
        {
          "duration": 0.17499999999998295,
          "durationTicks": 28,
          "midi": 74,
          "name": "D5",
          "ticks": 22140,
          "time": 138.375,
          "velocity": 1
        },
        {
          "duration": 0.17499999999998295,
          "durationTicks": 28,
          "midi": 73,
          "name": "C#5",
          "ticks": 22170,
          "time": 138.5625,
          "velocity": 1
        },
        {
          "duration": 0.36249999999998295,
          "durationTicks": 58,
          "midi": 71,
          "name": "B4",
          "ticks": 22200,
          "time": 138.75,
          "velocity": 1
        },
        {
          "duration": 0.17499999999998295,
          "durationTicks": 28,
          "midi": 69,
          "name": "A4",
          "ticks": 22260,
          "time": 139.125,
          "velocity": 1
        },
        {
          "duration": 0.17499999999998295,
          "durationTicks": 28,
          "midi": 67,
          "name": "G4",
          "ticks": 22290,
          "time": 139.3125,
          "velocity": 1
        },
        {
          "duration": 0.17499999999998295,
          "durationTicks": 28,
          "midi": 69,
          "name": "A4",
          "ticks": 22320,
          "time": 139.5,
          "velocity": 1
        },
        {
          "duration": 0.17499999999998295,
          "durationTicks": 28,
          "midi": 67,
          "name": "G4",
          "ticks": 22350,
          "time": 139.6875,
          "velocity": 1
        },
        {
          "duration": 0.17499999999998295,
          "durationTicks": 28,
          "midi": 66,
          "name": "F#4",
          "ticks": 22380,
          "time": 139.875,
          "velocity": 1
        },
        {
          "duration": 0.17499999999998295,
          "durationTicks": 28,
          "midi": 67,
          "name": "G4",
          "ticks": 22410,
          "time": 140.0625,
          "velocity": 1
        },
        {
          "duration": 0.17499999999998295,
          "durationTicks": 28,
          "midi": 69,
          "name": "A4",
          "ticks": 22440,
          "time": 140.25,
          "velocity": 1
        },
        {
          "duration": 0.17499999999998295,
          "durationTicks": 28,
          "midi": 71,
          "name": "B4",
          "ticks": 22470,
          "time": 140.4375,
          "velocity": 1
        },
        {
          "duration": 0.17499999999998295,
          "durationTicks": 28,
          "midi": 73,
          "name": "C#5",
          "ticks": 22500,
          "time": 140.625,
          "velocity": 1
        },
        {
          "duration": 0.17499999999998295,
          "durationTicks": 28,
          "midi": 74,
          "name": "D5",
          "ticks": 22530,
          "time": 140.8125,
          "velocity": 1
        },
        {
          "duration": 0.36249999999998295,
          "durationTicks": 58,
          "midi": 71,
          "name": "B4",
          "ticks": 22560,
          "time": 141,
          "velocity": 1
        },
        {
          "duration": 0.17499999999998295,
          "durationTicks": 28,
          "midi": 74,
          "name": "D5",
          "ticks": 22620,
          "time": 141.375,
          "velocity": 1
        },
        {
          "duration": 0.17499999999998295,
          "durationTicks": 28,
          "midi": 73,
          "name": "C#5",
          "ticks": 22650,
          "time": 141.5625,
          "velocity": 1
        },
        {
          "duration": 0.36249999999998295,
          "durationTicks": 58,
          "midi": 74,
          "name": "D5",
          "ticks": 22680,
          "time": 141.75,
          "velocity": 1
        },
        {
          "duration": 0.17499999999998295,
          "durationTicks": 28,
          "midi": 73,
          "name": "C#5",
          "ticks": 22740,
          "time": 142.125,
          "velocity": 1
        },
        {
          "duration": 0.17499999999998295,
          "durationTicks": 28,
          "midi": 71,
          "name": "B4",
          "ticks": 22770,
          "time": 142.3125,
          "velocity": 1
        },
        {
          "duration": 0.17499999999998295,
          "durationTicks": 28,
          "midi": 73,
          "name": "C#5",
          "ticks": 22800,
          "time": 142.5,
          "velocity": 1
        },
        {
          "duration": 0.17499999999998295,
          "durationTicks": 28,
          "midi": 74,
          "name": "D5",
          "ticks": 22830,
          "time": 142.6875,
          "velocity": 1
        },
        {
          "duration": 0.17499999999998295,
          "durationTicks": 28,
          "midi": 76,
          "name": "E5",
          "ticks": 22860,
          "time": 142.875,
          "velocity": 1
        },
        {
          "duration": 0.17499999999998295,
          "durationTicks": 28,
          "midi": 74,
          "name": "D5",
          "ticks": 22890,
          "time": 143.0625,
          "velocity": 1
        },
        {
          "duration": 0.17499999999998295,
          "durationTicks": 28,
          "midi": 73,
          "name": "C#5",
          "ticks": 22920,
          "time": 143.25,
          "velocity": 1
        },
        {
          "duration": 0.17499999999998295,
          "durationTicks": 28,
          "midi": 74,
          "name": "D5",
          "ticks": 22950,
          "time": 143.4375,
          "velocity": 1
        },
        {
          "duration": 0.17499999999998295,
          "durationTicks": 28,
          "midi": 71,
          "name": "B4",
          "ticks": 22980,
          "time": 143.625,
          "velocity": 1
        },
        {
          "duration": 0.17499999999998295,
          "durationTicks": 28,
          "midi": 73,
          "name": "C#5",
          "ticks": 23010,
          "time": 143.8125,
          "velocity": 1
        },
        {
          "duration": 0.737499999999983,
          "durationTicks": 118,
          "midi": 74,
          "name": "D5",
          "ticks": 23040,
          "time": 144,
          "velocity": 1
        },
        {
          "duration": 0.737499999999983,
          "durationTicks": 118,
          "midi": 73,
          "name": "C#5",
          "ticks": 23280,
          "time": 145.5,
          "velocity": 1
        },
        {
          "duration": 0.737499999999983,
          "durationTicks": 118,
          "midi": 71,
          "name": "B4",
          "ticks": 23520,
          "time": 147,
          "velocity": 1
        },
        {
          "duration": 0.737499999999983,
          "durationTicks": 118,
          "midi": 74,
          "name": "D5",
          "ticks": 23760,
          "time": 148.5,
          "velocity": 1
        },
        {
          "duration": 0.737499999999983,
          "durationTicks": 118,
          "midi": 62,
          "name": "D4",
          "ticks": 24000,
          "time": 150,
          "velocity": 1
        },
        {
          "duration": 0.737499999999983,
          "durationTicks": 118,
          "midi": 62,
          "name": "D4",
          "ticks": 24240,
          "time": 151.5,
          "velocity": 1
        },
        {
          "duration": 0.737499999999983,
          "durationTicks": 118,
          "midi": 62,
          "name": "D4",
          "ticks": 24480,
          "time": 153,
          "velocity": 1
        },
        {
          "duration": 0.737499999999983,
          "durationTicks": 118,
          "midi": 64,
          "name": "E4",
          "ticks": 24720,
          "time": 154.5,
          "velocity": 1
        },
        {
          "duration": 0.737499999999983,
          "durationTicks": 118,
          "midi": 69,
          "name": "A4",
          "ticks": 25080,
          "time": 156.75,
          "velocity": 1
        },
        {
          "duration": 0.737499999999983,
          "durationTicks": 118,
          "midi": 69,
          "name": "A4",
          "ticks": 25320,
          "time": 158.25,
          "velocity": 1
        },
        {
          "duration": 0.737499999999983,
          "durationTicks": 118,
          "midi": 66,
          "name": "F#4",
          "ticks": 25560,
          "time": 159.75,
          "velocity": 1
        },
        {
          "duration": 0.737499999999983,
          "durationTicks": 118,
          "midi": 69,
          "name": "A4",
          "ticks": 25800,
          "time": 161.25,
          "velocity": 1
        },
        {
          "duration": 0.737499999999983,
          "durationTicks": 118,
          "midi": 67,
          "name": "G4",
          "ticks": 26040,
          "time": 162.75,
          "velocity": 1
        },
        {
          "duration": 0.737499999999983,
          "durationTicks": 118,
          "midi": 66,
          "name": "F#4",
          "ticks": 26280,
          "time": 164.25,
          "velocity": 1
        },
        {
          "duration": 0.737499999999983,
          "durationTicks": 118,
          "midi": 67,
          "name": "G4",
          "ticks": 26520,
          "time": 165.75,
          "velocity": 1
        },
        {
          "duration": 0.737499999999983,
          "durationTicks": 118,
          "midi": 76,
          "name": "E5",
          "ticks": 26760,
          "time": 167.25,
          "velocity": 1
        },
        {
          "duration": 0.36249999999998295,
          "durationTicks": 58,
          "midi": 78,
          "name": "F#5",
          "ticks": 26880,
          "time": 168,
          "velocity": 1
        },
        {
          "duration": 0.36249999999998295,
          "durationTicks": 58,
          "midi": 66,
          "name": "F#4",
          "ticks": 26940,
          "time": 168.375,
          "velocity": 1
        },
        {
          "duration": 0.36249999999998295,
          "durationTicks": 58,
          "midi": 67,
          "name": "G4",
          "ticks": 27000,
          "time": 168.75,
          "velocity": 1
        },
        {
          "duration": 0.36249999999998295,
          "durationTicks": 58,
          "midi": 66,
          "name": "F#4",
          "ticks": 27060,
          "time": 169.125,
          "velocity": 1
        },
        {
          "duration": 0.36249999999998295,
          "durationTicks": 58,
          "midi": 64,
          "name": "E4",
          "ticks": 27120,
          "time": 169.5,
          "velocity": 1
        },
        {
          "duration": 0.36249999999998295,
          "durationTicks": 58,
          "midi": 76,
          "name": "E5",
          "ticks": 27180,
          "time": 169.875,
          "velocity": 1
        },
        {
          "duration": 0.36249999999998295,
          "durationTicks": 58,
          "midi": 78,
          "name": "F#5",
          "ticks": 27240,
          "time": 170.25,
          "velocity": 1
        },
        {
          "duration": 0.36249999999998295,
          "durationTicks": 58,
          "midi": 76,
          "name": "E5",
          "ticks": 27300,
          "time": 170.625,
          "velocity": 1
        },
        {
          "duration": 0.36249999999998295,
          "durationTicks": 58,
          "midi": 74,
          "name": "D5",
          "ticks": 27360,
          "time": 171,
          "velocity": 1
        },
        {
          "duration": 0.36249999999998295,
          "durationTicks": 58,
          "midi": 66,
          "name": "F#4",
          "ticks": 27420,
          "time": 171.375,
          "velocity": 1
        },
        {
          "duration": 0.36249999999998295,
          "durationTicks": 58,
          "midi": 62,
          "name": "D4",
          "ticks": 27480,
          "time": 171.75,
          "velocity": 1
        },
        {
          "duration": 0.36249999999998295,
          "durationTicks": 58,
          "midi": 71,
          "name": "B4",
          "ticks": 27540,
          "time": 172.125,
          "velocity": 1
        },
        {
          "duration": 0.36249999999998295,
          "durationTicks": 58,
          "midi": 69,
          "name": "A4",
          "ticks": 27600,
          "time": 172.5,
          "velocity": 1
        },
        {
          "duration": 0.36249999999998295,
          "durationTicks": 58,
          "midi": 57,
          "name": "A3",
          "ticks": 27660,
          "time": 172.875,
          "velocity": 1
        },
        {
          "duration": 0.36249999999998295,
          "durationTicks": 58,
          "midi": 55,
          "name": "G3",
          "ticks": 27720,
          "time": 173.25,
          "velocity": 1
        },
        {
          "duration": 0.36249999999998295,
          "durationTicks": 58,
          "midi": 57,
          "name": "A3",
          "ticks": 27780,
          "time": 173.625,
          "velocity": 1
        },
        {
          "duration": 0.36249999999998295,
          "durationTicks": 58,
          "midi": 59,
          "name": "B3",
          "ticks": 27840,
          "time": 174,
          "velocity": 1
        },
        {
          "duration": 0.36249999999998295,
          "durationTicks": 58,
          "midi": 71,
          "name": "B4",
          "ticks": 27900,
          "time": 174.375,
          "velocity": 1
        },
        {
          "duration": 0.36249999999998295,
          "durationTicks": 58,
          "midi": 73,
          "name": "C#5",
          "ticks": 27960,
          "time": 174.75,
          "velocity": 1
        },
        {
          "duration": 0.36249999999998295,
          "durationTicks": 58,
          "midi": 71,
          "name": "B4",
          "ticks": 28020,
          "time": 175.125,
          "velocity": 1
        },
        {
          "duration": 0.36249999999998295,
          "durationTicks": 58,
          "midi": 69,
          "name": "A4",
          "ticks": 28080,
          "time": 175.5,
          "velocity": 1
        },
        {
          "duration": 0.36249999999998295,
          "durationTicks": 58,
          "midi": 57,
          "name": "A3",
          "ticks": 28140,
          "time": 175.875,
          "velocity": 1
        },
        {
          "duration": 0.36249999999998295,
          "durationTicks": 58,
          "midi": 55,
          "name": "G3",
          "ticks": 28200,
          "time": 176.25,
          "velocity": 1
        },
        {
          "duration": 0.36249999999998295,
          "durationTicks": 58,
          "midi": 57,
          "name": "A3",
          "ticks": 28260,
          "time": 176.625,
          "velocity": 1
        },
        {
          "duration": 0.36249999999998295,
          "durationTicks": 58,
          "midi": 59,
          "name": "B3",
          "ticks": 28320,
          "time": 177,
          "velocity": 1
        },
        {
          "duration": 0.36249999999998295,
          "durationTicks": 58,
          "midi": 71,
          "name": "B4",
          "ticks": 28380,
          "time": 177.375,
          "velocity": 1
        },
        {
          "duration": 0.36249999999998295,
          "durationTicks": 58,
          "midi": 69,
          "name": "A4",
          "ticks": 28440,
          "time": 177.75,
          "velocity": 1
        },
        {
          "duration": 0.36249999999998295,
          "durationTicks": 58,
          "midi": 71,
          "name": "B4",
          "ticks": 28500,
          "time": 178.125,
          "velocity": 1
        },
        {
          "duration": 0.36249999999998295,
          "durationTicks": 58,
          "midi": 73,
          "name": "C#5",
          "ticks": 28560,
          "time": 178.5,
          "velocity": 1
        },
        {
          "duration": 0.36249999999998295,
          "durationTicks": 58,
          "midi": 61,
          "name": "C#4",
          "ticks": 28620,
          "time": 178.875,
          "velocity": 1
        },
        {
          "duration": 0.36249999999998295,
          "durationTicks": 58,
          "midi": 59,
          "name": "B3",
          "ticks": 28680,
          "time": 179.25,
          "velocity": 1
        },
        {
          "duration": 0.36249999999998295,
          "durationTicks": 58,
          "midi": 61,
          "name": "C#4",
          "ticks": 28740,
          "time": 179.625,
          "velocity": 1
        },
        {
          "duration": 0.36249999999998295,
          "durationTicks": 58,
          "midi": 62,
          "name": "D4",
          "ticks": 28800,
          "time": 180,
          "velocity": 1
        },
        {
          "duration": 0.36249999999998295,
          "durationTicks": 58,
          "midi": 74,
          "name": "D5",
          "ticks": 28860,
          "time": 180.375,
          "velocity": 1
        },
        {
          "duration": 0.36249999999998295,
          "durationTicks": 58,
          "midi": 76,
          "name": "E5",
          "ticks": 28920,
          "time": 180.75,
          "velocity": 1
        },
        {
          "duration": 0.36249999999998295,
          "durationTicks": 58,
          "midi": 74,
          "name": "D5",
          "ticks": 28980,
          "time": 181.125,
          "velocity": 1
        },
        {
          "duration": 0.36249999999998295,
          "durationTicks": 58,
          "midi": 73,
          "name": "C#5",
          "ticks": 29040,
          "time": 181.5,
          "velocity": 1
        },
        {
          "duration": 0.36249999999998295,
          "durationTicks": 58,
          "midi": 61,
          "name": "C#4",
          "ticks": 29100,
          "time": 181.875,
          "velocity": 1
        },
        {
          "duration": 0.36249999999998295,
          "durationTicks": 58,
          "midi": 62,
          "name": "D4",
          "ticks": 29160,
          "time": 182.25,
          "velocity": 1
        },
        {
          "duration": 0.36249999999998295,
          "durationTicks": 58,
          "midi": 61,
          "name": "C#4",
          "ticks": 29220,
          "time": 182.625,
          "velocity": 1
        },
        {
          "duration": 0.36249999999998295,
          "durationTicks": 58,
          "midi": 59,
          "name": "B3",
          "ticks": 29280,
          "time": 183,
          "velocity": 1
        },
        {
          "duration": 0.36249999999998295,
          "durationTicks": 58,
          "midi": 71,
          "name": "B4",
          "ticks": 29340,
          "time": 183.375,
          "velocity": 1
        },
        {
          "duration": 0.36249999999998295,
          "durationTicks": 58,
          "midi": 69,
          "name": "A4",
          "ticks": 29400,
          "time": 183.75,
          "velocity": 1
        },
        {
          "duration": 0.36249999999998295,
          "durationTicks": 58,
          "midi": 71,
          "name": "B4",
          "ticks": 29460,
          "time": 184.125,
          "velocity": 1
        },
        {
          "duration": 0.36249999999998295,
          "durationTicks": 58,
          "midi": 73,
          "name": "C#5",
          "ticks": 29520,
          "time": 184.5,
          "velocity": 1
        },
        {
          "duration": 0.36249999999998295,
          "durationTicks": 58,
          "midi": 61,
          "name": "C#4",
          "ticks": 29580,
          "time": 184.875,
          "velocity": 1
        },
        {
          "duration": 0.36249999999998295,
          "durationTicks": 58,
          "midi": 66,
          "name": "F#4",
          "ticks": 29640,
          "time": 185.25,
          "velocity": 1
        },
        {
          "duration": 0.36249999999998295,
          "durationTicks": 58,
          "midi": 64,
          "name": "E4",
          "ticks": 29700,
          "time": 185.625,
          "velocity": 1
        },
        {
          "duration": 0.36249999999998295,
          "durationTicks": 58,
          "midi": 62,
          "name": "D4",
          "ticks": 29760,
          "time": 186,
          "velocity": 1
        },
        {
          "duration": 0.36249999999998295,
          "durationTicks": 58,
          "midi": 74,
          "name": "D5",
          "ticks": 29820,
          "time": 186.375,
          "velocity": 1
        },
        {
          "duration": 0.36249999999998295,
          "durationTicks": 58,
          "midi": 76,
          "name": "E5",
          "ticks": 29880,
          "time": 186.75,
          "velocity": 1
        },
        {
          "duration": 0.36249999999998295,
          "durationTicks": 58,
          "midi": 79,
          "name": "G5",
          "ticks": 29940,
          "time": 187.125,
          "velocity": 1
        },
        {
          "duration": 0.36249999999998295,
          "durationTicks": 58,
          "midi": 78,
          "name": "F#5",
          "ticks": 30000,
          "time": 187.5,
          "velocity": 1
        },
        {
          "duration": 0.36249999999998295,
          "durationTicks": 58,
          "midi": 66,
          "name": "F#4",
          "ticks": 30060,
          "time": 187.875,
          "velocity": 1
        },
        {
          "duration": 0.36249999999998295,
          "durationTicks": 58,
          "midi": 69,
          "name": "A4",
          "ticks": 30120,
          "time": 188.25,
          "velocity": 1
        },
        {
          "duration": 0.36249999999998295,
          "durationTicks": 58,
          "midi": 78,
          "name": "F#5",
          "ticks": 30180,
          "time": 188.625,
          "velocity": 1
        },
        {
          "duration": 0.36249999999998295,
          "durationTicks": 58,
          "midi": 74,
          "name": "D5",
          "ticks": 30240,
          "time": 189,
          "velocity": 1
        },
        {
          "duration": 0.36249999999998295,
          "durationTicks": 58,
          "midi": 79,
          "name": "G5",
          "ticks": 30300,
          "time": 189.375,
          "velocity": 1
        },
        {
          "duration": 0.36249999999998295,
          "durationTicks": 58,
          "midi": 78,
          "name": "F#5",
          "ticks": 30360,
          "time": 189.75,
          "velocity": 1
        },
        {
          "duration": 0.36249999999998295,
          "durationTicks": 58,
          "midi": 79,
          "name": "G5",
          "ticks": 30420,
          "time": 190.125,
          "velocity": 1
        },
        {
          "duration": 0.36249999999998295,
          "durationTicks": 58,
          "midi": 76,
          "name": "E5",
          "ticks": 30480,
          "time": 190.5,
          "velocity": 1
        },
        {
          "duration": 0.36249999999998295,
          "durationTicks": 58,
          "midi": 69,
          "name": "A4",
          "ticks": 30540,
          "time": 190.875,
          "velocity": 1
        },
        {
          "duration": 0.36249999999998295,
          "durationTicks": 58,
          "midi": 67,
          "name": "G4",
          "ticks": 30600,
          "time": 191.25,
          "velocity": 1
        },
        {
          "duration": 0.36249999999998295,
          "durationTicks": 58,
          "midi": 69,
          "name": "A4",
          "ticks": 30660,
          "time": 191.625,
          "velocity": 1
        },
        {
          "duration": 0.36250000000001137,
          "durationTicks": 58,
          "midi": 66,
          "name": "F#4",
          "ticks": 30720,
          "time": 192,
          "velocity": 1
        },
        {
          "duration": 0.36250000000001137,
          "durationTicks": 58,
          "midi": 69,
          "name": "A4",
          "ticks": 30780,
          "time": 192.375,
          "velocity": 1
        },
        {
          "duration": 0.36250000000001137,
          "durationTicks": 58,
          "midi": 69,
          "name": "A4",
          "ticks": 30840,
          "time": 192.75,
          "velocity": 1
        },
        {
          "duration": 0.36250000000001137,
          "durationTicks": 58,
          "midi": 69,
          "name": "A4",
          "ticks": 30900,
          "time": 193.125,
          "velocity": 1
        },
        {
          "duration": 0.36250000000001137,
          "durationTicks": 58,
          "midi": 69,
          "name": "A4",
          "ticks": 30960,
          "time": 193.5,
          "velocity": 1
        },
        {
          "duration": 0.36250000000001137,
          "durationTicks": 58,
          "midi": 69,
          "name": "A4",
          "ticks": 31020,
          "time": 193.875,
          "velocity": 1
        },
        {
          "duration": 0.36250000000001137,
          "durationTicks": 58,
          "midi": 69,
          "name": "A4",
          "ticks": 31080,
          "time": 194.25,
          "velocity": 1
        },
        {
          "duration": 0.36250000000001137,
          "durationTicks": 58,
          "midi": 69,
          "name": "A4",
          "ticks": 31140,
          "time": 194.625,
          "velocity": 1
        },
        {
          "duration": 0.36250000000001137,
          "durationTicks": 58,
          "midi": 66,
          "name": "F#4",
          "ticks": 31200,
          "time": 195,
          "velocity": 1
        },
        {
          "duration": 0.36250000000001137,
          "durationTicks": 58,
          "midi": 66,
          "name": "F#4",
          "ticks": 31260,
          "time": 195.375,
          "velocity": 1
        },
        {
          "duration": 0.36250000000001137,
          "durationTicks": 58,
          "midi": 66,
          "name": "F#4",
          "ticks": 31320,
          "time": 195.75,
          "velocity": 1
        },
        {
          "duration": 0.36250000000001137,
          "durationTicks": 58,
          "midi": 66,
          "name": "F#4",
          "ticks": 31380,
          "time": 196.125,
          "velocity": 1
        },
        {
          "duration": 0.36250000000001137,
          "durationTicks": 58,
          "midi": 66,
          "name": "F#4",
          "ticks": 31440,
          "time": 196.5,
          "velocity": 1
        },
        {
          "duration": 0.36250000000001137,
          "durationTicks": 58,
          "midi": 66,
          "name": "F#4",
          "ticks": 31500,
          "time": 196.875,
          "velocity": 1
        },
        {
          "duration": 0.36250000000001137,
          "durationTicks": 58,
          "midi": 69,
          "name": "A4",
          "ticks": 31560,
          "time": 197.25,
          "velocity": 1
        },
        {
          "duration": 0.36250000000001137,
          "durationTicks": 58,
          "midi": 69,
          "name": "A4",
          "ticks": 31620,
          "time": 197.625,
          "velocity": 1
        },
        {
          "duration": 0.36250000000001137,
          "durationTicks": 58,
          "midi": 67,
          "name": "G4",
          "ticks": 31680,
          "time": 198,
          "velocity": 1
        },
        {
          "duration": 0.36250000000001137,
          "durationTicks": 58,
          "midi": 67,
          "name": "G4",
          "ticks": 31740,
          "time": 198.375,
          "velocity": 1
        },
        {
          "duration": 0.36250000000001137,
          "durationTicks": 58,
          "midi": 67,
          "name": "G4",
          "ticks": 31800,
          "time": 198.75,
          "velocity": 1
        },
        {
          "duration": 0.36250000000001137,
          "durationTicks": 58,
          "midi": 74,
          "name": "D5",
          "ticks": 31860,
          "time": 199.125,
          "velocity": 1
        },
        {
          "duration": 0.36250000000001137,
          "durationTicks": 58,
          "midi": 74,
          "name": "D5",
          "ticks": 31920,
          "time": 199.5,
          "velocity": 1
        },
        {
          "duration": 0.36250000000001137,
          "durationTicks": 58,
          "midi": 74,
          "name": "D5",
          "ticks": 31980,
          "time": 199.875,
          "velocity": 1
        },
        {
          "duration": 0.36250000000001137,
          "durationTicks": 58,
          "midi": 74,
          "name": "D5",
          "ticks": 32040,
          "time": 200.25,
          "velocity": 1
        },
        {
          "duration": 0.36250000000001137,
          "durationTicks": 58,
          "midi": 74,
          "name": "D5",
          "ticks": 32100,
          "time": 200.625,
          "velocity": 1
        },
        {
          "duration": 0.36250000000001137,
          "durationTicks": 58,
          "midi": 74,
          "name": "D5",
          "ticks": 32160,
          "time": 201,
          "velocity": 1
        },
        {
          "duration": 0.36250000000001137,
          "durationTicks": 58,
          "midi": 74,
          "name": "D5",
          "ticks": 32220,
          "time": 201.375,
          "velocity": 1
        },
        {
          "duration": 0.36250000000001137,
          "durationTicks": 58,
          "midi": 71,
          "name": "B4",
          "ticks": 32280,
          "time": 201.75,
          "velocity": 1
        },
        {
          "duration": 0.36250000000001137,
          "durationTicks": 58,
          "midi": 71,
          "name": "B4",
          "ticks": 32340,
          "time": 202.125,
          "velocity": 1
        },
        {
          "duration": 0.36250000000001137,
          "durationTicks": 58,
          "midi": 69,
          "name": "A4",
          "ticks": 32400,
          "time": 202.5,
          "velocity": 1
        },
        {
          "duration": 0.36250000000001137,
          "durationTicks": 58,
          "midi": 69,
          "name": "A4",
          "ticks": 32460,
          "time": 202.875,
          "velocity": 1
        },
        {
          "duration": 0.36250000000001137,
          "durationTicks": 58,
          "midi": 76,
          "name": "E5",
          "ticks": 32520,
          "time": 203.25,
          "velocity": 1
        },
        {
          "duration": 0.36250000000001137,
          "durationTicks": 58,
          "midi": 73,
          "name": "C#5",
          "ticks": 32580,
          "time": 203.625,
          "velocity": 1
        },
        {
          "duration": 0.36250000000001137,
          "durationTicks": 58,
          "midi": 69,
          "name": "A4",
          "ticks": 32640,
          "time": 204,
          "velocity": 1
        },
        {
          "duration": 0.36250000000001137,
          "durationTicks": 58,
          "midi": 78,
          "name": "F#5",
          "ticks": 32700,
          "time": 204.375,
          "velocity": 1
        },
        {
          "duration": 0.36250000000001137,
          "durationTicks": 58,
          "midi": 78,
          "name": "F#5",
          "ticks": 32760,
          "time": 204.75,
          "velocity": 1
        },
        {
          "duration": 0.36250000000001137,
          "durationTicks": 58,
          "midi": 78,
          "name": "F#5",
          "ticks": 32820,
          "time": 205.125,
          "velocity": 1
        },
        {
          "duration": 0.36250000000001137,
          "durationTicks": 58,
          "midi": 76,
          "name": "E5",
          "ticks": 32880,
          "time": 205.5,
          "velocity": 1
        },
        {
          "duration": 0.36250000000001137,
          "durationTicks": 58,
          "midi": 76,
          "name": "E5",
          "ticks": 32940,
          "time": 205.875,
          "velocity": 1
        },
        {
          "duration": 0.36250000000001137,
          "durationTicks": 58,
          "midi": 76,
          "name": "E5",
          "ticks": 33000,
          "time": 206.25,
          "velocity": 1
        },
        {
          "duration": 0.36250000000001137,
          "durationTicks": 58,
          "midi": 76,
          "name": "E5",
          "ticks": 33060,
          "time": 206.625,
          "velocity": 1
        },
        {
          "duration": 0.36250000000001137,
          "durationTicks": 58,
          "midi": 74,
          "name": "D5",
          "ticks": 33120,
          "time": 207,
          "velocity": 1
        },
        {
          "duration": 0.36250000000001137,
          "durationTicks": 58,
          "midi": 74,
          "name": "D5",
          "ticks": 33180,
          "time": 207.375,
          "velocity": 1
        },
        {
          "duration": 0.36250000000001137,
          "durationTicks": 58,
          "midi": 74,
          "name": "D5",
          "ticks": 33240,
          "time": 207.75,
          "velocity": 1
        },
        {
          "duration": 0.36250000000001137,
          "durationTicks": 58,
          "midi": 74,
          "name": "D5",
          "ticks": 33300,
          "time": 208.125,
          "velocity": 1
        },
        {
          "duration": 0.36250000000001137,
          "durationTicks": 58,
          "midi": 81,
          "name": "A5",
          "ticks": 33360,
          "time": 208.5,
          "velocity": 1
        },
        {
          "duration": 0.36250000000001137,
          "durationTicks": 58,
          "midi": 81,
          "name": "A5",
          "ticks": 33420,
          "time": 208.875,
          "velocity": 1
        },
        {
          "duration": 0.36250000000001137,
          "durationTicks": 58,
          "midi": 81,
          "name": "A5",
          "ticks": 33480,
          "time": 209.25,
          "velocity": 1
        },
        {
          "duration": 0.36250000000001137,
          "durationTicks": 58,
          "midi": 81,
          "name": "A5",
          "ticks": 33540,
          "time": 209.625,
          "velocity": 1
        },
        {
          "duration": 0.36250000000001137,
          "durationTicks": 58,
          "midi": 83,
          "name": "B5",
          "ticks": 33600,
          "time": 210,
          "velocity": 1
        },
        {
          "duration": 0.36250000000001137,
          "durationTicks": 58,
          "midi": 83,
          "name": "B5",
          "ticks": 33660,
          "time": 210.375,
          "velocity": 1
        },
        {
          "duration": 0.36250000000001137,
          "durationTicks": 58,
          "midi": 83,
          "name": "B5",
          "ticks": 33720,
          "time": 210.75,
          "velocity": 1
        },
        {
          "duration": 0.36250000000001137,
          "durationTicks": 58,
          "midi": 83,
          "name": "B5",
          "ticks": 33780,
          "time": 211.125,
          "velocity": 1
        },
        {
          "duration": 0.36250000000001137,
          "durationTicks": 58,
          "midi": 81,
          "name": "A5",
          "ticks": 33840,
          "time": 211.5,
          "velocity": 1
        },
        {
          "duration": 0.36250000000001137,
          "durationTicks": 58,
          "midi": 81,
          "name": "A5",
          "ticks": 33900,
          "time": 211.875,
          "velocity": 1
        },
        {
          "duration": 0.36250000000001137,
          "durationTicks": 58,
          "midi": 81,
          "name": "A5",
          "ticks": 33960,
          "time": 212.25,
          "velocity": 1
        },
        {
          "duration": 0.36250000000001137,
          "durationTicks": 58,
          "midi": 81,
          "name": "A5",
          "ticks": 34020,
          "time": 212.625,
          "velocity": 1
        },
        {
          "duration": 0.36250000000001137,
          "durationTicks": 58,
          "midi": 83,
          "name": "B5",
          "ticks": 34080,
          "time": 213,
          "velocity": 1
        },
        {
          "duration": 0.36250000000001137,
          "durationTicks": 58,
          "midi": 83,
          "name": "B5",
          "ticks": 34140,
          "time": 213.375,
          "velocity": 1
        },
        {
          "duration": 0.36250000000001137,
          "durationTicks": 58,
          "midi": 83,
          "name": "B5",
          "ticks": 34200,
          "time": 213.75,
          "velocity": 1
        },
        {
          "duration": 0.36250000000001137,
          "durationTicks": 58,
          "midi": 83,
          "name": "B5",
          "ticks": 34260,
          "time": 214.125,
          "velocity": 1
        },
        {
          "duration": 0.36250000000001137,
          "durationTicks": 58,
          "midi": 85,
          "name": "C#6",
          "ticks": 34320,
          "time": 214.5,
          "velocity": 1
        },
        {
          "duration": 0.36250000000001137,
          "durationTicks": 58,
          "midi": 73,
          "name": "C#5",
          "ticks": 34380,
          "time": 214.875,
          "velocity": 1
        },
        {
          "duration": 0.36250000000001137,
          "durationTicks": 58,
          "midi": 73,
          "name": "C#5",
          "ticks": 34440,
          "time": 215.25,
          "velocity": 1
        },
        {
          "duration": 0.36250000000001137,
          "durationTicks": 58,
          "midi": 73,
          "name": "C#5",
          "ticks": 34500,
          "time": 215.625,
          "velocity": 1
        },
        {
          "duration": 0.36250000000001137,
          "durationTicks": 58,
          "midi": 74,
          "name": "D5",
          "ticks": 34560,
          "time": 216,
          "velocity": 1
        },
        {
          "duration": 0.17500000000001137,
          "durationTicks": 28,
          "midi": 62,
          "name": "D4",
          "ticks": 34620,
          "time": 216.375,
          "velocity": 1
        },
        {
          "duration": 0.17500000000001137,
          "durationTicks": 28,
          "midi": 64,
          "name": "E4",
          "ticks": 34650,
          "time": 216.5625,
          "velocity": 1
        },
        {
          "duration": 0.36250000000001137,
          "durationTicks": 58,
          "midi": 66,
          "name": "F#4",
          "ticks": 34680,
          "time": 216.75,
          "velocity": 1
        },
        {
          "duration": 0.36250000000001137,
          "durationTicks": 58,
          "midi": 62,
          "name": "D4",
          "ticks": 34740,
          "time": 217.125,
          "velocity": 1
        },
        {
          "duration": 0.36250000000001137,
          "durationTicks": 58,
          "midi": 61,
          "name": "C#4",
          "ticks": 34800,
          "time": 217.5,
          "velocity": 1
        },
        {
          "duration": 0.17500000000001137,
          "durationTicks": 28,
          "midi": 73,
          "name": "C#5",
          "ticks": 34860,
          "time": 217.875,
          "velocity": 1
        },
        {
          "duration": 0.17500000000001137,
          "durationTicks": 28,
          "midi": 74,
          "name": "D5",
          "ticks": 34890,
          "time": 218.0625,
          "velocity": 1
        },
        {
          "duration": 0.36250000000001137,
          "durationTicks": 58,
          "midi": 76,
          "name": "E5",
          "ticks": 34920,
          "time": 218.25,
          "velocity": 1
        },
        {
          "duration": 0.36250000000001137,
          "durationTicks": 58,
          "midi": 73,
          "name": "C#5",
          "ticks": 34980,
          "time": 218.625,
          "velocity": 1
        },
        {
          "duration": 0.36250000000001137,
          "durationTicks": 58,
          "midi": 71,
          "name": "B4",
          "ticks": 35040,
          "time": 219,
          "velocity": 1
        },
        {
          "duration": 0.17500000000001137,
          "durationTicks": 28,
          "midi": 59,
          "name": "B3",
          "ticks": 35100,
          "time": 219.375,
          "velocity": 1
        },
        {
          "duration": 0.17500000000001137,
          "durationTicks": 28,
          "midi": 61,
          "name": "C#4",
          "ticks": 35130,
          "time": 219.5625,
          "velocity": 1
        },
        {
          "duration": 0.36250000000001137,
          "durationTicks": 58,
          "midi": 62,
          "name": "D4",
          "ticks": 35160,
          "time": 219.75,
          "velocity": 1
        },
        {
          "duration": 0.36250000000001137,
          "durationTicks": 58,
          "midi": 59,
          "name": "B3",
          "ticks": 35220,
          "time": 220.125,
          "velocity": 1
        },
        {
          "duration": 0.36250000000001137,
          "durationTicks": 58,
          "midi": 61,
          "name": "C#4",
          "ticks": 35280,
          "time": 220.5,
          "velocity": 1
        },
        {
          "duration": 0.17500000000001137,
          "durationTicks": 28,
          "midi": 69,
          "name": "A4",
          "ticks": 35340,
          "time": 220.875,
          "velocity": 1
        },
        {
          "duration": 0.17500000000001137,
          "durationTicks": 28,
          "midi": 67,
          "name": "G4",
          "ticks": 35370,
          "time": 221.0625,
          "velocity": 1
        },
        {
          "duration": 0.36250000000001137,
          "durationTicks": 58,
          "midi": 66,
          "name": "F#4",
          "ticks": 35400,
          "time": 221.25,
          "velocity": 1
        },
        {
          "duration": 0.36250000000001137,
          "durationTicks": 58,
          "midi": 64,
          "name": "E4",
          "ticks": 35460,
          "time": 221.625,
          "velocity": 1
        },
        {
          "duration": 0.36250000000001137,
          "durationTicks": 58,
          "midi": 62,
          "name": "D4",
          "ticks": 35520,
          "time": 222,
          "velocity": 1
        },
        {
          "duration": 0.17500000000001137,
          "durationTicks": 28,
          "midi": 67,
          "name": "G4",
          "ticks": 35580,
          "time": 222.375,
          "velocity": 1
        },
        {
          "duration": 0.17500000000001137,
          "durationTicks": 28,
          "midi": 66,
          "name": "F#4",
          "ticks": 35610,
          "time": 222.5625,
          "velocity": 1
        },
        {
          "duration": 0.36250000000001137,
          "durationTicks": 58,
          "midi": 64,
          "name": "E4",
          "ticks": 35640,
          "time": 222.75,
          "velocity": 1
        },
        {
          "duration": 0.36250000000001137,
          "durationTicks": 58,
          "midi": 67,
          "name": "G4",
          "ticks": 35700,
          "time": 223.125,
          "velocity": 1
        },
        {
          "duration": 0.36250000000001137,
          "durationTicks": 58,
          "midi": 66,
          "name": "F#4",
          "ticks": 35760,
          "time": 223.5,
          "velocity": 1
        },
        {
          "duration": 0.17500000000001137,
          "durationTicks": 28,
          "midi": 62,
          "name": "D4",
          "ticks": 35820,
          "time": 223.875,
          "velocity": 1
        },
        {
          "duration": 0.17500000000001137,
          "durationTicks": 28,
          "midi": 64,
          "name": "E4",
          "ticks": 35850,
          "time": 224.0625,
          "velocity": 1
        },
        {
          "duration": 0.36250000000001137,
          "durationTicks": 58,
          "midi": 66,
          "name": "F#4",
          "ticks": 35880,
          "time": 224.25,
          "velocity": 1
        },
        {
          "duration": 0.36250000000001137,
          "durationTicks": 58,
          "midi": 69,
          "name": "A4",
          "ticks": 35940,
          "time": 224.625,
          "velocity": 1
        },
        {
          "duration": 0.36250000000001137,
          "durationTicks": 58,
          "midi": 67,
          "name": "G4",
          "ticks": 36000,
          "time": 225,
          "velocity": 1
        },
        {
          "duration": 0.17500000000001137,
          "durationTicks": 28,
          "midi": 71,
          "name": "B4",
          "ticks": 36060,
          "time": 225.375,
          "velocity": 1
        },
        {
          "duration": 0.17500000000001137,
          "durationTicks": 28,
          "midi": 69,
          "name": "A4",
          "ticks": 36090,
          "time": 225.5625,
          "velocity": 1
        },
        {
          "duration": 0.36250000000001137,
          "durationTicks": 58,
          "midi": 67,
          "name": "G4",
          "ticks": 36120,
          "time": 225.75,
          "velocity": 1
        },
        {
          "duration": 0.36250000000001137,
          "durationTicks": 58,
          "midi": 66,
          "name": "F#4",
          "ticks": 36180,
          "time": 226.125,
          "velocity": 1
        },
        {
          "duration": 0.36250000000001137,
          "durationTicks": 58,
          "midi": 64,
          "name": "E4",
          "ticks": 36240,
          "time": 226.5,
          "velocity": 1
        },
        {
          "duration": 0.17500000000001137,
          "durationTicks": 28,
          "midi": 69,
          "name": "A4",
          "ticks": 36300,
          "time": 226.875,
          "velocity": 1
        },
        {
          "duration": 0.17500000000001137,
          "durationTicks": 28,
          "midi": 67,
          "name": "G4",
          "ticks": 36330,
          "time": 227.0625,
          "velocity": 1
        },
        {
          "duration": 0.36250000000001137,
          "durationTicks": 58,
          "midi": 66,
          "name": "F#4",
          "ticks": 36360,
          "time": 227.25,
          "velocity": 1
        },
        {
          "duration": 0.36250000000001137,
          "durationTicks": 58,
          "midi": 64,
          "name": "E4",
          "ticks": 36420,
          "time": 227.625,
          "velocity": 1
        },
        {
          "duration": 0.36250000000001137,
          "durationTicks": 58,
          "midi": 66,
          "name": "F#4",
          "ticks": 36480,
          "time": 228,
          "velocity": 1
        },
        {
          "duration": 0.17500000000001137,
          "durationTicks": 28,
          "midi": 74,
          "name": "D5",
          "ticks": 36540,
          "time": 228.375,
          "velocity": 1
        },
        {
          "duration": 0.17500000000001137,
          "durationTicks": 28,
          "midi": 73,
          "name": "C#5",
          "ticks": 36570,
          "time": 228.5625,
          "velocity": 1
        },
        {
          "duration": 0.36250000000001137,
          "durationTicks": 58,
          "midi": 74,
          "name": "D5",
          "ticks": 36600,
          "time": 228.75,
          "velocity": 1
        },
        {
          "duration": 0.36250000000001137,
          "durationTicks": 58,
          "midi": 66,
          "name": "F#4",
          "ticks": 36660,
          "time": 229.125,
          "velocity": 1
        },
        {
          "duration": 0.36250000000001137,
          "durationTicks": 58,
          "midi": 69,
          "name": "A4",
          "ticks": 36720,
          "time": 229.5,
          "velocity": 1
        },
        {
          "duration": 0.17500000000001137,
          "durationTicks": 28,
          "midi": 69,
          "name": "A4",
          "ticks": 36780,
          "time": 229.875,
          "velocity": 1
        },
        {
          "duration": 0.17500000000001137,
          "durationTicks": 28,
          "midi": 71,
          "name": "B4",
          "ticks": 36810,
          "time": 230.0625,
          "velocity": 1
        },
        {
          "duration": 0.36250000000001137,
          "durationTicks": 58,
          "midi": 73,
          "name": "C#5",
          "ticks": 36840,
          "time": 230.25,
          "velocity": 1
        },
        {
          "duration": 0.36250000000001137,
          "durationTicks": 58,
          "midi": 69,
          "name": "A4",
          "ticks": 36900,
          "time": 230.625,
          "velocity": 1
        },
        {
          "duration": 0.36250000000001137,
          "durationTicks": 58,
          "midi": 66,
          "name": "F#4",
          "ticks": 36960,
          "time": 231,
          "velocity": 1
        },
        {
          "duration": 0.17500000000001137,
          "durationTicks": 28,
          "midi": 74,
          "name": "D5",
          "ticks": 37020,
          "time": 231.375,
          "velocity": 1
        },
        {
          "duration": 0.17500000000001137,
          "durationTicks": 28,
          "midi": 76,
          "name": "E5",
          "ticks": 37050,
          "time": 231.5625,
          "velocity": 1
        },
        {
          "duration": 0.36250000000001137,
          "durationTicks": 58,
          "midi": 78,
          "name": "F#5",
          "ticks": 37080,
          "time": 231.75,
          "velocity": 1
        },
        {
          "duration": 0.36250000000001137,
          "durationTicks": 58,
          "midi": 74,
          "name": "D5",
          "ticks": 37140,
          "time": 232.125,
          "velocity": 1
        },
        {
          "duration": 0.36250000000001137,
          "durationTicks": 58,
          "midi": 78,
          "name": "F#5",
          "ticks": 37200,
          "time": 232.5,
          "velocity": 1
        },
        {
          "duration": 0.17500000000001137,
          "durationTicks": 28,
          "midi": 78,
          "name": "F#5",
          "ticks": 37260,
          "time": 232.875,
          "velocity": 1
        },
        {
          "duration": 0.17500000000001137,
          "durationTicks": 28,
          "midi": 76,
          "name": "E5",
          "ticks": 37290,
          "time": 233.0625,
          "velocity": 1
        },
        {
          "duration": 0.36250000000001137,
          "durationTicks": 58,
          "midi": 74,
          "name": "D5",
          "ticks": 37320,
          "time": 233.25,
          "velocity": 1
        },
        {
          "duration": 0.36250000000001137,
          "durationTicks": 58,
          "midi": 73,
          "name": "C#5",
          "ticks": 37380,
          "time": 233.625,
          "velocity": 1
        },
        {
          "duration": 0.36250000000001137,
          "durationTicks": 58,
          "midi": 71,
          "name": "B4",
          "ticks": 37440,
          "time": 234,
          "velocity": 1
        },
        {
          "duration": 0.17500000000001137,
          "durationTicks": 28,
          "midi": 71,
          "name": "B4",
          "ticks": 37500,
          "time": 234.375,
          "velocity": 1
        },
        {
          "duration": 0.17500000000001137,
          "durationTicks": 28,
          "midi": 69,
          "name": "A4",
          "ticks": 37530,
          "time": 234.5625,
          "velocity": 1
        },
        {
          "duration": 0.36250000000001137,
          "durationTicks": 58,
          "midi": 71,
          "name": "B4",
          "ticks": 37560,
          "time": 234.75,
          "velocity": 1
        },
        {
          "duration": 0.36250000000001137,
          "durationTicks": 58,
          "midi": 73,
          "name": "C#5",
          "ticks": 37620,
          "time": 235.125,
          "velocity": 1
        },
        {
          "duration": 0.36250000000001137,
          "durationTicks": 58,
          "midi": 74,
          "name": "D5",
          "ticks": 37680,
          "time": 235.5,
          "velocity": 1
        },
        {
          "duration": 0.17500000000001137,
          "durationTicks": 28,
          "midi": 78,
          "name": "F#5",
          "ticks": 37740,
          "time": 235.875,
          "velocity": 1
        },
        {
          "duration": 0.17500000000001137,
          "durationTicks": 28,
          "midi": 76,
          "name": "E5",
          "ticks": 37770,
          "time": 236.0625,
          "velocity": 1
        },
        {
          "duration": 0.36250000000001137,
          "durationTicks": 58,
          "midi": 74,
          "name": "D5",
          "ticks": 37800,
          "time": 236.25,
          "velocity": 1
        },
        {
          "duration": 0.36250000000001137,
          "durationTicks": 58,
          "midi": 78,
          "name": "F#5",
          "ticks": 37860,
          "time": 236.625,
          "velocity": 1
        },
        {
          "duration": 0.36250000000001137,
          "durationTicks": 58,
          "midi": 79,
          "name": "G5",
          "ticks": 37920,
          "time": 237,
          "velocity": 1
        },
        {
          "duration": 0.17500000000001137,
          "durationTicks": 28,
          "midi": 74,
          "name": "D5",
          "ticks": 37980,
          "time": 237.375,
          "velocity": 1
        },
        {
          "duration": 0.17500000000001137,
          "durationTicks": 28,
          "midi": 73,
          "name": "C#5",
          "ticks": 38010,
          "time": 237.5625,
          "velocity": 1
        },
        {
          "duration": 0.36250000000001137,
          "durationTicks": 58,
          "midi": 71,
          "name": "B4",
          "ticks": 38040,
          "time": 237.75,
          "velocity": 1
        },
        {
          "duration": 0.36250000000001137,
          "durationTicks": 58,
          "midi": 71,
          "name": "B4",
          "ticks": 38100,
          "time": 238.125,
          "velocity": 1
        },
        {
          "duration": 0.36250000000001137,
          "durationTicks": 58,
          "midi": 69,
          "name": "A4",
          "ticks": 38160,
          "time": 238.5,
          "velocity": 1
        },
        {
          "duration": 0.36250000000001137,
          "durationTicks": 58,
          "midi": 64,
          "name": "E4",
          "ticks": 38220,
          "time": 238.875,
          "velocity": 1
        },
        {
          "duration": 0.36250000000001137,
          "durationTicks": 58,
          "midi": 69,
          "name": "A4",
          "ticks": 38280,
          "time": 239.25,
          "velocity": 1
        },
        {
          "duration": 0.36250000000001137,
          "durationTicks": 58,
          "midi": 69,
          "name": "A4",
          "ticks": 38340,
          "time": 239.625,
          "velocity": 1
        },
        {
          "duration": 2.2375000000000114,
          "durationTicks": 358,
          "midi": 69,
          "name": "A4",
          "ticks": 38400,
          "time": 240,
          "velocity": 1
        },
        {
          "duration": 0.7375000000000114,
          "durationTicks": 118,
          "midi": 69,
          "name": "A4",
          "ticks": 38760,
          "time": 242.25,
          "velocity": 1
        },
        {
          "duration": 2.2375000000000114,
          "durationTicks": 358,
          "midi": 62,
          "name": "D4",
          "ticks": 38880,
          "time": 243,
          "velocity": 1
        },
        {
          "duration": 0.7375000000000114,
          "durationTicks": 118,
          "midi": 69,
          "name": "A4",
          "ticks": 39240,
          "time": 245.25,
          "velocity": 1
        },
        {
          "duration": 1.4875000000000114,
          "durationTicks": 238,
          "midi": 67,
          "name": "G4",
          "ticks": 39360,
          "time": 246,
          "velocity": 1
        },
        {
          "duration": 1.4875000000000114,
          "durationTicks": 238,
          "midi": 69,
          "name": "A4",
          "ticks": 39600,
          "time": 247.5,
          "velocity": 1
        },
        {
          "duration": 0.7375000000000114,
          "durationTicks": 118,
          "midi": 67,
          "name": "G4",
          "ticks": 39840,
          "time": 249,
          "velocity": 1
        },
        {
          "duration": 0.7375000000000114,
          "durationTicks": 118,
          "midi": 62,
          "name": "D4",
          "ticks": 39960,
          "time": 249.75,
          "velocity": 1
        },
        {
          "duration": 1.1125000000000114,
          "durationTicks": 178,
          "midi": 62,
          "name": "D4",
          "ticks": 40080,
          "time": 250.5,
          "velocity": 1
        },
        {
          "duration": 0.36250000000001137,
          "durationTicks": 58,
          "midi": 61,
          "name": "C#4",
          "ticks": 40260,
          "time": 251.625,
          "velocity": 1
        },
        {
          "duration": 0.7375000000000114,
          "durationTicks": 118,
          "midi": 62,
          "name": "D4",
          "ticks": 40320,
          "time": 252,
          "velocity": 1
        },
        {
          "duration": 0.7375000000000114,
          "durationTicks": 118,
          "midi": 74,
          "name": "D5",
          "ticks": 40440,
          "time": 252.75,
          "velocity": 1
        },
        {
          "duration": 1.4875000000000114,
          "durationTicks": 238,
          "midi": 73,
          "name": "C#5",
          "ticks": 40560,
          "time": 253.5,
          "velocity": 1
        },
        {
          "duration": 1.4875000000000114,
          "durationTicks": 238,
          "midi": 71,
          "name": "B4",
          "ticks": 40800,
          "time": 255,
          "velocity": 1
        },
        {
          "duration": 1.4875000000000114,
          "durationTicks": 238,
          "midi": 69,
          "name": "A4",
          "ticks": 41040,
          "time": 256.5,
          "velocity": 1
        },
        {
          "duration": 1.1125000000000114,
          "durationTicks": 178,
          "midi": 62,
          "name": "D4",
          "ticks": 41280,
          "time": 258,
          "velocity": 1
        },
        {
          "duration": 0.36250000000001137,
          "durationTicks": 58,
          "midi": 64,
          "name": "E4",
          "ticks": 41460,
          "time": 259.125,
          "velocity": 1
        },
        {
          "duration": 1.4875000000000114,
          "durationTicks": 238,
          "midi": 66,
          "name": "F#4",
          "ticks": 41520,
          "time": 259.5,
          "velocity": 1
        },
        {
          "duration": 1.4875000000000114,
          "durationTicks": 238,
          "midi": 71,
          "name": "B4",
          "ticks": 41760,
          "time": 261,
          "velocity": 1
        },
        {
          "duration": 1.4875000000000114,
          "durationTicks": 238,
          "midi": 64,
          "name": "E4",
          "ticks": 42000,
          "time": 262.5,
          "velocity": 1
        },
        {
          "duration": 1.1125000000000114,
          "durationTicks": 178,
          "midi": 66,
          "name": "F#4",
          "ticks": 42240,
          "time": 264,
          "velocity": 1
        },
        {
          "duration": 0.36250000000001137,
          "durationTicks": 58,
          "midi": 78,
          "name": "F#5",
          "ticks": 42420,
          "time": 265.125,
          "velocity": 1
        },
        {
          "duration": 0.36250000000001137,
          "durationTicks": 58,
          "midi": 78,
          "name": "F#5",
          "ticks": 42480,
          "time": 265.5,
          "velocity": 1
        },
        {
          "duration": 0.36250000000001137,
          "durationTicks": 58,
          "midi": 79,
          "name": "G5",
          "ticks": 42540,
          "time": 265.875,
          "velocity": 1
        },
        {
          "duration": 0.36250000000001137,
          "durationTicks": 58,
          "midi": 78,
          "name": "F#5",
          "ticks": 42600,
          "time": 266.25,
          "velocity": 1
        },
        {
          "duration": 0.36250000000001137,
          "durationTicks": 58,
          "midi": 76,
          "name": "E5",
          "ticks": 42660,
          "time": 266.625,
          "velocity": 1
        },
        {
          "duration": 1.1125000000000114,
          "durationTicks": 178,
          "midi": 74,
          "name": "D5",
          "ticks": 42720,
          "time": 267,
          "velocity": 1
        },
        {
          "duration": 0.36250000000001137,
          "durationTicks": 58,
          "midi": 74,
          "name": "D5",
          "ticks": 42900,
          "time": 268.125,
          "velocity": 1
        },
        {
          "duration": 0.36250000000001137,
          "durationTicks": 58,
          "midi": 74,
          "name": "D5",
          "ticks": 42960,
          "time": 268.5,
          "velocity": 1
        },
        {
          "duration": 0.36250000000001137,
          "durationTicks": 58,
          "midi": 76,
          "name": "E5",
          "ticks": 43020,
          "time": 268.875,
          "velocity": 1
        },
        {
          "duration": 0.36250000000001137,
          "durationTicks": 58,
          "midi": 74,
          "name": "D5",
          "ticks": 43080,
          "time": 269.25,
          "velocity": 1
        },
        {
          "duration": 0.36250000000001137,
          "durationTicks": 58,
          "midi": 73,
          "name": "C#5",
          "ticks": 43140,
          "time": 269.625,
          "velocity": 1
        },
        {
          "duration": 1.4875000000000114,
          "durationTicks": 238,
          "midi": 71,
          "name": "B4",
          "ticks": 43200,
          "time": 270,
          "velocity": 1
        },
        {
          "duration": 1.4875000000000114,
          "durationTicks": 238,
          "midi": 74,
          "name": "D5",
          "ticks": 43440,
          "time": 271.5,
          "velocity": 1
        },
        {
          "duration": 0.36250000000001137,
          "durationTicks": 58,
          "midi": 74,
          "name": "D5",
          "ticks": 43680,
          "time": 273,
          "velocity": 1
        },
        {
          "duration": 0.36250000000001137,
          "durationTicks": 58,
          "midi": 72,
          "name": "C5",
          "ticks": 43740,
          "time": 273.375,
          "velocity": 1
        },
        {
          "duration": 0.36250000000001137,
          "durationTicks": 58,
          "midi": 71,
          "name": "B4",
          "ticks": 43800,
          "time": 273.75,
          "velocity": 1
        },
        {
          "duration": 0.36250000000001137,
          "durationTicks": 58,
          "midi": 72,
          "name": "C5",
          "ticks": 43860,
          "time": 274.125,
          "velocity": 1
        },
        {
          "duration": 1.4875000000000114,
          "durationTicks": 238,
          "midi": 69,
          "name": "A4",
          "ticks": 43920,
          "time": 274.5,
          "velocity": 1
        },
        {
          "duration": 1.1125000000000114,
          "durationTicks": 178,
          "midi": 69,
          "name": "A4",
          "ticks": 44160,
          "time": 276,
          "velocity": 1
        },
        {
          "duration": 0.36250000000001137,
          "durationTicks": 58,
          "midi": 81,
          "name": "A5",
          "ticks": 44340,
          "time": 277.125,
          "velocity": 1
        },
        {
          "duration": 0.36250000000001137,
          "durationTicks": 58,
          "midi": 81,
          "name": "A5",
          "ticks": 44400,
          "time": 277.5,
          "velocity": 1
        },
        {
          "duration": 0.36250000000001137,
          "durationTicks": 58,
          "midi": 83,
          "name": "B5",
          "ticks": 44460,
          "time": 277.875,
          "velocity": 1
        },
        {
          "duration": 0.36250000000001137,
          "durationTicks": 58,
          "midi": 81,
          "name": "A5",
          "ticks": 44520,
          "time": 278.25,
          "velocity": 1
        },
        {
          "duration": 0.36250000000001137,
          "durationTicks": 58,
          "midi": 79,
          "name": "G5",
          "ticks": 44580,
          "time": 278.625,
          "velocity": 1
        },
        {
          "duration": 1.1125000000000114,
          "durationTicks": 178,
          "midi": 78,
          "name": "F#5",
          "ticks": 44640,
          "time": 279,
          "velocity": 1
        },
        {
          "duration": 0.36250000000001137,
          "durationTicks": 58,
          "midi": 78,
          "name": "F#5",
          "ticks": 44820,
          "time": 280.125,
          "velocity": 1
        },
        {
          "duration": 0.36250000000001137,
          "durationTicks": 58,
          "midi": 78,
          "name": "F#5",
          "ticks": 44880,
          "time": 280.5,
          "velocity": 1
        },
        {
          "duration": 0.36250000000001137,
          "durationTicks": 58,
          "midi": 79,
          "name": "G5",
          "ticks": 44940,
          "time": 280.875,
          "velocity": 1
        },
        {
          "duration": 0.36250000000001137,
          "durationTicks": 58,
          "midi": 78,
          "name": "F#5",
          "ticks": 45000,
          "time": 281.25,
          "velocity": 1
        },
        {
          "duration": 0.36250000000001137,
          "durationTicks": 58,
          "midi": 76,
          "name": "E5",
          "ticks": 45060,
          "time": 281.625,
          "velocity": 1
        },
        {
          "duration": 0.36250000000001137,
          "durationTicks": 58,
          "midi": 74,
          "name": "D5",
          "ticks": 45120,
          "time": 282,
          "velocity": 1
        },
        {
          "duration": 0.36250000000001137,
          "durationTicks": 58,
          "midi": 72,
          "name": "C5",
          "ticks": 45180,
          "time": 282.375,
          "velocity": 1
        },
        {
          "duration": 0.36250000000001137,
          "durationTicks": 58,
          "midi": 71,
          "name": "B4",
          "ticks": 45240,
          "time": 282.75,
          "velocity": 1
        },
        {
          "duration": 0.36250000000001137,
          "durationTicks": 58,
          "midi": 72,
          "name": "C5",
          "ticks": 45300,
          "time": 283.125,
          "velocity": 1
        },
        {
          "duration": 1.1125000000000114,
          "durationTicks": 178,
          "midi": 69,
          "name": "A4",
          "ticks": 45360,
          "time": 283.5,
          "velocity": 1
        },
        {
          "duration": 0.36250000000001137,
          "durationTicks": 58,
          "midi": 69,
          "name": "A4",
          "ticks": 45540,
          "time": 284.625,
          "velocity": 1
        },
        {
          "duration": 0.7375000000000114,
          "durationTicks": 118,
          "midi": 67,
          "name": "G4",
          "ticks": 45600,
          "time": 285,
          "velocity": 1
        },
        {
          "duration": 0.7375000000000114,
          "durationTicks": 118,
          "midi": 74,
          "name": "D5",
          "ticks": 45720,
          "time": 285.75,
          "velocity": 1
        },
        {
          "duration": 1.1125000000000114,
          "durationTicks": 178,
          "midi": 73,
          "name": "C#5",
          "ticks": 45840,
          "time": 286.5,
          "velocity": 1
        },
        {
          "duration": 0.36250000000001137,
          "durationTicks": 58,
          "midi": 73,
          "name": "C#5",
          "ticks": 46020,
          "time": 287.625,
          "velocity": 1
        },
        {
          "duration": 0.7375000000000114,
          "durationTicks": 118,
          "midi": 74,
          "name": "D5",
          "ticks": 46080,
          "time": 288,
          "velocity": 1
        },
        {
          "duration": 1.4875000000000114,
          "durationTicks": 238,
          "midi": 74,
          "name": "D5",
          "ticks": 46200,
          "time": 288.75,
          "velocity": 1
        },
        {
          "duration": 1.4875000000000114,
          "durationTicks": 238,
          "midi": 73,
          "name": "C#5",
          "ticks": 46440,
          "time": 290.25,
          "velocity": 1
        },
        {
          "duration": 1.4875000000000114,
          "durationTicks": 238,
          "midi": 71,
          "name": "B4",
          "ticks": 46680,
          "time": 291.75,
          "velocity": 1
        },
        {
          "duration": 1.4875000000000114,
          "durationTicks": 238,
          "midi": 69,
          "name": "A4",
          "ticks": 46920,
          "time": 293.25,
          "velocity": 1
        },
        {
          "duration": 1.4875000000000114,
          "durationTicks": 238,
          "midi": 67,
          "name": "G4",
          "ticks": 47160,
          "time": 294.75,
          "velocity": 1
        },
        {
          "duration": 1.8625000000000114,
          "durationTicks": 298,
          "midi": 66,
          "name": "F#4",
          "ticks": 47400,
          "time": 296.25,
          "velocity": 1
        },
        {
          "duration": 0.36250000000001137,
          "durationTicks": 58,
          "midi": 64,
          "name": "E4",
          "ticks": 47700,
          "time": 298.125,
          "velocity": 1
        },
        {
          "duration": 1.4875000000000114,
          "durationTicks": 238,
          "midi": 64,
          "name": "E4",
          "ticks": 47760,
          "time": 298.5,
          "velocity": 1
        },
        {
          "duration": 0.7375000000000114,
          "durationTicks": 118,
          "midi": 66,
          "name": "F#4",
          "ticks": 48000,
          "time": 300,
          "velocity": 1
        },
        {
          "duration": 1.4875000000000114,
          "durationTicks": 238,
          "midi": 78,
          "name": "F#5",
          "ticks": 48120,
          "time": 300.75,
          "velocity": 1
        },
        {
          "duration": 0.7375000000000114,
          "durationTicks": 118,
          "midi": 76,
          "name": "E5",
          "ticks": 48360,
          "time": 302.25,
          "velocity": 1
        },
        {
          "duration": 0.7375000000000114,
          "durationTicks": 118,
          "midi": 74,
          "name": "D5",
          "ticks": 48480,
          "time": 303,
          "velocity": 1
        },
        {
          "duration": 1.4875000000000114,
          "durationTicks": 238,
          "midi": 86,
          "name": "D6",
          "ticks": 48600,
          "time": 303.75,
          "velocity": 1
        },
        {
          "duration": 0.7375000000000114,
          "durationTicks": 118,
          "midi": 84,
          "name": "C6",
          "ticks": 48840,
          "time": 305.25,
          "velocity": 1
        },
        {
          "duration": 1.4875000000000114,
          "durationTicks": 238,
          "midi": 83,
          "name": "B5",
          "ticks": 48960,
          "time": 306,
          "velocity": 1
        },
        {
          "duration": 0.7375000000000114,
          "durationTicks": 118,
          "midi": 86,
          "name": "D6",
          "ticks": 49200,
          "time": 307.5,
          "velocity": 1
        },
        {
          "duration": 0.7375000000000114,
          "durationTicks": 118,
          "midi": 81,
          "name": "A5",
          "ticks": 49320,
          "time": 308.25,
          "velocity": 1
        },
        {
          "duration": 1.4875000000000114,
          "durationTicks": 238,
          "midi": 83,
          "name": "B5",
          "ticks": 49440,
          "time": 309,
          "velocity": 1
        },
        {
          "duration": 1.4875000000000114,
          "durationTicks": 238,
          "midi": 81,
          "name": "A5",
          "ticks": 49680,
          "time": 310.5,
          "velocity": 1
        },
        {
          "duration": 1.4875000000000114,
          "durationTicks": 238,
          "midi": 81,
          "name": "A5",
          "ticks": 49920,
          "time": 312,
          "velocity": 1
        },
        {
          "duration": 1.1125000000000114,
          "durationTicks": 178,
          "midi": 69,
          "name": "A4",
          "ticks": 50160,
          "time": 313.5,
          "velocity": 1
        },
        {
          "duration": 0.36250000000001137,
          "durationTicks": 58,
          "midi": 67,
          "name": "G4",
          "ticks": 50340,
          "time": 314.625,
          "velocity": 1
        },
        {
          "duration": 1.4875000000000114,
          "durationTicks": 238,
          "midi": 66,
          "name": "F#4",
          "ticks": 50400,
          "time": 315,
          "velocity": 1
        },
        {
          "duration": 1.1125000000000114,
          "durationTicks": 178,
          "midi": 78,
          "name": "F#5",
          "ticks": 50640,
          "time": 316.5,
          "velocity": 1
        },
        {
          "duration": 0.36250000000001137,
          "durationTicks": 58,
          "midi": 76,
          "name": "E5",
          "ticks": 50820,
          "time": 317.625,
          "velocity": 1
        },
        {
          "duration": 2.2375000000000114,
          "durationTicks": 358,
          "midi": 74,
          "name": "D5",
          "ticks": 50880,
          "time": 318,
          "velocity": 1
        },
        {
          "duration": 0.7375000000000114,
          "durationTicks": 118,
          "midi": 74,
          "name": "D5",
          "ticks": 51240,
          "time": 320.25,
          "velocity": 1
        },
        {
          "duration": 1.4875000000000114,
          "durationTicks": 238,
          "midi": 74,
          "name": "D5",
          "ticks": 51360,
          "time": 321,
          "velocity": 1
        },
        {
          "duration": 1.4875000000000114,
          "durationTicks": 238,
          "midi": 73,
          "name": "C#5",
          "ticks": 51600,
          "time": 322.5,
          "velocity": 1
        },
        {
          "duration": 0.7375000000000114,
          "durationTicks": 118,
          "midi": 74,
          "name": "D5",
          "ticks": 51840,
          "time": 324,
          "velocity": 1
        },
        {
          "duration": 0.7375000000000114,
          "durationTicks": 118,
          "midi": 62,
          "name": "D4",
          "ticks": 51960,
          "time": 324.75,
          "velocity": 1
        },
        {
          "duration": 0.7375000000000114,
          "durationTicks": 118,
          "midi": 61,
          "name": "C#4",
          "ticks": 52080,
          "time": 325.5,
          "velocity": 1
        },
        {
          "duration": 0.7375000000000114,
          "durationTicks": 118,
          "midi": 73,
          "name": "C#5",
          "ticks": 52200,
          "time": 326.25,
          "velocity": 1
        },
        {
          "duration": 0.7375000000000114,
          "durationTicks": 118,
          "midi": 71,
          "name": "B4",
          "ticks": 52320,
          "time": 327,
          "velocity": 1
        },
        {
          "duration": 0.7375000000000114,
          "durationTicks": 118,
          "midi": 59,
          "name": "B3",
          "ticks": 52440,
          "time": 327.75,
          "velocity": 1
        },
        {
          "duration": 0.7375000000000114,
          "durationTicks": 118,
          "midi": 57,
          "name": "A3",
          "ticks": 52560,
          "time": 328.5,
          "velocity": 1
        },
        {
          "duration": 0.7375000000000114,
          "durationTicks": 118,
          "midi": 69,
          "name": "A4",
          "ticks": 52680,
          "time": 329.25,
          "velocity": 1
        },
        {
          "duration": 0.7375000000000114,
          "durationTicks": 118,
          "midi": 67,
          "name": "G4",
          "ticks": 52800,
          "time": 330,
          "velocity": 1
        },
        {
          "duration": 0.7375000000000114,
          "durationTicks": 118,
          "midi": 79,
          "name": "G5",
          "ticks": 52920,
          "time": 330.75,
          "velocity": 1
        },
        {
          "duration": 0.7375000000000114,
          "durationTicks": 118,
          "midi": 78,
          "name": "F#5",
          "ticks": 53040,
          "time": 331.5,
          "velocity": 1
        },
        {
          "duration": 0.7375000000000114,
          "durationTicks": 118,
          "midi": 66,
          "name": "F#4",
          "ticks": 53160,
          "time": 332.25,
          "velocity": 1
        },
        {
          "duration": 0.7375000000000114,
          "durationTicks": 118,
          "midi": 64,
          "name": "E4",
          "ticks": 53280,
          "time": 333,
          "velocity": 1
        },
        {
          "duration": 0.7375000000000114,
          "durationTicks": 118,
          "midi": 71,
          "name": "B4",
          "ticks": 53400,
          "time": 333.75,
          "velocity": 1
        },
        {
          "duration": 0.7375000000000114,
          "durationTicks": 118,
          "midi": 64,
          "name": "E4",
          "ticks": 53520,
          "time": 334.5,
          "velocity": 1
        },
        {
          "duration": 0.7375000000000114,
          "durationTicks": 118,
          "midi": 76,
          "name": "E5",
          "ticks": 53640,
          "time": 335.25,
          "velocity": 1
        },
        {
          "duration": 1.4875000000000114,
          "durationTicks": 238,
          "midi": 78,
          "name": "F#5",
          "ticks": 53760,
          "time": 336,
          "velocity": 1
        },
        {
          "duration": 0.37187499999998863,
          "durationTicks": 238,
          "midi": 81,
          "name": "A5",
          "ticks": 56160,
          "time": 344.25,
          "velocity": 1
        },
        {
          "duration": 0.18437499999998863,
          "durationTicks": 118,
          "midi": 79,
          "name": "G5",
          "ticks": 56400,
          "time": 344.625,
          "velocity": 1
        },
        {
          "duration": 0.18437499999998863,
          "durationTicks": 118,
          "midi": 78,
          "name": "F#5",
          "ticks": 56520,
          "time": 344.8125,
          "velocity": 1
        },
        {
          "duration": 0.18437499999998863,
          "durationTicks": 118,
          "midi": 79,
          "name": "G5",
          "ticks": 56640,
          "time": 345,
          "velocity": 1
        },
        {
          "duration": 0.18437499999998863,
          "durationTicks": 118,
          "midi": 76,
          "name": "E5",
          "ticks": 56760,
          "time": 345.1875,
          "velocity": 1
        },
        {
          "duration": 0.18437499999998863,
          "durationTicks": 118,
          "midi": 74,
          "name": "D5",
          "ticks": 56880,
          "time": 345.375,
          "velocity": 1
        },
        {
          "duration": 0.18437499999998863,
          "durationTicks": 118,
          "midi": 76,
          "name": "E5",
          "ticks": 57000,
          "time": 345.5625,
          "velocity": 1
        },
        {
          "duration": 0.18437499999998863,
          "durationTicks": 118,
          "midi": 73,
          "name": "C#5",
          "ticks": 57120,
          "time": 345.75,
          "velocity": 1
        },
        {
          "duration": 0.18437499999998863,
          "durationTicks": 118,
          "midi": 71,
          "name": "B4",
          "ticks": 57240,
          "time": 345.9375,
          "velocity": 1
        },
        {
          "duration": 0.18437499999998863,
          "durationTicks": 118,
          "midi": 73,
          "name": "C#5",
          "ticks": 57360,
          "time": 346.125,
          "velocity": 1
        },
        {
          "duration": 0.18437499999998863,
          "durationTicks": 118,
          "midi": 69,
          "name": "A4",
          "ticks": 57480,
          "time": 346.3125,
          "velocity": 1
        },
        {
          "duration": 0.5593749999999886,
          "durationTicks": 358,
          "midi": 68,
          "name": "G#4",
          "ticks": 57600,
          "time": 346.5,
          "velocity": 1
        },
        {
          "duration": 0.18437499999998863,
          "durationTicks": 118,
          "midi": 69,
          "name": "A4",
          "ticks": 57960,
          "time": 347.0625,
          "velocity": 1
        },
        {
          "duration": 0.18437499999998863,
          "durationTicks": 118,
          "midi": 71,
          "name": "B4",
          "ticks": 58080,
          "time": 347.25,
          "velocity": 1
        },
        {
          "duration": 0.18437499999998863,
          "durationTicks": 118,
          "midi": 67,
          "name": "G4",
          "ticks": 58200,
          "time": 347.4375,
          "velocity": 1
        },
        {
          "duration": 0.18437499999998863,
          "durationTicks": 118,
          "midi": 66,
          "name": "F#4",
          "ticks": 58320,
          "time": 347.625,
          "velocity": 1
        },
        {
          "duration": 0.18437499999998863,
          "durationTicks": 118,
          "midi": 67,
          "name": "G4",
          "ticks": 58440,
          "time": 347.8125,
          "velocity": 1
        },
        {
          "duration": 0.18437499999998863,
          "durationTicks": 118,
          "midi": 69,
          "name": "A4",
          "ticks": 58560,
          "time": 348,
          "velocity": 1
        },
        {
          "duration": 0.37187499999998863,
          "durationTicks": 238,
          "midi": 71,
          "name": "B4",
          "ticks": 58680,
          "time": 348.1875,
          "velocity": 1
        },
        {
          "duration": 0.18437499999998863,
          "durationTicks": 118,
          "midi": 73,
          "name": "C#5",
          "ticks": 58920,
          "time": 348.5625,
          "velocity": 1
        },
        {
          "duration": 0.37187499999998863,
          "durationTicks": 238,
          "midi": 74,
          "name": "D5",
          "ticks": 59040,
          "time": 348.75,
          "velocity": 1
        },
        {
          "duration": 0.18437499999998863,
          "durationTicks": 118,
          "midi": 74,
          "name": "D5",
          "ticks": 59280,
          "time": 349.125,
          "velocity": 1
        },
        {
          "duration": 0.5593749999999886,
          "durationTicks": 358,
          "midi": 71,
          "name": "B4",
          "ticks": 59400,
          "time": 349.3125,
          "velocity": 1
        },
        {
          "duration": 0.5593749999999886,
          "durationTicks": 358,
          "midi": 69,
          "name": "A4",
          "ticks": 59760,
          "time": 349.875,
          "velocity": 1
        },
        {
          "duration": 0.37187499999998863,
          "durationTicks": 238,
          "midi": 69,
          "name": "A4",
          "ticks": 60120,
          "time": 350.4375,
          "velocity": 1
        },
        {
          "duration": 0.18437499999998863,
          "durationTicks": 118,
          "midi": 67,
          "name": "G4",
          "ticks": 60360,
          "time": 350.8125,
          "velocity": 1
        },
        {
          "duration": 0.5593749999999886,
          "durationTicks": 358,
          "midi": 66,
          "name": "F#4",
          "ticks": 60480,
          "time": 351,
          "velocity": 1
        },
        {
          "duration": 0.37187499999998863,
          "durationTicks": 238,
          "midi": 76,
          "name": "E5",
          "ticks": 61200,
          "time": 352.125,
          "velocity": 1
        },
        {
          "duration": 0.18437499999998863,
          "durationTicks": 118,
          "midi": 74,
          "name": "D5",
          "ticks": 61440,
          "time": 352.5,
          "velocity": 1
        },
        {
          "duration": 0.18437499999998863,
          "durationTicks": 118,
          "midi": 73,
          "name": "C#5",
          "ticks": 61560,
          "time": 352.6875,
          "velocity": 1
        },
        {
          "duration": 0.18437499999998863,
          "durationTicks": 118,
          "midi": 74,
          "name": "D5",
          "ticks": 61680,
          "time": 352.875,
          "velocity": 1
        },
        {
          "duration": 0.18437499999998863,
          "durationTicks": 118,
          "midi": 71,
          "name": "B4",
          "ticks": 61800,
          "time": 353.0625,
          "velocity": 1
        },
        {
          "duration": 0.18437499999998863,
          "durationTicks": 118,
          "midi": 69,
          "name": "A4",
          "ticks": 61920,
          "time": 353.25,
          "velocity": 1
        },
        {
          "duration": 0.18437499999998863,
          "durationTicks": 118,
          "midi": 71,
          "name": "B4",
          "ticks": 62040,
          "time": 353.4375,
          "velocity": 1
        },
        {
          "duration": 0.18437499999998863,
          "durationTicks": 118,
          "midi": 67,
          "name": "G4",
          "ticks": 62160,
          "time": 353.625,
          "velocity": 1
        },
        {
          "duration": 0.18437499999998863,
          "durationTicks": 118,
          "midi": 66,
          "name": "F#4",
          "ticks": 62280,
          "time": 353.8125,
          "velocity": 1
        },
        {
          "duration": 0.18437499999998863,
          "durationTicks": 118,
          "midi": 67,
          "name": "G4",
          "ticks": 62400,
          "time": 354,
          "velocity": 1
        },
        {
          "duration": 0.18437499999998863,
          "durationTicks": 118,
          "midi": 64,
          "name": "E4",
          "ticks": 62520,
          "time": 354.1875,
          "velocity": 1
        },
        {
          "duration": 0.18437499999998863,
          "durationTicks": 118,
          "midi": 62,
          "name": "D4",
          "ticks": 62640,
          "time": 354.375,
          "velocity": 1
        },
        {
          "duration": 0.18437499999998863,
          "durationTicks": 118,
          "midi": 64,
          "name": "E4",
          "ticks": 62760,
          "time": 354.5625,
          "velocity": 1
        },
        {
          "duration": 0.18437499999998863,
          "durationTicks": 118,
          "midi": 66,
          "name": "F#4",
          "ticks": 62880,
          "time": 354.75,
          "velocity": 1
        },
        {
          "duration": 0.18437499999998863,
          "durationTicks": 118,
          "midi": 64,
          "name": "E4",
          "ticks": 63000,
          "time": 354.9375,
          "velocity": 1
        },
        {
          "duration": 0.18437499999998863,
          "durationTicks": 118,
          "midi": 66,
          "name": "F#4",
          "ticks": 63120,
          "time": 355.125,
          "velocity": 1
        },
        {
          "duration": 0.18437499999998863,
          "durationTicks": 118,
          "midi": 62,
          "name": "D4",
          "ticks": 63240,
          "time": 355.3125,
          "velocity": 1
        },
        {
          "duration": 0.18437499999998863,
          "durationTicks": 118,
          "midi": 61,
          "name": "C#4",
          "ticks": 63360,
          "time": 355.5,
          "velocity": 1
        },
        {
          "duration": 0.18437499999998863,
          "durationTicks": 118,
          "midi": 62,
          "name": "D4",
          "ticks": 63480,
          "time": 355.6875,
          "velocity": 1
        },
        {
          "duration": 0.18437499999998863,
          "durationTicks": 118,
          "midi": 64,
          "name": "E4",
          "ticks": 63600,
          "time": 355.875,
          "velocity": 1
        },
        {
          "duration": 0.18437499999998863,
          "durationTicks": 118,
          "midi": 62,
          "name": "D4",
          "ticks": 63720,
          "time": 356.0625,
          "velocity": 1
        },
        {
          "duration": 0.18437499999998863,
          "durationTicks": 118,
          "midi": 74,
          "name": "D5",
          "ticks": 63840,
          "time": 356.25,
          "velocity": 1
        },
        {
          "duration": 0.18437499999998863,
          "durationTicks": 118,
          "midi": 73,
          "name": "C#5",
          "ticks": 63960,
          "time": 356.4375,
          "velocity": 1
        },
        {
          "duration": 0.37187499999998863,
          "durationTicks": 238,
          "midi": 71,
          "name": "B4",
          "ticks": 64080,
          "time": 356.625,
          "velocity": 1
        },
        {
          "duration": 0.18437499999998863,
          "durationTicks": 118,
          "midi": 73,
          "name": "C#5",
          "ticks": 64320,
          "time": 357,
          "velocity": 1
        },
        {
          "duration": 0.18437499999998863,
          "durationTicks": 118,
          "midi": 74,
          "name": "D5",
          "ticks": 64440,
          "time": 357.1875,
          "velocity": 1
        },
        {
          "duration": 0.18437499999998863,
          "durationTicks": 118,
          "midi": 76,
          "name": "E5",
          "ticks": 64560,
          "time": 357.375,
          "velocity": 1
        },
        {
          "duration": 0.18437499999998863,
          "durationTicks": 118,
          "midi": 73,
          "name": "C#5",
          "ticks": 64680,
          "time": 357.5625,
          "velocity": 1
        },
        {
          "duration": 0.18437499999998863,
          "durationTicks": 118,
          "midi": 71,
          "name": "B4",
          "ticks": 64800,
          "time": 357.75,
          "velocity": 1
        },
        {
          "duration": 0.18437499999998863,
          "durationTicks": 118,
          "midi": 68,
          "name": "G#4",
          "ticks": 64920,
          "time": 357.9375,
          "velocity": 1
        },
        {
          "duration": 0.18437499999998863,
          "durationTicks": 118,
          "midi": 71,
          "name": "B4",
          "ticks": 65040,
          "time": 358.125,
          "velocity": 1
        },
        {
          "duration": 0.18437499999998863,
          "durationTicks": 118,
          "midi": 73,
          "name": "C#5",
          "ticks": 65160,
          "time": 358.3125,
          "velocity": 1
        },
        {
          "duration": 0.18437499999998863,
          "durationTicks": 118,
          "midi": 69,
          "name": "A4",
          "ticks": 65280,
          "time": 358.5,
          "velocity": 1
        },
        {
          "duration": 0.18437499999998863,
          "durationTicks": 118,
          "midi": 73,
          "name": "C#5",
          "ticks": 65400,
          "time": 358.6875,
          "velocity": 1
        },
        {
          "duration": 0.18437499999998863,
          "durationTicks": 118,
          "midi": 68,
          "name": "G#4",
          "ticks": 65520,
          "time": 358.875,
          "velocity": 1
        },
        {
          "duration": 0.18437499999998863,
          "durationTicks": 118,
          "midi": 64,
          "name": "E4",
          "ticks": 65640,
          "time": 359.0625,
          "velocity": 1
        },
        {
          "duration": 0.18437499999998863,
          "durationTicks": 118,
          "midi": 68,
          "name": "G#4",
          "ticks": 65760,
          "time": 359.25,
          "velocity": 1
        },
        {
          "duration": 0.18437499999998863,
          "durationTicks": 118,
          "midi": 69,
          "name": "A4",
          "ticks": 65880,
          "time": 359.4375,
          "velocity": 1
        },
        {
          "duration": 0.18437499999998863,
          "durationTicks": 118,
          "midi": 66,
          "name": "F#4",
          "ticks": 66000,
          "time": 359.625,
          "velocity": 1
        },
        {
          "duration": 0.18437499999998863,
          "durationTicks": 118,
          "midi": 69,
          "name": "A4",
          "ticks": 66120,
          "time": 359.8125,
          "velocity": 1
        },
        {
          "duration": 0.18437499999998863,
          "durationTicks": 118,
          "midi": 68,
          "name": "G#4",
          "ticks": 66240,
          "time": 360,
          "velocity": 1
        },
        {
          "duration": 0.18437499999998863,
          "durationTicks": 118,
          "midi": 64,
          "name": "E4",
          "ticks": 66360,
          "time": 360.1875,
          "velocity": 1
        },
        {
          "duration": 0.18437499999998863,
          "durationTicks": 118,
          "midi": 68,
          "name": "G#4",
          "ticks": 66480,
          "time": 360.375,
          "velocity": 1
        },
        {
          "duration": 0.18437499999998863,
          "durationTicks": 118,
          "midi": 69,
          "name": "A4",
          "ticks": 66600,
          "time": 360.5625,
          "velocity": 1
        },
        {
          "duration": 0.18437499999998863,
          "durationTicks": 118,
          "midi": 66,
          "name": "F#4",
          "ticks": 66720,
          "time": 360.75,
          "velocity": 1
        },
        {
          "duration": 0.18437499999998863,
          "durationTicks": 118,
          "midi": 69,
          "name": "A4",
          "ticks": 66840,
          "time": 360.9375,
          "velocity": 1
        },
        {
          "duration": 0.18437499999998863,
          "durationTicks": 118,
          "midi": 68,
          "name": "G#4",
          "ticks": 66960,
          "time": 361.125,
          "velocity": 1
        },
        {
          "duration": 0.18437499999998863,
          "durationTicks": 118,
          "midi": 64,
          "name": "E4",
          "ticks": 67080,
          "time": 361.3125,
          "velocity": 1
        },
        {
          "duration": 0.18437499999998863,
          "durationTicks": 118,
          "midi": 69,
          "name": "A4",
          "ticks": 67200,
          "time": 361.5,
          "velocity": 1
        },
        {
          "duration": 0.37187499999998863,
          "durationTicks": 238,
          "midi": 69,
          "name": "A4",
          "ticks": 67320,
          "time": 361.6875,
          "velocity": 1
        },
        {
          "duration": 0.18437499999998863,
          "durationTicks": 118,
          "midi": 68,
          "name": "G#4",
          "ticks": 67560,
          "time": 362.0625,
          "velocity": 1
        },
        {
          "duration": 0.5593749999999886,
          "durationTicks": 358,
          "midi": 69,
          "name": "A4",
          "ticks": 67680,
          "time": 362.25,
          "velocity": 1
        },
        {
          "duration": 0.37187499999998863,
          "durationTicks": 238,
          "midi": 69,
          "name": "A4",
          "ticks": 68040,
          "time": 362.8125,
          "velocity": 1
        },
        {
          "duration": 0.18437499999998863,
          "durationTicks": 118,
          "midi": 68,
          "name": "G#4",
          "ticks": 68280,
          "time": 363.1875,
          "velocity": 1
        },
        {
          "duration": 1.1218749999999886,
          "durationTicks": 718,
          "midi": 69,
          "name": "A4",
          "ticks": 68400,
          "time": 363.375,
          "velocity": 1
        },
        {
          "duration": 0.37187499999998863,
          "durationTicks": 238,
          "midi": 81,
          "name": "A5",
          "ticks": 70560,
          "time": 366.75,
          "velocity": 1
        },
        {
          "duration": 0.18437499999998863,
          "durationTicks": 118,
          "midi": 79,
          "name": "G5",
          "ticks": 70800,
          "time": 367.125,
          "velocity": 1
        },
        {
          "duration": 0.18437499999998863,
          "durationTicks": 118,
          "midi": 78,
          "name": "F#5",
          "ticks": 70920,
          "time": 367.3125,
          "velocity": 1
        },
        {
          "duration": 0.18437499999998863,
          "durationTicks": 118,
          "midi": 79,
          "name": "G5",
          "ticks": 71040,
          "time": 367.5,
          "velocity": 1
        },
        {
          "duration": 0.18437499999998863,
          "durationTicks": 118,
          "midi": 76,
          "name": "E5",
          "ticks": 71160,
          "time": 367.6875,
          "velocity": 1
        },
        {
          "duration": 0.18437499999998863,
          "durationTicks": 118,
          "midi": 74,
          "name": "D5",
          "ticks": 71280,
          "time": 367.875,
          "velocity": 1
        },
        {
          "duration": 0.18437499999998863,
          "durationTicks": 118,
          "midi": 76,
          "name": "E5",
          "ticks": 71400,
          "time": 368.0625,
          "velocity": 1
        },
        {
          "duration": 0.18437499999998863,
          "durationTicks": 118,
          "midi": 73,
          "name": "C#5",
          "ticks": 71520,
          "time": 368.25,
          "velocity": 1
        },
        {
          "duration": 0.18437499999998863,
          "durationTicks": 118,
          "midi": 71,
          "name": "B4",
          "ticks": 71640,
          "time": 368.4375,
          "velocity": 1
        },
        {
          "duration": 0.18437499999998863,
          "durationTicks": 118,
          "midi": 73,
          "name": "C#5",
          "ticks": 71760,
          "time": 368.625,
          "velocity": 1
        },
        {
          "duration": 0.18437499999998863,
          "durationTicks": 118,
          "midi": 69,
          "name": "A4",
          "ticks": 71880,
          "time": 368.8125,
          "velocity": 1
        },
        {
          "duration": 0.5593749999999886,
          "durationTicks": 358,
          "midi": 68,
          "name": "G#4",
          "ticks": 72000,
          "time": 369,
          "velocity": 1
        },
        {
          "duration": 0.18437499999998863,
          "durationTicks": 118,
          "midi": 69,
          "name": "A4",
          "ticks": 72360,
          "time": 369.5625,
          "velocity": 1
        },
        {
          "duration": 0.18437499999998863,
          "durationTicks": 118,
          "midi": 71,
          "name": "B4",
          "ticks": 72480,
          "time": 369.75,
          "velocity": 1
        },
        {
          "duration": 0.18437499999998863,
          "durationTicks": 118,
          "midi": 67,
          "name": "G4",
          "ticks": 72600,
          "time": 369.9375,
          "velocity": 1
        },
        {
          "duration": 0.18437499999998863,
          "durationTicks": 118,
          "midi": 66,
          "name": "F#4",
          "ticks": 72720,
          "time": 370.125,
          "velocity": 1
        },
        {
          "duration": 0.18437499999998863,
          "durationTicks": 118,
          "midi": 67,
          "name": "G4",
          "ticks": 72840,
          "time": 370.3125,
          "velocity": 1
        },
        {
          "duration": 0.18437499999998863,
          "durationTicks": 118,
          "midi": 69,
          "name": "A4",
          "ticks": 72960,
          "time": 370.5,
          "velocity": 1
        },
        {
          "duration": 0.37187499999998863,
          "durationTicks": 238,
          "midi": 71,
          "name": "B4",
          "ticks": 73080,
          "time": 370.6875,
          "velocity": 1
        },
        {
          "duration": 0.18437499999998863,
          "durationTicks": 118,
          "midi": 73,
          "name": "C#5",
          "ticks": 73320,
          "time": 371.0625,
          "velocity": 1
        },
        {
          "duration": 0.37187499999998863,
          "durationTicks": 238,
          "midi": 74,
          "name": "D5",
          "ticks": 73440,
          "time": 371.25,
          "velocity": 1
        },
        {
          "duration": 0.18437499999998863,
          "durationTicks": 118,
          "midi": 74,
          "name": "D5",
          "ticks": 73680,
          "time": 371.625,
          "velocity": 1
        },
        {
          "duration": 0.5593749999999886,
          "durationTicks": 358,
          "midi": 71,
          "name": "B4",
          "ticks": 73800,
          "time": 371.8125,
          "velocity": 1
        },
        {
          "duration": 0.5593749999999886,
          "durationTicks": 358,
          "midi": 69,
          "name": "A4",
          "ticks": 74160,
          "time": 372.375,
          "velocity": 1
        },
        {
          "duration": 0.37187499999998863,
          "durationTicks": 238,
          "midi": 69,
          "name": "A4",
          "ticks": 74520,
          "time": 372.9375,
          "velocity": 1
        },
        {
          "duration": 0.18437499999998863,
          "durationTicks": 118,
          "midi": 67,
          "name": "G4",
          "ticks": 74760,
          "time": 373.3125,
          "velocity": 1
        },
        {
          "duration": 0.5593749999999886,
          "durationTicks": 358,
          "midi": 66,
          "name": "F#4",
          "ticks": 74880,
          "time": 373.5,
          "velocity": 1
        },
        {
          "duration": 0.37187499999998863,
          "durationTicks": 238,
          "midi": 76,
          "name": "E5",
          "ticks": 75600,
          "time": 374.625,
          "velocity": 1
        },
        {
          "duration": 0.18437499999998863,
          "durationTicks": 118,
          "midi": 74,
          "name": "D5",
          "ticks": 75840,
          "time": 375,
          "velocity": 1
        },
        {
          "duration": 0.18437499999998863,
          "durationTicks": 118,
          "midi": 73,
          "name": "C#5",
          "ticks": 75960,
          "time": 375.1875,
          "velocity": 1
        },
        {
          "duration": 0.18437499999998863,
          "durationTicks": 118,
          "midi": 74,
          "name": "D5",
          "ticks": 76080,
          "time": 375.375,
          "velocity": 1
        },
        {
          "duration": 0.18437499999998863,
          "durationTicks": 118,
          "midi": 71,
          "name": "B4",
          "ticks": 76200,
          "time": 375.5625,
          "velocity": 1
        },
        {
          "duration": 0.18437499999998863,
          "durationTicks": 118,
          "midi": 69,
          "name": "A4",
          "ticks": 76320,
          "time": 375.75,
          "velocity": 1
        },
        {
          "duration": 0.18437499999998863,
          "durationTicks": 118,
          "midi": 71,
          "name": "B4",
          "ticks": 76440,
          "time": 375.9375,
          "velocity": 1
        },
        {
          "duration": 0.18437499999998863,
          "durationTicks": 118,
          "midi": 67,
          "name": "G4",
          "ticks": 76560,
          "time": 376.125,
          "velocity": 1
        },
        {
          "duration": 0.18437499999998863,
          "durationTicks": 118,
          "midi": 66,
          "name": "F#4",
          "ticks": 76680,
          "time": 376.3125,
          "velocity": 1
        },
        {
          "duration": 0.18437499999998863,
          "durationTicks": 118,
          "midi": 67,
          "name": "G4",
          "ticks": 76800,
          "time": 376.5,
          "velocity": 1
        },
        {
          "duration": 0.18437499999998863,
          "durationTicks": 118,
          "midi": 64,
          "name": "E4",
          "ticks": 76920,
          "time": 376.6875,
          "velocity": 1
        },
        {
          "duration": 0.18437499999998863,
          "durationTicks": 118,
          "midi": 62,
          "name": "D4",
          "ticks": 77040,
          "time": 376.875,
          "velocity": 1
        },
        {
          "duration": 0.18437499999998863,
          "durationTicks": 118,
          "midi": 64,
          "name": "E4",
          "ticks": 77160,
          "time": 377.0625,
          "velocity": 1
        },
        {
          "duration": 0.18437499999998863,
          "durationTicks": 118,
          "midi": 66,
          "name": "F#4",
          "ticks": 77280,
          "time": 377.25,
          "velocity": 1
        },
        {
          "duration": 0.18437499999998863,
          "durationTicks": 118,
          "midi": 64,
          "name": "E4",
          "ticks": 77400,
          "time": 377.4375,
          "velocity": 1
        },
        {
          "duration": 0.18437499999998863,
          "durationTicks": 118,
          "midi": 66,
          "name": "F#4",
          "ticks": 77520,
          "time": 377.625,
          "velocity": 1
        },
        {
          "duration": 0.18437499999998863,
          "durationTicks": 118,
          "midi": 62,
          "name": "D4",
          "ticks": 77640,
          "time": 377.8125,
          "velocity": 1
        },
        {
          "duration": 0.18437499999998863,
          "durationTicks": 118,
          "midi": 61,
          "name": "C#4",
          "ticks": 77760,
          "time": 378,
          "velocity": 1
        },
        {
          "duration": 0.18437499999998863,
          "durationTicks": 118,
          "midi": 62,
          "name": "D4",
          "ticks": 77880,
          "time": 378.1875,
          "velocity": 1
        },
        {
          "duration": 0.18437499999998863,
          "durationTicks": 118,
          "midi": 64,
          "name": "E4",
          "ticks": 78000,
          "time": 378.375,
          "velocity": 1
        },
        {
          "duration": 0.18437499999998863,
          "durationTicks": 118,
          "midi": 62,
          "name": "D4",
          "ticks": 78120,
          "time": 378.5625,
          "velocity": 1
        },
        {
          "duration": 0.18437499999998863,
          "durationTicks": 118,
          "midi": 74,
          "name": "D5",
          "ticks": 78240,
          "time": 378.75,
          "velocity": 1
        },
        {
          "duration": 0.18437499999998863,
          "durationTicks": 118,
          "midi": 73,
          "name": "C#5",
          "ticks": 78360,
          "time": 378.9375,
          "velocity": 1
        },
        {
          "duration": 0.37187499999998863,
          "durationTicks": 238,
          "midi": 71,
          "name": "B4",
          "ticks": 78480,
          "time": 379.125,
          "velocity": 1
        },
        {
          "duration": 0.18437499999998863,
          "durationTicks": 118,
          "midi": 73,
          "name": "C#5",
          "ticks": 78720,
          "time": 379.5,
          "velocity": 1
        },
        {
          "duration": 0.18437499999998863,
          "durationTicks": 118,
          "midi": 74,
          "name": "D5",
          "ticks": 78840,
          "time": 379.6875,
          "velocity": 1
        },
        {
          "duration": 0.18437499999998863,
          "durationTicks": 118,
          "midi": 76,
          "name": "E5",
          "ticks": 78960,
          "time": 379.875,
          "velocity": 1
        },
        {
          "duration": 0.18437499999998863,
          "durationTicks": 118,
          "midi": 73,
          "name": "C#5",
          "ticks": 79080,
          "time": 380.0625,
          "velocity": 1
        },
        {
          "duration": 0.18437499999998863,
          "durationTicks": 118,
          "midi": 71,
          "name": "B4",
          "ticks": 79200,
          "time": 380.25,
          "velocity": 1
        },
        {
          "duration": 0.18437499999998863,
          "durationTicks": 118,
          "midi": 68,
          "name": "G#4",
          "ticks": 79320,
          "time": 380.4375,
          "velocity": 1
        },
        {
          "duration": 0.18437499999998863,
          "durationTicks": 118,
          "midi": 71,
          "name": "B4",
          "ticks": 79440,
          "time": 380.625,
          "velocity": 1
        },
        {
          "duration": 0.18437499999998863,
          "durationTicks": 118,
          "midi": 73,
          "name": "C#5",
          "ticks": 79560,
          "time": 380.8125,
          "velocity": 1
        },
        {
          "duration": 0.18437499999998863,
          "durationTicks": 118,
          "midi": 69,
          "name": "A4",
          "ticks": 79680,
          "time": 381,
          "velocity": 1
        },
        {
          "duration": 0.18437499999998863,
          "durationTicks": 118,
          "midi": 73,
          "name": "C#5",
          "ticks": 79800,
          "time": 381.1875,
          "velocity": 1
        },
        {
          "duration": 0.18437499999998863,
          "durationTicks": 118,
          "midi": 68,
          "name": "G#4",
          "ticks": 79920,
          "time": 381.375,
          "velocity": 1
        },
        {
          "duration": 0.18437499999998863,
          "durationTicks": 118,
          "midi": 64,
          "name": "E4",
          "ticks": 80040,
          "time": 381.5625,
          "velocity": 1
        },
        {
          "duration": 0.18437499999998863,
          "durationTicks": 118,
          "midi": 68,
          "name": "G#4",
          "ticks": 80160,
          "time": 381.75,
          "velocity": 1
        },
        {
          "duration": 0.18437499999998863,
          "durationTicks": 118,
          "midi": 69,
          "name": "A4",
          "ticks": 80280,
          "time": 381.9375,
          "velocity": 1
        },
        {
          "duration": 0.18437499999998863,
          "durationTicks": 118,
          "midi": 66,
          "name": "F#4",
          "ticks": 80400,
          "time": 382.125,
          "velocity": 1
        },
        {
          "duration": 0.18437499999998863,
          "durationTicks": 118,
          "midi": 69,
          "name": "A4",
          "ticks": 80520,
          "time": 382.3125,
          "velocity": 1
        },
        {
          "duration": 0.18437499999998863,
          "durationTicks": 118,
          "midi": 68,
          "name": "G#4",
          "ticks": 80640,
          "time": 382.5,
          "velocity": 1
        },
        {
          "duration": 0.18437499999998863,
          "durationTicks": 118,
          "midi": 64,
          "name": "E4",
          "ticks": 80760,
          "time": 382.6875,
          "velocity": 1
        },
        {
          "duration": 0.18437499999998863,
          "durationTicks": 118,
          "midi": 68,
          "name": "G#4",
          "ticks": 80880,
          "time": 382.875,
          "velocity": 1
        },
        {
          "duration": 0.18437499999998863,
          "durationTicks": 118,
          "midi": 69,
          "name": "A4",
          "ticks": 81000,
          "time": 383.0625,
          "velocity": 1
        },
        {
          "duration": 0.18437499999998863,
          "durationTicks": 118,
          "midi": 66,
          "name": "F#4",
          "ticks": 81120,
          "time": 383.25,
          "velocity": 1
        },
        {
          "duration": 0.18437499999998863,
          "durationTicks": 118,
          "midi": 69,
          "name": "A4",
          "ticks": 81240,
          "time": 383.4375,
          "velocity": 1
        },
        {
          "duration": 0.18437499999998863,
          "durationTicks": 118,
          "midi": 68,
          "name": "G#4",
          "ticks": 81360,
          "time": 383.625,
          "velocity": 1
        },
        {
          "duration": 0.18437499999998863,
          "durationTicks": 118,
          "midi": 64,
          "name": "E4",
          "ticks": 81480,
          "time": 383.8125,
          "velocity": 1
        },
        {
          "duration": 0.18437499999998863,
          "durationTicks": 118,
          "midi": 69,
          "name": "A4",
          "ticks": 81600,
          "time": 384,
          "velocity": 1
        },
        {
          "duration": 0.37187499999998863,
          "durationTicks": 238,
          "midi": 69,
          "name": "A4",
          "ticks": 81720,
          "time": 384.1875,
          "velocity": 1
        },
        {
          "duration": 0.18437499999998863,
          "durationTicks": 118,
          "midi": 68,
          "name": "G#4",
          "ticks": 81960,
          "time": 384.5625,
          "velocity": 1
        },
        {
          "duration": 0.5593749999999886,
          "durationTicks": 358,
          "midi": 69,
          "name": "A4",
          "ticks": 82080,
          "time": 384.75,
          "velocity": 1
        },
        {
          "duration": 0.37187499999998863,
          "durationTicks": 238,
          "midi": 69,
          "name": "A4",
          "ticks": 82440,
          "time": 385.3125,
          "velocity": 1
        },
        {
          "duration": 0.18437499999998863,
          "durationTicks": 118,
          "midi": 68,
          "name": "G#4",
          "ticks": 82680,
          "time": 385.6875,
          "velocity": 1
        },
        {
          "duration": 1.1218749999999886,
          "durationTicks": 718,
          "midi": 69,
          "name": "A4",
          "ticks": 82800,
          "time": 385.875,
          "velocity": 1
        },
        {
          "duration": 0.37187499999998863,
          "durationTicks": 238,
          "midi": 69,
          "name": "A4",
          "ticks": 83520,
          "time": 387,
          "velocity": 1
        },
        {
          "duration": 0.18437499999998863,
          "durationTicks": 118,
          "midi": 76,
          "name": "E5",
          "ticks": 83760,
          "time": 387.375,
          "velocity": 1
        },
        {
          "duration": 0.27812499999998863,
          "durationTicks": 178,
          "midi": 73,
          "name": "C#5",
          "ticks": 83880,
          "time": 387.5625,
          "velocity": 1
        },
        {
          "duration": 0.09062499999998863,
          "durationTicks": 58,
          "midi": 71,
          "name": "B4",
          "ticks": 84060,
          "time": 387.84375,
          "velocity": 1
        },
        {
          "duration": 0.18437499999998863,
          "durationTicks": 118,
          "midi": 73,
          "name": "C#5",
          "ticks": 84120,
          "time": 387.9375,
          "velocity": 1
        },
        {
          "duration": 0.18437499999998863,
          "durationTicks": 118,
          "midi": 69,
          "name": "A4",
          "ticks": 84240,
          "time": 388.125,
          "velocity": 1
        },
        {
          "duration": 0.18437499999998863,
          "durationTicks": 118,
          "midi": 64,
          "name": "E4",
          "ticks": 84360,
          "time": 388.3125,
          "velocity": 1
        },
        {
          "duration": 0.18437499999998863,
          "durationTicks": 118,
          "midi": 69,
          "name": "A4",
          "ticks": 84480,
          "time": 388.5,
          "velocity": 1
        },
        {
          "duration": 0.18437499999998863,
          "durationTicks": 118,
          "midi": 73,
          "name": "C#5",
          "ticks": 84600,
          "time": 388.6875,
          "velocity": 1
        },
        {
          "duration": 0.18437499999998863,
          "durationTicks": 118,
          "midi": 69,
          "name": "A4",
          "ticks": 84720,
          "time": 388.875,
          "velocity": 1
        },
        {
          "duration": 0.18437499999998863,
          "durationTicks": 118,
          "midi": 73,
          "name": "C#5",
          "ticks": 84840,
          "time": 389.0625,
          "velocity": 1
        },
        {
          "duration": 0.37187499999998863,
          "durationTicks": 238,
          "midi": 74,
          "name": "D5",
          "ticks": 84960,
          "time": 389.25,
          "velocity": 1
        },
        {
          "duration": 0.18437499999998863,
          "durationTicks": 118,
          "midi": 76,
          "name": "E5",
          "ticks": 85200,
          "time": 389.625,
          "velocity": 1
        },
        {
          "duration": 0.37187499999998863,
          "durationTicks": 238,
          "midi": 74,
          "name": "D5",
          "ticks": 85320,
          "time": 389.8125,
          "velocity": 1
        },
        {
          "duration": 0.18437499999998863,
          "durationTicks": 118,
          "midi": 76,
          "name": "E5",
          "ticks": 85560,
          "time": 390.1875,
          "velocity": 1
        },
        {
          "duration": 0.37187499999998863,
          "durationTicks": 238,
          "midi": 78,
          "name": "F#5",
          "ticks": 85680,
          "time": 390.375,
          "velocity": 1
        },
        {
          "duration": 0.18437499999998863,
          "durationTicks": 118,
          "midi": 79,
          "name": "G5",
          "ticks": 85920,
          "time": 390.75,
          "velocity": 1
        },
        {
          "duration": 0.37187499999998863,
          "durationTicks": 238,
          "midi": 81,
          "name": "A5",
          "ticks": 86040,
          "time": 390.9375,
          "velocity": 1
        },
        {
          "duration": 0.18437499999998863,
          "durationTicks": 118,
          "midi": 69,
          "name": "A4",
          "ticks": 86280,
          "time": 391.3125,
          "velocity": 1
        },
        {
          "duration": 0.18437499999998863,
          "durationTicks": 118,
          "midi": 71,
          "name": "B4",
          "ticks": 86400,
          "time": 391.5,
          "velocity": 1
        },
        {
          "duration": 0.18437499999998863,
          "durationTicks": 118,
          "midi": 76,
          "name": "E5",
          "ticks": 86520,
          "time": 391.6875,
          "velocity": 1
        },
        {
          "duration": 0.18437499999998863,
          "durationTicks": 118,
          "midi": 71,
          "name": "B4",
          "ticks": 86640,
          "time": 391.875,
          "velocity": 1
        },
        {
          "duration": 0.18437499999998863,
          "durationTicks": 118,
          "midi": 69,
          "name": "A4",
          "ticks": 86760,
          "time": 392.0625,
          "velocity": 1
        },
        {
          "duration": 0.18437499999998863,
          "durationTicks": 118,
          "midi": 74,
          "name": "D5",
          "ticks": 86880,
          "time": 392.25,
          "velocity": 1
        },
        {
          "duration": 0.18437499999998863,
          "durationTicks": 118,
          "midi": 69,
          "name": "A4",
          "ticks": 87000,
          "time": 392.4375,
          "velocity": 1
        },
        {
          "duration": 0.37187499999998863,
          "durationTicks": 238,
          "midi": 71,
          "name": "B4",
          "ticks": 87120,
          "time": 392.625,
          "velocity": 1
        },
        {
          "duration": 0.18437499999998863,
          "durationTicks": 118,
          "midi": 69,
          "name": "A4",
          "ticks": 87360,
          "time": 393,
          "velocity": 1
        },
        {
          "duration": 0.18437499999998863,
          "durationTicks": 118,
          "midi": 71,
          "name": "B4",
          "ticks": 87480,
          "time": 393.1875,
          "velocity": 1
        },
        {
          "duration": 0.18437499999998863,
          "durationTicks": 118,
          "midi": 69,
          "name": "A4",
          "ticks": 87600,
          "time": 393.375,
          "velocity": 1
        },
        {
          "duration": 0.18437499999998863,
          "durationTicks": 118,
          "midi": 67,
          "name": "G4",
          "ticks": 87720,
          "time": 393.5625,
          "velocity": 1
        },
        {
          "duration": 0.37187499999998863,
          "durationTicks": 238,
          "midi": 66,
          "name": "F#4",
          "ticks": 87840,
          "time": 393.75,
          "velocity": 1
        },
        {
          "duration": 0.18437499999998863,
          "durationTicks": 118,
          "midi": 67,
          "name": "G4",
          "ticks": 88080,
          "time": 394.125,
          "velocity": 1
        },
        {
          "duration": 0.5593749999999886,
          "durationTicks": 358,
          "midi": 69,
          "name": "A4",
          "ticks": 88200,
          "time": 394.3125,
          "velocity": 1
        },
        {
          "duration": 0.5593749999999886,
          "durationTicks": 358,
          "midi": 69,
          "name": "A4",
          "ticks": 88560,
          "time": 394.875,
          "velocity": 1
        },
        {
          "duration": 0.5593749999999886,
          "durationTicks": 358,
          "midi": 69,
          "name": "A4",
          "ticks": 88920,
          "time": 395.4375,
          "velocity": 1
        },
        {
          "duration": 0.5593749999999886,
          "durationTicks": 358,
          "midi": 71,
          "name": "B4",
          "ticks": 89280,
          "time": 396,
          "velocity": 1
        },
        {
          "duration": 0.37187499999998863,
          "durationTicks": 238,
          "midi": 73,
          "name": "C#5",
          "ticks": 89640,
          "time": 396.5625,
          "velocity": 1
        },
        {
          "duration": 0.18437499999998863,
          "durationTicks": 118,
          "midi": 71,
          "name": "B4",
          "ticks": 89880,
          "time": 396.9375,
          "velocity": 1
        },
        {
          "duration": 0.37187499999998863,
          "durationTicks": 238,
          "midi": 70,
          "name": "A#4",
          "ticks": 90000,
          "time": 397.125,
          "velocity": 1
        },
        {
          "duration": 0.18437499999998863,
          "durationTicks": 118,
          "midi": 71,
          "name": "B4",
          "ticks": 90240,
          "time": 397.5,
          "velocity": 1
        },
        {
          "duration": 0.37187499999998863,
          "durationTicks": 238,
          "midi": 73,
          "name": "C#5",
          "ticks": 90360,
          "time": 397.6875,
          "velocity": 1
        },
        {
          "duration": 0.18437499999998863,
          "durationTicks": 118,
          "midi": 78,
          "name": "F#5",
          "ticks": 90600,
          "time": 398.0625,
          "velocity": 1
        },
        {
          "duration": 0.27812499999998863,
          "durationTicks": 178,
          "midi": 75,
          "name": "D#5",
          "ticks": 90720,
          "time": 398.25,
          "velocity": 1
        },
        {
          "duration": 0.09062499999998863,
          "durationTicks": 58,
          "midi": 73,
          "name": "C#5",
          "ticks": 90900,
          "time": 398.53125,
          "velocity": 1
        },
        {
          "duration": 0.18437499999998863,
          "durationTicks": 118,
          "midi": 75,
          "name": "D#5",
          "ticks": 90960,
          "time": 398.625,
          "velocity": 1
        },
        {
          "duration": 0.5593749999999886,
          "durationTicks": 358,
          "midi": 76,
          "name": "E5",
          "ticks": 91080,
          "time": 398.8125,
          "velocity": 1
        },
        {
          "duration": 0.37187499999998863,
          "durationTicks": 238,
          "midi": 76,
          "name": "E5",
          "ticks": 91440,
          "time": 399.375,
          "velocity": 1
        },
        {
          "duration": 0.18437499999998863,
          "durationTicks": 118,
          "midi": 81,
          "name": "A5",
          "ticks": 91680,
          "time": 399.75,
          "velocity": 1
        },
        {
          "duration": 0.27812499999998863,
          "durationTicks": 178,
          "midi": 78,
          "name": "F#5",
          "ticks": 91800,
          "time": 399.9375,
          "velocity": 1
        },
        {
          "duration": 0.09062499999998863,
          "durationTicks": 58,
          "midi": 76,
          "name": "E5",
          "ticks": 91980,
          "time": 400.21875,
          "velocity": 1
        },
        {
          "duration": 0.18437499999998863,
          "durationTicks": 118,
          "midi": 78,
          "name": "F#5",
          "ticks": 92040,
          "time": 400.3125,
          "velocity": 1
        },
        {
          "duration": 0.37187499999998863,
          "durationTicks": 238,
          "midi": 79,
          "name": "G5",
          "ticks": 92160,
          "time": 400.5,
          "velocity": 1
        },
        {
          "duration": 0.18437499999998863,
          "durationTicks": 118,
          "midi": 83,
          "name": "B5",
          "ticks": 92400,
          "time": 400.875,
          "velocity": 1
        },
        {
          "duration": 0.5593749999999886,
          "durationTicks": 358,
          "midi": 81,
          "name": "A5",
          "ticks": 92520,
          "time": 401.0625,
          "velocity": 1
        },
        {
          "duration": 0.37187499999998863,
          "durationTicks": 238,
          "midi": 81,
          "name": "A5",
          "ticks": 92880,
          "time": 401.625,
          "velocity": 1
        },
        {
          "duration": 0.18437499999998863,
          "durationTicks": 118,
          "midi": 86,
          "name": "D6",
          "ticks": 93120,
          "time": 402,
          "velocity": 1
        },
        {
          "duration": 0.27812499999998863,
          "durationTicks": 178,
          "midi": 85,
          "name": "C#6",
          "ticks": 93240,
          "time": 402.1875,
          "velocity": 1
        },
        {
          "duration": 0.09062499999998863,
          "durationTicks": 58,
          "midi": 83,
          "name": "B5",
          "ticks": 93420,
          "time": 402.46875,
          "velocity": 1
        },
        {
          "duration": 0.18437499999998863,
          "durationTicks": 118,
          "midi": 85,
          "name": "C#6",
          "ticks": 93480,
          "time": 402.5625,
          "velocity": 1
        },
        {
          "duration": 0.18437499999998863,
          "durationTicks": 118,
          "midi": 81,
          "name": "A5",
          "ticks": 93600,
          "time": 402.75,
          "velocity": 1
        },
        {
          "duration": 0.18437499999998863,
          "durationTicks": 118,
          "midi": 76,
          "name": "E5",
          "ticks": 93720,
          "time": 402.9375,
          "velocity": 1
        },
        {
          "duration": 0.18437499999998863,
          "durationTicks": 118,
          "midi": 81,
          "name": "A5",
          "ticks": 93840,
          "time": 403.125,
          "velocity": 1
        },
        {
          "duration": 0.18437499999998863,
          "durationTicks": 118,
          "midi": 76,
          "name": "E5",
          "ticks": 93960,
          "time": 403.3125,
          "velocity": 1
        },
        {
          "duration": 0.18437499999998863,
          "durationTicks": 118,
          "midi": 73,
          "name": "C#5",
          "ticks": 94080,
          "time": 403.5,
          "velocity": 1
        },
        {
          "duration": 0.18437499999998863,
          "durationTicks": 118,
          "midi": 76,
          "name": "E5",
          "ticks": 94200,
          "time": 403.6875,
          "velocity": 1
        },
        {
          "duration": 0.18437499999998863,
          "durationTicks": 118,
          "midi": 78,
          "name": "F#5",
          "ticks": 94320,
          "time": 403.875,
          "velocity": 1
        },
        {
          "duration": 0.18437499999998863,
          "durationTicks": 118,
          "midi": 74,
          "name": "D5",
          "ticks": 94440,
          "time": 404.0625,
          "velocity": 1
        },
        {
          "duration": 0.18437499999998863,
          "durationTicks": 118,
          "midi": 78,
          "name": "F#5",
          "ticks": 94560,
          "time": 404.25,
          "velocity": 1
        },
        {
          "duration": 0.18437499999998863,
          "durationTicks": 118,
          "midi": 76,
          "name": "E5",
          "ticks": 94680,
          "time": 404.4375,
          "velocity": 1
        },
        {
          "duration": 0.18437499999998863,
          "durationTicks": 118,
          "midi": 73,
          "name": "C#5",
          "ticks": 94800,
          "time": 404.625,
          "velocity": 1
        },
        {
          "duration": 0.18437499999998863,
          "durationTicks": 118,
          "midi": 76,
          "name": "E5",
          "ticks": 94920,
          "time": 404.8125,
          "velocity": 1
        },
        {
          "duration": 0.18437499999998863,
          "durationTicks": 118,
          "midi": 78,
          "name": "F#5",
          "ticks": 95040,
          "time": 405,
          "velocity": 1
        },
        {
          "duration": 0.18437499999998863,
          "durationTicks": 118,
          "midi": 74,
          "name": "D5",
          "ticks": 95160,
          "time": 405.1875,
          "velocity": 1
        },
        {
          "duration": 0.18437499999998863,
          "durationTicks": 118,
          "midi": 78,
          "name": "F#5",
          "ticks": 95280,
          "time": 405.375,
          "velocity": 1
        },
        {
          "duration": 0.18437499999998863,
          "durationTicks": 118,
          "midi": 76,
          "name": "E5",
          "ticks": 95400,
          "time": 405.5625,
          "velocity": 1
        },
        {
          "duration": 0.18437499999998863,
          "durationTicks": 118,
          "midi": 73,
          "name": "C#5",
          "ticks": 95520,
          "time": 405.75,
          "velocity": 1
        },
        {
          "duration": 0.18437499999998863,
          "durationTicks": 118,
          "midi": 76,
          "name": "E5",
          "ticks": 95640,
          "time": 405.9375,
          "velocity": 1
        },
        {
          "duration": 0.18437499999998863,
          "durationTicks": 118,
          "midi": 78,
          "name": "F#5",
          "ticks": 95760,
          "time": 406.125,
          "velocity": 1
        },
        {
          "duration": 0.18437499999998863,
          "durationTicks": 118,
          "midi": 74,
          "name": "D5",
          "ticks": 95880,
          "time": 406.3125,
          "velocity": 1
        },
        {
          "duration": 0.18437499999998863,
          "durationTicks": 118,
          "midi": 78,
          "name": "F#5",
          "ticks": 96000,
          "time": 406.5,
          "velocity": 1
        },
        {
          "duration": 0.5593749999999886,
          "durationTicks": 358,
          "midi": 76,
          "name": "E5",
          "ticks": 96120,
          "time": 406.6875,
          "velocity": 1
        },
        {
          "duration": 0.18437499999998863,
          "durationTicks": 118,
          "midi": 78,
          "name": "F#5",
          "ticks": 96480,
          "time": 407.25,
          "velocity": 1
        },
        {
          "duration": 0.18437499999998863,
          "durationTicks": 118,
          "midi": 74,
          "name": "D5",
          "ticks": 96600,
          "time": 407.4375,
          "velocity": 1
        },
        {
          "duration": 0.18437499999998863,
          "durationTicks": 118,
          "midi": 79,
          "name": "G5",
          "ticks": 96720,
          "time": 407.625,
          "velocity": 1
        },
        {
          "duration": 0.37187499999998863,
          "durationTicks": 238,
          "midi": 78,
          "name": "F#5",
          "ticks": 96840,
          "time": 407.8125,
          "velocity": 1
        },
        {
          "duration": 0.18437499999998863,
          "durationTicks": 118,
          "midi": 76,
          "name": "E5",
          "ticks": 97080,
          "time": 408.1875,
          "velocity": 1
        },
        {
          "duration": 1.1218749999999886,
          "durationTicks": 718,
          "midi": 78,
          "name": "F#5",
          "ticks": 97200,
          "time": 408.375,
          "velocity": 1
        },
        {
          "duration": 0.37187499999998863,
          "durationTicks": 238,
          "midi": 69,
          "name": "A4",
          "ticks": 97920,
          "time": 409.5,
          "velocity": 1
        },
        {
          "duration": 0.18437499999998863,
          "durationTicks": 118,
          "midi": 76,
          "name": "E5",
          "ticks": 98160,
          "time": 409.875,
          "velocity": 1
        },
        {
          "duration": 0.27812499999998863,
          "durationTicks": 178,
          "midi": 73,
          "name": "C#5",
          "ticks": 98280,
          "time": 410.0625,
          "velocity": 1
        },
        {
          "duration": 0.09062499999998863,
          "durationTicks": 58,
          "midi": 71,
          "name": "B4",
          "ticks": 98460,
          "time": 410.34375,
          "velocity": 1
        },
        {
          "duration": 0.18437499999998863,
          "durationTicks": 118,
          "midi": 73,
          "name": "C#5",
          "ticks": 98520,
          "time": 410.4375,
          "velocity": 1
        },
        {
          "duration": 0.18437499999998863,
          "durationTicks": 118,
          "midi": 69,
          "name": "A4",
          "ticks": 98640,
          "time": 410.625,
          "velocity": 1
        },
        {
          "duration": 0.18437499999998863,
          "durationTicks": 118,
          "midi": 64,
          "name": "E4",
          "ticks": 98760,
          "time": 410.8125,
          "velocity": 1
        },
        {
          "duration": 0.18437499999998863,
          "durationTicks": 118,
          "midi": 69,
          "name": "A4",
          "ticks": 98880,
          "time": 411,
          "velocity": 1
        },
        {
          "duration": 0.18437499999998863,
          "durationTicks": 118,
          "midi": 73,
          "name": "C#5",
          "ticks": 99000,
          "time": 411.1875,
          "velocity": 1
        },
        {
          "duration": 0.18437499999998863,
          "durationTicks": 118,
          "midi": 69,
          "name": "A4",
          "ticks": 99120,
          "time": 411.375,
          "velocity": 1
        },
        {
          "duration": 0.18437499999998863,
          "durationTicks": 118,
          "midi": 73,
          "name": "C#5",
          "ticks": 99240,
          "time": 411.5625,
          "velocity": 1
        },
        {
          "duration": 0.37187499999998863,
          "durationTicks": 238,
          "midi": 74,
          "name": "D5",
          "ticks": 99360,
          "time": 411.75,
          "velocity": 1
        },
        {
          "duration": 0.18437499999998863,
          "durationTicks": 118,
          "midi": 76,
          "name": "E5",
          "ticks": 99600,
          "time": 412.125,
          "velocity": 1
        },
        {
          "duration": 0.37187499999998863,
          "durationTicks": 238,
          "midi": 74,
          "name": "D5",
          "ticks": 99720,
          "time": 412.3125,
          "velocity": 1
        },
        {
          "duration": 0.18437499999998863,
          "durationTicks": 118,
          "midi": 76,
          "name": "E5",
          "ticks": 99960,
          "time": 412.6875,
          "velocity": 1
        },
        {
          "duration": 0.37187499999998863,
          "durationTicks": 238,
          "midi": 78,
          "name": "F#5",
          "ticks": 100080,
          "time": 412.875,
          "velocity": 1
        },
        {
          "duration": 0.18437499999998863,
          "durationTicks": 118,
          "midi": 79,
          "name": "G5",
          "ticks": 100320,
          "time": 413.25,
          "velocity": 1
        },
        {
          "duration": 0.37187499999998863,
          "durationTicks": 238,
          "midi": 81,
          "name": "A5",
          "ticks": 100440,
          "time": 413.4375,
          "velocity": 1
        },
        {
          "duration": 0.18437499999998863,
          "durationTicks": 118,
          "midi": 69,
          "name": "A4",
          "ticks": 100680,
          "time": 413.8125,
          "velocity": 1
        },
        {
          "duration": 0.18437499999998863,
          "durationTicks": 118,
          "midi": 71,
          "name": "B4",
          "ticks": 100800,
          "time": 414,
          "velocity": 1
        },
        {
          "duration": 0.18437499999998863,
          "durationTicks": 118,
          "midi": 76,
          "name": "E5",
          "ticks": 100920,
          "time": 414.1875,
          "velocity": 1
        },
        {
          "duration": 0.18437499999998863,
          "durationTicks": 118,
          "midi": 71,
          "name": "B4",
          "ticks": 101040,
          "time": 414.375,
          "velocity": 1
        },
        {
          "duration": 0.18437499999998863,
          "durationTicks": 118,
          "midi": 69,
          "name": "A4",
          "ticks": 101160,
          "time": 414.5625,
          "velocity": 1
        },
        {
          "duration": 0.18437499999998863,
          "durationTicks": 118,
          "midi": 74,
          "name": "D5",
          "ticks": 101280,
          "time": 414.75,
          "velocity": 1
        },
        {
          "duration": 0.18437499999998863,
          "durationTicks": 118,
          "midi": 69,
          "name": "A4",
          "ticks": 101400,
          "time": 414.9375,
          "velocity": 1
        },
        {
          "duration": 0.37187499999998863,
          "durationTicks": 238,
          "midi": 71,
          "name": "B4",
          "ticks": 101520,
          "time": 415.125,
          "velocity": 1
        },
        {
          "duration": 0.18437499999998863,
          "durationTicks": 118,
          "midi": 69,
          "name": "A4",
          "ticks": 101760,
          "time": 415.5,
          "velocity": 1
        },
        {
          "duration": 0.18437499999998863,
          "durationTicks": 118,
          "midi": 71,
          "name": "B4",
          "ticks": 101880,
          "time": 415.6875,
          "velocity": 1
        },
        {
          "duration": 0.18437499999998863,
          "durationTicks": 118,
          "midi": 69,
          "name": "A4",
          "ticks": 102000,
          "time": 415.875,
          "velocity": 1
        },
        {
          "duration": 0.18437499999998863,
          "durationTicks": 118,
          "midi": 67,
          "name": "G4",
          "ticks": 102120,
          "time": 416.0625,
          "velocity": 1
        },
        {
          "duration": 0.37187499999998863,
          "durationTicks": 238,
          "midi": 66,
          "name": "F#4",
          "ticks": 102240,
          "time": 416.25,
          "velocity": 1
        },
        {
          "duration": 0.18437499999998863,
          "durationTicks": 118,
          "midi": 67,
          "name": "G4",
          "ticks": 102480,
          "time": 416.625,
          "velocity": 1
        },
        {
          "duration": 0.5593749999999886,
          "durationTicks": 358,
          "midi": 69,
          "name": "A4",
          "ticks": 102600,
          "time": 416.8125,
          "velocity": 1
        },
        {
          "duration": 0.5593749999999886,
          "durationTicks": 358,
          "midi": 69,
          "name": "A4",
          "ticks": 102960,
          "time": 417.375,
          "velocity": 1
        },
        {
          "duration": 0.5593749999999886,
          "durationTicks": 358,
          "midi": 69,
          "name": "A4",
          "ticks": 103320,
          "time": 417.9375,
          "velocity": 1
        },
        {
          "duration": 0.5593749999999886,
          "durationTicks": 358,
          "midi": 71,
          "name": "B4",
          "ticks": 103680,
          "time": 418.5,
          "velocity": 1
        },
        {
          "duration": 0.37187499999998863,
          "durationTicks": 238,
          "midi": 73,
          "name": "C#5",
          "ticks": 104040,
          "time": 419.0625,
          "velocity": 1
        },
        {
          "duration": 0.18437499999998863,
          "durationTicks": 118,
          "midi": 71,
          "name": "B4",
          "ticks": 104280,
          "time": 419.4375,
          "velocity": 1
        },
        {
          "duration": 0.37187499999998863,
          "durationTicks": 238,
          "midi": 70,
          "name": "A#4",
          "ticks": 104400,
          "time": 419.625,
          "velocity": 1
        },
        {
          "duration": 0.18437499999998863,
          "durationTicks": 118,
          "midi": 71,
          "name": "B4",
          "ticks": 104640,
          "time": 420,
          "velocity": 1
        },
        {
          "duration": 0.37187499999998863,
          "durationTicks": 238,
          "midi": 73,
          "name": "C#5",
          "ticks": 104760,
          "time": 420.1875,
          "velocity": 1
        },
        {
          "duration": 0.18437499999998863,
          "durationTicks": 118,
          "midi": 78,
          "name": "F#5",
          "ticks": 105000,
          "time": 420.5625,
          "velocity": 1
        },
        {
          "duration": 0.27812499999998863,
          "durationTicks": 178,
          "midi": 75,
          "name": "D#5",
          "ticks": 105120,
          "time": 420.75,
          "velocity": 1
        },
        {
          "duration": 0.09062499999998863,
          "durationTicks": 58,
          "midi": 73,
          "name": "C#5",
          "ticks": 105300,
          "time": 421.03125,
          "velocity": 1
        },
        {
          "duration": 0.18437499999998863,
          "durationTicks": 118,
          "midi": 75,
          "name": "D#5",
          "ticks": 105360,
          "time": 421.125,
          "velocity": 1
        },
        {
          "duration": 0.5593749999999886,
          "durationTicks": 358,
          "midi": 76,
          "name": "E5",
          "ticks": 105480,
          "time": 421.3125,
          "velocity": 1
        },
        {
          "duration": 0.37187499999998863,
          "durationTicks": 238,
          "midi": 76,
          "name": "E5",
          "ticks": 105840,
          "time": 421.875,
          "velocity": 1
        },
        {
          "duration": 0.18437499999998863,
          "durationTicks": 118,
          "midi": 81,
          "name": "A5",
          "ticks": 106080,
          "time": 422.25,
          "velocity": 1
        },
        {
          "duration": 0.27812499999998863,
          "durationTicks": 178,
          "midi": 78,
          "name": "F#5",
          "ticks": 106200,
          "time": 422.4375,
          "velocity": 1
        },
        {
          "duration": 0.09062499999998863,
          "durationTicks": 58,
          "midi": 76,
          "name": "E5",
          "ticks": 106380,
          "time": 422.71875,
          "velocity": 1
        },
        {
          "duration": 0.18437499999998863,
          "durationTicks": 118,
          "midi": 78,
          "name": "F#5",
          "ticks": 106440,
          "time": 422.8125,
          "velocity": 1
        },
        {
          "duration": 0.37187499999998863,
          "durationTicks": 238,
          "midi": 79,
          "name": "G5",
          "ticks": 106560,
          "time": 423,
          "velocity": 1
        },
        {
          "duration": 0.18437499999998863,
          "durationTicks": 118,
          "midi": 83,
          "name": "B5",
          "ticks": 106800,
          "time": 423.375,
          "velocity": 1
        },
        {
          "duration": 0.5593749999999886,
          "durationTicks": 358,
          "midi": 81,
          "name": "A5",
          "ticks": 106920,
          "time": 423.5625,
          "velocity": 1
        },
        {
          "duration": 0.37187499999998863,
          "durationTicks": 238,
          "midi": 81,
          "name": "A5",
          "ticks": 107280,
          "time": 424.125,
          "velocity": 1
        },
        {
          "duration": 0.18437499999998863,
          "durationTicks": 118,
          "midi": 86,
          "name": "D6",
          "ticks": 107520,
          "time": 424.5,
          "velocity": 1
        },
        {
          "duration": 0.27812499999998863,
          "durationTicks": 178,
          "midi": 85,
          "name": "C#6",
          "ticks": 107640,
          "time": 424.6875,
          "velocity": 1
        },
        {
          "duration": 0.09062499999998863,
          "durationTicks": 58,
          "midi": 83,
          "name": "B5",
          "ticks": 107820,
          "time": 424.96875,
          "velocity": 1
        },
        {
          "duration": 0.18437499999998863,
          "durationTicks": 118,
          "midi": 85,
          "name": "C#6",
          "ticks": 107880,
          "time": 425.0625,
          "velocity": 1
        },
        {
          "duration": 0.18437499999998863,
          "durationTicks": 118,
          "midi": 81,
          "name": "A5",
          "ticks": 108000,
          "time": 425.25,
          "velocity": 1
        },
        {
          "duration": 0.18437499999998863,
          "durationTicks": 118,
          "midi": 76,
          "name": "E5",
          "ticks": 108120,
          "time": 425.4375,
          "velocity": 1
        },
        {
          "duration": 0.18437499999998863,
          "durationTicks": 118,
          "midi": 81,
          "name": "A5",
          "ticks": 108240,
          "time": 425.625,
          "velocity": 1
        },
        {
          "duration": 0.18437499999998863,
          "durationTicks": 118,
          "midi": 76,
          "name": "E5",
          "ticks": 108360,
          "time": 425.8125,
          "velocity": 1
        },
        {
          "duration": 0.18437499999998863,
          "durationTicks": 118,
          "midi": 73,
          "name": "C#5",
          "ticks": 108480,
          "time": 426,
          "velocity": 1
        },
        {
          "duration": 0.18437499999998863,
          "durationTicks": 118,
          "midi": 76,
          "name": "E5",
          "ticks": 108600,
          "time": 426.1875,
          "velocity": 1
        },
        {
          "duration": 0.18437499999998863,
          "durationTicks": 118,
          "midi": 78,
          "name": "F#5",
          "ticks": 108720,
          "time": 426.375,
          "velocity": 1
        },
        {
          "duration": 0.18437499999998863,
          "durationTicks": 118,
          "midi": 74,
          "name": "D5",
          "ticks": 108840,
          "time": 426.5625,
          "velocity": 1
        },
        {
          "duration": 0.18437499999998863,
          "durationTicks": 118,
          "midi": 78,
          "name": "F#5",
          "ticks": 108960,
          "time": 426.75,
          "velocity": 1
        },
        {
          "duration": 0.18437499999998863,
          "durationTicks": 118,
          "midi": 76,
          "name": "E5",
          "ticks": 109080,
          "time": 426.9375,
          "velocity": 1
        },
        {
          "duration": 0.18437499999998863,
          "durationTicks": 118,
          "midi": 73,
          "name": "C#5",
          "ticks": 109200,
          "time": 427.125,
          "velocity": 1
        },
        {
          "duration": 0.18437499999998863,
          "durationTicks": 118,
          "midi": 76,
          "name": "E5",
          "ticks": 109320,
          "time": 427.3125,
          "velocity": 1
        },
        {
          "duration": 0.18437499999998863,
          "durationTicks": 118,
          "midi": 78,
          "name": "F#5",
          "ticks": 109440,
          "time": 427.5,
          "velocity": 1
        },
        {
          "duration": 0.18437499999998863,
          "durationTicks": 118,
          "midi": 74,
          "name": "D5",
          "ticks": 109560,
          "time": 427.6875,
          "velocity": 1
        },
        {
          "duration": 0.18437499999998863,
          "durationTicks": 118,
          "midi": 78,
          "name": "F#5",
          "ticks": 109680,
          "time": 427.875,
          "velocity": 1
        },
        {
          "duration": 0.18437499999998863,
          "durationTicks": 118,
          "midi": 76,
          "name": "E5",
          "ticks": 109800,
          "time": 428.0625,
          "velocity": 1
        },
        {
          "duration": 0.18437499999998863,
          "durationTicks": 118,
          "midi": 73,
          "name": "C#5",
          "ticks": 109920,
          "time": 428.25,
          "velocity": 1
        },
        {
          "duration": 0.18437499999998863,
          "durationTicks": 118,
          "midi": 76,
          "name": "E5",
          "ticks": 110040,
          "time": 428.4375,
          "velocity": 1
        },
        {
          "duration": 0.18437499999998863,
          "durationTicks": 118,
          "midi": 78,
          "name": "F#5",
          "ticks": 110160,
          "time": 428.625,
          "velocity": 1
        },
        {
          "duration": 0.18437499999998863,
          "durationTicks": 118,
          "midi": 74,
          "name": "D5",
          "ticks": 110280,
          "time": 428.8125,
          "velocity": 1
        },
        {
          "duration": 0.18437499999998863,
          "durationTicks": 118,
          "midi": 78,
          "name": "F#5",
          "ticks": 110400,
          "time": 429,
          "velocity": 1
        },
        {
          "duration": 0.5593749999999886,
          "durationTicks": 358,
          "midi": 76,
          "name": "E5",
          "ticks": 110520,
          "time": 429.1875,
          "velocity": 1
        },
        {
          "duration": 0.18437499999998863,
          "durationTicks": 118,
          "midi": 78,
          "name": "F#5",
          "ticks": 110880,
          "time": 429.75,
          "velocity": 1
        },
        {
          "duration": 0.18437499999998863,
          "durationTicks": 118,
          "midi": 74,
          "name": "D5",
          "ticks": 111000,
          "time": 429.9375,
          "velocity": 1
        },
        {
          "duration": 0.18437499999998863,
          "durationTicks": 118,
          "midi": 79,
          "name": "G5",
          "ticks": 111120,
          "time": 430.125,
          "velocity": 1
        },
        {
          "duration": 0.37187499999998863,
          "durationTicks": 238,
          "midi": 78,
          "name": "F#5",
          "ticks": 111240,
          "time": 430.3125,
          "velocity": 1
        },
        {
          "duration": 0.18437499999998863,
          "durationTicks": 118,
          "midi": 76,
          "name": "E5",
          "ticks": 111480,
          "time": 430.6875,
          "velocity": 1
        },
        {
          "duration": 1.1218749999999886,
          "durationTicks": 718,
          "midi": 78,
          "name": "F#5",
          "ticks": 111600,
          "time": 430.875,
          "velocity": 1
        }
      ],
      "endOfTrackTicks": 112318
    },
    {
      "channel": 2,
      "controlChanges": {},
      "pitchBends": [],
      "instrument": {
        "family": "strings",
        "number": 40,
        "name": "violin"
      },
      "name": "Violino III",
      "notes": [
        {
          "duration": 1.4874999999999972,
          "durationTicks": 238,
          "midi": 78,
          "name": "F#5",
          "ticks": 5760,
          "time": 36,
          "velocity": 1
        },
        {
          "duration": 1.4874999999999972,
          "durationTicks": 238,
          "midi": 76,
          "name": "E5",
          "ticks": 6000,
          "time": 37.5,
          "velocity": 1
        },
        {
          "duration": 1.4874999999999972,
          "durationTicks": 238,
          "midi": 74,
          "name": "D5",
          "ticks": 6240,
          "time": 39,
          "velocity": 1
        },
        {
          "duration": 1.4874999999999972,
          "durationTicks": 238,
          "midi": 73,
          "name": "C#5",
          "ticks": 6480,
          "time": 40.5,
          "velocity": 1
        },
        {
          "duration": 1.4874999999999972,
          "durationTicks": 238,
          "midi": 71,
          "name": "B4",
          "ticks": 6720,
          "time": 42,
          "velocity": 1
        },
        {
          "duration": 1.4874999999999972,
          "durationTicks": 238,
          "midi": 69,
          "name": "A4",
          "ticks": 6960,
          "time": 43.5,
          "velocity": 1
        },
        {
          "duration": 1.4874999999999972,
          "durationTicks": 238,
          "midi": 71,
          "name": "B4",
          "ticks": 7200,
          "time": 45,
          "velocity": 1
        },
        {
          "duration": 1.4874999999999972,
          "durationTicks": 238,
          "midi": 73,
          "name": "C#5",
          "ticks": 7440,
          "time": 46.5,
          "velocity": 1
        },
        {
          "duration": 1.4874999999999972,
          "durationTicks": 238,
          "midi": 74,
          "name": "D5",
          "ticks": 7680,
          "time": 48,
          "velocity": 1
        },
        {
          "duration": 1.4874999999999972,
          "durationTicks": 238,
          "midi": 73,
          "name": "C#5",
          "ticks": 7920,
          "time": 49.5,
          "velocity": 1
        },
        {
          "duration": 1.4874999999999972,
          "durationTicks": 238,
          "midi": 71,
          "name": "B4",
          "ticks": 8160,
          "time": 51,
          "velocity": 1
        },
        {
          "duration": 1.4874999999999972,
          "durationTicks": 238,
          "midi": 69,
          "name": "A4",
          "ticks": 8400,
          "time": 52.5,
          "velocity": 1
        },
        {
          "duration": 1.4874999999999972,
          "durationTicks": 238,
          "midi": 67,
          "name": "G4",
          "ticks": 8640,
          "time": 54,
          "velocity": 1
        },
        {
          "duration": 1.4874999999999972,
          "durationTicks": 238,
          "midi": 66,
          "name": "F#4",
          "ticks": 8880,
          "time": 55.5,
          "velocity": 1
        },
        {
          "duration": 1.4874999999999972,
          "durationTicks": 238,
          "midi": 67,
          "name": "G4",
          "ticks": 9120,
          "time": 57,
          "velocity": 1
        },
        {
          "duration": 1.4874999999999972,
          "durationTicks": 238,
          "midi": 64,
          "name": "E4",
          "ticks": 9360,
          "time": 58.5,
          "velocity": 1
        },
        {
          "duration": 0.7374999999999972,
          "durationTicks": 118,
          "midi": 62,
          "name": "D4",
          "ticks": 9600,
          "time": 60,
          "velocity": 1
        },
        {
          "duration": 0.7374999999999972,
          "durationTicks": 118,
          "midi": 66,
          "name": "F#4",
          "ticks": 9720,
          "time": 60.75,
          "velocity": 1
        },
        {
          "duration": 0.7374999999999972,
          "durationTicks": 118,
          "midi": 69,
          "name": "A4",
          "ticks": 9840,
          "time": 61.5,
          "velocity": 1
        },
        {
          "duration": 0.7374999999999972,
          "durationTicks": 118,
          "midi": 67,
          "name": "G4",
          "ticks": 9960,
          "time": 62.25,
          "velocity": 1
        },
        {
          "duration": 0.7374999999999972,
          "durationTicks": 118,
          "midi": 66,
          "name": "F#4",
          "ticks": 10080,
          "time": 63,
          "velocity": 1
        },
        {
          "duration": 0.7374999999999972,
          "durationTicks": 118,
          "midi": 62,
          "name": "D4",
          "ticks": 10200,
          "time": 63.75,
          "velocity": 1
        },
        {
          "duration": 0.7374999999999972,
          "durationTicks": 118,
          "midi": 66,
          "name": "F#4",
          "ticks": 10320,
          "time": 64.5,
          "velocity": 1
        },
        {
          "duration": 0.7374999999999972,
          "durationTicks": 118,
          "midi": 64,
          "name": "E4",
          "ticks": 10440,
          "time": 65.25,
          "velocity": 1
        },
        {
          "duration": 0.7374999999999972,
          "durationTicks": 118,
          "midi": 62,
          "name": "D4",
          "ticks": 10560,
          "time": 66,
          "velocity": 1
        },
        {
          "duration": 0.7374999999999972,
          "durationTicks": 118,
          "midi": 59,
          "name": "B3",
          "ticks": 10680,
          "time": 66.75,
          "velocity": 1
        },
        {
          "duration": 0.7374999999999972,
          "durationTicks": 118,
          "midi": 62,
          "name": "D4",
          "ticks": 10800,
          "time": 67.5,
          "velocity": 1
        },
        {
          "duration": 0.7374999999999972,
          "durationTicks": 118,
          "midi": 69,
          "name": "A4",
          "ticks": 10920,
          "time": 68.25,
          "velocity": 1
        },
        {
          "duration": 0.7374999999999972,
          "durationTicks": 118,
          "midi": 67,
          "name": "G4",
          "ticks": 11040,
          "time": 69,
          "velocity": 1
        },
        {
          "duration": 0.7374999999999972,
          "durationTicks": 118,
          "midi": 71,
          "name": "B4",
          "ticks": 11160,
          "time": 69.75,
          "velocity": 1
        },
        {
          "duration": 0.7374999999999972,
          "durationTicks": 118,
          "midi": 69,
          "name": "A4",
          "ticks": 11280,
          "time": 70.5,
          "velocity": 1
        },
        {
          "duration": 0.7374999999999972,
          "durationTicks": 118,
          "midi": 67,
          "name": "G4",
          "ticks": 11400,
          "time": 71.25,
          "velocity": 1
        },
        {
          "duration": 0.7374999999999972,
          "durationTicks": 118,
          "midi": 66,
          "name": "F#4",
          "ticks": 11520,
          "time": 72,
          "velocity": 1
        },
        {
          "duration": 0.7374999999999972,
          "durationTicks": 118,
          "midi": 62,
          "name": "D4",
          "ticks": 11640,
          "time": 72.75,
          "velocity": 1
        },
        {
          "duration": 0.7374999999999972,
          "durationTicks": 118,
          "midi": 64,
          "name": "E4",
          "ticks": 11760,
          "time": 73.5,
          "velocity": 1
        },
        {
          "duration": 0.7374999999999972,
          "durationTicks": 118,
          "midi": 73,
          "name": "C#5",
          "ticks": 11880,
          "time": 74.25,
          "velocity": 1
        },
        {
          "duration": 0.7374999999999972,
          "durationTicks": 118,
          "midi": 74,
          "name": "D5",
          "ticks": 12000,
          "time": 75,
          "velocity": 1
        },
        {
          "duration": 0.7374999999999972,
          "durationTicks": 118,
          "midi": 78,
          "name": "F#5",
          "ticks": 12120,
          "time": 75.75,
          "velocity": 1
        },
        {
          "duration": 0.7374999999999972,
          "durationTicks": 118,
          "midi": 81,
          "name": "A5",
          "ticks": 12240,
          "time": 76.5,
          "velocity": 1
        },
        {
          "duration": 0.7374999999999972,
          "durationTicks": 118,
          "midi": 69,
          "name": "A4",
          "ticks": 12360,
          "time": 77.25,
          "velocity": 1
        },
        {
          "duration": 0.7374999999999972,
          "durationTicks": 118,
          "midi": 71,
          "name": "B4",
          "ticks": 12480,
          "time": 78,
          "velocity": 1
        },
        {
          "duration": 0.7374999999999972,
          "durationTicks": 118,
          "midi": 67,
          "name": "G4",
          "ticks": 12600,
          "time": 78.75,
          "velocity": 1
        },
        {
          "duration": 0.7374999999999972,
          "durationTicks": 118,
          "midi": 69,
          "name": "A4",
          "ticks": 12720,
          "time": 79.5,
          "velocity": 1
        },
        {
          "duration": 0.7374999999999972,
          "durationTicks": 118,
          "midi": 66,
          "name": "F#4",
          "ticks": 12840,
          "time": 80.25,
          "velocity": 1
        },
        {
          "duration": 0.7374999999999972,
          "durationTicks": 118,
          "midi": 62,
          "name": "D4",
          "ticks": 12960,
          "time": 81,
          "velocity": 1
        },
        {
          "duration": 0.7374999999999972,
          "durationTicks": 118,
          "midi": 74,
          "name": "D5",
          "ticks": 13080,
          "time": 81.75,
          "velocity": 1
        },
        {
          "duration": 1.1124999999999972,
          "durationTicks": 178,
          "midi": 74,
          "name": "D5",
          "ticks": 13200,
          "time": 82.5,
          "velocity": 1
        },
        {
          "duration": 0.36249999999999716,
          "durationTicks": 58,
          "midi": 73,
          "name": "C#5",
          "ticks": 13380,
          "time": 83.625,
          "velocity": 1
        },
        {
          "duration": 0.36249999999999716,
          "durationTicks": 58,
          "midi": 74,
          "name": "D5",
          "ticks": 13440,
          "time": 84,
          "velocity": 1
        },
        {
          "duration": 0.36249999999999716,
          "durationTicks": 58,
          "midi": 73,
          "name": "C#5",
          "ticks": 13500,
          "time": 84.375,
          "velocity": 1
        },
        {
          "duration": 0.36249999999999716,
          "durationTicks": 58,
          "midi": 74,
          "name": "D5",
          "ticks": 13560,
          "time": 84.75,
          "velocity": 1
        },
        {
          "duration": 0.36249999999999716,
          "durationTicks": 58,
          "midi": 62,
          "name": "D4",
          "ticks": 13620,
          "time": 85.125,
          "velocity": 1
        },
        {
          "duration": 0.36249999999999716,
          "durationTicks": 58,
          "midi": 61,
          "name": "C#4",
          "ticks": 13680,
          "time": 85.5,
          "velocity": 1
        },
        {
          "duration": 0.36249999999999716,
          "durationTicks": 58,
          "midi": 69,
          "name": "A4",
          "ticks": 13740,
          "time": 85.875,
          "velocity": 1
        },
        {
          "duration": 0.36249999999999716,
          "durationTicks": 58,
          "midi": 64,
          "name": "E4",
          "ticks": 13800,
          "time": 86.25,
          "velocity": 1
        },
        {
          "duration": 0.36249999999999716,
          "durationTicks": 58,
          "midi": 66,
          "name": "F#4",
          "ticks": 13860,
          "time": 86.625,
          "velocity": 1
        },
        {
          "duration": 0.36249999999999716,
          "durationTicks": 58,
          "midi": 62,
          "name": "D4",
          "ticks": 13920,
          "time": 87,
          "velocity": 1
        },
        {
          "duration": 0.36249999999999716,
          "durationTicks": 58,
          "midi": 74,
          "name": "D5",
          "ticks": 13980,
          "time": 87.375,
          "velocity": 1
        },
        {
          "duration": 0.36249999999999716,
          "durationTicks": 58,
          "midi": 73,
          "name": "C#5",
          "ticks": 14040,
          "time": 87.75,
          "velocity": 1
        },
        {
          "duration": 0.36249999999999716,
          "durationTicks": 58,
          "midi": 71,
          "name": "B4",
          "ticks": 14100,
          "time": 88.125,
          "velocity": 1
        },
        {
          "duration": 0.36249999999999716,
          "durationTicks": 58,
          "midi": 73,
          "name": "C#5",
          "ticks": 14160,
          "time": 88.5,
          "velocity": 1
        },
        {
          "duration": 0.36249999999999716,
          "durationTicks": 58,
          "midi": 78,
          "name": "F#5",
          "ticks": 14220,
          "time": 88.875,
          "velocity": 1
        },
        {
          "duration": 0.36249999999999716,
          "durationTicks": 58,
          "midi": 81,
          "name": "A5",
          "ticks": 14280,
          "time": 89.25,
          "velocity": 1
        },
        {
          "duration": 0.36249999999999716,
          "durationTicks": 58,
          "midi": 83,
          "name": "B5",
          "ticks": 14340,
          "time": 89.625,
          "velocity": 1
        },
        {
          "duration": 0.36249999999999716,
          "durationTicks": 58,
          "midi": 79,
          "name": "G5",
          "ticks": 14400,
          "time": 90,
          "velocity": 1
        },
        {
          "duration": 0.36249999999999716,
          "durationTicks": 58,
          "midi": 78,
          "name": "F#5",
          "ticks": 14460,
          "time": 90.375,
          "velocity": 1
        },
        {
          "duration": 0.36249999999999716,
          "durationTicks": 58,
          "midi": 76,
          "name": "E5",
          "ticks": 14520,
          "time": 90.75,
          "velocity": 1
        },
        {
          "duration": 0.36249999999999716,
          "durationTicks": 58,
          "midi": 79,
          "name": "G5",
          "ticks": 14580,
          "time": 91.125,
          "velocity": 1
        },
        {
          "duration": 0.36249999999999716,
          "durationTicks": 58,
          "midi": 78,
          "name": "F#5",
          "ticks": 14640,
          "time": 91.5,
          "velocity": 1
        },
        {
          "duration": 0.36249999999999716,
          "durationTicks": 58,
          "midi": 76,
          "name": "E5",
          "ticks": 14700,
          "time": 91.875,
          "velocity": 1
        },
        {
          "duration": 0.36249999999999716,
          "durationTicks": 58,
          "midi": 74,
          "name": "D5",
          "ticks": 14760,
          "time": 92.25,
          "velocity": 1
        },
        {
          "duration": 0.36249999999999716,
          "durationTicks": 58,
          "midi": 73,
          "name": "C#5",
          "ticks": 14820,
          "time": 92.625,
          "velocity": 1
        },
        {
          "duration": 0.36249999999999716,
          "durationTicks": 58,
          "midi": 71,
          "name": "B4",
          "ticks": 14880,
          "time": 93,
          "velocity": 1
        },
        {
          "duration": 0.36249999999999716,
          "durationTicks": 58,
          "midi": 69,
          "name": "A4",
          "ticks": 14940,
          "time": 93.375,
          "velocity": 1
        },
        {
          "duration": 0.36249999999999716,
          "durationTicks": 58,
          "midi": 67,
          "name": "G4",
          "ticks": 15000,
          "time": 93.75,
          "velocity": 1
        },
        {
          "duration": 0.36249999999999716,
          "durationTicks": 58,
          "midi": 66,
          "name": "F#4",
          "ticks": 15060,
          "time": 94.125,
          "velocity": 1
        },
        {
          "duration": 0.36249999999999716,
          "durationTicks": 58,
          "midi": 64,
          "name": "E4",
          "ticks": 15120,
          "time": 94.5,
          "velocity": 1
        },
        {
          "duration": 0.36249999999999716,
          "durationTicks": 58,
          "midi": 67,
          "name": "G4",
          "ticks": 15180,
          "time": 94.875,
          "velocity": 1
        },
        {
          "duration": 0.36249999999999716,
          "durationTicks": 58,
          "midi": 66,
          "name": "F#4",
          "ticks": 15240,
          "time": 95.25,
          "velocity": 1
        },
        {
          "duration": 0.36249999999999716,
          "durationTicks": 58,
          "midi": 64,
          "name": "E4",
          "ticks": 15300,
          "time": 95.625,
          "velocity": 1
        },
        {
          "duration": 0.36249999999998295,
          "durationTicks": 58,
          "midi": 62,
          "name": "D4",
          "ticks": 15360,
          "time": 96,
          "velocity": 1
        },
        {
          "duration": 0.36249999999998295,
          "durationTicks": 58,
          "midi": 64,
          "name": "E4",
          "ticks": 15420,
          "time": 96.375,
          "velocity": 1
        },
        {
          "duration": 0.36249999999998295,
          "durationTicks": 58,
          "midi": 66,
          "name": "F#4",
          "ticks": 15480,
          "time": 96.75,
          "velocity": 1
        },
        {
          "duration": 0.36249999999998295,
          "durationTicks": 58,
          "midi": 67,
          "name": "G4",
          "ticks": 15540,
          "time": 97.125,
          "velocity": 1
        },
        {
          "duration": 0.36249999999998295,
          "durationTicks": 58,
          "midi": 69,
          "name": "A4",
          "ticks": 15600,
          "time": 97.5,
          "velocity": 1
        },
        {
          "duration": 0.36249999999998295,
          "durationTicks": 58,
          "midi": 64,
          "name": "E4",
          "ticks": 15660,
          "time": 97.875,
          "velocity": 1
        },
        {
          "duration": 0.36249999999998295,
          "durationTicks": 58,
          "midi": 69,
          "name": "A4",
          "ticks": 15720,
          "time": 98.25,
          "velocity": 1
        },
        {
          "duration": 0.36249999999998295,
          "durationTicks": 58,
          "midi": 67,
          "name": "G4",
          "ticks": 15780,
          "time": 98.625,
          "velocity": 1
        },
        {
          "duration": 0.36249999999998295,
          "durationTicks": 58,
          "midi": 66,
          "name": "F#4",
          "ticks": 15840,
          "time": 99,
          "velocity": 1
        },
        {
          "duration": 0.36249999999998295,
          "durationTicks": 58,
          "midi": 71,
          "name": "B4",
          "ticks": 15900,
          "time": 99.375,
          "velocity": 1
        },
        {
          "duration": 0.36249999999998295,
          "durationTicks": 58,
          "midi": 69,
          "name": "A4",
          "ticks": 15960,
          "time": 99.75,
          "velocity": 1
        },
        {
          "duration": 0.36249999999998295,
          "durationTicks": 58,
          "midi": 67,
          "name": "G4",
          "ticks": 16020,
          "time": 100.125,
          "velocity": 1
        },
        {
          "duration": 0.36249999999998295,
          "durationTicks": 58,
          "midi": 69,
          "name": "A4",
          "ticks": 16080,
          "time": 100.5,
          "velocity": 1
        },
        {
          "duration": 0.36249999999998295,
          "durationTicks": 58,
          "midi": 67,
          "name": "G4",
          "ticks": 16140,
          "time": 100.875,
          "velocity": 1
        },
        {
          "duration": 0.36249999999998295,
          "durationTicks": 58,
          "midi": 66,
          "name": "F#4",
          "ticks": 16200,
          "time": 101.25,
          "velocity": 1
        },
        {
          "duration": 0.36249999999998295,
          "durationTicks": 58,
          "midi": 64,
          "name": "E4",
          "ticks": 16260,
          "time": 101.625,
          "velocity": 1
        },
        {
          "duration": 0.36249999999998295,
          "durationTicks": 58,
          "midi": 62,
          "name": "D4",
          "ticks": 16320,
          "time": 102,
          "velocity": 1
        },
        {
          "duration": 0.36249999999998295,
          "durationTicks": 58,
          "midi": 59,
          "name": "B3",
          "ticks": 16380,
          "time": 102.375,
          "velocity": 1
        },
        {
          "duration": 0.36249999999998295,
          "durationTicks": 58,
          "midi": 71,
          "name": "B4",
          "ticks": 16440,
          "time": 102.75,
          "velocity": 1
        },
        {
          "duration": 0.36249999999998295,
          "durationTicks": 58,
          "midi": 73,
          "name": "C#5",
          "ticks": 16500,
          "time": 103.125,
          "velocity": 1
        },
        {
          "duration": 0.36249999999998295,
          "durationTicks": 58,
          "midi": 74,
          "name": "D5",
          "ticks": 16560,
          "time": 103.5,
          "velocity": 1
        },
        {
          "duration": 0.36249999999998295,
          "durationTicks": 58,
          "midi": 73,
          "name": "C#5",
          "ticks": 16620,
          "time": 103.875,
          "velocity": 1
        },
        {
          "duration": 0.36249999999998295,
          "durationTicks": 58,
          "midi": 71,
          "name": "B4",
          "ticks": 16680,
          "time": 104.25,
          "velocity": 1
        },
        {
          "duration": 0.36249999999998295,
          "durationTicks": 58,
          "midi": 69,
          "name": "A4",
          "ticks": 16740,
          "time": 104.625,
          "velocity": 1
        },
        {
          "duration": 0.36249999999998295,
          "durationTicks": 58,
          "midi": 67,
          "name": "G4",
          "ticks": 16800,
          "time": 105,
          "velocity": 1
        },
        {
          "duration": 0.36249999999998295,
          "durationTicks": 58,
          "midi": 66,
          "name": "F#4",
          "ticks": 16860,
          "time": 105.375,
          "velocity": 1
        },
        {
          "duration": 0.36249999999998295,
          "durationTicks": 58,
          "midi": 64,
          "name": "E4",
          "ticks": 16920,
          "time": 105.75,
          "velocity": 1
        },
        {
          "duration": 0.36249999999998295,
          "durationTicks": 58,
          "midi": 71,
          "name": "B4",
          "ticks": 16980,
          "time": 106.125,
          "velocity": 1
        },
        {
          "duration": 0.36249999999998295,
          "durationTicks": 58,
          "midi": 69,
          "name": "A4",
          "ticks": 17040,
          "time": 106.5,
          "velocity": 1
        },
        {
          "duration": 0.36249999999998295,
          "durationTicks": 58,
          "midi": 71,
          "name": "B4",
          "ticks": 17100,
          "time": 106.875,
          "velocity": 1
        },
        {
          "duration": 0.36249999999998295,
          "durationTicks": 58,
          "midi": 69,
          "name": "A4",
          "ticks": 17160,
          "time": 107.25,
          "velocity": 1
        },
        {
          "duration": 0.36249999999998295,
          "durationTicks": 58,
          "midi": 67,
          "name": "G4",
          "ticks": 17220,
          "time": 107.625,
          "velocity": 1
        },
        {
          "duration": 0.737499999999983,
          "durationTicks": 118,
          "midi": 66,
          "name": "F#4",
          "ticks": 17280,
          "time": 108,
          "velocity": 1
        },
        {
          "duration": 0.737499999999983,
          "durationTicks": 118,
          "midi": 78,
          "name": "F#5",
          "ticks": 17400,
          "time": 108.75,
          "velocity": 1
        },
        {
          "duration": 1.487499999999983,
          "durationTicks": 238,
          "midi": 76,
          "name": "E5",
          "ticks": 17520,
          "time": 109.5,
          "velocity": 1
        },
        {
          "duration": 0.737499999999983,
          "durationTicks": 118,
          "midi": 74,
          "name": "D5",
          "ticks": 17880,
          "time": 111.75,
          "velocity": 1
        },
        {
          "duration": 1.487499999999983,
          "durationTicks": 238,
          "midi": 78,
          "name": "F#5",
          "ticks": 18000,
          "time": 112.5,
          "velocity": 1
        },
        {
          "duration": 1.487499999999983,
          "durationTicks": 238,
          "midi": 83,
          "name": "B5",
          "ticks": 18240,
          "time": 114,
          "velocity": 1
        },
        {
          "duration": 1.487499999999983,
          "durationTicks": 238,
          "midi": 81,
          "name": "A5",
          "ticks": 18480,
          "time": 115.5,
          "velocity": 1
        },
        {
          "duration": 1.487499999999983,
          "durationTicks": 238,
          "midi": 83,
          "name": "B5",
          "ticks": 18720,
          "time": 117,
          "velocity": 1
        },
        {
          "duration": 1.487499999999983,
          "durationTicks": 238,
          "midi": 85,
          "name": "C#6",
          "ticks": 18960,
          "time": 118.5,
          "velocity": 1
        },
        {
          "duration": 0.737499999999983,
          "durationTicks": 118,
          "midi": 86,
          "name": "D6",
          "ticks": 19200,
          "time": 120,
          "velocity": 1
        },
        {
          "duration": 0.737499999999983,
          "durationTicks": 118,
          "midi": 74,
          "name": "D5",
          "ticks": 19320,
          "time": 120.75,
          "velocity": 1
        },
        {
          "duration": 1.487499999999983,
          "durationTicks": 238,
          "midi": 73,
          "name": "C#5",
          "ticks": 19440,
          "time": 121.5,
          "velocity": 1
        },
        {
          "duration": 0.737499999999983,
          "durationTicks": 118,
          "midi": 71,
          "name": "B4",
          "ticks": 19800,
          "time": 123.75,
          "velocity": 1
        },
        {
          "duration": 1.487499999999983,
          "durationTicks": 238,
          "midi": 74,
          "name": "D5",
          "ticks": 19920,
          "time": 124.5,
          "velocity": 1
        },
        {
          "duration": 2.237499999999983,
          "durationTicks": 358,
          "midi": 74,
          "name": "D5",
          "ticks": 20160,
          "time": 126,
          "velocity": 1
        },
        {
          "duration": 0.737499999999983,
          "durationTicks": 118,
          "midi": 74,
          "name": "D5",
          "ticks": 20520,
          "time": 128.25,
          "velocity": 1
        },
        {
          "duration": 0.737499999999983,
          "durationTicks": 118,
          "midi": 74,
          "name": "D5",
          "ticks": 20640,
          "time": 129,
          "velocity": 1
        },
        {
          "duration": 0.737499999999983,
          "durationTicks": 118,
          "midi": 79,
          "name": "G5",
          "ticks": 20760,
          "time": 129.75,
          "velocity": 1
        },
        {
          "duration": 0.737499999999983,
          "durationTicks": 118,
          "midi": 76,
          "name": "E5",
          "ticks": 20880,
          "time": 130.5,
          "velocity": 1
        },
        {
          "duration": 0.737499999999983,
          "durationTicks": 118,
          "midi": 81,
          "name": "A5",
          "ticks": 21000,
          "time": 131.25,
          "velocity": 1
        },
        {
          "duration": 0.36249999999998295,
          "durationTicks": 58,
          "midi": 81,
          "name": "A5",
          "ticks": 21120,
          "time": 132,
          "velocity": 1
        },
        {
          "duration": 0.17499999999998295,
          "durationTicks": 28,
          "midi": 78,
          "name": "F#5",
          "ticks": 21180,
          "time": 132.375,
          "velocity": 1
        },
        {
          "duration": 0.17499999999998295,
          "durationTicks": 28,
          "midi": 79,
          "name": "G5",
          "ticks": 21210,
          "time": 132.5625,
          "velocity": 1
        },
        {
          "duration": 0.36249999999998295,
          "durationTicks": 58,
          "midi": 81,
          "name": "A5",
          "ticks": 21240,
          "time": 132.75,
          "velocity": 1
        },
        {
          "duration": 0.17499999999998295,
          "durationTicks": 28,
          "midi": 78,
          "name": "F#5",
          "ticks": 21300,
          "time": 133.125,
          "velocity": 1
        },
        {
          "duration": 0.17499999999998295,
          "durationTicks": 28,
          "midi": 79,
          "name": "G5",
          "ticks": 21330,
          "time": 133.3125,
          "velocity": 1
        },
        {
          "duration": 0.17499999999998295,
          "durationTicks": 28,
          "midi": 81,
          "name": "A5",
          "ticks": 21360,
          "time": 133.5,
          "velocity": 1
        },
        {
          "duration": 0.17499999999998295,
          "durationTicks": 28,
          "midi": 69,
          "name": "A4",
          "ticks": 21390,
          "time": 133.6875,
          "velocity": 1
        },
        {
          "duration": 0.17499999999998295,
          "durationTicks": 28,
          "midi": 71,
          "name": "B4",
          "ticks": 21420,
          "time": 133.875,
          "velocity": 1
        },
        {
          "duration": 0.17499999999998295,
          "durationTicks": 28,
          "midi": 73,
          "name": "C#5",
          "ticks": 21450,
          "time": 134.0625,
          "velocity": 1
        },
        {
          "duration": 0.17499999999998295,
          "durationTicks": 28,
          "midi": 74,
          "name": "D5",
          "ticks": 21480,
          "time": 134.25,
          "velocity": 1
        },
        {
          "duration": 0.17499999999998295,
          "durationTicks": 28,
          "midi": 76,
          "name": "E5",
          "ticks": 21510,
          "time": 134.4375,
          "velocity": 1
        },
        {
          "duration": 0.17499999999998295,
          "durationTicks": 28,
          "midi": 78,
          "name": "F#5",
          "ticks": 21540,
          "time": 134.625,
          "velocity": 1
        },
        {
          "duration": 0.17499999999998295,
          "durationTicks": 28,
          "midi": 79,
          "name": "G5",
          "ticks": 21570,
          "time": 134.8125,
          "velocity": 1
        },
        {
          "duration": 0.36249999999998295,
          "durationTicks": 58,
          "midi": 78,
          "name": "F#5",
          "ticks": 21600,
          "time": 135,
          "velocity": 1
        },
        {
          "duration": 0.17499999999998295,
          "durationTicks": 28,
          "midi": 74,
          "name": "D5",
          "ticks": 21660,
          "time": 135.375,
          "velocity": 1
        },
        {
          "duration": 0.17499999999998295,
          "durationTicks": 28,
          "midi": 76,
          "name": "E5",
          "ticks": 21690,
          "time": 135.5625,
          "velocity": 1
        },
        {
          "duration": 0.36249999999998295,
          "durationTicks": 58,
          "midi": 78,
          "name": "F#5",
          "ticks": 21720,
          "time": 135.75,
          "velocity": 1
        },
        {
          "duration": 0.17499999999998295,
          "durationTicks": 28,
          "midi": 66,
          "name": "F#4",
          "ticks": 21780,
          "time": 136.125,
          "velocity": 1
        },
        {
          "duration": 0.17499999999998295,
          "durationTicks": 28,
          "midi": 67,
          "name": "G4",
          "ticks": 21810,
          "time": 136.3125,
          "velocity": 1
        },
        {
          "duration": 0.17499999999998295,
          "durationTicks": 28,
          "midi": 69,
          "name": "A4",
          "ticks": 21840,
          "time": 136.5,
          "velocity": 1
        },
        {
          "duration": 0.17499999999998295,
          "durationTicks": 28,
          "midi": 71,
          "name": "B4",
          "ticks": 21870,
          "time": 136.6875,
          "velocity": 1
        },
        {
          "duration": 0.17499999999998295,
          "durationTicks": 28,
          "midi": 69,
          "name": "A4",
          "ticks": 21900,
          "time": 136.875,
          "velocity": 1
        },
        {
          "duration": 0.17499999999998295,
          "durationTicks": 28,
          "midi": 67,
          "name": "G4",
          "ticks": 21930,
          "time": 137.0625,
          "velocity": 1
        },
        {
          "duration": 0.17499999999998295,
          "durationTicks": 28,
          "midi": 69,
          "name": "A4",
          "ticks": 21960,
          "time": 137.25,
          "velocity": 1
        },
        {
          "duration": 0.17499999999998295,
          "durationTicks": 28,
          "midi": 66,
          "name": "F#4",
          "ticks": 21990,
          "time": 137.4375,
          "velocity": 1
        },
        {
          "duration": 0.17499999999998295,
          "durationTicks": 28,
          "midi": 67,
          "name": "G4",
          "ticks": 22020,
          "time": 137.625,
          "velocity": 1
        },
        {
          "duration": 0.17499999999998295,
          "durationTicks": 28,
          "midi": 69,
          "name": "A4",
          "ticks": 22050,
          "time": 137.8125,
          "velocity": 1
        },
        {
          "duration": 0.36249999999998295,
          "durationTicks": 58,
          "midi": 67,
          "name": "G4",
          "ticks": 22080,
          "time": 138,
          "velocity": 1
        },
        {
          "duration": 0.17499999999998295,
          "durationTicks": 28,
          "midi": 71,
          "name": "B4",
          "ticks": 22140,
          "time": 138.375,
          "velocity": 1
        },
        {
          "duration": 0.17499999999998295,
          "durationTicks": 28,
          "midi": 69,
          "name": "A4",
          "ticks": 22170,
          "time": 138.5625,
          "velocity": 1
        },
        {
          "duration": 0.36249999999998295,
          "durationTicks": 58,
          "midi": 67,
          "name": "G4",
          "ticks": 22200,
          "time": 138.75,
          "velocity": 1
        },
        {
          "duration": 0.17499999999998295,
          "durationTicks": 28,
          "midi": 66,
          "name": "F#4",
          "ticks": 22260,
          "time": 139.125,
          "velocity": 1
        },
        {
          "duration": 0.17499999999998295,
          "durationTicks": 28,
          "midi": 64,
          "name": "E4",
          "ticks": 22290,
          "time": 139.3125,
          "velocity": 1
        },
        {
          "duration": 0.17499999999998295,
          "durationTicks": 28,
          "midi": 66,
          "name": "F#4",
          "ticks": 22320,
          "time": 139.5,
          "velocity": 1
        },
        {
          "duration": 0.17499999999998295,
          "durationTicks": 28,
          "midi": 64,
          "name": "E4",
          "ticks": 22350,
          "time": 139.6875,
          "velocity": 1
        },
        {
          "duration": 0.17499999999998295,
          "durationTicks": 28,
          "midi": 62,
          "name": "D4",
          "ticks": 22380,
          "time": 139.875,
          "velocity": 1
        },
        {
          "duration": 0.17499999999998295,
          "durationTicks": 28,
          "midi": 64,
          "name": "E4",
          "ticks": 22410,
          "time": 140.0625,
          "velocity": 1
        },
        {
          "duration": 0.17499999999998295,
          "durationTicks": 28,
          "midi": 66,
          "name": "F#4",
          "ticks": 22440,
          "time": 140.25,
          "velocity": 1
        },
        {
          "duration": 0.17499999999998295,
          "durationTicks": 28,
          "midi": 67,
          "name": "G4",
          "ticks": 22470,
          "time": 140.4375,
          "velocity": 1
        },
        {
          "duration": 0.17499999999998295,
          "durationTicks": 28,
          "midi": 69,
          "name": "A4",
          "ticks": 22500,
          "time": 140.625,
          "velocity": 1
        },
        {
          "duration": 0.17499999999998295,
          "durationTicks": 28,
          "midi": 71,
          "name": "B4",
          "ticks": 22530,
          "time": 140.8125,
          "velocity": 1
        },
        {
          "duration": 0.36249999999998295,
          "durationTicks": 58,
          "midi": 67,
          "name": "G4",
          "ticks": 22560,
          "time": 141,
          "velocity": 1
        },
        {
          "duration": 0.17499999999998295,
          "durationTicks": 28,
          "midi": 71,
          "name": "B4",
          "ticks": 22620,
          "time": 141.375,
          "velocity": 1
        },
        {
          "duration": 0.17499999999998295,
          "durationTicks": 28,
          "midi": 69,
          "name": "A4",
          "ticks": 22650,
          "time": 141.5625,
          "velocity": 1
        },
        {
          "duration": 0.36249999999998295,
          "durationTicks": 58,
          "midi": 71,
          "name": "B4",
          "ticks": 22680,
          "time": 141.75,
          "velocity": 1
        },
        {
          "duration": 0.17499999999998295,
          "durationTicks": 28,
          "midi": 73,
          "name": "C#5",
          "ticks": 22740,
          "time": 142.125,
          "velocity": 1
        },
        {
          "duration": 0.17499999999998295,
          "durationTicks": 28,
          "midi": 74,
          "name": "D5",
          "ticks": 22770,
          "time": 142.3125,
          "velocity": 1
        },
        {
          "duration": 0.17499999999998295,
          "durationTicks": 28,
          "midi": 69,
          "name": "A4",
          "ticks": 22800,
          "time": 142.5,
          "velocity": 1
        },
        {
          "duration": 0.17499999999998295,
          "durationTicks": 28,
          "midi": 71,
          "name": "B4",
          "ticks": 22830,
          "time": 142.6875,
          "velocity": 1
        },
        {
          "duration": 0.17499999999998295,
          "durationTicks": 28,
          "midi": 73,
          "name": "C#5",
          "ticks": 22860,
          "time": 142.875,
          "velocity": 1
        },
        {
          "duration": 0.17499999999998295,
          "durationTicks": 28,
          "midi": 74,
          "name": "D5",
          "ticks": 22890,
          "time": 143.0625,
          "velocity": 1
        },
        {
          "duration": 0.17499999999998295,
          "durationTicks": 28,
          "midi": 76,
          "name": "E5",
          "ticks": 22920,
          "time": 143.25,
          "velocity": 1
        },
        {
          "duration": 0.17499999999998295,
          "durationTicks": 28,
          "midi": 78,
          "name": "F#5",
          "ticks": 22950,
          "time": 143.4375,
          "velocity": 1
        },
        {
          "duration": 0.17499999999998295,
          "durationTicks": 28,
          "midi": 79,
          "name": "G5",
          "ticks": 22980,
          "time": 143.625,
          "velocity": 1
        },
        {
          "duration": 0.17499999999998295,
          "durationTicks": 28,
          "midi": 81,
          "name": "A5",
          "ticks": 23010,
          "time": 143.8125,
          "velocity": 1
        },
        {
          "duration": 0.36249999999998295,
          "durationTicks": 58,
          "midi": 78,
          "name": "F#5",
          "ticks": 23040,
          "time": 144,
          "velocity": 1
        },
        {
          "duration": 0.17499999999998295,
          "durationTicks": 28,
          "midi": 74,
          "name": "D5",
          "ticks": 23100,
          "time": 144.375,
          "velocity": 1
        },
        {
          "duration": 0.17499999999998295,
          "durationTicks": 28,
          "midi": 76,
          "name": "E5",
          "ticks": 23130,
          "time": 144.5625,
          "velocity": 1
        },
        {
          "duration": 0.36249999999998295,
          "durationTicks": 58,
          "midi": 78,
          "name": "F#5",
          "ticks": 23160,
          "time": 144.75,
          "velocity": 1
        },
        {
          "duration": 0.17499999999998295,
          "durationTicks": 28,
          "midi": 76,
          "name": "E5",
          "ticks": 23220,
          "time": 145.125,
          "velocity": 1
        },
        {
          "duration": 0.17499999999998295,
          "durationTicks": 28,
          "midi": 74,
          "name": "D5",
          "ticks": 23250,
          "time": 145.3125,
          "velocity": 1
        },
        {
          "duration": 0.17499999999998295,
          "durationTicks": 28,
          "midi": 76,
          "name": "E5",
          "ticks": 23280,
          "time": 145.5,
          "velocity": 1
        },
        {
          "duration": 0.17499999999998295,
          "durationTicks": 28,
          "midi": 73,
          "name": "C#5",
          "ticks": 23310,
          "time": 145.6875,
          "velocity": 1
        },
        {
          "duration": 0.17499999999998295,
          "durationTicks": 28,
          "midi": 74,
          "name": "D5",
          "ticks": 23340,
          "time": 145.875,
          "velocity": 1
        },
        {
          "duration": 0.17499999999998295,
          "durationTicks": 28,
          "midi": 76,
          "name": "E5",
          "ticks": 23370,
          "time": 146.0625,
          "velocity": 1
        },
        {
          "duration": 0.17499999999998295,
          "durationTicks": 28,
          "midi": 78,
          "name": "F#5",
          "ticks": 23400,
          "time": 146.25,
          "velocity": 1
        },
        {
          "duration": 0.17499999999998295,
          "durationTicks": 28,
          "midi": 76,
          "name": "E5",
          "ticks": 23430,
          "time": 146.4375,
          "velocity": 1
        },
        {
          "duration": 0.17499999999998295,
          "durationTicks": 28,
          "midi": 74,
          "name": "D5",
          "ticks": 23460,
          "time": 146.625,
          "velocity": 1
        },
        {
          "duration": 0.17499999999998295,
          "durationTicks": 28,
          "midi": 73,
          "name": "C#5",
          "ticks": 23490,
          "time": 146.8125,
          "velocity": 1
        },
        {
          "duration": 0.36249999999998295,
          "durationTicks": 58,
          "midi": 74,
          "name": "D5",
          "ticks": 23520,
          "time": 147,
          "velocity": 1
        },
        {
          "duration": 0.17499999999998295,
          "durationTicks": 28,
          "midi": 71,
          "name": "B4",
          "ticks": 23580,
          "time": 147.375,
          "velocity": 1
        },
        {
          "duration": 0.17499999999998295,
          "durationTicks": 28,
          "midi": 73,
          "name": "C#5",
          "ticks": 23610,
          "time": 147.5625,
          "velocity": 1
        },
        {
          "duration": 0.36249999999998295,
          "durationTicks": 58,
          "midi": 74,
          "name": "D5",
          "ticks": 23640,
          "time": 147.75,
          "velocity": 1
        },
        {
          "duration": 0.17499999999998295,
          "durationTicks": 28,
          "midi": 62,
          "name": "D4",
          "ticks": 23700,
          "time": 148.125,
          "velocity": 1
        },
        {
          "duration": 0.17499999999998295,
          "durationTicks": 28,
          "midi": 64,
          "name": "E4",
          "ticks": 23730,
          "time": 148.3125,
          "velocity": 1
        },
        {
          "duration": 0.17499999999998295,
          "durationTicks": 28,
          "midi": 66,
          "name": "F#4",
          "ticks": 23760,
          "time": 148.5,
          "velocity": 1
        },
        {
          "duration": 0.17499999999998295,
          "durationTicks": 28,
          "midi": 67,
          "name": "G4",
          "ticks": 23790,
          "time": 148.6875,
          "velocity": 1
        },
        {
          "duration": 0.17499999999998295,
          "durationTicks": 28,
          "midi": 66,
          "name": "F#4",
          "ticks": 23820,
          "time": 148.875,
          "velocity": 1
        },
        {
          "duration": 0.17499999999998295,
          "durationTicks": 28,
          "midi": 64,
          "name": "E4",
          "ticks": 23850,
          "time": 149.0625,
          "velocity": 1
        },
        {
          "duration": 0.17499999999998295,
          "durationTicks": 28,
          "midi": 66,
          "name": "F#4",
          "ticks": 23880,
          "time": 149.25,
          "velocity": 1
        },
        {
          "duration": 0.17499999999998295,
          "durationTicks": 28,
          "midi": 74,
          "name": "D5",
          "ticks": 23910,
          "time": 149.4375,
          "velocity": 1
        },
        {
          "duration": 0.17499999999998295,
          "durationTicks": 28,
          "midi": 73,
          "name": "C#5",
          "ticks": 23940,
          "time": 149.625,
          "velocity": 1
        },
        {
          "duration": 0.17499999999998295,
          "durationTicks": 28,
          "midi": 74,
          "name": "D5",
          "ticks": 23970,
          "time": 149.8125,
          "velocity": 1
        },
        {
          "duration": 0.36249999999998295,
          "durationTicks": 58,
          "midi": 71,
          "name": "B4",
          "ticks": 24000,
          "time": 150,
          "velocity": 1
        },
        {
          "duration": 0.17499999999998295,
          "durationTicks": 28,
          "midi": 74,
          "name": "D5",
          "ticks": 24060,
          "time": 150.375,
          "velocity": 1
        },
        {
          "duration": 0.17499999999998295,
          "durationTicks": 28,
          "midi": 73,
          "name": "C#5",
          "ticks": 24090,
          "time": 150.5625,
          "velocity": 1
        },
        {
          "duration": 0.36249999999998295,
          "durationTicks": 58,
          "midi": 71,
          "name": "B4",
          "ticks": 24120,
          "time": 150.75,
          "velocity": 1
        },
        {
          "duration": 0.17499999999998295,
          "durationTicks": 28,
          "midi": 69,
          "name": "A4",
          "ticks": 24180,
          "time": 151.125,
          "velocity": 1
        },
        {
          "duration": 0.17499999999998295,
          "durationTicks": 28,
          "midi": 67,
          "name": "G4",
          "ticks": 24210,
          "time": 151.3125,
          "velocity": 1
        },
        {
          "duration": 0.17499999999998295,
          "durationTicks": 28,
          "midi": 69,
          "name": "A4",
          "ticks": 24240,
          "time": 151.5,
          "velocity": 1
        },
        {
          "duration": 0.17499999999998295,
          "durationTicks": 28,
          "midi": 67,
          "name": "G4",
          "ticks": 24270,
          "time": 151.6875,
          "velocity": 1
        },
        {
          "duration": 0.17499999999998295,
          "durationTicks": 28,
          "midi": 66,
          "name": "F#4",
          "ticks": 24300,
          "time": 151.875,
          "velocity": 1
        },
        {
          "duration": 0.17499999999998295,
          "durationTicks": 28,
          "midi": 67,
          "name": "G4",
          "ticks": 24330,
          "time": 152.0625,
          "velocity": 1
        },
        {
          "duration": 0.17499999999998295,
          "durationTicks": 28,
          "midi": 69,
          "name": "A4",
          "ticks": 24360,
          "time": 152.25,
          "velocity": 1
        },
        {
          "duration": 0.17499999999998295,
          "durationTicks": 28,
          "midi": 71,
          "name": "B4",
          "ticks": 24390,
          "time": 152.4375,
          "velocity": 1
        },
        {
          "duration": 0.17499999999998295,
          "durationTicks": 28,
          "midi": 73,
          "name": "C#5",
          "ticks": 24420,
          "time": 152.625,
          "velocity": 1
        },
        {
          "duration": 0.17499999999998295,
          "durationTicks": 28,
          "midi": 74,
          "name": "D5",
          "ticks": 24450,
          "time": 152.8125,
          "velocity": 1
        },
        {
          "duration": 0.36249999999998295,
          "durationTicks": 58,
          "midi": 71,
          "name": "B4",
          "ticks": 24480,
          "time": 153,
          "velocity": 1
        },
        {
          "duration": 0.17499999999998295,
          "durationTicks": 28,
          "midi": 74,
          "name": "D5",
          "ticks": 24540,
          "time": 153.375,
          "velocity": 1
        },
        {
          "duration": 0.17499999999998295,
          "durationTicks": 28,
          "midi": 73,
          "name": "C#5",
          "ticks": 24570,
          "time": 153.5625,
          "velocity": 1
        },
        {
          "duration": 0.36249999999998295,
          "durationTicks": 58,
          "midi": 74,
          "name": "D5",
          "ticks": 24600,
          "time": 153.75,
          "velocity": 1
        },
        {
          "duration": 0.17499999999998295,
          "durationTicks": 28,
          "midi": 73,
          "name": "C#5",
          "ticks": 24660,
          "time": 154.125,
          "velocity": 1
        },
        {
          "duration": 0.17499999999998295,
          "durationTicks": 28,
          "midi": 71,
          "name": "B4",
          "ticks": 24690,
          "time": 154.3125,
          "velocity": 1
        },
        {
          "duration": 0.17499999999998295,
          "durationTicks": 28,
          "midi": 73,
          "name": "C#5",
          "ticks": 24720,
          "time": 154.5,
          "velocity": 1
        },
        {
          "duration": 0.17499999999998295,
          "durationTicks": 28,
          "midi": 74,
          "name": "D5",
          "ticks": 24750,
          "time": 154.6875,
          "velocity": 1
        },
        {
          "duration": 0.17499999999998295,
          "durationTicks": 28,
          "midi": 76,
          "name": "E5",
          "ticks": 24780,
          "time": 154.875,
          "velocity": 1
        },
        {
          "duration": 0.17499999999998295,
          "durationTicks": 28,
          "midi": 74,
          "name": "D5",
          "ticks": 24810,
          "time": 155.0625,
          "velocity": 1
        },
        {
          "duration": 0.17499999999998295,
          "durationTicks": 28,
          "midi": 73,
          "name": "C#5",
          "ticks": 24840,
          "time": 155.25,
          "velocity": 1
        },
        {
          "duration": 0.17499999999998295,
          "durationTicks": 28,
          "midi": 74,
          "name": "D5",
          "ticks": 24870,
          "time": 155.4375,
          "velocity": 1
        },
        {
          "duration": 0.17499999999998295,
          "durationTicks": 28,
          "midi": 71,
          "name": "B4",
          "ticks": 24900,
          "time": 155.625,
          "velocity": 1
        },
        {
          "duration": 0.17499999999998295,
          "durationTicks": 28,
          "midi": 73,
          "name": "C#5",
          "ticks": 24930,
          "time": 155.8125,
          "velocity": 1
        },
        {
          "duration": 0.737499999999983,
          "durationTicks": 118,
          "midi": 74,
          "name": "D5",
          "ticks": 24960,
          "time": 156,
          "velocity": 1
        },
        {
          "duration": 0.737499999999983,
          "durationTicks": 118,
          "midi": 73,
          "name": "C#5",
          "ticks": 25200,
          "time": 157.5,
          "velocity": 1
        },
        {
          "duration": 0.737499999999983,
          "durationTicks": 118,
          "midi": 71,
          "name": "B4",
          "ticks": 25440,
          "time": 159,
          "velocity": 1
        },
        {
          "duration": 0.737499999999983,
          "durationTicks": 118,
          "midi": 74,
          "name": "D5",
          "ticks": 25680,
          "time": 160.5,
          "velocity": 1
        },
        {
          "duration": 0.737499999999983,
          "durationTicks": 118,
          "midi": 62,
          "name": "D4",
          "ticks": 25920,
          "time": 162,
          "velocity": 1
        },
        {
          "duration": 0.737499999999983,
          "durationTicks": 118,
          "midi": 62,
          "name": "D4",
          "ticks": 26160,
          "time": 163.5,
          "velocity": 1
        },
        {
          "duration": 0.737499999999983,
          "durationTicks": 118,
          "midi": 62,
          "name": "D4",
          "ticks": 26400,
          "time": 165,
          "velocity": 1
        },
        {
          "duration": 0.737499999999983,
          "durationTicks": 118,
          "midi": 64,
          "name": "E4",
          "ticks": 26640,
          "time": 166.5,
          "velocity": 1
        },
        {
          "duration": 0.737499999999983,
          "durationTicks": 118,
          "midi": 69,
          "name": "A4",
          "ticks": 27000,
          "time": 168.75,
          "velocity": 1
        },
        {
          "duration": 0.737499999999983,
          "durationTicks": 118,
          "midi": 69,
          "name": "A4",
          "ticks": 27240,
          "time": 170.25,
          "velocity": 1
        },
        {
          "duration": 0.737499999999983,
          "durationTicks": 118,
          "midi": 66,
          "name": "F#4",
          "ticks": 27480,
          "time": 171.75,
          "velocity": 1
        },
        {
          "duration": 0.737499999999983,
          "durationTicks": 118,
          "midi": 69,
          "name": "A4",
          "ticks": 27720,
          "time": 173.25,
          "velocity": 1
        },
        {
          "duration": 0.737499999999983,
          "durationTicks": 118,
          "midi": 67,
          "name": "G4",
          "ticks": 27960,
          "time": 174.75,
          "velocity": 1
        },
        {
          "duration": 0.737499999999983,
          "durationTicks": 118,
          "midi": 66,
          "name": "F#4",
          "ticks": 28200,
          "time": 176.25,
          "velocity": 1
        },
        {
          "duration": 0.737499999999983,
          "durationTicks": 118,
          "midi": 67,
          "name": "G4",
          "ticks": 28440,
          "time": 177.75,
          "velocity": 1
        },
        {
          "duration": 0.737499999999983,
          "durationTicks": 118,
          "midi": 76,
          "name": "E5",
          "ticks": 28680,
          "time": 179.25,
          "velocity": 1
        },
        {
          "duration": 0.36249999999998295,
          "durationTicks": 58,
          "midi": 78,
          "name": "F#5",
          "ticks": 28800,
          "time": 180,
          "velocity": 1
        },
        {
          "duration": 0.36249999999998295,
          "durationTicks": 58,
          "midi": 66,
          "name": "F#4",
          "ticks": 28860,
          "time": 180.375,
          "velocity": 1
        },
        {
          "duration": 0.36249999999998295,
          "durationTicks": 58,
          "midi": 67,
          "name": "G4",
          "ticks": 28920,
          "time": 180.75,
          "velocity": 1
        },
        {
          "duration": 0.36249999999998295,
          "durationTicks": 58,
          "midi": 66,
          "name": "F#4",
          "ticks": 28980,
          "time": 181.125,
          "velocity": 1
        },
        {
          "duration": 0.36249999999998295,
          "durationTicks": 58,
          "midi": 64,
          "name": "E4",
          "ticks": 29040,
          "time": 181.5,
          "velocity": 1
        },
        {
          "duration": 0.36249999999998295,
          "durationTicks": 58,
          "midi": 76,
          "name": "E5",
          "ticks": 29100,
          "time": 181.875,
          "velocity": 1
        },
        {
          "duration": 0.36249999999998295,
          "durationTicks": 58,
          "midi": 78,
          "name": "F#5",
          "ticks": 29160,
          "time": 182.25,
          "velocity": 1
        },
        {
          "duration": 0.36249999999998295,
          "durationTicks": 58,
          "midi": 76,
          "name": "E5",
          "ticks": 29220,
          "time": 182.625,
          "velocity": 1
        },
        {
          "duration": 0.36249999999998295,
          "durationTicks": 58,
          "midi": 74,
          "name": "D5",
          "ticks": 29280,
          "time": 183,
          "velocity": 1
        },
        {
          "duration": 0.36249999999998295,
          "durationTicks": 58,
          "midi": 66,
          "name": "F#4",
          "ticks": 29340,
          "time": 183.375,
          "velocity": 1
        },
        {
          "duration": 0.36249999999998295,
          "durationTicks": 58,
          "midi": 62,
          "name": "D4",
          "ticks": 29400,
          "time": 183.75,
          "velocity": 1
        },
        {
          "duration": 0.36249999999998295,
          "durationTicks": 58,
          "midi": 71,
          "name": "B4",
          "ticks": 29460,
          "time": 184.125,
          "velocity": 1
        },
        {
          "duration": 0.36249999999998295,
          "durationTicks": 58,
          "midi": 69,
          "name": "A4",
          "ticks": 29520,
          "time": 184.5,
          "velocity": 1
        },
        {
          "duration": 0.36249999999998295,
          "durationTicks": 58,
          "midi": 57,
          "name": "A3",
          "ticks": 29580,
          "time": 184.875,
          "velocity": 1
        },
        {
          "duration": 0.36249999999998295,
          "durationTicks": 58,
          "midi": 55,
          "name": "G3",
          "ticks": 29640,
          "time": 185.25,
          "velocity": 1
        },
        {
          "duration": 0.36249999999998295,
          "durationTicks": 58,
          "midi": 57,
          "name": "A3",
          "ticks": 29700,
          "time": 185.625,
          "velocity": 1
        },
        {
          "duration": 0.36249999999998295,
          "durationTicks": 58,
          "midi": 59,
          "name": "B3",
          "ticks": 29760,
          "time": 186,
          "velocity": 1
        },
        {
          "duration": 0.36249999999998295,
          "durationTicks": 58,
          "midi": 71,
          "name": "B4",
          "ticks": 29820,
          "time": 186.375,
          "velocity": 1
        },
        {
          "duration": 0.36249999999998295,
          "durationTicks": 58,
          "midi": 73,
          "name": "C#5",
          "ticks": 29880,
          "time": 186.75,
          "velocity": 1
        },
        {
          "duration": 0.36249999999998295,
          "durationTicks": 58,
          "midi": 71,
          "name": "B4",
          "ticks": 29940,
          "time": 187.125,
          "velocity": 1
        },
        {
          "duration": 0.36249999999998295,
          "durationTicks": 58,
          "midi": 69,
          "name": "A4",
          "ticks": 30000,
          "time": 187.5,
          "velocity": 1
        },
        {
          "duration": 0.36249999999998295,
          "durationTicks": 58,
          "midi": 57,
          "name": "A3",
          "ticks": 30060,
          "time": 187.875,
          "velocity": 1
        },
        {
          "duration": 0.36249999999998295,
          "durationTicks": 58,
          "midi": 55,
          "name": "G3",
          "ticks": 30120,
          "time": 188.25,
          "velocity": 1
        },
        {
          "duration": 0.36249999999998295,
          "durationTicks": 58,
          "midi": 57,
          "name": "A3",
          "ticks": 30180,
          "time": 188.625,
          "velocity": 1
        },
        {
          "duration": 0.36249999999998295,
          "durationTicks": 58,
          "midi": 59,
          "name": "B3",
          "ticks": 30240,
          "time": 189,
          "velocity": 1
        },
        {
          "duration": 0.36249999999998295,
          "durationTicks": 58,
          "midi": 71,
          "name": "B4",
          "ticks": 30300,
          "time": 189.375,
          "velocity": 1
        },
        {
          "duration": 0.36249999999998295,
          "durationTicks": 58,
          "midi": 69,
          "name": "A4",
          "ticks": 30360,
          "time": 189.75,
          "velocity": 1
        },
        {
          "duration": 0.36249999999998295,
          "durationTicks": 58,
          "midi": 71,
          "name": "B4",
          "ticks": 30420,
          "time": 190.125,
          "velocity": 1
        },
        {
          "duration": 0.36249999999998295,
          "durationTicks": 58,
          "midi": 73,
          "name": "C#5",
          "ticks": 30480,
          "time": 190.5,
          "velocity": 1
        },
        {
          "duration": 0.36249999999998295,
          "durationTicks": 58,
          "midi": 61,
          "name": "C#4",
          "ticks": 30540,
          "time": 190.875,
          "velocity": 1
        },
        {
          "duration": 0.36249999999998295,
          "durationTicks": 58,
          "midi": 59,
          "name": "B3",
          "ticks": 30600,
          "time": 191.25,
          "velocity": 1
        },
        {
          "duration": 0.36249999999998295,
          "durationTicks": 58,
          "midi": 61,
          "name": "C#4",
          "ticks": 30660,
          "time": 191.625,
          "velocity": 1
        },
        {
          "duration": 0.36250000000001137,
          "durationTicks": 58,
          "midi": 62,
          "name": "D4",
          "ticks": 30720,
          "time": 192,
          "velocity": 1
        },
        {
          "duration": 0.36250000000001137,
          "durationTicks": 58,
          "midi": 74,
          "name": "D5",
          "ticks": 30780,
          "time": 192.375,
          "velocity": 1
        },
        {
          "duration": 0.36250000000001137,
          "durationTicks": 58,
          "midi": 76,
          "name": "E5",
          "ticks": 30840,
          "time": 192.75,
          "velocity": 1
        },
        {
          "duration": 0.36250000000001137,
          "durationTicks": 58,
          "midi": 74,
          "name": "D5",
          "ticks": 30900,
          "time": 193.125,
          "velocity": 1
        },
        {
          "duration": 0.36250000000001137,
          "durationTicks": 58,
          "midi": 73,
          "name": "C#5",
          "ticks": 30960,
          "time": 193.5,
          "velocity": 1
        },
        {
          "duration": 0.36250000000001137,
          "durationTicks": 58,
          "midi": 61,
          "name": "C#4",
          "ticks": 31020,
          "time": 193.875,
          "velocity": 1
        },
        {
          "duration": 0.36250000000001137,
          "durationTicks": 58,
          "midi": 62,
          "name": "D4",
          "ticks": 31080,
          "time": 194.25,
          "velocity": 1
        },
        {
          "duration": 0.36250000000001137,
          "durationTicks": 58,
          "midi": 61,
          "name": "C#4",
          "ticks": 31140,
          "time": 194.625,
          "velocity": 1
        },
        {
          "duration": 0.36250000000001137,
          "durationTicks": 58,
          "midi": 59,
          "name": "B3",
          "ticks": 31200,
          "time": 195,
          "velocity": 1
        },
        {
          "duration": 0.36250000000001137,
          "durationTicks": 58,
          "midi": 71,
          "name": "B4",
          "ticks": 31260,
          "time": 195.375,
          "velocity": 1
        },
        {
          "duration": 0.36250000000001137,
          "durationTicks": 58,
          "midi": 69,
          "name": "A4",
          "ticks": 31320,
          "time": 195.75,
          "velocity": 1
        },
        {
          "duration": 0.36250000000001137,
          "durationTicks": 58,
          "midi": 71,
          "name": "B4",
          "ticks": 31380,
          "time": 196.125,
          "velocity": 1
        },
        {
          "duration": 0.36250000000001137,
          "durationTicks": 58,
          "midi": 73,
          "name": "C#5",
          "ticks": 31440,
          "time": 196.5,
          "velocity": 1
        },
        {
          "duration": 0.36250000000001137,
          "durationTicks": 58,
          "midi": 61,
          "name": "C#4",
          "ticks": 31500,
          "time": 196.875,
          "velocity": 1
        },
        {
          "duration": 0.36250000000001137,
          "durationTicks": 58,
          "midi": 66,
          "name": "F#4",
          "ticks": 31560,
          "time": 197.25,
          "velocity": 1
        },
        {
          "duration": 0.36250000000001137,
          "durationTicks": 58,
          "midi": 64,
          "name": "E4",
          "ticks": 31620,
          "time": 197.625,
          "velocity": 1
        },
        {
          "duration": 0.36250000000001137,
          "durationTicks": 58,
          "midi": 62,
          "name": "D4",
          "ticks": 31680,
          "time": 198,
          "velocity": 1
        },
        {
          "duration": 0.36250000000001137,
          "durationTicks": 58,
          "midi": 74,
          "name": "D5",
          "ticks": 31740,
          "time": 198.375,
          "velocity": 1
        },
        {
          "duration": 0.36250000000001137,
          "durationTicks": 58,
          "midi": 76,
          "name": "E5",
          "ticks": 31800,
          "time": 198.75,
          "velocity": 1
        },
        {
          "duration": 0.36250000000001137,
          "durationTicks": 58,
          "midi": 79,
          "name": "G5",
          "ticks": 31860,
          "time": 199.125,
          "velocity": 1
        },
        {
          "duration": 0.36250000000001137,
          "durationTicks": 58,
          "midi": 78,
          "name": "F#5",
          "ticks": 31920,
          "time": 199.5,
          "velocity": 1
        },
        {
          "duration": 0.36250000000001137,
          "durationTicks": 58,
          "midi": 66,
          "name": "F#4",
          "ticks": 31980,
          "time": 199.875,
          "velocity": 1
        },
        {
          "duration": 0.36250000000001137,
          "durationTicks": 58,
          "midi": 69,
          "name": "A4",
          "ticks": 32040,
          "time": 200.25,
          "velocity": 1
        },
        {
          "duration": 0.36250000000001137,
          "durationTicks": 58,
          "midi": 78,
          "name": "F#5",
          "ticks": 32100,
          "time": 200.625,
          "velocity": 1
        },
        {
          "duration": 0.36250000000001137,
          "durationTicks": 58,
          "midi": 74,
          "name": "D5",
          "ticks": 32160,
          "time": 201,
          "velocity": 1
        },
        {
          "duration": 0.36250000000001137,
          "durationTicks": 58,
          "midi": 79,
          "name": "G5",
          "ticks": 32220,
          "time": 201.375,
          "velocity": 1
        },
        {
          "duration": 0.36250000000001137,
          "durationTicks": 58,
          "midi": 78,
          "name": "F#5",
          "ticks": 32280,
          "time": 201.75,
          "velocity": 1
        },
        {
          "duration": 0.36250000000001137,
          "durationTicks": 58,
          "midi": 79,
          "name": "G5",
          "ticks": 32340,
          "time": 202.125,
          "velocity": 1
        },
        {
          "duration": 0.36250000000001137,
          "durationTicks": 58,
          "midi": 76,
          "name": "E5",
          "ticks": 32400,
          "time": 202.5,
          "velocity": 1
        },
        {
          "duration": 0.36250000000001137,
          "durationTicks": 58,
          "midi": 69,
          "name": "A4",
          "ticks": 32460,
          "time": 202.875,
          "velocity": 1
        },
        {
          "duration": 0.36250000000001137,
          "durationTicks": 58,
          "midi": 67,
          "name": "G4",
          "ticks": 32520,
          "time": 203.25,
          "velocity": 1
        },
        {
          "duration": 0.36250000000001137,
          "durationTicks": 58,
          "midi": 69,
          "name": "A4",
          "ticks": 32580,
          "time": 203.625,
          "velocity": 1
        },
        {
          "duration": 0.36250000000001137,
          "durationTicks": 58,
          "midi": 66,
          "name": "F#4",
          "ticks": 32640,
          "time": 204,
          "velocity": 1
        },
        {
          "duration": 0.36250000000001137,
          "durationTicks": 58,
          "midi": 69,
          "name": "A4",
          "ticks": 32700,
          "time": 204.375,
          "velocity": 1
        },
        {
          "duration": 0.36250000000001137,
          "durationTicks": 58,
          "midi": 69,
          "name": "A4",
          "ticks": 32760,
          "time": 204.75,
          "velocity": 1
        },
        {
          "duration": 0.36250000000001137,
          "durationTicks": 58,
          "midi": 69,
          "name": "A4",
          "ticks": 32820,
          "time": 205.125,
          "velocity": 1
        },
        {
          "duration": 0.36250000000001137,
          "durationTicks": 58,
          "midi": 69,
          "name": "A4",
          "ticks": 32880,
          "time": 205.5,
          "velocity": 1
        },
        {
          "duration": 0.36250000000001137,
          "durationTicks": 58,
          "midi": 69,
          "name": "A4",
          "ticks": 32940,
          "time": 205.875,
          "velocity": 1
        },
        {
          "duration": 0.36250000000001137,
          "durationTicks": 58,
          "midi": 69,
          "name": "A4",
          "ticks": 33000,
          "time": 206.25,
          "velocity": 1
        },
        {
          "duration": 0.36250000000001137,
          "durationTicks": 58,
          "midi": 69,
          "name": "A4",
          "ticks": 33060,
          "time": 206.625,
          "velocity": 1
        },
        {
          "duration": 0.36250000000001137,
          "durationTicks": 58,
          "midi": 66,
          "name": "F#4",
          "ticks": 33120,
          "time": 207,
          "velocity": 1
        },
        {
          "duration": 0.36250000000001137,
          "durationTicks": 58,
          "midi": 66,
          "name": "F#4",
          "ticks": 33180,
          "time": 207.375,
          "velocity": 1
        },
        {
          "duration": 0.36250000000001137,
          "durationTicks": 58,
          "midi": 66,
          "name": "F#4",
          "ticks": 33240,
          "time": 207.75,
          "velocity": 1
        },
        {
          "duration": 0.36250000000001137,
          "durationTicks": 58,
          "midi": 66,
          "name": "F#4",
          "ticks": 33300,
          "time": 208.125,
          "velocity": 1
        },
        {
          "duration": 0.36250000000001137,
          "durationTicks": 58,
          "midi": 66,
          "name": "F#4",
          "ticks": 33360,
          "time": 208.5,
          "velocity": 1
        },
        {
          "duration": 0.36250000000001137,
          "durationTicks": 58,
          "midi": 66,
          "name": "F#4",
          "ticks": 33420,
          "time": 208.875,
          "velocity": 1
        },
        {
          "duration": 0.36250000000001137,
          "durationTicks": 58,
          "midi": 69,
          "name": "A4",
          "ticks": 33480,
          "time": 209.25,
          "velocity": 1
        },
        {
          "duration": 0.36250000000001137,
          "durationTicks": 58,
          "midi": 69,
          "name": "A4",
          "ticks": 33540,
          "time": 209.625,
          "velocity": 1
        },
        {
          "duration": 0.36250000000001137,
          "durationTicks": 58,
          "midi": 67,
          "name": "G4",
          "ticks": 33600,
          "time": 210,
          "velocity": 1
        },
        {
          "duration": 0.36250000000001137,
          "durationTicks": 58,
          "midi": 67,
          "name": "G4",
          "ticks": 33660,
          "time": 210.375,
          "velocity": 1
        },
        {
          "duration": 0.36250000000001137,
          "durationTicks": 58,
          "midi": 67,
          "name": "G4",
          "ticks": 33720,
          "time": 210.75,
          "velocity": 1
        },
        {
          "duration": 0.36250000000001137,
          "durationTicks": 58,
          "midi": 74,
          "name": "D5",
          "ticks": 33780,
          "time": 211.125,
          "velocity": 1
        },
        {
          "duration": 0.36250000000001137,
          "durationTicks": 58,
          "midi": 74,
          "name": "D5",
          "ticks": 33840,
          "time": 211.5,
          "velocity": 1
        },
        {
          "duration": 0.36250000000001137,
          "durationTicks": 58,
          "midi": 74,
          "name": "D5",
          "ticks": 33900,
          "time": 211.875,
          "velocity": 1
        },
        {
          "duration": 0.36250000000001137,
          "durationTicks": 58,
          "midi": 74,
          "name": "D5",
          "ticks": 33960,
          "time": 212.25,
          "velocity": 1
        },
        {
          "duration": 0.36250000000001137,
          "durationTicks": 58,
          "midi": 74,
          "name": "D5",
          "ticks": 34020,
          "time": 212.625,
          "velocity": 1
        },
        {
          "duration": 0.36250000000001137,
          "durationTicks": 58,
          "midi": 74,
          "name": "D5",
          "ticks": 34080,
          "time": 213,
          "velocity": 1
        },
        {
          "duration": 0.36250000000001137,
          "durationTicks": 58,
          "midi": 74,
          "name": "D5",
          "ticks": 34140,
          "time": 213.375,
          "velocity": 1
        },
        {
          "duration": 0.36250000000001137,
          "durationTicks": 58,
          "midi": 71,
          "name": "B4",
          "ticks": 34200,
          "time": 213.75,
          "velocity": 1
        },
        {
          "duration": 0.36250000000001137,
          "durationTicks": 58,
          "midi": 71,
          "name": "B4",
          "ticks": 34260,
          "time": 214.125,
          "velocity": 1
        },
        {
          "duration": 0.36250000000001137,
          "durationTicks": 58,
          "midi": 69,
          "name": "A4",
          "ticks": 34320,
          "time": 214.5,
          "velocity": 1
        },
        {
          "duration": 0.36250000000001137,
          "durationTicks": 58,
          "midi": 69,
          "name": "A4",
          "ticks": 34380,
          "time": 214.875,
          "velocity": 1
        },
        {
          "duration": 0.36250000000001137,
          "durationTicks": 58,
          "midi": 76,
          "name": "E5",
          "ticks": 34440,
          "time": 215.25,
          "velocity": 1
        },
        {
          "duration": 0.36250000000001137,
          "durationTicks": 58,
          "midi": 73,
          "name": "C#5",
          "ticks": 34500,
          "time": 215.625,
          "velocity": 1
        },
        {
          "duration": 0.36250000000001137,
          "durationTicks": 58,
          "midi": 69,
          "name": "A4",
          "ticks": 34560,
          "time": 216,
          "velocity": 1
        },
        {
          "duration": 0.36250000000001137,
          "durationTicks": 58,
          "midi": 78,
          "name": "F#5",
          "ticks": 34620,
          "time": 216.375,
          "velocity": 1
        },
        {
          "duration": 0.36250000000001137,
          "durationTicks": 58,
          "midi": 78,
          "name": "F#5",
          "ticks": 34680,
          "time": 216.75,
          "velocity": 1
        },
        {
          "duration": 0.36250000000001137,
          "durationTicks": 58,
          "midi": 78,
          "name": "F#5",
          "ticks": 34740,
          "time": 217.125,
          "velocity": 1
        },
        {
          "duration": 0.36250000000001137,
          "durationTicks": 58,
          "midi": 76,
          "name": "E5",
          "ticks": 34800,
          "time": 217.5,
          "velocity": 1
        },
        {
          "duration": 0.36250000000001137,
          "durationTicks": 58,
          "midi": 76,
          "name": "E5",
          "ticks": 34860,
          "time": 217.875,
          "velocity": 1
        },
        {
          "duration": 0.36250000000001137,
          "durationTicks": 58,
          "midi": 76,
          "name": "E5",
          "ticks": 34920,
          "time": 218.25,
          "velocity": 1
        },
        {
          "duration": 0.36250000000001137,
          "durationTicks": 58,
          "midi": 76,
          "name": "E5",
          "ticks": 34980,
          "time": 218.625,
          "velocity": 1
        },
        {
          "duration": 0.36250000000001137,
          "durationTicks": 58,
          "midi": 74,
          "name": "D5",
          "ticks": 35040,
          "time": 219,
          "velocity": 1
        },
        {
          "duration": 0.36250000000001137,
          "durationTicks": 58,
          "midi": 74,
          "name": "D5",
          "ticks": 35100,
          "time": 219.375,
          "velocity": 1
        },
        {
          "duration": 0.36250000000001137,
          "durationTicks": 58,
          "midi": 74,
          "name": "D5",
          "ticks": 35160,
          "time": 219.75,
          "velocity": 1
        },
        {
          "duration": 0.36250000000001137,
          "durationTicks": 58,
          "midi": 74,
          "name": "D5",
          "ticks": 35220,
          "time": 220.125,
          "velocity": 1
        },
        {
          "duration": 0.36250000000001137,
          "durationTicks": 58,
          "midi": 81,
          "name": "A5",
          "ticks": 35280,
          "time": 220.5,
          "velocity": 1
        },
        {
          "duration": 0.36250000000001137,
          "durationTicks": 58,
          "midi": 81,
          "name": "A5",
          "ticks": 35340,
          "time": 220.875,
          "velocity": 1
        },
        {
          "duration": 0.36250000000001137,
          "durationTicks": 58,
          "midi": 81,
          "name": "A5",
          "ticks": 35400,
          "time": 221.25,
          "velocity": 1
        },
        {
          "duration": 0.36250000000001137,
          "durationTicks": 58,
          "midi": 81,
          "name": "A5",
          "ticks": 35460,
          "time": 221.625,
          "velocity": 1
        },
        {
          "duration": 0.36250000000001137,
          "durationTicks": 58,
          "midi": 83,
          "name": "B5",
          "ticks": 35520,
          "time": 222,
          "velocity": 1
        },
        {
          "duration": 0.36250000000001137,
          "durationTicks": 58,
          "midi": 83,
          "name": "B5",
          "ticks": 35580,
          "time": 222.375,
          "velocity": 1
        },
        {
          "duration": 0.36250000000001137,
          "durationTicks": 58,
          "midi": 83,
          "name": "B5",
          "ticks": 35640,
          "time": 222.75,
          "velocity": 1
        },
        {
          "duration": 0.36250000000001137,
          "durationTicks": 58,
          "midi": 83,
          "name": "B5",
          "ticks": 35700,
          "time": 223.125,
          "velocity": 1
        },
        {
          "duration": 0.36250000000001137,
          "durationTicks": 58,
          "midi": 81,
          "name": "A5",
          "ticks": 35760,
          "time": 223.5,
          "velocity": 1
        },
        {
          "duration": 0.36250000000001137,
          "durationTicks": 58,
          "midi": 81,
          "name": "A5",
          "ticks": 35820,
          "time": 223.875,
          "velocity": 1
        },
        {
          "duration": 0.36250000000001137,
          "durationTicks": 58,
          "midi": 81,
          "name": "A5",
          "ticks": 35880,
          "time": 224.25,
          "velocity": 1
        },
        {
          "duration": 0.36250000000001137,
          "durationTicks": 58,
          "midi": 81,
          "name": "A5",
          "ticks": 35940,
          "time": 224.625,
          "velocity": 1
        },
        {
          "duration": 0.36250000000001137,
          "durationTicks": 58,
          "midi": 83,
          "name": "B5",
          "ticks": 36000,
          "time": 225,
          "velocity": 1
        },
        {
          "duration": 0.36250000000001137,
          "durationTicks": 58,
          "midi": 83,
          "name": "B5",
          "ticks": 36060,
          "time": 225.375,
          "velocity": 1
        },
        {
          "duration": 0.36250000000001137,
          "durationTicks": 58,
          "midi": 83,
          "name": "B5",
          "ticks": 36120,
          "time": 225.75,
          "velocity": 1
        },
        {
          "duration": 0.36250000000001137,
          "durationTicks": 58,
          "midi": 83,
          "name": "B5",
          "ticks": 36180,
          "time": 226.125,
          "velocity": 1
        },
        {
          "duration": 0.36250000000001137,
          "durationTicks": 58,
          "midi": 85,
          "name": "C#6",
          "ticks": 36240,
          "time": 226.5,
          "velocity": 1
        },
        {
          "duration": 0.36250000000001137,
          "durationTicks": 58,
          "midi": 73,
          "name": "C#5",
          "ticks": 36300,
          "time": 226.875,
          "velocity": 1
        },
        {
          "duration": 0.36250000000001137,
          "durationTicks": 58,
          "midi": 73,
          "name": "C#5",
          "ticks": 36360,
          "time": 227.25,
          "velocity": 1
        },
        {
          "duration": 0.36250000000001137,
          "durationTicks": 58,
          "midi": 73,
          "name": "C#5",
          "ticks": 36420,
          "time": 227.625,
          "velocity": 1
        },
        {
          "duration": 0.36250000000001137,
          "durationTicks": 58,
          "midi": 74,
          "name": "D5",
          "ticks": 36480,
          "time": 228,
          "velocity": 1
        },
        {
          "duration": 0.17500000000001137,
          "durationTicks": 28,
          "midi": 62,
          "name": "D4",
          "ticks": 36540,
          "time": 228.375,
          "velocity": 1
        },
        {
          "duration": 0.17500000000001137,
          "durationTicks": 28,
          "midi": 64,
          "name": "E4",
          "ticks": 36570,
          "time": 228.5625,
          "velocity": 1
        },
        {
          "duration": 0.36250000000001137,
          "durationTicks": 58,
          "midi": 66,
          "name": "F#4",
          "ticks": 36600,
          "time": 228.75,
          "velocity": 1
        },
        {
          "duration": 0.36250000000001137,
          "durationTicks": 58,
          "midi": 62,
          "name": "D4",
          "ticks": 36660,
          "time": 229.125,
          "velocity": 1
        },
        {
          "duration": 0.36250000000001137,
          "durationTicks": 58,
          "midi": 61,
          "name": "C#4",
          "ticks": 36720,
          "time": 229.5,
          "velocity": 1
        },
        {
          "duration": 0.17500000000001137,
          "durationTicks": 28,
          "midi": 73,
          "name": "C#5",
          "ticks": 36780,
          "time": 229.875,
          "velocity": 1
        },
        {
          "duration": 0.17500000000001137,
          "durationTicks": 28,
          "midi": 74,
          "name": "D5",
          "ticks": 36810,
          "time": 230.0625,
          "velocity": 1
        },
        {
          "duration": 0.36250000000001137,
          "durationTicks": 58,
          "midi": 76,
          "name": "E5",
          "ticks": 36840,
          "time": 230.25,
          "velocity": 1
        },
        {
          "duration": 0.36250000000001137,
          "durationTicks": 58,
          "midi": 73,
          "name": "C#5",
          "ticks": 36900,
          "time": 230.625,
          "velocity": 1
        },
        {
          "duration": 0.36250000000001137,
          "durationTicks": 58,
          "midi": 71,
          "name": "B4",
          "ticks": 36960,
          "time": 231,
          "velocity": 1
        },
        {
          "duration": 0.17500000000001137,
          "durationTicks": 28,
          "midi": 59,
          "name": "B3",
          "ticks": 37020,
          "time": 231.375,
          "velocity": 1
        },
        {
          "duration": 0.17500000000001137,
          "durationTicks": 28,
          "midi": 61,
          "name": "C#4",
          "ticks": 37050,
          "time": 231.5625,
          "velocity": 1
        },
        {
          "duration": 0.36250000000001137,
          "durationTicks": 58,
          "midi": 62,
          "name": "D4",
          "ticks": 37080,
          "time": 231.75,
          "velocity": 1
        },
        {
          "duration": 0.36250000000001137,
          "durationTicks": 58,
          "midi": 59,
          "name": "B3",
          "ticks": 37140,
          "time": 232.125,
          "velocity": 1
        },
        {
          "duration": 0.36250000000001137,
          "durationTicks": 58,
          "midi": 61,
          "name": "C#4",
          "ticks": 37200,
          "time": 232.5,
          "velocity": 1
        },
        {
          "duration": 0.17500000000001137,
          "durationTicks": 28,
          "midi": 69,
          "name": "A4",
          "ticks": 37260,
          "time": 232.875,
          "velocity": 1
        },
        {
          "duration": 0.17500000000001137,
          "durationTicks": 28,
          "midi": 67,
          "name": "G4",
          "ticks": 37290,
          "time": 233.0625,
          "velocity": 1
        },
        {
          "duration": 0.36250000000001137,
          "durationTicks": 58,
          "midi": 66,
          "name": "F#4",
          "ticks": 37320,
          "time": 233.25,
          "velocity": 1
        },
        {
          "duration": 0.36250000000001137,
          "durationTicks": 58,
          "midi": 64,
          "name": "E4",
          "ticks": 37380,
          "time": 233.625,
          "velocity": 1
        },
        {
          "duration": 0.36250000000001137,
          "durationTicks": 58,
          "midi": 62,
          "name": "D4",
          "ticks": 37440,
          "time": 234,
          "velocity": 1
        },
        {
          "duration": 0.17500000000001137,
          "durationTicks": 28,
          "midi": 67,
          "name": "G4",
          "ticks": 37500,
          "time": 234.375,
          "velocity": 1
        },
        {
          "duration": 0.17500000000001137,
          "durationTicks": 28,
          "midi": 66,
          "name": "F#4",
          "ticks": 37530,
          "time": 234.5625,
          "velocity": 1
        },
        {
          "duration": 0.36250000000001137,
          "durationTicks": 58,
          "midi": 64,
          "name": "E4",
          "ticks": 37560,
          "time": 234.75,
          "velocity": 1
        },
        {
          "duration": 0.36250000000001137,
          "durationTicks": 58,
          "midi": 67,
          "name": "G4",
          "ticks": 37620,
          "time": 235.125,
          "velocity": 1
        },
        {
          "duration": 0.36250000000001137,
          "durationTicks": 58,
          "midi": 66,
          "name": "F#4",
          "ticks": 37680,
          "time": 235.5,
          "velocity": 1
        },
        {
          "duration": 0.17500000000001137,
          "durationTicks": 28,
          "midi": 62,
          "name": "D4",
          "ticks": 37740,
          "time": 235.875,
          "velocity": 1
        },
        {
          "duration": 0.17500000000001137,
          "durationTicks": 28,
          "midi": 64,
          "name": "E4",
          "ticks": 37770,
          "time": 236.0625,
          "velocity": 1
        },
        {
          "duration": 0.36250000000001137,
          "durationTicks": 58,
          "midi": 66,
          "name": "F#4",
          "ticks": 37800,
          "time": 236.25,
          "velocity": 1
        },
        {
          "duration": 0.36250000000001137,
          "durationTicks": 58,
          "midi": 69,
          "name": "A4",
          "ticks": 37860,
          "time": 236.625,
          "velocity": 1
        },
        {
          "duration": 0.36250000000001137,
          "durationTicks": 58,
          "midi": 67,
          "name": "G4",
          "ticks": 37920,
          "time": 237,
          "velocity": 1
        },
        {
          "duration": 0.17500000000001137,
          "durationTicks": 28,
          "midi": 71,
          "name": "B4",
          "ticks": 37980,
          "time": 237.375,
          "velocity": 1
        },
        {
          "duration": 0.17500000000001137,
          "durationTicks": 28,
          "midi": 69,
          "name": "A4",
          "ticks": 38010,
          "time": 237.5625,
          "velocity": 1
        },
        {
          "duration": 0.36250000000001137,
          "durationTicks": 58,
          "midi": 67,
          "name": "G4",
          "ticks": 38040,
          "time": 237.75,
          "velocity": 1
        },
        {
          "duration": 0.36250000000001137,
          "durationTicks": 58,
          "midi": 66,
          "name": "F#4",
          "ticks": 38100,
          "time": 238.125,
          "velocity": 1
        },
        {
          "duration": 0.36250000000001137,
          "durationTicks": 58,
          "midi": 64,
          "name": "E4",
          "ticks": 38160,
          "time": 238.5,
          "velocity": 1
        },
        {
          "duration": 0.17500000000001137,
          "durationTicks": 28,
          "midi": 69,
          "name": "A4",
          "ticks": 38220,
          "time": 238.875,
          "velocity": 1
        },
        {
          "duration": 0.17500000000001137,
          "durationTicks": 28,
          "midi": 67,
          "name": "G4",
          "ticks": 38250,
          "time": 239.0625,
          "velocity": 1
        },
        {
          "duration": 0.36250000000001137,
          "durationTicks": 58,
          "midi": 66,
          "name": "F#4",
          "ticks": 38280,
          "time": 239.25,
          "velocity": 1
        },
        {
          "duration": 0.36250000000001137,
          "durationTicks": 58,
          "midi": 64,
          "name": "E4",
          "ticks": 38340,
          "time": 239.625,
          "velocity": 1
        },
        {
          "duration": 0.36250000000001137,
          "durationTicks": 58,
          "midi": 66,
          "name": "F#4",
          "ticks": 38400,
          "time": 240,
          "velocity": 1
        },
        {
          "duration": 0.17500000000001137,
          "durationTicks": 28,
          "midi": 74,
          "name": "D5",
          "ticks": 38460,
          "time": 240.375,
          "velocity": 1
        },
        {
          "duration": 0.17500000000001137,
          "durationTicks": 28,
          "midi": 73,
          "name": "C#5",
          "ticks": 38490,
          "time": 240.5625,
          "velocity": 1
        },
        {
          "duration": 0.36250000000001137,
          "durationTicks": 58,
          "midi": 74,
          "name": "D5",
          "ticks": 38520,
          "time": 240.75,
          "velocity": 1
        },
        {
          "duration": 0.36250000000001137,
          "durationTicks": 58,
          "midi": 66,
          "name": "F#4",
          "ticks": 38580,
          "time": 241.125,
          "velocity": 1
        },
        {
          "duration": 0.36250000000001137,
          "durationTicks": 58,
          "midi": 69,
          "name": "A4",
          "ticks": 38640,
          "time": 241.5,
          "velocity": 1
        },
        {
          "duration": 0.17500000000001137,
          "durationTicks": 28,
          "midi": 69,
          "name": "A4",
          "ticks": 38700,
          "time": 241.875,
          "velocity": 1
        },
        {
          "duration": 0.17500000000001137,
          "durationTicks": 28,
          "midi": 71,
          "name": "B4",
          "ticks": 38730,
          "time": 242.0625,
          "velocity": 1
        },
        {
          "duration": 0.36250000000001137,
          "durationTicks": 58,
          "midi": 73,
          "name": "C#5",
          "ticks": 38760,
          "time": 242.25,
          "velocity": 1
        },
        {
          "duration": 0.36250000000001137,
          "durationTicks": 58,
          "midi": 69,
          "name": "A4",
          "ticks": 38820,
          "time": 242.625,
          "velocity": 1
        },
        {
          "duration": 0.36250000000001137,
          "durationTicks": 58,
          "midi": 66,
          "name": "F#4",
          "ticks": 38880,
          "time": 243,
          "velocity": 1
        },
        {
          "duration": 0.17500000000001137,
          "durationTicks": 28,
          "midi": 74,
          "name": "D5",
          "ticks": 38940,
          "time": 243.375,
          "velocity": 1
        },
        {
          "duration": 0.17500000000001137,
          "durationTicks": 28,
          "midi": 76,
          "name": "E5",
          "ticks": 38970,
          "time": 243.5625,
          "velocity": 1
        },
        {
          "duration": 0.36250000000001137,
          "durationTicks": 58,
          "midi": 78,
          "name": "F#5",
          "ticks": 39000,
          "time": 243.75,
          "velocity": 1
        },
        {
          "duration": 0.36250000000001137,
          "durationTicks": 58,
          "midi": 74,
          "name": "D5",
          "ticks": 39060,
          "time": 244.125,
          "velocity": 1
        },
        {
          "duration": 0.36250000000001137,
          "durationTicks": 58,
          "midi": 78,
          "name": "F#5",
          "ticks": 39120,
          "time": 244.5,
          "velocity": 1
        },
        {
          "duration": 0.17500000000001137,
          "durationTicks": 28,
          "midi": 78,
          "name": "F#5",
          "ticks": 39180,
          "time": 244.875,
          "velocity": 1
        },
        {
          "duration": 0.17500000000001137,
          "durationTicks": 28,
          "midi": 76,
          "name": "E5",
          "ticks": 39210,
          "time": 245.0625,
          "velocity": 1
        },
        {
          "duration": 0.36250000000001137,
          "durationTicks": 58,
          "midi": 74,
          "name": "D5",
          "ticks": 39240,
          "time": 245.25,
          "velocity": 1
        },
        {
          "duration": 0.36250000000001137,
          "durationTicks": 58,
          "midi": 73,
          "name": "C#5",
          "ticks": 39300,
          "time": 245.625,
          "velocity": 1
        },
        {
          "duration": 0.36250000000001137,
          "durationTicks": 58,
          "midi": 71,
          "name": "B4",
          "ticks": 39360,
          "time": 246,
          "velocity": 1
        },
        {
          "duration": 0.17500000000001137,
          "durationTicks": 28,
          "midi": 71,
          "name": "B4",
          "ticks": 39420,
          "time": 246.375,
          "velocity": 1
        },
        {
          "duration": 0.17500000000001137,
          "durationTicks": 28,
          "midi": 69,
          "name": "A4",
          "ticks": 39450,
          "time": 246.5625,
          "velocity": 1
        },
        {
          "duration": 0.36250000000001137,
          "durationTicks": 58,
          "midi": 71,
          "name": "B4",
          "ticks": 39480,
          "time": 246.75,
          "velocity": 1
        },
        {
          "duration": 0.36250000000001137,
          "durationTicks": 58,
          "midi": 73,
          "name": "C#5",
          "ticks": 39540,
          "time": 247.125,
          "velocity": 1
        },
        {
          "duration": 0.36250000000001137,
          "durationTicks": 58,
          "midi": 74,
          "name": "D5",
          "ticks": 39600,
          "time": 247.5,
          "velocity": 1
        },
        {
          "duration": 0.17500000000001137,
          "durationTicks": 28,
          "midi": 78,
          "name": "F#5",
          "ticks": 39660,
          "time": 247.875,
          "velocity": 1
        },
        {
          "duration": 0.17500000000001137,
          "durationTicks": 28,
          "midi": 76,
          "name": "E5",
          "ticks": 39690,
          "time": 248.0625,
          "velocity": 1
        },
        {
          "duration": 0.36250000000001137,
          "durationTicks": 58,
          "midi": 74,
          "name": "D5",
          "ticks": 39720,
          "time": 248.25,
          "velocity": 1
        },
        {
          "duration": 0.36250000000001137,
          "durationTicks": 58,
          "midi": 78,
          "name": "F#5",
          "ticks": 39780,
          "time": 248.625,
          "velocity": 1
        },
        {
          "duration": 0.36250000000001137,
          "durationTicks": 58,
          "midi": 79,
          "name": "G5",
          "ticks": 39840,
          "time": 249,
          "velocity": 1
        },
        {
          "duration": 0.17500000000001137,
          "durationTicks": 28,
          "midi": 74,
          "name": "D5",
          "ticks": 39900,
          "time": 249.375,
          "velocity": 1
        },
        {
          "duration": 0.17500000000001137,
          "durationTicks": 28,
          "midi": 73,
          "name": "C#5",
          "ticks": 39930,
          "time": 249.5625,
          "velocity": 1
        },
        {
          "duration": 0.36250000000001137,
          "durationTicks": 58,
          "midi": 71,
          "name": "B4",
          "ticks": 39960,
          "time": 249.75,
          "velocity": 1
        },
        {
          "duration": 0.36250000000001137,
          "durationTicks": 58,
          "midi": 71,
          "name": "B4",
          "ticks": 40020,
          "time": 250.125,
          "velocity": 1
        },
        {
          "duration": 0.36250000000001137,
          "durationTicks": 58,
          "midi": 69,
          "name": "A4",
          "ticks": 40080,
          "time": 250.5,
          "velocity": 1
        },
        {
          "duration": 0.36250000000001137,
          "durationTicks": 58,
          "midi": 64,
          "name": "E4",
          "ticks": 40140,
          "time": 250.875,
          "velocity": 1
        },
        {
          "duration": 0.36250000000001137,
          "durationTicks": 58,
          "midi": 69,
          "name": "A4",
          "ticks": 40200,
          "time": 251.25,
          "velocity": 1
        },
        {
          "duration": 0.36250000000001137,
          "durationTicks": 58,
          "midi": 69,
          "name": "A4",
          "ticks": 40260,
          "time": 251.625,
          "velocity": 1
        },
        {
          "duration": 2.2375000000000114,
          "durationTicks": 358,
          "midi": 69,
          "name": "A4",
          "ticks": 40320,
          "time": 252,
          "velocity": 1
        },
        {
          "duration": 0.7375000000000114,
          "durationTicks": 118,
          "midi": 69,
          "name": "A4",
          "ticks": 40680,
          "time": 254.25,
          "velocity": 1
        },
        {
          "duration": 2.2375000000000114,
          "durationTicks": 358,
          "midi": 62,
          "name": "D4",
          "ticks": 40800,
          "time": 255,
          "velocity": 1
        },
        {
          "duration": 0.7375000000000114,
          "durationTicks": 118,
          "midi": 69,
          "name": "A4",
          "ticks": 41160,
          "time": 257.25,
          "velocity": 1
        },
        {
          "duration": 1.4875000000000114,
          "durationTicks": 238,
          "midi": 67,
          "name": "G4",
          "ticks": 41280,
          "time": 258,
          "velocity": 1
        },
        {
          "duration": 1.4875000000000114,
          "durationTicks": 238,
          "midi": 69,
          "name": "A4",
          "ticks": 41520,
          "time": 259.5,
          "velocity": 1
        },
        {
          "duration": 0.7375000000000114,
          "durationTicks": 118,
          "midi": 67,
          "name": "G4",
          "ticks": 41760,
          "time": 261,
          "velocity": 1
        },
        {
          "duration": 0.7375000000000114,
          "durationTicks": 118,
          "midi": 62,
          "name": "D4",
          "ticks": 41880,
          "time": 261.75,
          "velocity": 1
        },
        {
          "duration": 1.1125000000000114,
          "durationTicks": 178,
          "midi": 62,
          "name": "D4",
          "ticks": 42000,
          "time": 262.5,
          "velocity": 1
        },
        {
          "duration": 0.36250000000001137,
          "durationTicks": 58,
          "midi": 61,
          "name": "C#4",
          "ticks": 42180,
          "time": 263.625,
          "velocity": 1
        },
        {
          "duration": 0.7375000000000114,
          "durationTicks": 118,
          "midi": 62,
          "name": "D4",
          "ticks": 42240,
          "time": 264,
          "velocity": 1
        },
        {
          "duration": 0.7375000000000114,
          "durationTicks": 118,
          "midi": 74,
          "name": "D5",
          "ticks": 42360,
          "time": 264.75,
          "velocity": 1
        },
        {
          "duration": 1.4875000000000114,
          "durationTicks": 238,
          "midi": 73,
          "name": "C#5",
          "ticks": 42480,
          "time": 265.5,
          "velocity": 1
        },
        {
          "duration": 1.4875000000000114,
          "durationTicks": 238,
          "midi": 71,
          "name": "B4",
          "ticks": 42720,
          "time": 267,
          "velocity": 1
        },
        {
          "duration": 1.4875000000000114,
          "durationTicks": 238,
          "midi": 69,
          "name": "A4",
          "ticks": 42960,
          "time": 268.5,
          "velocity": 1
        },
        {
          "duration": 1.1125000000000114,
          "durationTicks": 178,
          "midi": 62,
          "name": "D4",
          "ticks": 43200,
          "time": 270,
          "velocity": 1
        },
        {
          "duration": 0.36250000000001137,
          "durationTicks": 58,
          "midi": 64,
          "name": "E4",
          "ticks": 43380,
          "time": 271.125,
          "velocity": 1
        },
        {
          "duration": 1.4875000000000114,
          "durationTicks": 238,
          "midi": 66,
          "name": "F#4",
          "ticks": 43440,
          "time": 271.5,
          "velocity": 1
        },
        {
          "duration": 1.4875000000000114,
          "durationTicks": 238,
          "midi": 71,
          "name": "B4",
          "ticks": 43680,
          "time": 273,
          "velocity": 1
        },
        {
          "duration": 1.4875000000000114,
          "durationTicks": 238,
          "midi": 64,
          "name": "E4",
          "ticks": 43920,
          "time": 274.5,
          "velocity": 1
        },
        {
          "duration": 1.1125000000000114,
          "durationTicks": 178,
          "midi": 66,
          "name": "F#4",
          "ticks": 44160,
          "time": 276,
          "velocity": 1
        },
        {
          "duration": 0.36250000000001137,
          "durationTicks": 58,
          "midi": 78,
          "name": "F#5",
          "ticks": 44340,
          "time": 277.125,
          "velocity": 1
        },
        {
          "duration": 0.36250000000001137,
          "durationTicks": 58,
          "midi": 78,
          "name": "F#5",
          "ticks": 44400,
          "time": 277.5,
          "velocity": 1
        },
        {
          "duration": 0.36250000000001137,
          "durationTicks": 58,
          "midi": 79,
          "name": "G5",
          "ticks": 44460,
          "time": 277.875,
          "velocity": 1
        },
        {
          "duration": 0.36250000000001137,
          "durationTicks": 58,
          "midi": 78,
          "name": "F#5",
          "ticks": 44520,
          "time": 278.25,
          "velocity": 1
        },
        {
          "duration": 0.36250000000001137,
          "durationTicks": 58,
          "midi": 76,
          "name": "E5",
          "ticks": 44580,
          "time": 278.625,
          "velocity": 1
        },
        {
          "duration": 1.1125000000000114,
          "durationTicks": 178,
          "midi": 74,
          "name": "D5",
          "ticks": 44640,
          "time": 279,
          "velocity": 1
        },
        {
          "duration": 0.36250000000001137,
          "durationTicks": 58,
          "midi": 74,
          "name": "D5",
          "ticks": 44820,
          "time": 280.125,
          "velocity": 1
        },
        {
          "duration": 0.36250000000001137,
          "durationTicks": 58,
          "midi": 74,
          "name": "D5",
          "ticks": 44880,
          "time": 280.5,
          "velocity": 1
        },
        {
          "duration": 0.36250000000001137,
          "durationTicks": 58,
          "midi": 76,
          "name": "E5",
          "ticks": 44940,
          "time": 280.875,
          "velocity": 1
        },
        {
          "duration": 0.36250000000001137,
          "durationTicks": 58,
          "midi": 74,
          "name": "D5",
          "ticks": 45000,
          "time": 281.25,
          "velocity": 1
        },
        {
          "duration": 0.36250000000001137,
          "durationTicks": 58,
          "midi": 73,
          "name": "C#5",
          "ticks": 45060,
          "time": 281.625,
          "velocity": 1
        },
        {
          "duration": 1.4875000000000114,
          "durationTicks": 238,
          "midi": 71,
          "name": "B4",
          "ticks": 45120,
          "time": 282,
          "velocity": 1
        },
        {
          "duration": 1.4875000000000114,
          "durationTicks": 238,
          "midi": 74,
          "name": "D5",
          "ticks": 45360,
          "time": 283.5,
          "velocity": 1
        },
        {
          "duration": 0.36250000000001137,
          "durationTicks": 58,
          "midi": 74,
          "name": "D5",
          "ticks": 45600,
          "time": 285,
          "velocity": 1
        },
        {
          "duration": 0.36250000000001137,
          "durationTicks": 58,
          "midi": 72,
          "name": "C5",
          "ticks": 45660,
          "time": 285.375,
          "velocity": 1
        },
        {
          "duration": 0.36250000000001137,
          "durationTicks": 58,
          "midi": 71,
          "name": "B4",
          "ticks": 45720,
          "time": 285.75,
          "velocity": 1
        },
        {
          "duration": 0.36250000000001137,
          "durationTicks": 58,
          "midi": 72,
          "name": "C5",
          "ticks": 45780,
          "time": 286.125,
          "velocity": 1
        },
        {
          "duration": 1.4875000000000114,
          "durationTicks": 238,
          "midi": 69,
          "name": "A4",
          "ticks": 45840,
          "time": 286.5,
          "velocity": 1
        },
        {
          "duration": 1.1125000000000114,
          "durationTicks": 178,
          "midi": 69,
          "name": "A4",
          "ticks": 46080,
          "time": 288,
          "velocity": 1
        },
        {
          "duration": 0.36250000000001137,
          "durationTicks": 58,
          "midi": 81,
          "name": "A5",
          "ticks": 46260,
          "time": 289.125,
          "velocity": 1
        },
        {
          "duration": 0.36250000000001137,
          "durationTicks": 58,
          "midi": 81,
          "name": "A5",
          "ticks": 46320,
          "time": 289.5,
          "velocity": 1
        },
        {
          "duration": 0.36250000000001137,
          "durationTicks": 58,
          "midi": 83,
          "name": "B5",
          "ticks": 46380,
          "time": 289.875,
          "velocity": 1
        },
        {
          "duration": 0.36250000000001137,
          "durationTicks": 58,
          "midi": 81,
          "name": "A5",
          "ticks": 46440,
          "time": 290.25,
          "velocity": 1
        },
        {
          "duration": 0.36250000000001137,
          "durationTicks": 58,
          "midi": 79,
          "name": "G5",
          "ticks": 46500,
          "time": 290.625,
          "velocity": 1
        },
        {
          "duration": 1.1125000000000114,
          "durationTicks": 178,
          "midi": 78,
          "name": "F#5",
          "ticks": 46560,
          "time": 291,
          "velocity": 1
        },
        {
          "duration": 0.36250000000001137,
          "durationTicks": 58,
          "midi": 78,
          "name": "F#5",
          "ticks": 46740,
          "time": 292.125,
          "velocity": 1
        },
        {
          "duration": 0.36250000000001137,
          "durationTicks": 58,
          "midi": 78,
          "name": "F#5",
          "ticks": 46800,
          "time": 292.5,
          "velocity": 1
        },
        {
          "duration": 0.36250000000001137,
          "durationTicks": 58,
          "midi": 79,
          "name": "G5",
          "ticks": 46860,
          "time": 292.875,
          "velocity": 1
        },
        {
          "duration": 0.36250000000001137,
          "durationTicks": 58,
          "midi": 78,
          "name": "F#5",
          "ticks": 46920,
          "time": 293.25,
          "velocity": 1
        },
        {
          "duration": 0.36250000000001137,
          "durationTicks": 58,
          "midi": 76,
          "name": "E5",
          "ticks": 46980,
          "time": 293.625,
          "velocity": 1
        },
        {
          "duration": 0.36250000000001137,
          "durationTicks": 58,
          "midi": 74,
          "name": "D5",
          "ticks": 47040,
          "time": 294,
          "velocity": 1
        },
        {
          "duration": 0.36250000000001137,
          "durationTicks": 58,
          "midi": 72,
          "name": "C5",
          "ticks": 47100,
          "time": 294.375,
          "velocity": 1
        },
        {
          "duration": 0.36250000000001137,
          "durationTicks": 58,
          "midi": 71,
          "name": "B4",
          "ticks": 47160,
          "time": 294.75,
          "velocity": 1
        },
        {
          "duration": 0.36250000000001137,
          "durationTicks": 58,
          "midi": 72,
          "name": "C5",
          "ticks": 47220,
          "time": 295.125,
          "velocity": 1
        },
        {
          "duration": 1.1125000000000114,
          "durationTicks": 178,
          "midi": 69,
          "name": "A4",
          "ticks": 47280,
          "time": 295.5,
          "velocity": 1
        },
        {
          "duration": 0.36250000000001137,
          "durationTicks": 58,
          "midi": 69,
          "name": "A4",
          "ticks": 47460,
          "time": 296.625,
          "velocity": 1
        },
        {
          "duration": 0.7375000000000114,
          "durationTicks": 118,
          "midi": 67,
          "name": "G4",
          "ticks": 47520,
          "time": 297,
          "velocity": 1
        },
        {
          "duration": 0.7375000000000114,
          "durationTicks": 118,
          "midi": 74,
          "name": "D5",
          "ticks": 47640,
          "time": 297.75,
          "velocity": 1
        },
        {
          "duration": 1.1125000000000114,
          "durationTicks": 178,
          "midi": 73,
          "name": "C#5",
          "ticks": 47760,
          "time": 298.5,
          "velocity": 1
        },
        {
          "duration": 0.36250000000001137,
          "durationTicks": 58,
          "midi": 73,
          "name": "C#5",
          "ticks": 47940,
          "time": 299.625,
          "velocity": 1
        },
        {
          "duration": 0.7375000000000114,
          "durationTicks": 118,
          "midi": 74,
          "name": "D5",
          "ticks": 48000,
          "time": 300,
          "velocity": 1
        },
        {
          "duration": 1.4875000000000114,
          "durationTicks": 238,
          "midi": 74,
          "name": "D5",
          "ticks": 48120,
          "time": 300.75,
          "velocity": 1
        },
        {
          "duration": 1.4875000000000114,
          "durationTicks": 238,
          "midi": 73,
          "name": "C#5",
          "ticks": 48360,
          "time": 302.25,
          "velocity": 1
        },
        {
          "duration": 1.4875000000000114,
          "durationTicks": 238,
          "midi": 71,
          "name": "B4",
          "ticks": 48600,
          "time": 303.75,
          "velocity": 1
        },
        {
          "duration": 1.4875000000000114,
          "durationTicks": 238,
          "midi": 69,
          "name": "A4",
          "ticks": 48840,
          "time": 305.25,
          "velocity": 1
        },
        {
          "duration": 1.4875000000000114,
          "durationTicks": 238,
          "midi": 67,
          "name": "G4",
          "ticks": 49080,
          "time": 306.75,
          "velocity": 1
        },
        {
          "duration": 1.8625000000000114,
          "durationTicks": 298,
          "midi": 66,
          "name": "F#4",
          "ticks": 49320,
          "time": 308.25,
          "velocity": 1
        },
        {
          "duration": 0.36250000000001137,
          "durationTicks": 58,
          "midi": 64,
          "name": "E4",
          "ticks": 49620,
          "time": 310.125,
          "velocity": 1
        },
        {
          "duration": 1.4875000000000114,
          "durationTicks": 238,
          "midi": 64,
          "name": "E4",
          "ticks": 49680,
          "time": 310.5,
          "velocity": 1
        },
        {
          "duration": 0.7375000000000114,
          "durationTicks": 118,
          "midi": 66,
          "name": "F#4",
          "ticks": 49920,
          "time": 312,
          "velocity": 1
        },
        {
          "duration": 1.4875000000000114,
          "durationTicks": 238,
          "midi": 78,
          "name": "F#5",
          "ticks": 50040,
          "time": 312.75,
          "velocity": 1
        },
        {
          "duration": 0.7375000000000114,
          "durationTicks": 118,
          "midi": 76,
          "name": "E5",
          "ticks": 50280,
          "time": 314.25,
          "velocity": 1
        },
        {
          "duration": 0.7375000000000114,
          "durationTicks": 118,
          "midi": 74,
          "name": "D5",
          "ticks": 50400,
          "time": 315,
          "velocity": 1
        },
        {
          "duration": 1.4875000000000114,
          "durationTicks": 238,
          "midi": 86,
          "name": "D6",
          "ticks": 50520,
          "time": 315.75,
          "velocity": 1
        },
        {
          "duration": 0.7375000000000114,
          "durationTicks": 118,
          "midi": 84,
          "name": "C6",
          "ticks": 50760,
          "time": 317.25,
          "velocity": 1
        },
        {
          "duration": 1.4875000000000114,
          "durationTicks": 238,
          "midi": 83,
          "name": "B5",
          "ticks": 50880,
          "time": 318,
          "velocity": 1
        },
        {
          "duration": 0.7375000000000114,
          "durationTicks": 118,
          "midi": 86,
          "name": "D6",
          "ticks": 51120,
          "time": 319.5,
          "velocity": 1
        },
        {
          "duration": 0.7375000000000114,
          "durationTicks": 118,
          "midi": 81,
          "name": "A5",
          "ticks": 51240,
          "time": 320.25,
          "velocity": 1
        },
        {
          "duration": 1.4875000000000114,
          "durationTicks": 238,
          "midi": 83,
          "name": "B5",
          "ticks": 51360,
          "time": 321,
          "velocity": 1
        },
        {
          "duration": 1.4875000000000114,
          "durationTicks": 238,
          "midi": 81,
          "name": "A5",
          "ticks": 51600,
          "time": 322.5,
          "velocity": 1
        },
        {
          "duration": 1.4875000000000114,
          "durationTicks": 238,
          "midi": 81,
          "name": "A5",
          "ticks": 51840,
          "time": 324,
          "velocity": 1
        },
        {
          "duration": 1.1125000000000114,
          "durationTicks": 178,
          "midi": 69,
          "name": "A4",
          "ticks": 52080,
          "time": 325.5,
          "velocity": 1
        },
        {
          "duration": 0.36250000000001137,
          "durationTicks": 58,
          "midi": 67,
          "name": "G4",
          "ticks": 52260,
          "time": 326.625,
          "velocity": 1
        },
        {
          "duration": 1.4875000000000114,
          "durationTicks": 238,
          "midi": 66,
          "name": "F#4",
          "ticks": 52320,
          "time": 327,
          "velocity": 1
        },
        {
          "duration": 1.1125000000000114,
          "durationTicks": 178,
          "midi": 78,
          "name": "F#5",
          "ticks": 52560,
          "time": 328.5,
          "velocity": 1
        },
        {
          "duration": 0.36250000000001137,
          "durationTicks": 58,
          "midi": 76,
          "name": "E5",
          "ticks": 52740,
          "time": 329.625,
          "velocity": 1
        },
        {
          "duration": 2.2375000000000114,
          "durationTicks": 358,
          "midi": 74,
          "name": "D5",
          "ticks": 52800,
          "time": 330,
          "velocity": 1
        },
        {
          "duration": 0.7375000000000114,
          "durationTicks": 118,
          "midi": 74,
          "name": "D5",
          "ticks": 53160,
          "time": 332.25,
          "velocity": 1
        },
        {
          "duration": 1.4875000000000114,
          "durationTicks": 238,
          "midi": 74,
          "name": "D5",
          "ticks": 53280,
          "time": 333,
          "velocity": 1
        },
        {
          "duration": 1.4875000000000114,
          "durationTicks": 238,
          "midi": 73,
          "name": "C#5",
          "ticks": 53520,
          "time": 334.5,
          "velocity": 1
        },
        {
          "duration": 1.4875000000000114,
          "durationTicks": 238,
          "midi": 74,
          "name": "D5",
          "ticks": 53760,
          "time": 336,
          "velocity": 1
        },
        {
          "duration": 0.37187499999998863,
          "durationTicks": 238,
          "midi": 74,
          "name": "D5",
          "ticks": 54720,
          "time": 342,
          "velocity": 1
        },
        {
          "duration": 0.18437499999998863,
          "durationTicks": 118,
          "midi": 73,
          "name": "C#5",
          "ticks": 54960,
          "time": 342.375,
          "velocity": 1
        },
        {
          "duration": 0.18437499999998863,
          "durationTicks": 118,
          "midi": 71,
          "name": "B4",
          "ticks": 55080,
          "time": 342.5625,
          "velocity": 1
        },
        {
          "duration": 0.18437499999998863,
          "durationTicks": 118,
          "midi": 73,
          "name": "C#5",
          "ticks": 55200,
          "time": 342.75,
          "velocity": 1
        },
        {
          "duration": 0.18437499999998863,
          "durationTicks": 118,
          "midi": 69,
          "name": "A4",
          "ticks": 55320,
          "time": 342.9375,
          "velocity": 1
        },
        {
          "duration": 0.18437499999998863,
          "durationTicks": 118,
          "midi": 67,
          "name": "G4",
          "ticks": 55440,
          "time": 343.125,
          "velocity": 1
        },
        {
          "duration": 0.18437499999998863,
          "durationTicks": 118,
          "midi": 69,
          "name": "A4",
          "ticks": 55560,
          "time": 343.3125,
          "velocity": 1
        },
        {
          "duration": 0.18437499999998863,
          "durationTicks": 118,
          "midi": 66,
          "name": "F#4",
          "ticks": 55680,
          "time": 343.5,
          "velocity": 1
        },
        {
          "duration": 0.18437499999998863,
          "durationTicks": 118,
          "midi": 64,
          "name": "E4",
          "ticks": 55800,
          "time": 343.6875,
          "velocity": 1
        },
        {
          "duration": 0.18437499999998863,
          "durationTicks": 118,
          "midi": 66,
          "name": "F#4",
          "ticks": 55920,
          "time": 343.875,
          "velocity": 1
        },
        {
          "duration": 0.18437499999998863,
          "durationTicks": 118,
          "midi": 62,
          "name": "D4",
          "ticks": 56040,
          "time": 344.0625,
          "velocity": 1
        },
        {
          "duration": 0.5593749999999886,
          "durationTicks": 358,
          "midi": 61,
          "name": "C#4",
          "ticks": 56160,
          "time": 344.25,
          "velocity": 1
        },
        {
          "duration": 0.18437499999998863,
          "durationTicks": 118,
          "midi": 62,
          "name": "D4",
          "ticks": 56520,
          "time": 344.8125,
          "velocity": 1
        },
        {
          "duration": 0.18437499999998863,
          "durationTicks": 118,
          "midi": 74,
          "name": "D5",
          "ticks": 56640,
          "time": 345,
          "velocity": 1
        },
        {
          "duration": 0.18437499999998863,
          "durationTicks": 118,
          "midi": 73,
          "name": "C#5",
          "ticks": 56760,
          "time": 345.1875,
          "velocity": 1
        },
        {
          "duration": 0.18437499999998863,
          "durationTicks": 118,
          "midi": 71,
          "name": "B4",
          "ticks": 56880,
          "time": 345.375,
          "velocity": 1
        },
        {
          "duration": 0.18437499999998863,
          "durationTicks": 118,
          "midi": 73,
          "name": "C#5",
          "ticks": 57000,
          "time": 345.5625,
          "velocity": 1
        },
        {
          "duration": 0.18437499999998863,
          "durationTicks": 118,
          "midi": 69,
          "name": "A4",
          "ticks": 57120,
          "time": 345.75,
          "velocity": 1
        },
        {
          "duration": 0.18437499999998863,
          "durationTicks": 118,
          "midi": 67,
          "name": "G4",
          "ticks": 57240,
          "time": 345.9375,
          "velocity": 1
        },
        {
          "duration": 0.18437499999998863,
          "durationTicks": 118,
          "midi": 69,
          "name": "A4",
          "ticks": 57360,
          "time": 346.125,
          "velocity": 1
        },
        {
          "duration": 0.18437499999998863,
          "durationTicks": 118,
          "midi": 66,
          "name": "F#4",
          "ticks": 57480,
          "time": 346.3125,
          "velocity": 1
        },
        {
          "duration": 0.18437499999998863,
          "durationTicks": 118,
          "midi": 64,
          "name": "E4",
          "ticks": 57600,
          "time": 346.5,
          "velocity": 1
        },
        {
          "duration": 0.18437499999998863,
          "durationTicks": 118,
          "midi": 66,
          "name": "F#4",
          "ticks": 57720,
          "time": 346.6875,
          "velocity": 1
        },
        {
          "duration": 0.18437499999998863,
          "durationTicks": 118,
          "midi": 62,
          "name": "D4",
          "ticks": 57840,
          "time": 346.875,
          "velocity": 1
        },
        {
          "duration": 0.5593749999999886,
          "durationTicks": 358,
          "midi": 61,
          "name": "C#4",
          "ticks": 57960,
          "time": 347.0625,
          "velocity": 1
        },
        {
          "duration": 0.18437499999998863,
          "durationTicks": 118,
          "midi": 62,
          "name": "D4",
          "ticks": 58320,
          "time": 347.625,
          "velocity": 1
        },
        {
          "duration": 0.18437499999998863,
          "durationTicks": 118,
          "midi": 64,
          "name": "E4",
          "ticks": 58440,
          "time": 347.8125,
          "velocity": 1
        },
        {
          "duration": 0.18437499999998863,
          "durationTicks": 118,
          "midi": 66,
          "name": "F#4",
          "ticks": 58560,
          "time": 348,
          "velocity": 1
        },
        {
          "duration": 0.37187499999998863,
          "durationTicks": 238,
          "midi": 67,
          "name": "G4",
          "ticks": 58680,
          "time": 348.1875,
          "velocity": 1
        },
        {
          "duration": 0.18437499999998863,
          "durationTicks": 118,
          "midi": 69,
          "name": "A4",
          "ticks": 58920,
          "time": 348.5625,
          "velocity": 1
        },
        {
          "duration": 0.37187499999998863,
          "durationTicks": 238,
          "midi": 71,
          "name": "B4",
          "ticks": 59040,
          "time": 348.75,
          "velocity": 1
        },
        {
          "duration": 0.18437499999998863,
          "durationTicks": 118,
          "midi": 69,
          "name": "A4",
          "ticks": 59280,
          "time": 349.125,
          "velocity": 1
        },
        {
          "duration": 0.5593749999999886,
          "durationTicks": 358,
          "midi": 68,
          "name": "G#4",
          "ticks": 59400,
          "time": 349.3125,
          "velocity": 1
        },
        {
          "duration": 0.37187499999998863,
          "durationTicks": 238,
          "midi": 69,
          "name": "A4",
          "ticks": 59760,
          "time": 349.875,
          "velocity": 1
        },
        {
          "duration": 0.18437499999998863,
          "durationTicks": 118,
          "midi": 67,
          "name": "G4",
          "ticks": 60000,
          "time": 350.25,
          "velocity": 1
        },
        {
          "duration": 0.18437499999998863,
          "durationTicks": 118,
          "midi": 66,
          "name": "F#4",
          "ticks": 60120,
          "time": 350.4375,
          "velocity": 1
        },
        {
          "duration": 0.18437499999998863,
          "durationTicks": 118,
          "midi": 67,
          "name": "G4",
          "ticks": 60240,
          "time": 350.625,
          "velocity": 1
        },
        {
          "duration": 0.18437499999998863,
          "durationTicks": 118,
          "midi": 64,
          "name": "E4",
          "ticks": 60360,
          "time": 350.8125,
          "velocity": 1
        },
        {
          "duration": 0.18437499999998863,
          "durationTicks": 118,
          "midi": 62,
          "name": "D4",
          "ticks": 60480,
          "time": 351,
          "velocity": 1
        },
        {
          "duration": 0.18437499999998863,
          "durationTicks": 118,
          "midi": 64,
          "name": "E4",
          "ticks": 60600,
          "time": 351.1875,
          "velocity": 1
        },
        {
          "duration": 0.18437499999998863,
          "durationTicks": 118,
          "midi": 61,
          "name": "C#4",
          "ticks": 60720,
          "time": 351.375,
          "velocity": 1
        },
        {
          "duration": 0.18437499999998863,
          "durationTicks": 118,
          "midi": 59,
          "name": "B3",
          "ticks": 60840,
          "time": 351.5625,
          "velocity": 1
        },
        {
          "duration": 0.18437499999998863,
          "durationTicks": 118,
          "midi": 61,
          "name": "C#4",
          "ticks": 60960,
          "time": 351.75,
          "velocity": 1
        },
        {
          "duration": 0.18437499999998863,
          "durationTicks": 118,
          "midi": 57,
          "name": "A3",
          "ticks": 61080,
          "time": 351.9375,
          "velocity": 1
        },
        {
          "duration": 0.5593749999999886,
          "durationTicks": 358,
          "midi": 56,
          "name": "G#3",
          "ticks": 61200,
          "time": 352.125,
          "velocity": 1
        },
        {
          "duration": 0.37187499999998863,
          "durationTicks": 238,
          "midi": 57,
          "name": "A3",
          "ticks": 61560,
          "time": 352.6875,
          "velocity": 1
        },
        {
          "duration": 0.18437499999998863,
          "durationTicks": 118,
          "midi": 59,
          "name": "B3",
          "ticks": 61800,
          "time": 353.0625,
          "velocity": 1
        },
        {
          "duration": 0.5593749999999886,
          "durationTicks": 358,
          "midi": 61,
          "name": "C#4",
          "ticks": 61920,
          "time": 353.25,
          "velocity": 1
        },
        {
          "duration": 0.18437499999998863,
          "durationTicks": 118,
          "midi": 62,
          "name": "D4",
          "ticks": 62280,
          "time": 353.8125,
          "velocity": 1
        },
        {
          "duration": 0.18437499999998863,
          "durationTicks": 118,
          "midi": 64,
          "name": "E4",
          "ticks": 62400,
          "time": 354,
          "velocity": 1
        },
        {
          "duration": 0.18437499999998863,
          "durationTicks": 118,
          "midi": 61,
          "name": "C#4",
          "ticks": 62520,
          "time": 354.1875,
          "velocity": 1
        },
        {
          "duration": 0.18437499999998863,
          "durationTicks": 118,
          "midi": 59,
          "name": "B3",
          "ticks": 62640,
          "time": 354.375,
          "velocity": 1
        },
        {
          "duration": 0.18437499999998863,
          "durationTicks": 118,
          "midi": 61,
          "name": "C#4",
          "ticks": 62760,
          "time": 354.5625,
          "velocity": 1
        },
        {
          "duration": 0.18437499999998863,
          "durationTicks": 118,
          "midi": 62,
          "name": "D4",
          "ticks": 62880,
          "time": 354.75,
          "velocity": 1
        },
        {
          "duration": 0.5593749999999886,
          "durationTicks": 358,
          "midi": 59,
          "name": "B3",
          "ticks": 63000,
          "time": 354.9375,
          "velocity": 1
        },
        {
          "duration": 0.5593749999999886,
          "durationTicks": 358,
          "midi": 57,
          "name": "A3",
          "ticks": 63360,
          "time": 355.5,
          "velocity": 1
        },
        {
          "duration": 0.37187499999998863,
          "durationTicks": 238,
          "midi": 69,
          "name": "A4",
          "ticks": 63720,
          "time": 356.0625,
          "velocity": 1
        },
        {
          "duration": 0.18437499999998863,
          "durationTicks": 118,
          "midi": 67,
          "name": "G4",
          "ticks": 63960,
          "time": 356.4375,
          "velocity": 1
        },
        {
          "duration": 0.37187499999998863,
          "durationTicks": 238,
          "midi": 66,
          "name": "F#4",
          "ticks": 64080,
          "time": 356.625,
          "velocity": 1
        },
        {
          "duration": 0.18437499999998863,
          "durationTicks": 118,
          "midi": 64,
          "name": "E4",
          "ticks": 64320,
          "time": 357,
          "velocity": 1
        },
        {
          "duration": 0.5593749999999886,
          "durationTicks": 358,
          "midi": 66,
          "name": "F#4",
          "ticks": 64440,
          "time": 357.1875,
          "velocity": 1
        },
        {
          "duration": 0.37187499999998863,
          "durationTicks": 238,
          "midi": 59,
          "name": "B3",
          "ticks": 64800,
          "time": 357.75,
          "velocity": 1
        },
        {
          "duration": 0.18437499999998863,
          "durationTicks": 118,
          "midi": 64,
          "name": "E4",
          "ticks": 65040,
          "time": 358.125,
          "velocity": 1
        },
        {
          "duration": 0.5593749999999886,
          "durationTicks": 358,
          "midi": 64,
          "name": "E4",
          "ticks": 65160,
          "time": 358.3125,
          "velocity": 1
        },
        {
          "duration": 0.18437499999998863,
          "durationTicks": 118,
          "midi": 64,
          "name": "E4",
          "ticks": 65520,
          "time": 358.875,
          "velocity": 1
        },
        {
          "duration": 0.18437499999998863,
          "durationTicks": 118,
          "midi": 59,
          "name": "B3",
          "ticks": 65640,
          "time": 359.0625,
          "velocity": 1
        },
        {
          "duration": 0.18437499999998863,
          "durationTicks": 118,
          "midi": 64,
          "name": "E4",
          "ticks": 65760,
          "time": 359.25,
          "velocity": 1
        },
        {
          "duration": 0.5593749999999886,
          "durationTicks": 358,
          "midi": 64,
          "name": "E4",
          "ticks": 65880,
          "time": 359.4375,
          "velocity": 1
        },
        {
          "duration": 0.18437499999998863,
          "durationTicks": 118,
          "midi": 64,
          "name": "E4",
          "ticks": 66240,
          "time": 360,
          "velocity": 1
        },
        {
          "duration": 0.18437499999998863,
          "durationTicks": 118,
          "midi": 59,
          "name": "B3",
          "ticks": 66360,
          "time": 360.1875,
          "velocity": 1
        },
        {
          "duration": 0.18437499999998863,
          "durationTicks": 118,
          "midi": 64,
          "name": "E4",
          "ticks": 66480,
          "time": 360.375,
          "velocity": 1
        },
        {
          "duration": 0.5593749999999886,
          "durationTicks": 358,
          "midi": 64,
          "name": "E4",
          "ticks": 66600,
          "time": 360.5625,
          "velocity": 1
        },
        {
          "duration": 0.5593749999999886,
          "durationTicks": 358,
          "midi": 64,
          "name": "E4",
          "ticks": 66960,
          "time": 361.125,
          "velocity": 1
        },
        {
          "duration": 0.5593749999999886,
          "durationTicks": 358,
          "midi": 64,
          "name": "E4",
          "ticks": 67320,
          "time": 361.6875,
          "velocity": 1
        },
        {
          "duration": 0.37187499999998863,
          "durationTicks": 238,
          "midi": 64,
          "name": "E4",
          "ticks": 67680,
          "time": 362.25,
          "velocity": 1
        },
        {
          "duration": 0.18437499999998863,
          "durationTicks": 118,
          "midi": 66,
          "name": "F#4",
          "ticks": 67920,
          "time": 362.625,
          "velocity": 1
        },
        {
          "duration": 0.37187499999998863,
          "durationTicks": 238,
          "midi": 64,
          "name": "E4",
          "ticks": 68040,
          "time": 362.8125,
          "velocity": 1
        },
        {
          "duration": 0.18437499999998863,
          "durationTicks": 118,
          "midi": 62,
          "name": "D4",
          "ticks": 68280,
          "time": 363.1875,
          "velocity": 1
        },
        {
          "duration": 1.1218749999999886,
          "durationTicks": 718,
          "midi": 64,
          "name": "E4",
          "ticks": 68400,
          "time": 363.375,
          "velocity": 1
        },
        {
          "duration": 0.37187499999998863,
          "durationTicks": 238,
          "midi": 74,
          "name": "D5",
          "ticks": 69120,
          "time": 364.5,
          "velocity": 1
        },
        {
          "duration": 0.18437499999998863,
          "durationTicks": 118,
          "midi": 73,
          "name": "C#5",
          "ticks": 69360,
          "time": 364.875,
          "velocity": 1
        },
        {
          "duration": 0.18437499999998863,
          "durationTicks": 118,
          "midi": 71,
          "name": "B4",
          "ticks": 69480,
          "time": 365.0625,
          "velocity": 1
        },
        {
          "duration": 0.18437499999998863,
          "durationTicks": 118,
          "midi": 73,
          "name": "C#5",
          "ticks": 69600,
          "time": 365.25,
          "velocity": 1
        },
        {
          "duration": 0.18437499999998863,
          "durationTicks": 118,
          "midi": 69,
          "name": "A4",
          "ticks": 69720,
          "time": 365.4375,
          "velocity": 1
        },
        {
          "duration": 0.18437499999998863,
          "durationTicks": 118,
          "midi": 67,
          "name": "G4",
          "ticks": 69840,
          "time": 365.625,
          "velocity": 1
        },
        {
          "duration": 0.18437499999998863,
          "durationTicks": 118,
          "midi": 69,
          "name": "A4",
          "ticks": 69960,
          "time": 365.8125,
          "velocity": 1
        },
        {
          "duration": 0.18437499999998863,
          "durationTicks": 118,
          "midi": 66,
          "name": "F#4",
          "ticks": 70080,
          "time": 366,
          "velocity": 1
        },
        {
          "duration": 0.18437499999998863,
          "durationTicks": 118,
          "midi": 64,
          "name": "E4",
          "ticks": 70200,
          "time": 366.1875,
          "velocity": 1
        },
        {
          "duration": 0.18437499999998863,
          "durationTicks": 118,
          "midi": 66,
          "name": "F#4",
          "ticks": 70320,
          "time": 366.375,
          "velocity": 1
        },
        {
          "duration": 0.18437499999998863,
          "durationTicks": 118,
          "midi": 62,
          "name": "D4",
          "ticks": 70440,
          "time": 366.5625,
          "velocity": 1
        },
        {
          "duration": 0.5593749999999886,
          "durationTicks": 358,
          "midi": 61,
          "name": "C#4",
          "ticks": 70560,
          "time": 366.75,
          "velocity": 1
        },
        {
          "duration": 0.18437499999998863,
          "durationTicks": 118,
          "midi": 62,
          "name": "D4",
          "ticks": 70920,
          "time": 367.3125,
          "velocity": 1
        },
        {
          "duration": 0.18437499999998863,
          "durationTicks": 118,
          "midi": 74,
          "name": "D5",
          "ticks": 71040,
          "time": 367.5,
          "velocity": 1
        },
        {
          "duration": 0.18437499999998863,
          "durationTicks": 118,
          "midi": 73,
          "name": "C#5",
          "ticks": 71160,
          "time": 367.6875,
          "velocity": 1
        },
        {
          "duration": 0.18437499999998863,
          "durationTicks": 118,
          "midi": 71,
          "name": "B4",
          "ticks": 71280,
          "time": 367.875,
          "velocity": 1
        },
        {
          "duration": 0.18437499999998863,
          "durationTicks": 118,
          "midi": 73,
          "name": "C#5",
          "ticks": 71400,
          "time": 368.0625,
          "velocity": 1
        },
        {
          "duration": 0.18437499999998863,
          "durationTicks": 118,
          "midi": 69,
          "name": "A4",
          "ticks": 71520,
          "time": 368.25,
          "velocity": 1
        },
        {
          "duration": 0.18437499999998863,
          "durationTicks": 118,
          "midi": 67,
          "name": "G4",
          "ticks": 71640,
          "time": 368.4375,
          "velocity": 1
        },
        {
          "duration": 0.18437499999998863,
          "durationTicks": 118,
          "midi": 69,
          "name": "A4",
          "ticks": 71760,
          "time": 368.625,
          "velocity": 1
        },
        {
          "duration": 0.18437499999998863,
          "durationTicks": 118,
          "midi": 66,
          "name": "F#4",
          "ticks": 71880,
          "time": 368.8125,
          "velocity": 1
        },
        {
          "duration": 0.18437499999998863,
          "durationTicks": 118,
          "midi": 64,
          "name": "E4",
          "ticks": 72000,
          "time": 369,
          "velocity": 1
        },
        {
          "duration": 0.18437499999998863,
          "durationTicks": 118,
          "midi": 66,
          "name": "F#4",
          "ticks": 72120,
          "time": 369.1875,
          "velocity": 1
        },
        {
          "duration": 0.18437499999998863,
          "durationTicks": 118,
          "midi": 62,
          "name": "D4",
          "ticks": 72240,
          "time": 369.375,
          "velocity": 1
        },
        {
          "duration": 0.5593749999999886,
          "durationTicks": 358,
          "midi": 61,
          "name": "C#4",
          "ticks": 72360,
          "time": 369.5625,
          "velocity": 1
        },
        {
          "duration": 0.18437499999998863,
          "durationTicks": 118,
          "midi": 62,
          "name": "D4",
          "ticks": 72720,
          "time": 370.125,
          "velocity": 1
        },
        {
          "duration": 0.18437499999998863,
          "durationTicks": 118,
          "midi": 64,
          "name": "E4",
          "ticks": 72840,
          "time": 370.3125,
          "velocity": 1
        },
        {
          "duration": 0.18437499999998863,
          "durationTicks": 118,
          "midi": 66,
          "name": "F#4",
          "ticks": 72960,
          "time": 370.5,
          "velocity": 1
        },
        {
          "duration": 0.37187499999998863,
          "durationTicks": 238,
          "midi": 67,
          "name": "G4",
          "ticks": 73080,
          "time": 370.6875,
          "velocity": 1
        },
        {
          "duration": 0.18437499999998863,
          "durationTicks": 118,
          "midi": 69,
          "name": "A4",
          "ticks": 73320,
          "time": 371.0625,
          "velocity": 1
        },
        {
          "duration": 0.37187499999998863,
          "durationTicks": 238,
          "midi": 71,
          "name": "B4",
          "ticks": 73440,
          "time": 371.25,
          "velocity": 1
        },
        {
          "duration": 0.18437499999998863,
          "durationTicks": 118,
          "midi": 69,
          "name": "A4",
          "ticks": 73680,
          "time": 371.625,
          "velocity": 1
        },
        {
          "duration": 0.5593749999999886,
          "durationTicks": 358,
          "midi": 68,
          "name": "G#4",
          "ticks": 73800,
          "time": 371.8125,
          "velocity": 1
        },
        {
          "duration": 0.37187499999998863,
          "durationTicks": 238,
          "midi": 69,
          "name": "A4",
          "ticks": 74160,
          "time": 372.375,
          "velocity": 1
        },
        {
          "duration": 0.18437499999998863,
          "durationTicks": 118,
          "midi": 67,
          "name": "G4",
          "ticks": 74400,
          "time": 372.75,
          "velocity": 1
        },
        {
          "duration": 0.18437499999998863,
          "durationTicks": 118,
          "midi": 66,
          "name": "F#4",
          "ticks": 74520,
          "time": 372.9375,
          "velocity": 1
        },
        {
          "duration": 0.18437499999998863,
          "durationTicks": 118,
          "midi": 67,
          "name": "G4",
          "ticks": 74640,
          "time": 373.125,
          "velocity": 1
        },
        {
          "duration": 0.18437499999998863,
          "durationTicks": 118,
          "midi": 64,
          "name": "E4",
          "ticks": 74760,
          "time": 373.3125,
          "velocity": 1
        },
        {
          "duration": 0.18437499999998863,
          "durationTicks": 118,
          "midi": 62,
          "name": "D4",
          "ticks": 74880,
          "time": 373.5,
          "velocity": 1
        },
        {
          "duration": 0.18437499999998863,
          "durationTicks": 118,
          "midi": 64,
          "name": "E4",
          "ticks": 75000,
          "time": 373.6875,
          "velocity": 1
        },
        {
          "duration": 0.18437499999998863,
          "durationTicks": 118,
          "midi": 61,
          "name": "C#4",
          "ticks": 75120,
          "time": 373.875,
          "velocity": 1
        },
        {
          "duration": 0.18437499999998863,
          "durationTicks": 118,
          "midi": 59,
          "name": "B3",
          "ticks": 75240,
          "time": 374.0625,
          "velocity": 1
        },
        {
          "duration": 0.18437499999998863,
          "durationTicks": 118,
          "midi": 61,
          "name": "C#4",
          "ticks": 75360,
          "time": 374.25,
          "velocity": 1
        },
        {
          "duration": 0.18437499999998863,
          "durationTicks": 118,
          "midi": 57,
          "name": "A3",
          "ticks": 75480,
          "time": 374.4375,
          "velocity": 1
        },
        {
          "duration": 0.5593749999999886,
          "durationTicks": 358,
          "midi": 56,
          "name": "G#3",
          "ticks": 75600,
          "time": 374.625,
          "velocity": 1
        },
        {
          "duration": 0.37187499999998863,
          "durationTicks": 238,
          "midi": 57,
          "name": "A3",
          "ticks": 75960,
          "time": 375.1875,
          "velocity": 1
        },
        {
          "duration": 0.18437499999998863,
          "durationTicks": 118,
          "midi": 59,
          "name": "B3",
          "ticks": 76200,
          "time": 375.5625,
          "velocity": 1
        },
        {
          "duration": 0.5593749999999886,
          "durationTicks": 358,
          "midi": 61,
          "name": "C#4",
          "ticks": 76320,
          "time": 375.75,
          "velocity": 1
        },
        {
          "duration": 0.18437499999998863,
          "durationTicks": 118,
          "midi": 62,
          "name": "D4",
          "ticks": 76680,
          "time": 376.3125,
          "velocity": 1
        },
        {
          "duration": 0.18437499999998863,
          "durationTicks": 118,
          "midi": 64,
          "name": "E4",
          "ticks": 76800,
          "time": 376.5,
          "velocity": 1
        },
        {
          "duration": 0.18437499999998863,
          "durationTicks": 118,
          "midi": 61,
          "name": "C#4",
          "ticks": 76920,
          "time": 376.6875,
          "velocity": 1
        },
        {
          "duration": 0.18437499999998863,
          "durationTicks": 118,
          "midi": 59,
          "name": "B3",
          "ticks": 77040,
          "time": 376.875,
          "velocity": 1
        },
        {
          "duration": 0.18437499999998863,
          "durationTicks": 118,
          "midi": 61,
          "name": "C#4",
          "ticks": 77160,
          "time": 377.0625,
          "velocity": 1
        },
        {
          "duration": 0.18437499999998863,
          "durationTicks": 118,
          "midi": 62,
          "name": "D4",
          "ticks": 77280,
          "time": 377.25,
          "velocity": 1
        },
        {
          "duration": 0.5593749999999886,
          "durationTicks": 358,
          "midi": 59,
          "name": "B3",
          "ticks": 77400,
          "time": 377.4375,
          "velocity": 1
        },
        {
          "duration": 0.5593749999999886,
          "durationTicks": 358,
          "midi": 57,
          "name": "A3",
          "ticks": 77760,
          "time": 378,
          "velocity": 1
        },
        {
          "duration": 0.37187499999998863,
          "durationTicks": 238,
          "midi": 69,
          "name": "A4",
          "ticks": 78120,
          "time": 378.5625,
          "velocity": 1
        },
        {
          "duration": 0.18437499999998863,
          "durationTicks": 118,
          "midi": 67,
          "name": "G4",
          "ticks": 78360,
          "time": 378.9375,
          "velocity": 1
        },
        {
          "duration": 0.37187499999998863,
          "durationTicks": 238,
          "midi": 66,
          "name": "F#4",
          "ticks": 78480,
          "time": 379.125,
          "velocity": 1
        },
        {
          "duration": 0.18437499999998863,
          "durationTicks": 118,
          "midi": 64,
          "name": "E4",
          "ticks": 78720,
          "time": 379.5,
          "velocity": 1
        },
        {
          "duration": 0.5593749999999886,
          "durationTicks": 358,
          "midi": 66,
          "name": "F#4",
          "ticks": 78840,
          "time": 379.6875,
          "velocity": 1
        },
        {
          "duration": 0.37187499999998863,
          "durationTicks": 238,
          "midi": 59,
          "name": "B3",
          "ticks": 79200,
          "time": 380.25,
          "velocity": 1
        },
        {
          "duration": 0.18437499999998863,
          "durationTicks": 118,
          "midi": 64,
          "name": "E4",
          "ticks": 79440,
          "time": 380.625,
          "velocity": 1
        },
        {
          "duration": 0.5593749999999886,
          "durationTicks": 358,
          "midi": 64,
          "name": "E4",
          "ticks": 79560,
          "time": 380.8125,
          "velocity": 1
        },
        {
          "duration": 0.18437499999998863,
          "durationTicks": 118,
          "midi": 64,
          "name": "E4",
          "ticks": 79920,
          "time": 381.375,
          "velocity": 1
        },
        {
          "duration": 0.18437499999998863,
          "durationTicks": 118,
          "midi": 59,
          "name": "B3",
          "ticks": 80040,
          "time": 381.5625,
          "velocity": 1
        },
        {
          "duration": 0.18437499999998863,
          "durationTicks": 118,
          "midi": 64,
          "name": "E4",
          "ticks": 80160,
          "time": 381.75,
          "velocity": 1
        },
        {
          "duration": 0.5593749999999886,
          "durationTicks": 358,
          "midi": 64,
          "name": "E4",
          "ticks": 80280,
          "time": 381.9375,
          "velocity": 1
        },
        {
          "duration": 0.18437499999998863,
          "durationTicks": 118,
          "midi": 64,
          "name": "E4",
          "ticks": 80640,
          "time": 382.5,
          "velocity": 1
        },
        {
          "duration": 0.18437499999998863,
          "durationTicks": 118,
          "midi": 59,
          "name": "B3",
          "ticks": 80760,
          "time": 382.6875,
          "velocity": 1
        },
        {
          "duration": 0.18437499999998863,
          "durationTicks": 118,
          "midi": 64,
          "name": "E4",
          "ticks": 80880,
          "time": 382.875,
          "velocity": 1
        },
        {
          "duration": 0.5593749999999886,
          "durationTicks": 358,
          "midi": 64,
          "name": "E4",
          "ticks": 81000,
          "time": 383.0625,
          "velocity": 1
        },
        {
          "duration": 0.5593749999999886,
          "durationTicks": 358,
          "midi": 64,
          "name": "E4",
          "ticks": 81360,
          "time": 383.625,
          "velocity": 1
        },
        {
          "duration": 0.5593749999999886,
          "durationTicks": 358,
          "midi": 64,
          "name": "E4",
          "ticks": 81720,
          "time": 384.1875,
          "velocity": 1
        },
        {
          "duration": 0.37187499999998863,
          "durationTicks": 238,
          "midi": 64,
          "name": "E4",
          "ticks": 82080,
          "time": 384.75,
          "velocity": 1
        },
        {
          "duration": 0.18437499999998863,
          "durationTicks": 118,
          "midi": 66,
          "name": "F#4",
          "ticks": 82320,
          "time": 385.125,
          "velocity": 1
        },
        {
          "duration": 0.37187499999998863,
          "durationTicks": 238,
          "midi": 64,
          "name": "E4",
          "ticks": 82440,
          "time": 385.3125,
          "velocity": 1
        },
        {
          "duration": 0.18437499999998863,
          "durationTicks": 118,
          "midi": 62,
          "name": "D4",
          "ticks": 82680,
          "time": 385.6875,
          "velocity": 1
        },
        {
          "duration": 1.1218749999999886,
          "durationTicks": 718,
          "midi": 64,
          "name": "E4",
          "ticks": 82800,
          "time": 385.875,
          "velocity": 1
        },
        {
          "duration": 0.37187499999998863,
          "durationTicks": 238,
          "midi": 62,
          "name": "D4",
          "ticks": 84960,
          "time": 389.25,
          "velocity": 1
        },
        {
          "duration": 0.18437499999998863,
          "durationTicks": 118,
          "midi": 69,
          "name": "A4",
          "ticks": 85200,
          "time": 389.625,
          "velocity": 1
        },
        {
          "duration": 0.27812499999998863,
          "durationTicks": 178,
          "midi": 66,
          "name": "F#4",
          "ticks": 85320,
          "time": 389.8125,
          "velocity": 1
        },
        {
          "duration": 0.09062499999998863,
          "durationTicks": 58,
          "midi": 64,
          "name": "E4",
          "ticks": 85500,
          "time": 390.09375,
          "velocity": 1
        },
        {
          "duration": 0.18437499999998863,
          "durationTicks": 118,
          "midi": 66,
          "name": "F#4",
          "ticks": 85560,
          "time": 390.1875,
          "velocity": 1
        },
        {
          "duration": 0.18437499999998863,
          "durationTicks": 118,
          "midi": 62,
          "name": "D4",
          "ticks": 85680,
          "time": 390.375,
          "velocity": 1
        },
        {
          "duration": 0.18437499999998863,
          "durationTicks": 118,
          "midi": 57,
          "name": "A3",
          "ticks": 85800,
          "time": 390.5625,
          "velocity": 1
        },
        {
          "duration": 0.18437499999998863,
          "durationTicks": 118,
          "midi": 62,
          "name": "D4",
          "ticks": 85920,
          "time": 390.75,
          "velocity": 1
        },
        {
          "duration": 0.18437499999998863,
          "durationTicks": 118,
          "midi": 66,
          "name": "F#4",
          "ticks": 86040,
          "time": 390.9375,
          "velocity": 1
        },
        {
          "duration": 0.18437499999998863,
          "durationTicks": 118,
          "midi": 62,
          "name": "D4",
          "ticks": 86160,
          "time": 391.125,
          "velocity": 1
        },
        {
          "duration": 0.18437499999998863,
          "durationTicks": 118,
          "midi": 66,
          "name": "F#4",
          "ticks": 86280,
          "time": 391.3125,
          "velocity": 1
        },
        {
          "duration": 0.18437499999998863,
          "durationTicks": 118,
          "midi": 67,
          "name": "G4",
          "ticks": 86400,
          "time": 391.5,
          "velocity": 1
        },
        {
          "duration": 0.18437499999998863,
          "durationTicks": 118,
          "midi": 64,
          "name": "E4",
          "ticks": 86520,
          "time": 391.6875,
          "velocity": 1
        },
        {
          "duration": 0.18437499999998863,
          "durationTicks": 118,
          "midi": 67,
          "name": "G4",
          "ticks": 86640,
          "time": 391.875,
          "velocity": 1
        },
        {
          "duration": 0.18437499999998863,
          "durationTicks": 118,
          "midi": 66,
          "name": "F#4",
          "ticks": 86760,
          "time": 392.0625,
          "velocity": 1
        },
        {
          "duration": 0.18437499999998863,
          "durationTicks": 118,
          "midi": 62,
          "name": "D4",
          "ticks": 86880,
          "time": 392.25,
          "velocity": 1
        },
        {
          "duration": 0.18437499999998863,
          "durationTicks": 118,
          "midi": 66,
          "name": "F#4",
          "ticks": 87000,
          "time": 392.4375,
          "velocity": 1
        },
        {
          "duration": 0.37187499999998863,
          "durationTicks": 238,
          "midi": 67,
          "name": "G4",
          "ticks": 87120,
          "time": 392.625,
          "velocity": 1
        },
        {
          "duration": 0.18437499999998863,
          "durationTicks": 118,
          "midi": 66,
          "name": "F#4",
          "ticks": 87360,
          "time": 393,
          "velocity": 1
        },
        {
          "duration": 0.18437499999998863,
          "durationTicks": 118,
          "midi": 67,
          "name": "G4",
          "ticks": 87480,
          "time": 393.1875,
          "velocity": 1
        },
        {
          "duration": 0.18437499999998863,
          "durationTicks": 118,
          "midi": 66,
          "name": "F#4",
          "ticks": 87600,
          "time": 393.375,
          "velocity": 1
        },
        {
          "duration": 0.18437499999998863,
          "durationTicks": 118,
          "midi": 64,
          "name": "E4",
          "ticks": 87720,
          "time": 393.5625,
          "velocity": 1
        },
        {
          "duration": 0.37187499999998863,
          "durationTicks": 238,
          "midi": 62,
          "name": "D4",
          "ticks": 87840,
          "time": 393.75,
          "velocity": 1
        },
        {
          "duration": 0.18437499999998863,
          "durationTicks": 118,
          "midi": 64,
          "name": "E4",
          "ticks": 88080,
          "time": 394.125,
          "velocity": 1
        },
        {
          "duration": 0.5593749999999886,
          "durationTicks": 358,
          "midi": 62,
          "name": "D4",
          "ticks": 88200,
          "time": 394.3125,
          "velocity": 1
        },
        {
          "duration": 0.5593749999999886,
          "durationTicks": 358,
          "midi": 66,
          "name": "F#4",
          "ticks": 88560,
          "time": 394.875,
          "velocity": 1
        },
        {
          "duration": 0.5593749999999886,
          "durationTicks": 358,
          "midi": 62,
          "name": "D4",
          "ticks": 88920,
          "time": 395.4375,
          "velocity": 1
        },
        {
          "duration": 0.5593749999999886,
          "durationTicks": 358,
          "midi": 62,
          "name": "D4",
          "ticks": 89280,
          "time": 396,
          "velocity": 1
        },
        {
          "duration": 0.37187499999998863,
          "durationTicks": 238,
          "midi": 69,
          "name": "A4",
          "ticks": 89640,
          "time": 396.5625,
          "velocity": 1
        },
        {
          "duration": 0.18437499999998863,
          "durationTicks": 118,
          "midi": 66,
          "name": "F#4",
          "ticks": 89880,
          "time": 396.9375,
          "velocity": 1
        },
        {
          "duration": 0.37187499999998863,
          "durationTicks": 238,
          "midi": 66,
          "name": "F#4",
          "ticks": 90000,
          "time": 397.125,
          "velocity": 1
        },
        {
          "duration": 0.18437499999998863,
          "durationTicks": 118,
          "midi": 71,
          "name": "B4",
          "ticks": 90240,
          "time": 397.5,
          "velocity": 1
        },
        {
          "duration": 0.37187499999998863,
          "durationTicks": 238,
          "midi": 71,
          "name": "B4",
          "ticks": 90360,
          "time": 397.6875,
          "velocity": 1
        },
        {
          "duration": 0.18437499999998863,
          "durationTicks": 118,
          "midi": 70,
          "name": "A#4",
          "ticks": 90600,
          "time": 398.0625,
          "velocity": 1
        },
        {
          "duration": 0.18437499999998863,
          "durationTicks": 118,
          "midi": 71,
          "name": "B4",
          "ticks": 90720,
          "time": 398.25,
          "velocity": 1
        },
        {
          "duration": 0.18437499999998863,
          "durationTicks": 118,
          "midi": 66,
          "name": "F#4",
          "ticks": 90840,
          "time": 398.4375,
          "velocity": 1
        },
        {
          "duration": 0.18437499999998863,
          "durationTicks": 118,
          "midi": 71,
          "name": "B4",
          "ticks": 90960,
          "time": 398.625,
          "velocity": 1
        },
        {
          "duration": 0.27812499999998863,
          "durationTicks": 178,
          "midi": 68,
          "name": "G#4",
          "ticks": 91080,
          "time": 398.8125,
          "velocity": 1
        },
        {
          "duration": 0.09062499999998863,
          "durationTicks": 58,
          "midi": 66,
          "name": "F#4",
          "ticks": 91260,
          "time": 399.09375,
          "velocity": 1
        },
        {
          "duration": 0.18437499999998863,
          "durationTicks": 118,
          "midi": 68,
          "name": "G#4",
          "ticks": 91320,
          "time": 399.1875,
          "velocity": 1
        },
        {
          "duration": 0.5593749999999886,
          "durationTicks": 358,
          "midi": 69,
          "name": "A4",
          "ticks": 91440,
          "time": 399.375,
          "velocity": 1
        },
        {
          "duration": 0.37187499999998863,
          "durationTicks": 238,
          "midi": 69,
          "name": "A4",
          "ticks": 91800,
          "time": 399.9375,
          "velocity": 1
        },
        {
          "duration": 0.18437499999998863,
          "durationTicks": 118,
          "midi": 74,
          "name": "D5",
          "ticks": 92040,
          "time": 400.3125,
          "velocity": 1
        },
        {
          "duration": 0.27812499999998863,
          "durationTicks": 178,
          "midi": 71,
          "name": "B4",
          "ticks": 92160,
          "time": 400.5,
          "velocity": 1
        },
        {
          "duration": 0.09062499999998863,
          "durationTicks": 58,
          "midi": 69,
          "name": "A4",
          "ticks": 92340,
          "time": 400.78125,
          "velocity": 1
        },
        {
          "duration": 0.18437499999998863,
          "durationTicks": 118,
          "midi": 71,
          "name": "B4",
          "ticks": 92400,
          "time": 400.875,
          "velocity": 1
        },
        {
          "duration": 0.27812499999998863,
          "durationTicks": 178,
          "midi": 73,
          "name": "C#5",
          "ticks": 92520,
          "time": 401.0625,
          "velocity": 1
        },
        {
          "duration": 0.09062499999998863,
          "durationTicks": 58,
          "midi": 71,
          "name": "B4",
          "ticks": 92700,
          "time": 401.34375,
          "velocity": 1
        },
        {
          "duration": 0.18437499999998863,
          "durationTicks": 118,
          "midi": 73,
          "name": "C#5",
          "ticks": 92760,
          "time": 401.4375,
          "velocity": 1
        },
        {
          "duration": 0.5593749999999886,
          "durationTicks": 358,
          "midi": 74,
          "name": "D5",
          "ticks": 92880,
          "time": 401.625,
          "velocity": 1
        },
        {
          "duration": 0.5593749999999886,
          "durationTicks": 358,
          "midi": 76,
          "name": "E5",
          "ticks": 93240,
          "time": 402.1875,
          "velocity": 1
        },
        {
          "duration": 0.5593749999999886,
          "durationTicks": 358,
          "midi": 73,
          "name": "C#5",
          "ticks": 93600,
          "time": 402.75,
          "velocity": 1
        },
        {
          "duration": 0.18437499999998863,
          "durationTicks": 118,
          "midi": 69,
          "name": "A4",
          "ticks": 93960,
          "time": 403.3125,
          "velocity": 1
        },
        {
          "duration": 0.18437499999998863,
          "durationTicks": 118,
          "midi": 57,
          "name": "A3",
          "ticks": 94080,
          "time": 403.5,
          "velocity": 1
        },
        {
          "duration": 0.18437499999998863,
          "durationTicks": 118,
          "midi": 69,
          "name": "A4",
          "ticks": 94200,
          "time": 403.6875,
          "velocity": 1
        },
        {
          "duration": 0.18437499999998863,
          "durationTicks": 118,
          "midi": 69,
          "name": "A4",
          "ticks": 94320,
          "time": 403.875,
          "velocity": 1
        },
        {
          "duration": 0.18437499999998863,
          "durationTicks": 118,
          "midi": 57,
          "name": "A3",
          "ticks": 94440,
          "time": 404.0625,
          "velocity": 1
        },
        {
          "duration": 0.18437499999998863,
          "durationTicks": 118,
          "midi": 69,
          "name": "A4",
          "ticks": 94560,
          "time": 404.25,
          "velocity": 1
        },
        {
          "duration": 0.18437499999998863,
          "durationTicks": 118,
          "midi": 69,
          "name": "A4",
          "ticks": 94680,
          "time": 404.4375,
          "velocity": 1
        },
        {
          "duration": 0.18437499999998863,
          "durationTicks": 118,
          "midi": 57,
          "name": "A3",
          "ticks": 94800,
          "time": 404.625,
          "velocity": 1
        },
        {
          "duration": 0.18437499999998863,
          "durationTicks": 118,
          "midi": 69,
          "name": "A4",
          "ticks": 94920,
          "time": 404.8125,
          "velocity": 1
        },
        {
          "duration": 0.18437499999998863,
          "durationTicks": 118,
          "midi": 69,
          "name": "A4",
          "ticks": 95040,
          "time": 405,
          "velocity": 1
        },
        {
          "duration": 0.18437499999998863,
          "durationTicks": 118,
          "midi": 57,
          "name": "A3",
          "ticks": 95160,
          "time": 405.1875,
          "velocity": 1
        },
        {
          "duration": 0.18437499999998863,
          "durationTicks": 118,
          "midi": 69,
          "name": "A4",
          "ticks": 95280,
          "time": 405.375,
          "velocity": 1
        },
        {
          "duration": 0.18437499999998863,
          "durationTicks": 118,
          "midi": 69,
          "name": "A4",
          "ticks": 95400,
          "time": 405.5625,
          "velocity": 1
        },
        {
          "duration": 0.18437499999998863,
          "durationTicks": 118,
          "midi": 57,
          "name": "A3",
          "ticks": 95520,
          "time": 405.75,
          "velocity": 1
        },
        {
          "duration": 0.18437499999998863,
          "durationTicks": 118,
          "midi": 69,
          "name": "A4",
          "ticks": 95640,
          "time": 405.9375,
          "velocity": 1
        },
        {
          "duration": 0.18437499999998863,
          "durationTicks": 118,
          "midi": 69,
          "name": "A4",
          "ticks": 95760,
          "time": 406.125,
          "velocity": 1
        },
        {
          "duration": 0.18437499999998863,
          "durationTicks": 118,
          "midi": 57,
          "name": "A3",
          "ticks": 95880,
          "time": 406.3125,
          "velocity": 1
        },
        {
          "duration": 0.18437499999998863,
          "durationTicks": 118,
          "midi": 69,
          "name": "A4",
          "ticks": 96000,
          "time": 406.5,
          "velocity": 1
        },
        {
          "duration": 0.18437499999998863,
          "durationTicks": 118,
          "midi": 69,
          "name": "A4",
          "ticks": 96120,
          "time": 406.6875,
          "velocity": 1
        },
        {
          "duration": 0.18437499999998863,
          "durationTicks": 118,
          "midi": 57,
          "name": "A3",
          "ticks": 96240,
          "time": 406.875,
          "velocity": 1
        },
        {
          "duration": 0.18437499999998863,
          "durationTicks": 118,
          "midi": 69,
          "name": "A4",
          "ticks": 96360,
          "time": 407.0625,
          "velocity": 1
        },
        {
          "duration": 0.37187499999998863,
          "durationTicks": 238,
          "midi": 69,
          "name": "A4",
          "ticks": 96480,
          "time": 407.25,
          "velocity": 1
        },
        {
          "duration": 0.18437499999998863,
          "durationTicks": 118,
          "midi": 71,
          "name": "B4",
          "ticks": 96720,
          "time": 407.625,
          "velocity": 1
        },
        {
          "duration": 0.37187499999998863,
          "durationTicks": 238,
          "midi": 69,
          "name": "A4",
          "ticks": 96840,
          "time": 407.8125,
          "velocity": 1
        },
        {
          "duration": 0.18437499999998863,
          "durationTicks": 118,
          "midi": 67,
          "name": "G4",
          "ticks": 97080,
          "time": 408.1875,
          "velocity": 1
        },
        {
          "duration": 1.1218749999999886,
          "durationTicks": 718,
          "midi": 69,
          "name": "A4",
          "ticks": 97200,
          "time": 408.375,
          "velocity": 1
        },
        {
          "duration": 0.37187499999998863,
          "durationTicks": 238,
          "midi": 62,
          "name": "D4",
          "ticks": 99360,
          "time": 411.75,
          "velocity": 1
        },
        {
          "duration": 0.18437499999998863,
          "durationTicks": 118,
          "midi": 69,
          "name": "A4",
          "ticks": 99600,
          "time": 412.125,
          "velocity": 1
        },
        {
          "duration": 0.27812499999998863,
          "durationTicks": 178,
          "midi": 66,
          "name": "F#4",
          "ticks": 99720,
          "time": 412.3125,
          "velocity": 1
        },
        {
          "duration": 0.09062499999998863,
          "durationTicks": 58,
          "midi": 64,
          "name": "E4",
          "ticks": 99900,
          "time": 412.59375,
          "velocity": 1
        },
        {
          "duration": 0.18437499999998863,
          "durationTicks": 118,
          "midi": 66,
          "name": "F#4",
          "ticks": 99960,
          "time": 412.6875,
          "velocity": 1
        },
        {
          "duration": 0.18437499999998863,
          "durationTicks": 118,
          "midi": 62,
          "name": "D4",
          "ticks": 100080,
          "time": 412.875,
          "velocity": 1
        },
        {
          "duration": 0.18437499999998863,
          "durationTicks": 118,
          "midi": 57,
          "name": "A3",
          "ticks": 100200,
          "time": 413.0625,
          "velocity": 1
        },
        {
          "duration": 0.18437499999998863,
          "durationTicks": 118,
          "midi": 62,
          "name": "D4",
          "ticks": 100320,
          "time": 413.25,
          "velocity": 1
        },
        {
          "duration": 0.18437499999998863,
          "durationTicks": 118,
          "midi": 66,
          "name": "F#4",
          "ticks": 100440,
          "time": 413.4375,
          "velocity": 1
        },
        {
          "duration": 0.18437499999998863,
          "durationTicks": 118,
          "midi": 62,
          "name": "D4",
          "ticks": 100560,
          "time": 413.625,
          "velocity": 1
        },
        {
          "duration": 0.18437499999998863,
          "durationTicks": 118,
          "midi": 66,
          "name": "F#4",
          "ticks": 100680,
          "time": 413.8125,
          "velocity": 1
        },
        {
          "duration": 0.18437499999998863,
          "durationTicks": 118,
          "midi": 67,
          "name": "G4",
          "ticks": 100800,
          "time": 414,
          "velocity": 1
        },
        {
          "duration": 0.18437499999998863,
          "durationTicks": 118,
          "midi": 64,
          "name": "E4",
          "ticks": 100920,
          "time": 414.1875,
          "velocity": 1
        },
        {
          "duration": 0.18437499999998863,
          "durationTicks": 118,
          "midi": 67,
          "name": "G4",
          "ticks": 101040,
          "time": 414.375,
          "velocity": 1
        },
        {
          "duration": 0.18437499999998863,
          "durationTicks": 118,
          "midi": 66,
          "name": "F#4",
          "ticks": 101160,
          "time": 414.5625,
          "velocity": 1
        },
        {
          "duration": 0.18437499999998863,
          "durationTicks": 118,
          "midi": 62,
          "name": "D4",
          "ticks": 101280,
          "time": 414.75,
          "velocity": 1
        },
        {
          "duration": 0.18437499999998863,
          "durationTicks": 118,
          "midi": 66,
          "name": "F#4",
          "ticks": 101400,
          "time": 414.9375,
          "velocity": 1
        },
        {
          "duration": 0.37187499999998863,
          "durationTicks": 238,
          "midi": 67,
          "name": "G4",
          "ticks": 101520,
          "time": 415.125,
          "velocity": 1
        },
        {
          "duration": 0.18437499999998863,
          "durationTicks": 118,
          "midi": 66,
          "name": "F#4",
          "ticks": 101760,
          "time": 415.5,
          "velocity": 1
        },
        {
          "duration": 0.18437499999998863,
          "durationTicks": 118,
          "midi": 67,
          "name": "G4",
          "ticks": 101880,
          "time": 415.6875,
          "velocity": 1
        },
        {
          "duration": 0.18437499999998863,
          "durationTicks": 118,
          "midi": 66,
          "name": "F#4",
          "ticks": 102000,
          "time": 415.875,
          "velocity": 1
        },
        {
          "duration": 0.18437499999998863,
          "durationTicks": 118,
          "midi": 64,
          "name": "E4",
          "ticks": 102120,
          "time": 416.0625,
          "velocity": 1
        },
        {
          "duration": 0.37187499999998863,
          "durationTicks": 238,
          "midi": 62,
          "name": "D4",
          "ticks": 102240,
          "time": 416.25,
          "velocity": 1
        },
        {
          "duration": 0.18437499999998863,
          "durationTicks": 118,
          "midi": 64,
          "name": "E4",
          "ticks": 102480,
          "time": 416.625,
          "velocity": 1
        },
        {
          "duration": 0.5593749999999886,
          "durationTicks": 358,
          "midi": 62,
          "name": "D4",
          "ticks": 102600,
          "time": 416.8125,
          "velocity": 1
        },
        {
          "duration": 0.5593749999999886,
          "durationTicks": 358,
          "midi": 66,
          "name": "F#4",
          "ticks": 102960,
          "time": 417.375,
          "velocity": 1
        },
        {
          "duration": 0.5593749999999886,
          "durationTicks": 358,
          "midi": 62,
          "name": "D4",
          "ticks": 103320,
          "time": 417.9375,
          "velocity": 1
        },
        {
          "duration": 0.5593749999999886,
          "durationTicks": 358,
          "midi": 62,
          "name": "D4",
          "ticks": 103680,
          "time": 418.5,
          "velocity": 1
        },
        {
          "duration": 0.37187499999998863,
          "durationTicks": 238,
          "midi": 69,
          "name": "A4",
          "ticks": 104040,
          "time": 419.0625,
          "velocity": 1
        },
        {
          "duration": 0.18437499999998863,
          "durationTicks": 118,
          "midi": 66,
          "name": "F#4",
          "ticks": 104280,
          "time": 419.4375,
          "velocity": 1
        },
        {
          "duration": 0.37187499999998863,
          "durationTicks": 238,
          "midi": 66,
          "name": "F#4",
          "ticks": 104400,
          "time": 419.625,
          "velocity": 1
        },
        {
          "duration": 0.18437499999998863,
          "durationTicks": 118,
          "midi": 71,
          "name": "B4",
          "ticks": 104640,
          "time": 420,
          "velocity": 1
        },
        {
          "duration": 0.37187499999998863,
          "durationTicks": 238,
          "midi": 71,
          "name": "B4",
          "ticks": 104760,
          "time": 420.1875,
          "velocity": 1
        },
        {
          "duration": 0.18437499999998863,
          "durationTicks": 118,
          "midi": 70,
          "name": "A#4",
          "ticks": 105000,
          "time": 420.5625,
          "velocity": 1
        },
        {
          "duration": 0.18437499999998863,
          "durationTicks": 118,
          "midi": 71,
          "name": "B4",
          "ticks": 105120,
          "time": 420.75,
          "velocity": 1
        },
        {
          "duration": 0.18437499999998863,
          "durationTicks": 118,
          "midi": 66,
          "name": "F#4",
          "ticks": 105240,
          "time": 420.9375,
          "velocity": 1
        },
        {
          "duration": 0.18437499999998863,
          "durationTicks": 118,
          "midi": 71,
          "name": "B4",
          "ticks": 105360,
          "time": 421.125,
          "velocity": 1
        },
        {
          "duration": 0.27812499999998863,
          "durationTicks": 178,
          "midi": 68,
          "name": "G#4",
          "ticks": 105480,
          "time": 421.3125,
          "velocity": 1
        },
        {
          "duration": 0.09062499999998863,
          "durationTicks": 58,
          "midi": 66,
          "name": "F#4",
          "ticks": 105660,
          "time": 421.59375,
          "velocity": 1
        },
        {
          "duration": 0.18437499999998863,
          "durationTicks": 118,
          "midi": 68,
          "name": "G#4",
          "ticks": 105720,
          "time": 421.6875,
          "velocity": 1
        },
        {
          "duration": 0.5593749999999886,
          "durationTicks": 358,
          "midi": 69,
          "name": "A4",
          "ticks": 105840,
          "time": 421.875,
          "velocity": 1
        },
        {
          "duration": 0.37187499999998863,
          "durationTicks": 238,
          "midi": 69,
          "name": "A4",
          "ticks": 106200,
          "time": 422.4375,
          "velocity": 1
        },
        {
          "duration": 0.18437499999998863,
          "durationTicks": 118,
          "midi": 74,
          "name": "D5",
          "ticks": 106440,
          "time": 422.8125,
          "velocity": 1
        },
        {
          "duration": 0.27812499999998863,
          "durationTicks": 178,
          "midi": 71,
          "name": "B4",
          "ticks": 106560,
          "time": 423,
          "velocity": 1
        },
        {
          "duration": 0.09062499999998863,
          "durationTicks": 58,
          "midi": 69,
          "name": "A4",
          "ticks": 106740,
          "time": 423.28125,
          "velocity": 1
        },
        {
          "duration": 0.18437499999998863,
          "durationTicks": 118,
          "midi": 71,
          "name": "B4",
          "ticks": 106800,
          "time": 423.375,
          "velocity": 1
        },
        {
          "duration": 0.27812499999998863,
          "durationTicks": 178,
          "midi": 73,
          "name": "C#5",
          "ticks": 106920,
          "time": 423.5625,
          "velocity": 1
        },
        {
          "duration": 0.09062499999998863,
          "durationTicks": 58,
          "midi": 71,
          "name": "B4",
          "ticks": 107100,
          "time": 423.84375,
          "velocity": 1
        },
        {
          "duration": 0.18437499999998863,
          "durationTicks": 118,
          "midi": 73,
          "name": "C#5",
          "ticks": 107160,
          "time": 423.9375,
          "velocity": 1
        },
        {
          "duration": 0.5593749999999886,
          "durationTicks": 358,
          "midi": 74,
          "name": "D5",
          "ticks": 107280,
          "time": 424.125,
          "velocity": 1
        },
        {
          "duration": 0.5593749999999886,
          "durationTicks": 358,
          "midi": 76,
          "name": "E5",
          "ticks": 107640,
          "time": 424.6875,
          "velocity": 1
        },
        {
          "duration": 0.5593749999999886,
          "durationTicks": 358,
          "midi": 73,
          "name": "C#5",
          "ticks": 108000,
          "time": 425.25,
          "velocity": 1
        },
        {
          "duration": 0.18437499999998863,
          "durationTicks": 118,
          "midi": 69,
          "name": "A4",
          "ticks": 108360,
          "time": 425.8125,
          "velocity": 1
        },
        {
          "duration": 0.18437499999998863,
          "durationTicks": 118,
          "midi": 57,
          "name": "A3",
          "ticks": 108480,
          "time": 426,
          "velocity": 1
        },
        {
          "duration": 0.18437499999998863,
          "durationTicks": 118,
          "midi": 69,
          "name": "A4",
          "ticks": 108600,
          "time": 426.1875,
          "velocity": 1
        },
        {
          "duration": 0.18437499999998863,
          "durationTicks": 118,
          "midi": 69,
          "name": "A4",
          "ticks": 108720,
          "time": 426.375,
          "velocity": 1
        },
        {
          "duration": 0.18437499999998863,
          "durationTicks": 118,
          "midi": 57,
          "name": "A3",
          "ticks": 108840,
          "time": 426.5625,
          "velocity": 1
        },
        {
          "duration": 0.18437499999998863,
          "durationTicks": 118,
          "midi": 69,
          "name": "A4",
          "ticks": 108960,
          "time": 426.75,
          "velocity": 1
        },
        {
          "duration": 0.18437499999998863,
          "durationTicks": 118,
          "midi": 69,
          "name": "A4",
          "ticks": 109080,
          "time": 426.9375,
          "velocity": 1
        },
        {
          "duration": 0.18437499999998863,
          "durationTicks": 118,
          "midi": 57,
          "name": "A3",
          "ticks": 109200,
          "time": 427.125,
          "velocity": 1
        },
        {
          "duration": 0.18437499999998863,
          "durationTicks": 118,
          "midi": 69,
          "name": "A4",
          "ticks": 109320,
          "time": 427.3125,
          "velocity": 1
        },
        {
          "duration": 0.18437499999998863,
          "durationTicks": 118,
          "midi": 69,
          "name": "A4",
          "ticks": 109440,
          "time": 427.5,
          "velocity": 1
        },
        {
          "duration": 0.18437499999998863,
          "durationTicks": 118,
          "midi": 57,
          "name": "A3",
          "ticks": 109560,
          "time": 427.6875,
          "velocity": 1
        },
        {
          "duration": 0.18437499999998863,
          "durationTicks": 118,
          "midi": 69,
          "name": "A4",
          "ticks": 109680,
          "time": 427.875,
          "velocity": 1
        },
        {
          "duration": 0.18437499999998863,
          "durationTicks": 118,
          "midi": 69,
          "name": "A4",
          "ticks": 109800,
          "time": 428.0625,
          "velocity": 1
        },
        {
          "duration": 0.18437499999998863,
          "durationTicks": 118,
          "midi": 57,
          "name": "A3",
          "ticks": 109920,
          "time": 428.25,
          "velocity": 1
        },
        {
          "duration": 0.18437499999998863,
          "durationTicks": 118,
          "midi": 69,
          "name": "A4",
          "ticks": 110040,
          "time": 428.4375,
          "velocity": 1
        },
        {
          "duration": 0.18437499999998863,
          "durationTicks": 118,
          "midi": 69,
          "name": "A4",
          "ticks": 110160,
          "time": 428.625,
          "velocity": 1
        },
        {
          "duration": 0.18437499999998863,
          "durationTicks": 118,
          "midi": 57,
          "name": "A3",
          "ticks": 110280,
          "time": 428.8125,
          "velocity": 1
        },
        {
          "duration": 0.18437499999998863,
          "durationTicks": 118,
          "midi": 69,
          "name": "A4",
          "ticks": 110400,
          "time": 429,
          "velocity": 1
        },
        {
          "duration": 0.18437499999998863,
          "durationTicks": 118,
          "midi": 69,
          "name": "A4",
          "ticks": 110520,
          "time": 429.1875,
          "velocity": 1
        },
        {
          "duration": 0.18437499999998863,
          "durationTicks": 118,
          "midi": 57,
          "name": "A3",
          "ticks": 110640,
          "time": 429.375,
          "velocity": 1
        },
        {
          "duration": 0.18437499999998863,
          "durationTicks": 118,
          "midi": 69,
          "name": "A4",
          "ticks": 110760,
          "time": 429.5625,
          "velocity": 1
        },
        {
          "duration": 0.37187499999998863,
          "durationTicks": 238,
          "midi": 69,
          "name": "A4",
          "ticks": 110880,
          "time": 429.75,
          "velocity": 1
        },
        {
          "duration": 0.18437499999998863,
          "durationTicks": 118,
          "midi": 71,
          "name": "B4",
          "ticks": 111120,
          "time": 430.125,
          "velocity": 1
        },
        {
          "duration": 0.37187499999998863,
          "durationTicks": 238,
          "midi": 69,
          "name": "A4",
          "ticks": 111240,
          "time": 430.3125,
          "velocity": 1
        },
        {
          "duration": 0.18437499999998863,
          "durationTicks": 118,
          "midi": 67,
          "name": "G4",
          "ticks": 111480,
          "time": 430.6875,
          "velocity": 1
        },
        {
          "duration": 1.1218749999999886,
          "durationTicks": 718,
          "midi": 69,
          "name": "A4",
          "ticks": 111600,
          "time": 430.875,
          "velocity": 1
        }
      ],
      "endOfTrackTicks": 112318
    },
    {
      "channel": 3,
      "controlChanges": {},
      "pitchBends": [],
      "instrument": {
        "family": "strings",
        "number": 42,
        "name": "cello"
      },
      "name": "Basso",
      "notes": [
        {
          "duration": 1.4875,
          "durationTicks": 238,
          "midi": 50,
          "name": "D3",
          "ticks": 0,
          "time": 0,
          "velocity": 1
        },
        {
          "duration": 1.4874999999999998,
          "durationTicks": 238,
          "midi": 45,
          "name": "A2",
          "ticks": 240,
          "time": 1.5,
          "velocity": 1
        },
        {
          "duration": 1.4874999999999998,
          "durationTicks": 238,
          "midi": 47,
          "name": "B2",
          "ticks": 480,
          "time": 3,
          "velocity": 1
        },
        {
          "duration": 1.4874999999999998,
          "durationTicks": 238,
          "midi": 42,
          "name": "F#2",
          "ticks": 720,
          "time": 4.5,
          "velocity": 1
        },
        {
          "duration": 1.487499999999999,
          "durationTicks": 238,
          "midi": 43,
          "name": "G2",
          "ticks": 960,
          "time": 6,
          "velocity": 1
        },
        {
          "duration": 1.487499999999999,
          "durationTicks": 238,
          "midi": 38,
          "name": "D2",
          "ticks": 1200,
          "time": 7.5,
          "velocity": 1
        },
        {
          "duration": 1.487499999999999,
          "durationTicks": 238,
          "midi": 43,
          "name": "G2",
          "ticks": 1440,
          "time": 9,
          "velocity": 1
        },
        {
          "duration": 1.487499999999999,
          "durationTicks": 238,
          "midi": 45,
          "name": "A2",
          "ticks": 1680,
          "time": 10.5,
          "velocity": 1
        },
        {
          "duration": 1.4875000000000007,
          "durationTicks": 238,
          "midi": 50,
          "name": "D3",
          "ticks": 1920,
          "time": 12,
          "velocity": 1
        },
        {
          "duration": 1.4875000000000007,
          "durationTicks": 238,
          "midi": 45,
          "name": "A2",
          "ticks": 2160,
          "time": 13.5,
          "velocity": 1
        },
        {
          "duration": 1.4875000000000007,
          "durationTicks": 238,
          "midi": 47,
          "name": "B2",
          "ticks": 2400,
          "time": 15,
          "velocity": 1
        },
        {
          "duration": 1.4875000000000007,
          "durationTicks": 238,
          "midi": 42,
          "name": "F#2",
          "ticks": 2640,
          "time": 16.5,
          "velocity": 1
        },
        {
          "duration": 1.4875000000000007,
          "durationTicks": 238,
          "midi": 43,
          "name": "G2",
          "ticks": 2880,
          "time": 18,
          "velocity": 1
        },
        {
          "duration": 1.4875000000000007,
          "durationTicks": 238,
          "midi": 38,
          "name": "D2",
          "ticks": 3120,
          "time": 19.5,
          "velocity": 1
        },
        {
          "duration": 1.4875000000000007,
          "durationTicks": 238,
          "midi": 43,
          "name": "G2",
          "ticks": 3360,
          "time": 21,
          "velocity": 1
        },
        {
          "duration": 1.4875000000000007,
          "durationTicks": 238,
          "midi": 45,
          "name": "A2",
          "ticks": 3600,
          "time": 22.5,
          "velocity": 1
        },
        {
          "duration": 1.4875000000000007,
          "durationTicks": 238,
          "midi": 50,
          "name": "D3",
          "ticks": 3840,
          "time": 24,
          "velocity": 1
        },
        {
          "duration": 1.4875000000000007,
          "durationTicks": 238,
          "midi": 45,
          "name": "A2",
          "ticks": 4080,
          "time": 25.5,
          "velocity": 1
        },
        {
          "duration": 1.4875000000000007,
          "durationTicks": 238,
          "midi": 47,
          "name": "B2",
          "ticks": 4320,
          "time": 27,
          "velocity": 1
        },
        {
          "duration": 1.4875000000000007,
          "durationTicks": 238,
          "midi": 42,
          "name": "F#2",
          "ticks": 4560,
          "time": 28.5,
          "velocity": 1
        },
        {
          "duration": 1.4875000000000007,
          "durationTicks": 238,
          "midi": 43,
          "name": "G2",
          "ticks": 4800,
          "time": 30,
          "velocity": 1
        },
        {
          "duration": 1.4874999999999972,
          "durationTicks": 238,
          "midi": 38,
          "name": "D2",
          "ticks": 5040,
          "time": 31.5,
          "velocity": 1
        },
        {
          "duration": 1.4874999999999972,
          "durationTicks": 238,
          "midi": 43,
          "name": "G2",
          "ticks": 5280,
          "time": 33,
          "velocity": 1
        },
        {
          "duration": 1.4874999999999972,
          "durationTicks": 238,
          "midi": 45,
          "name": "A2",
          "ticks": 5520,
          "time": 34.5,
          "velocity": 1
        },
        {
          "duration": 1.4874999999999972,
          "durationTicks": 238,
          "midi": 50,
          "name": "D3",
          "ticks": 5760,
          "time": 36,
          "velocity": 1
        },
        {
          "duration": 1.4874999999999972,
          "durationTicks": 238,
          "midi": 45,
          "name": "A2",
          "ticks": 6000,
          "time": 37.5,
          "velocity": 1
        },
        {
          "duration": 1.4874999999999972,
          "durationTicks": 238,
          "midi": 47,
          "name": "B2",
          "ticks": 6240,
          "time": 39,
          "velocity": 1
        },
        {
          "duration": 1.4874999999999972,
          "durationTicks": 238,
          "midi": 42,
          "name": "F#2",
          "ticks": 6480,
          "time": 40.5,
          "velocity": 1
        },
        {
          "duration": 1.4874999999999972,
          "durationTicks": 238,
          "midi": 43,
          "name": "G2",
          "ticks": 6720,
          "time": 42,
          "velocity": 1
        },
        {
          "duration": 1.4874999999999972,
          "durationTicks": 238,
          "midi": 38,
          "name": "D2",
          "ticks": 6960,
          "time": 43.5,
          "velocity": 1
        },
        {
          "duration": 1.4874999999999972,
          "durationTicks": 238,
          "midi": 43,
          "name": "G2",
          "ticks": 7200,
          "time": 45,
          "velocity": 1
        },
        {
          "duration": 1.4874999999999972,
          "durationTicks": 238,
          "midi": 45,
          "name": "A2",
          "ticks": 7440,
          "time": 46.5,
          "velocity": 1
        },
        {
          "duration": 1.4874999999999972,
          "durationTicks": 238,
          "midi": 50,
          "name": "D3",
          "ticks": 7680,
          "time": 48,
          "velocity": 1
        },
        {
          "duration": 1.4874999999999972,
          "durationTicks": 238,
          "midi": 45,
          "name": "A2",
          "ticks": 7920,
          "time": 49.5,
          "velocity": 1
        },
        {
          "duration": 1.4874999999999972,
          "durationTicks": 238,
          "midi": 47,
          "name": "B2",
          "ticks": 8160,
          "time": 51,
          "velocity": 1
        },
        {
          "duration": 1.4874999999999972,
          "durationTicks": 238,
          "midi": 42,
          "name": "F#2",
          "ticks": 8400,
          "time": 52.5,
          "velocity": 1
        },
        {
          "duration": 1.4874999999999972,
          "durationTicks": 238,
          "midi": 43,
          "name": "G2",
          "ticks": 8640,
          "time": 54,
          "velocity": 1
        },
        {
          "duration": 1.4874999999999972,
          "durationTicks": 238,
          "midi": 38,
          "name": "D2",
          "ticks": 8880,
          "time": 55.5,
          "velocity": 1
        },
        {
          "duration": 1.4874999999999972,
          "durationTicks": 238,
          "midi": 43,
          "name": "G2",
          "ticks": 9120,
          "time": 57,
          "velocity": 1
        },
        {
          "duration": 1.4874999999999972,
          "durationTicks": 238,
          "midi": 45,
          "name": "A2",
          "ticks": 9360,
          "time": 58.5,
          "velocity": 1
        },
        {
          "duration": 1.4874999999999972,
          "durationTicks": 238,
          "midi": 50,
          "name": "D3",
          "ticks": 9600,
          "time": 60,
          "velocity": 1
        },
        {
          "duration": 1.4874999999999972,
          "durationTicks": 238,
          "midi": 45,
          "name": "A2",
          "ticks": 9840,
          "time": 61.5,
          "velocity": 1
        },
        {
          "duration": 1.4874999999999972,
          "durationTicks": 238,
          "midi": 47,
          "name": "B2",
          "ticks": 10080,
          "time": 63,
          "velocity": 1
        },
        {
          "duration": 1.4874999999999972,
          "durationTicks": 238,
          "midi": 42,
          "name": "F#2",
          "ticks": 10320,
          "time": 64.5,
          "velocity": 1
        },
        {
          "duration": 1.4874999999999972,
          "durationTicks": 238,
          "midi": 43,
          "name": "G2",
          "ticks": 10560,
          "time": 66,
          "velocity": 1
        },
        {
          "duration": 1.4874999999999972,
          "durationTicks": 238,
          "midi": 38,
          "name": "D2",
          "ticks": 10800,
          "time": 67.5,
          "velocity": 1
        },
        {
          "duration": 1.4874999999999972,
          "durationTicks": 238,
          "midi": 43,
          "name": "G2",
          "ticks": 11040,
          "time": 69,
          "velocity": 1
        },
        {
          "duration": 1.4874999999999972,
          "durationTicks": 238,
          "midi": 45,
          "name": "A2",
          "ticks": 11280,
          "time": 70.5,
          "velocity": 1
        },
        {
          "duration": 1.4874999999999972,
          "durationTicks": 238,
          "midi": 50,
          "name": "D3",
          "ticks": 11520,
          "time": 72,
          "velocity": 1
        },
        {
          "duration": 1.4874999999999972,
          "durationTicks": 238,
          "midi": 45,
          "name": "A2",
          "ticks": 11760,
          "time": 73.5,
          "velocity": 1
        },
        {
          "duration": 1.4874999999999972,
          "durationTicks": 238,
          "midi": 47,
          "name": "B2",
          "ticks": 12000,
          "time": 75,
          "velocity": 1
        },
        {
          "duration": 1.4874999999999972,
          "durationTicks": 238,
          "midi": 42,
          "name": "F#2",
          "ticks": 12240,
          "time": 76.5,
          "velocity": 1
        },
        {
          "duration": 1.4874999999999972,
          "durationTicks": 238,
          "midi": 43,
          "name": "G2",
          "ticks": 12480,
          "time": 78,
          "velocity": 1
        },
        {
          "duration": 1.4874999999999972,
          "durationTicks": 238,
          "midi": 38,
          "name": "D2",
          "ticks": 12720,
          "time": 79.5,
          "velocity": 1
        },
        {
          "duration": 1.4874999999999972,
          "durationTicks": 238,
          "midi": 43,
          "name": "G2",
          "ticks": 12960,
          "time": 81,
          "velocity": 1
        },
        {
          "duration": 1.4874999999999972,
          "durationTicks": 238,
          "midi": 45,
          "name": "A2",
          "ticks": 13200,
          "time": 82.5,
          "velocity": 1
        },
        {
          "duration": 1.4874999999999972,
          "durationTicks": 238,
          "midi": 50,
          "name": "D3",
          "ticks": 13440,
          "time": 84,
          "velocity": 1
        },
        {
          "duration": 1.4874999999999972,
          "durationTicks": 238,
          "midi": 45,
          "name": "A2",
          "ticks": 13680,
          "time": 85.5,
          "velocity": 1
        },
        {
          "duration": 1.4874999999999972,
          "durationTicks": 238,
          "midi": 47,
          "name": "B2",
          "ticks": 13920,
          "time": 87,
          "velocity": 1
        },
        {
          "duration": 1.4874999999999972,
          "durationTicks": 238,
          "midi": 42,
          "name": "F#2",
          "ticks": 14160,
          "time": 88.5,
          "velocity": 1
        },
        {
          "duration": 1.4874999999999972,
          "durationTicks": 238,
          "midi": 43,
          "name": "G2",
          "ticks": 14400,
          "time": 90,
          "velocity": 1
        },
        {
          "duration": 1.4874999999999972,
          "durationTicks": 238,
          "midi": 38,
          "name": "D2",
          "ticks": 14640,
          "time": 91.5,
          "velocity": 1
        },
        {
          "duration": 1.4874999999999972,
          "durationTicks": 238,
          "midi": 43,
          "name": "G2",
          "ticks": 14880,
          "time": 93,
          "velocity": 1
        },
        {
          "duration": 1.4874999999999972,
          "durationTicks": 238,
          "midi": 45,
          "name": "A2",
          "ticks": 15120,
          "time": 94.5,
          "velocity": 1
        },
        {
          "duration": 1.487499999999983,
          "durationTicks": 238,
          "midi": 50,
          "name": "D3",
          "ticks": 15360,
          "time": 96,
          "velocity": 1
        },
        {
          "duration": 1.487499999999983,
          "durationTicks": 238,
          "midi": 45,
          "name": "A2",
          "ticks": 15600,
          "time": 97.5,
          "velocity": 1
        },
        {
          "duration": 1.487499999999983,
          "durationTicks": 238,
          "midi": 47,
          "name": "B2",
          "ticks": 15840,
          "time": 99,
          "velocity": 1
        },
        {
          "duration": 1.487499999999983,
          "durationTicks": 238,
          "midi": 42,
          "name": "F#2",
          "ticks": 16080,
          "time": 100.5,
          "velocity": 1
        },
        {
          "duration": 1.487499999999983,
          "durationTicks": 238,
          "midi": 43,
          "name": "G2",
          "ticks": 16320,
          "time": 102,
          "velocity": 1
        },
        {
          "duration": 1.487499999999983,
          "durationTicks": 238,
          "midi": 38,
          "name": "D2",
          "ticks": 16560,
          "time": 103.5,
          "velocity": 1
        },
        {
          "duration": 1.487499999999983,
          "durationTicks": 238,
          "midi": 43,
          "name": "G2",
          "ticks": 16800,
          "time": 105,
          "velocity": 1
        },
        {
          "duration": 1.487499999999983,
          "durationTicks": 238,
          "midi": 45,
          "name": "A2",
          "ticks": 17040,
          "time": 106.5,
          "velocity": 1
        },
        {
          "duration": 1.487499999999983,
          "durationTicks": 238,
          "midi": 50,
          "name": "D3",
          "ticks": 17280,
          "time": 108,
          "velocity": 1
        },
        {
          "duration": 1.487499999999983,
          "durationTicks": 238,
          "midi": 45,
          "name": "A2",
          "ticks": 17520,
          "time": 109.5,
          "velocity": 1
        },
        {
          "duration": 1.487499999999983,
          "durationTicks": 238,
          "midi": 47,
          "name": "B2",
          "ticks": 17760,
          "time": 111,
          "velocity": 1
        },
        {
          "duration": 1.487499999999983,
          "durationTicks": 238,
          "midi": 42,
          "name": "F#2",
          "ticks": 18000,
          "time": 112.5,
          "velocity": 1
        },
        {
          "duration": 1.487499999999983,
          "durationTicks": 238,
          "midi": 43,
          "name": "G2",
          "ticks": 18240,
          "time": 114,
          "velocity": 1
        },
        {
          "duration": 1.487499999999983,
          "durationTicks": 238,
          "midi": 38,
          "name": "D2",
          "ticks": 18480,
          "time": 115.5,
          "velocity": 1
        },
        {
          "duration": 1.487499999999983,
          "durationTicks": 238,
          "midi": 43,
          "name": "G2",
          "ticks": 18720,
          "time": 117,
          "velocity": 1
        },
        {
          "duration": 1.487499999999983,
          "durationTicks": 238,
          "midi": 45,
          "name": "A2",
          "ticks": 18960,
          "time": 118.5,
          "velocity": 1
        },
        {
          "duration": 1.487499999999983,
          "durationTicks": 238,
          "midi": 50,
          "name": "D3",
          "ticks": 19200,
          "time": 120,
          "velocity": 1
        },
        {
          "duration": 1.487499999999983,
          "durationTicks": 238,
          "midi": 45,
          "name": "A2",
          "ticks": 19440,
          "time": 121.5,
          "velocity": 1
        },
        {
          "duration": 1.487499999999983,
          "durationTicks": 238,
          "midi": 47,
          "name": "B2",
          "ticks": 19680,
          "time": 123,
          "velocity": 1
        },
        {
          "duration": 1.487499999999983,
          "durationTicks": 238,
          "midi": 42,
          "name": "F#2",
          "ticks": 19920,
          "time": 124.5,
          "velocity": 1
        },
        {
          "duration": 1.487499999999983,
          "durationTicks": 238,
          "midi": 43,
          "name": "G2",
          "ticks": 20160,
          "time": 126,
          "velocity": 1
        },
        {
          "duration": 1.487499999999983,
          "durationTicks": 238,
          "midi": 38,
          "name": "D2",
          "ticks": 20400,
          "time": 127.5,
          "velocity": 1
        },
        {
          "duration": 1.487499999999983,
          "durationTicks": 238,
          "midi": 43,
          "name": "G2",
          "ticks": 20640,
          "time": 129,
          "velocity": 1
        },
        {
          "duration": 1.487499999999983,
          "durationTicks": 238,
          "midi": 45,
          "name": "A2",
          "ticks": 20880,
          "time": 130.5,
          "velocity": 1
        },
        {
          "duration": 1.487499999999983,
          "durationTicks": 238,
          "midi": 50,
          "name": "D3",
          "ticks": 21120,
          "time": 132,
          "velocity": 1
        },
        {
          "duration": 1.487499999999983,
          "durationTicks": 238,
          "midi": 45,
          "name": "A2",
          "ticks": 21360,
          "time": 133.5,
          "velocity": 1
        },
        {
          "duration": 1.487499999999983,
          "durationTicks": 238,
          "midi": 47,
          "name": "B2",
          "ticks": 21600,
          "time": 135,
          "velocity": 1
        },
        {
          "duration": 1.487499999999983,
          "durationTicks": 238,
          "midi": 42,
          "name": "F#2",
          "ticks": 21840,
          "time": 136.5,
          "velocity": 1
        },
        {
          "duration": 1.487499999999983,
          "durationTicks": 238,
          "midi": 43,
          "name": "G2",
          "ticks": 22080,
          "time": 138,
          "velocity": 1
        },
        {
          "duration": 1.487499999999983,
          "durationTicks": 238,
          "midi": 38,
          "name": "D2",
          "ticks": 22320,
          "time": 139.5,
          "velocity": 1
        },
        {
          "duration": 1.487499999999983,
          "durationTicks": 238,
          "midi": 43,
          "name": "G2",
          "ticks": 22560,
          "time": 141,
          "velocity": 1
        },
        {
          "duration": 1.487499999999983,
          "durationTicks": 238,
          "midi": 45,
          "name": "A2",
          "ticks": 22800,
          "time": 142.5,
          "velocity": 1
        },
        {
          "duration": 1.487499999999983,
          "durationTicks": 238,
          "midi": 50,
          "name": "D3",
          "ticks": 23040,
          "time": 144,
          "velocity": 1
        },
        {
          "duration": 1.487499999999983,
          "durationTicks": 238,
          "midi": 45,
          "name": "A2",
          "ticks": 23280,
          "time": 145.5,
          "velocity": 1
        },
        {
          "duration": 1.487499999999983,
          "durationTicks": 238,
          "midi": 47,
          "name": "B2",
          "ticks": 23520,
          "time": 147,
          "velocity": 1
        },
        {
          "duration": 1.487499999999983,
          "durationTicks": 238,
          "midi": 42,
          "name": "F#2",
          "ticks": 23760,
          "time": 148.5,
          "velocity": 1
        },
        {
          "duration": 1.487499999999983,
          "durationTicks": 238,
          "midi": 43,
          "name": "G2",
          "ticks": 24000,
          "time": 150,
          "velocity": 1
        },
        {
          "duration": 1.487499999999983,
          "durationTicks": 238,
          "midi": 38,
          "name": "D2",
          "ticks": 24240,
          "time": 151.5,
          "velocity": 1
        },
        {
          "duration": 1.487499999999983,
          "durationTicks": 238,
          "midi": 43,
          "name": "G2",
          "ticks": 24480,
          "time": 153,
          "velocity": 1
        },
        {
          "duration": 1.487499999999983,
          "durationTicks": 238,
          "midi": 45,
          "name": "A2",
          "ticks": 24720,
          "time": 154.5,
          "velocity": 1
        },
        {
          "duration": 1.487499999999983,
          "durationTicks": 238,
          "midi": 50,
          "name": "D3",
          "ticks": 24960,
          "time": 156,
          "velocity": 1
        },
        {
          "duration": 1.487499999999983,
          "durationTicks": 238,
          "midi": 45,
          "name": "A2",
          "ticks": 25200,
          "time": 157.5,
          "velocity": 1
        },
        {
          "duration": 1.487499999999983,
          "durationTicks": 238,
          "midi": 47,
          "name": "B2",
          "ticks": 25440,
          "time": 159,
          "velocity": 1
        },
        {
          "duration": 1.487499999999983,
          "durationTicks": 238,
          "midi": 42,
          "name": "F#2",
          "ticks": 25680,
          "time": 160.5,
          "velocity": 1
        },
        {
          "duration": 1.487499999999983,
          "durationTicks": 238,
          "midi": 43,
          "name": "G2",
          "ticks": 25920,
          "time": 162,
          "velocity": 1
        },
        {
          "duration": 1.487499999999983,
          "durationTicks": 238,
          "midi": 38,
          "name": "D2",
          "ticks": 26160,
          "time": 163.5,
          "velocity": 1
        },
        {
          "duration": 1.487499999999983,
          "durationTicks": 238,
          "midi": 43,
          "name": "G2",
          "ticks": 26400,
          "time": 165,
          "velocity": 1
        },
        {
          "duration": 1.487499999999983,
          "durationTicks": 238,
          "midi": 45,
          "name": "A2",
          "ticks": 26640,
          "time": 166.5,
          "velocity": 1
        },
        {
          "duration": 1.487499999999983,
          "durationTicks": 238,
          "midi": 50,
          "name": "D3",
          "ticks": 26880,
          "time": 168,
          "velocity": 1
        },
        {
          "duration": 1.487499999999983,
          "durationTicks": 238,
          "midi": 45,
          "name": "A2",
          "ticks": 27120,
          "time": 169.5,
          "velocity": 1
        },
        {
          "duration": 1.487499999999983,
          "durationTicks": 238,
          "midi": 47,
          "name": "B2",
          "ticks": 27360,
          "time": 171,
          "velocity": 1
        },
        {
          "duration": 1.487499999999983,
          "durationTicks": 238,
          "midi": 42,
          "name": "F#2",
          "ticks": 27600,
          "time": 172.5,
          "velocity": 1
        },
        {
          "duration": 1.487499999999983,
          "durationTicks": 238,
          "midi": 43,
          "name": "G2",
          "ticks": 27840,
          "time": 174,
          "velocity": 1
        },
        {
          "duration": 1.487499999999983,
          "durationTicks": 238,
          "midi": 38,
          "name": "D2",
          "ticks": 28080,
          "time": 175.5,
          "velocity": 1
        },
        {
          "duration": 1.487499999999983,
          "durationTicks": 238,
          "midi": 43,
          "name": "G2",
          "ticks": 28320,
          "time": 177,
          "velocity": 1
        },
        {
          "duration": 1.487499999999983,
          "durationTicks": 238,
          "midi": 45,
          "name": "A2",
          "ticks": 28560,
          "time": 178.5,
          "velocity": 1
        },
        {
          "duration": 1.487499999999983,
          "durationTicks": 238,
          "midi": 50,
          "name": "D3",
          "ticks": 28800,
          "time": 180,
          "velocity": 1
        },
        {
          "duration": 1.487499999999983,
          "durationTicks": 238,
          "midi": 45,
          "name": "A2",
          "ticks": 29040,
          "time": 181.5,
          "velocity": 1
        },
        {
          "duration": 1.487499999999983,
          "durationTicks": 238,
          "midi": 47,
          "name": "B2",
          "ticks": 29280,
          "time": 183,
          "velocity": 1
        },
        {
          "duration": 1.487499999999983,
          "durationTicks": 238,
          "midi": 42,
          "name": "F#2",
          "ticks": 29520,
          "time": 184.5,
          "velocity": 1
        },
        {
          "duration": 1.487499999999983,
          "durationTicks": 238,
          "midi": 43,
          "name": "G2",
          "ticks": 29760,
          "time": 186,
          "velocity": 1
        },
        {
          "duration": 1.487499999999983,
          "durationTicks": 238,
          "midi": 38,
          "name": "D2",
          "ticks": 30000,
          "time": 187.5,
          "velocity": 1
        },
        {
          "duration": 1.487499999999983,
          "durationTicks": 238,
          "midi": 43,
          "name": "G2",
          "ticks": 30240,
          "time": 189,
          "velocity": 1
        },
        {
          "duration": 1.487499999999983,
          "durationTicks": 238,
          "midi": 45,
          "name": "A2",
          "ticks": 30480,
          "time": 190.5,
          "velocity": 1
        },
        {
          "duration": 1.4875000000000114,
          "durationTicks": 238,
          "midi": 50,
          "name": "D3",
          "ticks": 30720,
          "time": 192,
          "velocity": 1
        },
        {
          "duration": 1.4875000000000114,
          "durationTicks": 238,
          "midi": 45,
          "name": "A2",
          "ticks": 30960,
          "time": 193.5,
          "velocity": 1
        },
        {
          "duration": 1.4875000000000114,
          "durationTicks": 238,
          "midi": 47,
          "name": "B2",
          "ticks": 31200,
          "time": 195,
          "velocity": 1
        },
        {
          "duration": 1.4875000000000114,
          "durationTicks": 238,
          "midi": 42,
          "name": "F#2",
          "ticks": 31440,
          "time": 196.5,
          "velocity": 1
        },
        {
          "duration": 1.4875000000000114,
          "durationTicks": 238,
          "midi": 43,
          "name": "G2",
          "ticks": 31680,
          "time": 198,
          "velocity": 1
        },
        {
          "duration": 1.4875000000000114,
          "durationTicks": 238,
          "midi": 38,
          "name": "D2",
          "ticks": 31920,
          "time": 199.5,
          "velocity": 1
        },
        {
          "duration": 1.4875000000000114,
          "durationTicks": 238,
          "midi": 43,
          "name": "G2",
          "ticks": 32160,
          "time": 201,
          "velocity": 1
        },
        {
          "duration": 1.4875000000000114,
          "durationTicks": 238,
          "midi": 45,
          "name": "A2",
          "ticks": 32400,
          "time": 202.5,
          "velocity": 1
        },
        {
          "duration": 1.4875000000000114,
          "durationTicks": 238,
          "midi": 50,
          "name": "D3",
          "ticks": 32640,
          "time": 204,
          "velocity": 1
        },
        {
          "duration": 1.4875000000000114,
          "durationTicks": 238,
          "midi": 45,
          "name": "A2",
          "ticks": 32880,
          "time": 205.5,
          "velocity": 1
        },
        {
          "duration": 1.4875000000000114,
          "durationTicks": 238,
          "midi": 47,
          "name": "B2",
          "ticks": 33120,
          "time": 207,
          "velocity": 1
        },
        {
          "duration": 1.4875000000000114,
          "durationTicks": 238,
          "midi": 42,
          "name": "F#2",
          "ticks": 33360,
          "time": 208.5,
          "velocity": 1
        },
        {
          "duration": 1.4875000000000114,
          "durationTicks": 238,
          "midi": 43,
          "name": "G2",
          "ticks": 33600,
          "time": 210,
          "velocity": 1
        },
        {
          "duration": 1.4875000000000114,
          "durationTicks": 238,
          "midi": 38,
          "name": "D2",
          "ticks": 33840,
          "time": 211.5,
          "velocity": 1
        },
        {
          "duration": 1.4875000000000114,
          "durationTicks": 238,
          "midi": 43,
          "name": "G2",
          "ticks": 34080,
          "time": 213,
          "velocity": 1
        },
        {
          "duration": 1.4875000000000114,
          "durationTicks": 238,
          "midi": 45,
          "name": "A2",
          "ticks": 34320,
          "time": 214.5,
          "velocity": 1
        },
        {
          "duration": 1.4875000000000114,
          "durationTicks": 238,
          "midi": 50,
          "name": "D3",
          "ticks": 34560,
          "time": 216,
          "velocity": 1
        },
        {
          "duration": 1.4875000000000114,
          "durationTicks": 238,
          "midi": 45,
          "name": "A2",
          "ticks": 34800,
          "time": 217.5,
          "velocity": 1
        },
        {
          "duration": 1.4875000000000114,
          "durationTicks": 238,
          "midi": 47,
          "name": "B2",
          "ticks": 35040,
          "time": 219,
          "velocity": 1
        },
        {
          "duration": 1.4875000000000114,
          "durationTicks": 238,
          "midi": 42,
          "name": "F#2",
          "ticks": 35280,
          "time": 220.5,
          "velocity": 1
        },
        {
          "duration": 1.4875000000000114,
          "durationTicks": 238,
          "midi": 43,
          "name": "G2",
          "ticks": 35520,
          "time": 222,
          "velocity": 1
        },
        {
          "duration": 1.4875000000000114,
          "durationTicks": 238,
          "midi": 38,
          "name": "D2",
          "ticks": 35760,
          "time": 223.5,
          "velocity": 1
        },
        {
          "duration": 1.4875000000000114,
          "durationTicks": 238,
          "midi": 43,
          "name": "G2",
          "ticks": 36000,
          "time": 225,
          "velocity": 1
        },
        {
          "duration": 1.4875000000000114,
          "durationTicks": 238,
          "midi": 45,
          "name": "A2",
          "ticks": 36240,
          "time": 226.5,
          "velocity": 1
        },
        {
          "duration": 1.4875000000000114,
          "durationTicks": 238,
          "midi": 50,
          "name": "D3",
          "ticks": 36480,
          "time": 228,
          "velocity": 1
        },
        {
          "duration": 1.4875000000000114,
          "durationTicks": 238,
          "midi": 45,
          "name": "A2",
          "ticks": 36720,
          "time": 229.5,
          "velocity": 1
        },
        {
          "duration": 1.4875000000000114,
          "durationTicks": 238,
          "midi": 47,
          "name": "B2",
          "ticks": 36960,
          "time": 231,
          "velocity": 1
        },
        {
          "duration": 1.4875000000000114,
          "durationTicks": 238,
          "midi": 42,
          "name": "F#2",
          "ticks": 37200,
          "time": 232.5,
          "velocity": 1
        },
        {
          "duration": 1.4875000000000114,
          "durationTicks": 238,
          "midi": 43,
          "name": "G2",
          "ticks": 37440,
          "time": 234,
          "velocity": 1
        },
        {
          "duration": 1.4875000000000114,
          "durationTicks": 238,
          "midi": 38,
          "name": "D2",
          "ticks": 37680,
          "time": 235.5,
          "velocity": 1
        },
        {
          "duration": 1.4875000000000114,
          "durationTicks": 238,
          "midi": 43,
          "name": "G2",
          "ticks": 37920,
          "time": 237,
          "velocity": 1
        },
        {
          "duration": 1.4875000000000114,
          "durationTicks": 238,
          "midi": 45,
          "name": "A2",
          "ticks": 38160,
          "time": 238.5,
          "velocity": 1
        },
        {
          "duration": 1.4875000000000114,
          "durationTicks": 238,
          "midi": 50,
          "name": "D3",
          "ticks": 38400,
          "time": 240,
          "velocity": 1
        },
        {
          "duration": 1.4875000000000114,
          "durationTicks": 238,
          "midi": 45,
          "name": "A2",
          "ticks": 38640,
          "time": 241.5,
          "velocity": 1
        },
        {
          "duration": 1.4875000000000114,
          "durationTicks": 238,
          "midi": 47,
          "name": "B2",
          "ticks": 38880,
          "time": 243,
          "velocity": 1
        },
        {
          "duration": 1.4875000000000114,
          "durationTicks": 238,
          "midi": 42,
          "name": "F#2",
          "ticks": 39120,
          "time": 244.5,
          "velocity": 1
        },
        {
          "duration": 1.4875000000000114,
          "durationTicks": 238,
          "midi": 43,
          "name": "G2",
          "ticks": 39360,
          "time": 246,
          "velocity": 1
        },
        {
          "duration": 1.4875000000000114,
          "durationTicks": 238,
          "midi": 38,
          "name": "D2",
          "ticks": 39600,
          "time": 247.5,
          "velocity": 1
        },
        {
          "duration": 1.4875000000000114,
          "durationTicks": 238,
          "midi": 43,
          "name": "G2",
          "ticks": 39840,
          "time": 249,
          "velocity": 1
        },
        {
          "duration": 1.4875000000000114,
          "durationTicks": 238,
          "midi": 45,
          "name": "A2",
          "ticks": 40080,
          "time": 250.5,
          "velocity": 1
        },
        {
          "duration": 1.4875000000000114,
          "durationTicks": 238,
          "midi": 50,
          "name": "D3",
          "ticks": 40320,
          "time": 252,
          "velocity": 1
        },
        {
          "duration": 1.4875000000000114,
          "durationTicks": 238,
          "midi": 45,
          "name": "A2",
          "ticks": 40560,
          "time": 253.5,
          "velocity": 1
        },
        {
          "duration": 1.4875000000000114,
          "durationTicks": 238,
          "midi": 47,
          "name": "B2",
          "ticks": 40800,
          "time": 255,
          "velocity": 1
        },
        {
          "duration": 1.4875000000000114,
          "durationTicks": 238,
          "midi": 42,
          "name": "F#2",
          "ticks": 41040,
          "time": 256.5,
          "velocity": 1
        },
        {
          "duration": 1.4875000000000114,
          "durationTicks": 238,
          "midi": 43,
          "name": "G2",
          "ticks": 41280,
          "time": 258,
          "velocity": 1
        },
        {
          "duration": 1.4875000000000114,
          "durationTicks": 238,
          "midi": 38,
          "name": "D2",
          "ticks": 41520,
          "time": 259.5,
          "velocity": 1
        },
        {
          "duration": 1.4875000000000114,
          "durationTicks": 238,
          "midi": 43,
          "name": "G2",
          "ticks": 41760,
          "time": 261,
          "velocity": 1
        },
        {
          "duration": 1.4875000000000114,
          "durationTicks": 238,
          "midi": 45,
          "name": "A2",
          "ticks": 42000,
          "time": 262.5,
          "velocity": 1
        },
        {
          "duration": 1.4875000000000114,
          "durationTicks": 238,
          "midi": 50,
          "name": "D3",
          "ticks": 42240,
          "time": 264,
          "velocity": 1
        },
        {
          "duration": 1.4875000000000114,
          "durationTicks": 238,
          "midi": 45,
          "name": "A2",
          "ticks": 42480,
          "time": 265.5,
          "velocity": 1
        },
        {
          "duration": 1.4875000000000114,
          "durationTicks": 238,
          "midi": 47,
          "name": "B2",
          "ticks": 42720,
          "time": 267,
          "velocity": 1
        },
        {
          "duration": 1.4875000000000114,
          "durationTicks": 238,
          "midi": 42,
          "name": "F#2",
          "ticks": 42960,
          "time": 268.5,
          "velocity": 1
        },
        {
          "duration": 1.4875000000000114,
          "durationTicks": 238,
          "midi": 43,
          "name": "G2",
          "ticks": 43200,
          "time": 270,
          "velocity": 1
        },
        {
          "duration": 1.4875000000000114,
          "durationTicks": 238,
          "midi": 38,
          "name": "D2",
          "ticks": 43440,
          "time": 271.5,
          "velocity": 1
        },
        {
          "duration": 1.4875000000000114,
          "durationTicks": 238,
          "midi": 43,
          "name": "G2",
          "ticks": 43680,
          "time": 273,
          "velocity": 1
        },
        {
          "duration": 1.4875000000000114,
          "durationTicks": 238,
          "midi": 45,
          "name": "A2",
          "ticks": 43920,
          "time": 274.5,
          "velocity": 1
        },
        {
          "duration": 1.4875000000000114,
          "durationTicks": 238,
          "midi": 50,
          "name": "D3",
          "ticks": 44160,
          "time": 276,
          "velocity": 1
        },
        {
          "duration": 1.4875000000000114,
          "durationTicks": 238,
          "midi": 45,
          "name": "A2",
          "ticks": 44400,
          "time": 277.5,
          "velocity": 1
        },
        {
          "duration": 1.4875000000000114,
          "durationTicks": 238,
          "midi": 47,
          "name": "B2",
          "ticks": 44640,
          "time": 279,
          "velocity": 1
        },
        {
          "duration": 1.4875000000000114,
          "durationTicks": 238,
          "midi": 42,
          "name": "F#2",
          "ticks": 44880,
          "time": 280.5,
          "velocity": 1
        },
        {
          "duration": 1.4875000000000114,
          "durationTicks": 238,
          "midi": 43,
          "name": "G2",
          "ticks": 45120,
          "time": 282,
          "velocity": 1
        },
        {
          "duration": 1.4875000000000114,
          "durationTicks": 238,
          "midi": 38,
          "name": "D2",
          "ticks": 45360,
          "time": 283.5,
          "velocity": 1
        },
        {
          "duration": 1.4875000000000114,
          "durationTicks": 238,
          "midi": 43,
          "name": "G2",
          "ticks": 45600,
          "time": 285,
          "velocity": 1
        },
        {
          "duration": 1.4875000000000114,
          "durationTicks": 238,
          "midi": 45,
          "name": "A2",
          "ticks": 45840,
          "time": 286.5,
          "velocity": 1
        },
        {
          "duration": 1.4875000000000114,
          "durationTicks": 238,
          "midi": 50,
          "name": "D3",
          "ticks": 46080,
          "time": 288,
          "velocity": 1
        },
        {
          "duration": 1.4875000000000114,
          "durationTicks": 238,
          "midi": 45,
          "name": "A2",
          "ticks": 46320,
          "time": 289.5,
          "velocity": 1
        },
        {
          "duration": 1.4875000000000114,
          "durationTicks": 238,
          "midi": 47,
          "name": "B2",
          "ticks": 46560,
          "time": 291,
          "velocity": 1
        },
        {
          "duration": 1.4875000000000114,
          "durationTicks": 238,
          "midi": 42,
          "name": "F#2",
          "ticks": 46800,
          "time": 292.5,
          "velocity": 1
        },
        {
          "duration": 1.4875000000000114,
          "durationTicks": 238,
          "midi": 43,
          "name": "G2",
          "ticks": 47040,
          "time": 294,
          "velocity": 1
        },
        {
          "duration": 1.4875000000000114,
          "durationTicks": 238,
          "midi": 38,
          "name": "D2",
          "ticks": 47280,
          "time": 295.5,
          "velocity": 1
        },
        {
          "duration": 1.4875000000000114,
          "durationTicks": 238,
          "midi": 43,
          "name": "G2",
          "ticks": 47520,
          "time": 297,
          "velocity": 1
        },
        {
          "duration": 1.4875000000000114,
          "durationTicks": 238,
          "midi": 45,
          "name": "A2",
          "ticks": 47760,
          "time": 298.5,
          "velocity": 1
        },
        {
          "duration": 1.4875000000000114,
          "durationTicks": 238,
          "midi": 50,
          "name": "D3",
          "ticks": 48000,
          "time": 300,
          "velocity": 1
        },
        {
          "duration": 1.4875000000000114,
          "durationTicks": 238,
          "midi": 45,
          "name": "A2",
          "ticks": 48240,
          "time": 301.5,
          "velocity": 1
        },
        {
          "duration": 1.4875000000000114,
          "durationTicks": 238,
          "midi": 47,
          "name": "B2",
          "ticks": 48480,
          "time": 303,
          "velocity": 1
        },
        {
          "duration": 1.4875000000000114,
          "durationTicks": 238,
          "midi": 42,
          "name": "F#2",
          "ticks": 48720,
          "time": 304.5,
          "velocity": 1
        },
        {
          "duration": 1.4875000000000114,
          "durationTicks": 238,
          "midi": 43,
          "name": "G2",
          "ticks": 48960,
          "time": 306,
          "velocity": 1
        },
        {
          "duration": 1.4875000000000114,
          "durationTicks": 238,
          "midi": 38,
          "name": "D2",
          "ticks": 49200,
          "time": 307.5,
          "velocity": 1
        },
        {
          "duration": 1.4875000000000114,
          "durationTicks": 238,
          "midi": 43,
          "name": "G2",
          "ticks": 49440,
          "time": 309,
          "velocity": 1
        },
        {
          "duration": 1.4875000000000114,
          "durationTicks": 238,
          "midi": 45,
          "name": "A2",
          "ticks": 49680,
          "time": 310.5,
          "velocity": 1
        },
        {
          "duration": 1.4875000000000114,
          "durationTicks": 238,
          "midi": 50,
          "name": "D3",
          "ticks": 49920,
          "time": 312,
          "velocity": 1
        },
        {
          "duration": 1.4875000000000114,
          "durationTicks": 238,
          "midi": 45,
          "name": "A2",
          "ticks": 50160,
          "time": 313.5,
          "velocity": 1
        },
        {
          "duration": 1.4875000000000114,
          "durationTicks": 238,
          "midi": 47,
          "name": "B2",
          "ticks": 50400,
          "time": 315,
          "velocity": 1
        },
        {
          "duration": 1.4875000000000114,
          "durationTicks": 238,
          "midi": 42,
          "name": "F#2",
          "ticks": 50640,
          "time": 316.5,
          "velocity": 1
        },
        {
          "duration": 1.4875000000000114,
          "durationTicks": 238,
          "midi": 43,
          "name": "G2",
          "ticks": 50880,
          "time": 318,
          "velocity": 1
        },
        {
          "duration": 1.4875000000000114,
          "durationTicks": 238,
          "midi": 38,
          "name": "D2",
          "ticks": 51120,
          "time": 319.5,
          "velocity": 1
        },
        {
          "duration": 1.4875000000000114,
          "durationTicks": 238,
          "midi": 43,
          "name": "G2",
          "ticks": 51360,
          "time": 321,
          "velocity": 1
        },
        {
          "duration": 1.4875000000000114,
          "durationTicks": 238,
          "midi": 45,
          "name": "A2",
          "ticks": 51600,
          "time": 322.5,
          "velocity": 1
        },
        {
          "duration": 1.4875000000000114,
          "durationTicks": 238,
          "midi": 50,
          "name": "D3",
          "ticks": 51840,
          "time": 324,
          "velocity": 1
        },
        {
          "duration": 1.4875000000000114,
          "durationTicks": 238,
          "midi": 45,
          "name": "A2",
          "ticks": 52080,
          "time": 325.5,
          "velocity": 1
        },
        {
          "duration": 1.4875000000000114,
          "durationTicks": 238,
          "midi": 47,
          "name": "B2",
          "ticks": 52320,
          "time": 327,
          "velocity": 1
        },
        {
          "duration": 1.4875000000000114,
          "durationTicks": 238,
          "midi": 42,
          "name": "F#2",
          "ticks": 52560,
          "time": 328.5,
          "velocity": 1
        },
        {
          "duration": 1.4875000000000114,
          "durationTicks": 238,
          "midi": 43,
          "name": "G2",
          "ticks": 52800,
          "time": 330,
          "velocity": 1
        },
        {
          "duration": 1.4875000000000114,
          "durationTicks": 238,
          "midi": 38,
          "name": "D2",
          "ticks": 53040,
          "time": 331.5,
          "velocity": 1
        },
        {
          "duration": 1.4875000000000114,
          "durationTicks": 238,
          "midi": 43,
          "name": "G2",
          "ticks": 53280,
          "time": 333,
          "velocity": 1
        },
        {
          "duration": 1.4875000000000114,
          "durationTicks": 238,
          "midi": 45,
          "name": "A2",
          "ticks": 53520,
          "time": 334.5,
          "velocity": 1
        },
        {
          "duration": 1.4875000000000114,
          "durationTicks": 238,
          "midi": 50,
          "name": "D3",
          "ticks": 53760,
          "time": 336,
          "velocity": 1
        },
        {
          "duration": 0.5593749999999886,
          "durationTicks": 358,
          "midi": 50,
          "name": "D3",
          "ticks": 54720,
          "time": 342,
          "velocity": 1
        },
        {
          "duration": 0.37187499999998863,
          "durationTicks": 238,
          "midi": 55,
          "name": "G3",
          "ticks": 55080,
          "time": 342.5625,
          "velocity": 1
        },
        {
          "duration": 0.18437499999998863,
          "durationTicks": 118,
          "midi": 54,
          "name": "F#3",
          "ticks": 55320,
          "time": 342.9375,
          "velocity": 1
        },
        {
          "duration": 0.37187499999998863,
          "durationTicks": 238,
          "midi": 52,
          "name": "E3",
          "ticks": 55440,
          "time": 343.125,
          "velocity": 1
        },
        {
          "duration": 0.18437499999998863,
          "durationTicks": 118,
          "midi": 50,
          "name": "D3",
          "ticks": 55680,
          "time": 343.5,
          "velocity": 1
        },
        {
          "duration": 0.37187499999998863,
          "durationTicks": 238,
          "midi": 49,
          "name": "C#3",
          "ticks": 55800,
          "time": 343.6875,
          "velocity": 1
        },
        {
          "duration": 0.18437499999998863,
          "durationTicks": 118,
          "midi": 47,
          "name": "B2",
          "ticks": 56040,
          "time": 344.0625,
          "velocity": 1
        },
        {
          "duration": 0.5593749999999886,
          "durationTicks": 358,
          "midi": 45,
          "name": "A2",
          "ticks": 56160,
          "time": 344.25,
          "velocity": 1
        },
        {
          "duration": 0.5593749999999886,
          "durationTicks": 358,
          "midi": 38,
          "name": "D2",
          "ticks": 56520,
          "time": 344.8125,
          "velocity": 1
        },
        {
          "duration": 0.5593749999999886,
          "durationTicks": 358,
          "midi": 43,
          "name": "G2",
          "ticks": 56880,
          "time": 345.375,
          "velocity": 1
        },
        {
          "duration": 0.5593749999999886,
          "durationTicks": 358,
          "midi": 47,
          "name": "B2",
          "ticks": 57240,
          "time": 345.9375,
          "velocity": 1
        },
        {
          "duration": 0.5593749999999886,
          "durationTicks": 358,
          "midi": 52,
          "name": "E3",
          "ticks": 57600,
          "time": 346.5,
          "velocity": 1
        },
        {
          "duration": 0.5593749999999886,
          "durationTicks": 358,
          "midi": 45,
          "name": "A2",
          "ticks": 57960,
          "time": 347.0625,
          "velocity": 1
        },
        {
          "duration": 0.5593749999999886,
          "durationTicks": 358,
          "midi": 50,
          "name": "D3",
          "ticks": 58320,
          "time": 347.625,
          "velocity": 1
        },
        {
          "duration": 0.5593749999999886,
          "durationTicks": 358,
          "midi": 43,
          "name": "G2",
          "ticks": 58680,
          "time": 348.1875,
          "velocity": 1
        },
        {
          "duration": 0.37187499999998863,
          "durationTicks": 238,
          "midi": 43,
          "name": "G2",
          "ticks": 59040,
          "time": 348.75,
          "velocity": 1
        },
        {
          "duration": 0.18437499999998863,
          "durationTicks": 118,
          "midi": 38,
          "name": "D2",
          "ticks": 59280,
          "time": 349.125,
          "velocity": 1
        },
        {
          "duration": 0.5593749999999886,
          "durationTicks": 358,
          "midi": 40,
          "name": "E2",
          "ticks": 59400,
          "time": 349.3125,
          "velocity": 1
        },
        {
          "duration": 0.5593749999999886,
          "durationTicks": 358,
          "midi": 45,
          "name": "A2",
          "ticks": 59760,
          "time": 349.875,
          "velocity": 1
        },
        {
          "duration": 0.37187499999998863,
          "durationTicks": 238,
          "midi": 50,
          "name": "D3",
          "ticks": 60120,
          "time": 350.4375,
          "velocity": 1
        },
        {
          "duration": 0.18437499999998863,
          "durationTicks": 118,
          "midi": 43,
          "name": "G2",
          "ticks": 60360,
          "time": 350.8125,
          "velocity": 1
        },
        {
          "duration": 0.5593749999999886,
          "durationTicks": 358,
          "midi": 50,
          "name": "D3",
          "ticks": 60480,
          "time": 351,
          "velocity": 1
        },
        {
          "duration": 0.5593749999999886,
          "durationTicks": 358,
          "midi": 50,
          "name": "D3",
          "ticks": 60840,
          "time": 351.5625,
          "velocity": 1
        },
        {
          "duration": 0.37187499999998863,
          "durationTicks": 238,
          "midi": 52,
          "name": "E3",
          "ticks": 61200,
          "time": 352.125,
          "velocity": 1
        },
        {
          "duration": 0.18437499999998863,
          "durationTicks": 118,
          "midi": 47,
          "name": "B2",
          "ticks": 61440,
          "time": 352.5,
          "velocity": 1
        },
        {
          "duration": 0.5593749999999886,
          "durationTicks": 358,
          "midi": 45,
          "name": "A2",
          "ticks": 61560,
          "time": 352.6875,
          "velocity": 1
        },
        {
          "duration": 0.5593749999999886,
          "durationTicks": 358,
          "midi": 45,
          "name": "A2",
          "ticks": 61920,
          "time": 353.25,
          "velocity": 1
        },
        {
          "duration": 0.5593749999999886,
          "durationTicks": 358,
          "midi": 50,
          "name": "D3",
          "ticks": 62280,
          "time": 353.8125,
          "velocity": 1
        },
        {
          "duration": 0.37187499999998863,
          "durationTicks": 238,
          "midi": 55,
          "name": "G3",
          "ticks": 62640,
          "time": 354.375,
          "velocity": 1
        },
        {
          "duration": 0.18437499999998863,
          "durationTicks": 118,
          "midi": 50,
          "name": "D3",
          "ticks": 62880,
          "time": 354.75,
          "velocity": 1
        },
        {
          "duration": 0.5593749999999886,
          "durationTicks": 358,
          "midi": 44,
          "name": "G#2",
          "ticks": 63000,
          "time": 354.9375,
          "velocity": 1
        },
        {
          "duration": 0.18437499999998863,
          "durationTicks": 118,
          "midi": 45,
          "name": "A2",
          "ticks": 63360,
          "time": 355.5,
          "velocity": 1
        },
        {
          "duration": 0.18437499999998863,
          "durationTicks": 118,
          "midi": 47,
          "name": "B2",
          "ticks": 63480,
          "time": 355.6875,
          "velocity": 1
        },
        {
          "duration": 0.18437499999998863,
          "durationTicks": 118,
          "midi": 49,
          "name": "C#3",
          "ticks": 63600,
          "time": 355.875,
          "velocity": 1
        },
        {
          "duration": 0.5593749999999886,
          "durationTicks": 358,
          "midi": 50,
          "name": "D3",
          "ticks": 63720,
          "time": 356.0625,
          "velocity": 1
        },
        {
          "duration": 0.5593749999999886,
          "durationTicks": 358,
          "midi": 38,
          "name": "D2",
          "ticks": 64080,
          "time": 356.625,
          "velocity": 1
        },
        {
          "duration": 0.5593749999999886,
          "durationTicks": 358,
          "midi": 38,
          "name": "D2",
          "ticks": 64440,
          "time": 357.1875,
          "velocity": 1
        },
        {
          "duration": 0.5593749999999886,
          "durationTicks": 358,
          "midi": 40,
          "name": "E2",
          "ticks": 64800,
          "time": 357.75,
          "velocity": 1
        },
        {
          "duration": 0.5593749999999886,
          "durationTicks": 358,
          "midi": 40,
          "name": "E2",
          "ticks": 65160,
          "time": 358.3125,
          "velocity": 1
        },
        {
          "duration": 0.5593749999999886,
          "durationTicks": 358,
          "midi": 40,
          "name": "E2",
          "ticks": 65520,
          "time": 358.875,
          "velocity": 1
        },
        {
          "duration": 0.5593749999999886,
          "durationTicks": 358,
          "midi": 40,
          "name": "E2",
          "ticks": 65880,
          "time": 359.4375,
          "velocity": 1
        },
        {
          "duration": 0.5593749999999886,
          "durationTicks": 358,
          "midi": 40,
          "name": "E2",
          "ticks": 66240,
          "time": 360,
          "velocity": 1
        },
        {
          "duration": 0.5593749999999886,
          "durationTicks": 358,
          "midi": 40,
          "name": "E2",
          "ticks": 66600,
          "time": 360.5625,
          "velocity": 1
        },
        {
          "duration": 0.5593749999999886,
          "durationTicks": 358,
          "midi": 40,
          "name": "E2",
          "ticks": 66960,
          "time": 361.125,
          "velocity": 1
        },
        {
          "duration": 0.5593749999999886,
          "durationTicks": 358,
          "midi": 40,
          "name": "E2",
          "ticks": 67320,
          "time": 361.6875,
          "velocity": 1
        },
        {
          "duration": 0.5593749999999886,
          "durationTicks": 358,
          "midi": 45,
          "name": "A2",
          "ticks": 67680,
          "time": 362.25,
          "velocity": 1
        },
        {
          "duration": 0.5593749999999886,
          "durationTicks": 358,
          "midi": 45,
          "name": "A2",
          "ticks": 68040,
          "time": 362.8125,
          "velocity": 1
        },
        {
          "duration": 1.1218749999999886,
          "durationTicks": 718,
          "midi": 45,
          "name": "A2",
          "ticks": 68400,
          "time": 363.375,
          "velocity": 1
        },
        {
          "duration": 0.5593749999999886,
          "durationTicks": 358,
          "midi": 50,
          "name": "D3",
          "ticks": 69120,
          "time": 364.5,
          "velocity": 1
        },
        {
          "duration": 0.37187499999998863,
          "durationTicks": 238,
          "midi": 55,
          "name": "G3",
          "ticks": 69480,
          "time": 365.0625,
          "velocity": 1
        },
        {
          "duration": 0.18437499999998863,
          "durationTicks": 118,
          "midi": 54,
          "name": "F#3",
          "ticks": 69720,
          "time": 365.4375,
          "velocity": 1
        },
        {
          "duration": 0.37187499999998863,
          "durationTicks": 238,
          "midi": 52,
          "name": "E3",
          "ticks": 69840,
          "time": 365.625,
          "velocity": 1
        },
        {
          "duration": 0.18437499999998863,
          "durationTicks": 118,
          "midi": 50,
          "name": "D3",
          "ticks": 70080,
          "time": 366,
          "velocity": 1
        },
        {
          "duration": 0.37187499999998863,
          "durationTicks": 238,
          "midi": 49,
          "name": "C#3",
          "ticks": 70200,
          "time": 366.1875,
          "velocity": 1
        },
        {
          "duration": 0.18437499999998863,
          "durationTicks": 118,
          "midi": 47,
          "name": "B2",
          "ticks": 70440,
          "time": 366.5625,
          "velocity": 1
        },
        {
          "duration": 0.5593749999999886,
          "durationTicks": 358,
          "midi": 45,
          "name": "A2",
          "ticks": 70560,
          "time": 366.75,
          "velocity": 1
        },
        {
          "duration": 0.5593749999999886,
          "durationTicks": 358,
          "midi": 38,
          "name": "D2",
          "ticks": 70920,
          "time": 367.3125,
          "velocity": 1
        },
        {
          "duration": 0.5593749999999886,
          "durationTicks": 358,
          "midi": 43,
          "name": "G2",
          "ticks": 71280,
          "time": 367.875,
          "velocity": 1
        },
        {
          "duration": 0.5593749999999886,
          "durationTicks": 358,
          "midi": 47,
          "name": "B2",
          "ticks": 71640,
          "time": 368.4375,
          "velocity": 1
        },
        {
          "duration": 0.5593749999999886,
          "durationTicks": 358,
          "midi": 52,
          "name": "E3",
          "ticks": 72000,
          "time": 369,
          "velocity": 1
        },
        {
          "duration": 0.5593749999999886,
          "durationTicks": 358,
          "midi": 45,
          "name": "A2",
          "ticks": 72360,
          "time": 369.5625,
          "velocity": 1
        },
        {
          "duration": 0.5593749999999886,
          "durationTicks": 358,
          "midi": 50,
          "name": "D3",
          "ticks": 72720,
          "time": 370.125,
          "velocity": 1
        },
        {
          "duration": 0.5593749999999886,
          "durationTicks": 358,
          "midi": 43,
          "name": "G2",
          "ticks": 73080,
          "time": 370.6875,
          "velocity": 1
        },
        {
          "duration": 0.37187499999998863,
          "durationTicks": 238,
          "midi": 43,
          "name": "G2",
          "ticks": 73440,
          "time": 371.25,
          "velocity": 1
        },
        {
          "duration": 0.18437499999998863,
          "durationTicks": 118,
          "midi": 38,
          "name": "D2",
          "ticks": 73680,
          "time": 371.625,
          "velocity": 1
        },
        {
          "duration": 0.5593749999999886,
          "durationTicks": 358,
          "midi": 40,
          "name": "E2",
          "ticks": 73800,
          "time": 371.8125,
          "velocity": 1
        },
        {
          "duration": 0.5593749999999886,
          "durationTicks": 358,
          "midi": 45,
          "name": "A2",
          "ticks": 74160,
          "time": 372.375,
          "velocity": 1
        },
        {
          "duration": 0.37187499999998863,
          "durationTicks": 238,
          "midi": 50,
          "name": "D3",
          "ticks": 74520,
          "time": 372.9375,
          "velocity": 1
        },
        {
          "duration": 0.18437499999998863,
          "durationTicks": 118,
          "midi": 43,
          "name": "G2",
          "ticks": 74760,
          "time": 373.3125,
          "velocity": 1
        },
        {
          "duration": 0.5593749999999886,
          "durationTicks": 358,
          "midi": 50,
          "name": "D3",
          "ticks": 74880,
          "time": 373.5,
          "velocity": 1
        },
        {
          "duration": 0.5593749999999886,
          "durationTicks": 358,
          "midi": 50,
          "name": "D3",
          "ticks": 75240,
          "time": 374.0625,
          "velocity": 1
        },
        {
          "duration": 0.37187499999998863,
          "durationTicks": 238,
          "midi": 52,
          "name": "E3",
          "ticks": 75600,
          "time": 374.625,
          "velocity": 1
        },
        {
          "duration": 0.18437499999998863,
          "durationTicks": 118,
          "midi": 47,
          "name": "B2",
          "ticks": 75840,
          "time": 375,
          "velocity": 1
        },
        {
          "duration": 0.5593749999999886,
          "durationTicks": 358,
          "midi": 45,
          "name": "A2",
          "ticks": 75960,
          "time": 375.1875,
          "velocity": 1
        },
        {
          "duration": 0.5593749999999886,
          "durationTicks": 358,
          "midi": 45,
          "name": "A2",
          "ticks": 76320,
          "time": 375.75,
          "velocity": 1
        },
        {
          "duration": 0.5593749999999886,
          "durationTicks": 358,
          "midi": 50,
          "name": "D3",
          "ticks": 76680,
          "time": 376.3125,
          "velocity": 1
        },
        {
          "duration": 0.37187499999998863,
          "durationTicks": 238,
          "midi": 55,
          "name": "G3",
          "ticks": 77040,
          "time": 376.875,
          "velocity": 1
        },
        {
          "duration": 0.18437499999998863,
          "durationTicks": 118,
          "midi": 50,
          "name": "D3",
          "ticks": 77280,
          "time": 377.25,
          "velocity": 1
        },
        {
          "duration": 0.5593749999999886,
          "durationTicks": 358,
          "midi": 44,
          "name": "G#2",
          "ticks": 77400,
          "time": 377.4375,
          "velocity": 1
        },
        {
          "duration": 0.18437499999998863,
          "durationTicks": 118,
          "midi": 45,
          "name": "A2",
          "ticks": 77760,
          "time": 378,
          "velocity": 1
        },
        {
          "duration": 0.18437499999998863,
          "durationTicks": 118,
          "midi": 47,
          "name": "B2",
          "ticks": 77880,
          "time": 378.1875,
          "velocity": 1
        },
        {
          "duration": 0.18437499999998863,
          "durationTicks": 118,
          "midi": 49,
          "name": "C#3",
          "ticks": 78000,
          "time": 378.375,
          "velocity": 1
        },
        {
          "duration": 0.5593749999999886,
          "durationTicks": 358,
          "midi": 50,
          "name": "D3",
          "ticks": 78120,
          "time": 378.5625,
          "velocity": 1
        },
        {
          "duration": 0.5593749999999886,
          "durationTicks": 358,
          "midi": 38,
          "name": "D2",
          "ticks": 78480,
          "time": 379.125,
          "velocity": 1
        },
        {
          "duration": 0.5593749999999886,
          "durationTicks": 358,
          "midi": 38,
          "name": "D2",
          "ticks": 78840,
          "time": 379.6875,
          "velocity": 1
        },
        {
          "duration": 0.5593749999999886,
          "durationTicks": 358,
          "midi": 40,
          "name": "E2",
          "ticks": 79200,
          "time": 380.25,
          "velocity": 1
        },
        {
          "duration": 0.5593749999999886,
          "durationTicks": 358,
          "midi": 40,
          "name": "E2",
          "ticks": 79560,
          "time": 380.8125,
          "velocity": 1
        },
        {
          "duration": 0.5593749999999886,
          "durationTicks": 358,
          "midi": 40,
          "name": "E2",
          "ticks": 79920,
          "time": 381.375,
          "velocity": 1
        },
        {
          "duration": 0.5593749999999886,
          "durationTicks": 358,
          "midi": 40,
          "name": "E2",
          "ticks": 80280,
          "time": 381.9375,
          "velocity": 1
        },
        {
          "duration": 0.5593749999999886,
          "durationTicks": 358,
          "midi": 40,
          "name": "E2",
          "ticks": 80640,
          "time": 382.5,
          "velocity": 1
        },
        {
          "duration": 0.5593749999999886,
          "durationTicks": 358,
          "midi": 40,
          "name": "E2",
          "ticks": 81000,
          "time": 383.0625,
          "velocity": 1
        },
        {
          "duration": 0.5593749999999886,
          "durationTicks": 358,
          "midi": 40,
          "name": "E2",
          "ticks": 81360,
          "time": 383.625,
          "velocity": 1
        },
        {
          "duration": 0.5593749999999886,
          "durationTicks": 358,
          "midi": 40,
          "name": "E2",
          "ticks": 81720,
          "time": 384.1875,
          "velocity": 1
        },
        {
          "duration": 0.5593749999999886,
          "durationTicks": 358,
          "midi": 45,
          "name": "A2",
          "ticks": 82080,
          "time": 384.75,
          "velocity": 1
        },
        {
          "duration": 0.5593749999999886,
          "durationTicks": 358,
          "midi": 45,
          "name": "A2",
          "ticks": 82440,
          "time": 385.3125,
          "velocity": 1
        },
        {
          "duration": 1.1218749999999886,
          "durationTicks": 718,
          "midi": 45,
          "name": "A2",
          "ticks": 82800,
          "time": 385.875,
          "velocity": 1
        },
        {
          "duration": 0.37187499999998863,
          "durationTicks": 238,
          "midi": 45,
          "name": "A2",
          "ticks": 83520,
          "time": 387,
          "velocity": 1
        },
        {
          "duration": 0.18437499999998863,
          "durationTicks": 118,
          "midi": 44,
          "name": "G#2",
          "ticks": 83760,
          "time": 387.375,
          "velocity": 1
        },
        {
          "duration": 0.5593749999999886,
          "durationTicks": 358,
          "midi": 45,
          "name": "A2",
          "ticks": 83880,
          "time": 387.5625,
          "velocity": 1
        },
        {
          "duration": 0.5593749999999886,
          "durationTicks": 358,
          "midi": 45,
          "name": "A2",
          "ticks": 84240,
          "time": 388.125,
          "velocity": 1
        },
        {
          "duration": 0.5593749999999886,
          "durationTicks": 358,
          "midi": 45,
          "name": "A2",
          "ticks": 84600,
          "time": 388.6875,
          "velocity": 1
        },
        {
          "duration": 0.37187499999998863,
          "durationTicks": 238,
          "midi": 50,
          "name": "D3",
          "ticks": 84960,
          "time": 389.25,
          "velocity": 1
        },
        {
          "duration": 0.18437499999998863,
          "durationTicks": 118,
          "midi": 49,
          "name": "C#3",
          "ticks": 85200,
          "time": 389.625,
          "velocity": 1
        },
        {
          "duration": 0.5593749999999886,
          "durationTicks": 358,
          "midi": 50,
          "name": "D3",
          "ticks": 85320,
          "time": 389.8125,
          "velocity": 1
        },
        {
          "duration": 0.5593749999999886,
          "durationTicks": 358,
          "midi": 50,
          "name": "D3",
          "ticks": 85680,
          "time": 390.375,
          "velocity": 1
        },
        {
          "duration": 0.5593749999999886,
          "durationTicks": 358,
          "midi": 50,
          "name": "D3",
          "ticks": 86040,
          "time": 390.9375,
          "velocity": 1
        },
        {
          "duration": 0.5593749999999886,
          "durationTicks": 358,
          "midi": 43,
          "name": "G2",
          "ticks": 86400,
          "time": 391.5,
          "velocity": 1
        },
        {
          "duration": 0.5593749999999886,
          "durationTicks": 358,
          "midi": 50,
          "name": "D3",
          "ticks": 86760,
          "time": 392.0625,
          "velocity": 1
        },
        {
          "duration": 0.37187499999998863,
          "durationTicks": 238,
          "midi": 43,
          "name": "G2",
          "ticks": 87120,
          "time": 392.625,
          "velocity": 1
        },
        {
          "duration": 0.18437499999998863,
          "durationTicks": 118,
          "midi": 50,
          "name": "D3",
          "ticks": 87360,
          "time": 393,
          "velocity": 1
        },
        {
          "duration": 0.37187499999998863,
          "durationTicks": 238,
          "midi": 43,
          "name": "G2",
          "ticks": 87480,
          "time": 393.1875,
          "velocity": 1
        },
        {
          "duration": 0.18437499999998863,
          "durationTicks": 118,
          "midi": 45,
          "name": "A2",
          "ticks": 87720,
          "time": 393.5625,
          "velocity": 1
        },
        {
          "duration": 0.37187499999998863,
          "durationTicks": 238,
          "midi": 50,
          "name": "D3",
          "ticks": 87840,
          "time": 393.75,
          "velocity": 1
        },
        {
          "duration": 0.18437499999998863,
          "durationTicks": 118,
          "midi": 49,
          "name": "C#3",
          "ticks": 88080,
          "time": 394.125,
          "velocity": 1
        },
        {
          "duration": 0.5593749999999886,
          "durationTicks": 358,
          "midi": 50,
          "name": "D3",
          "ticks": 88200,
          "time": 394.3125,
          "velocity": 1
        },
        {
          "duration": 0.5593749999999886,
          "durationTicks": 358,
          "midi": 50,
          "name": "D3",
          "ticks": 88560,
          "time": 394.875,
          "velocity": 1
        },
        {
          "duration": 0.5593749999999886,
          "durationTicks": 358,
          "midi": 50,
          "name": "D3",
          "ticks": 88920,
          "time": 395.4375,
          "velocity": 1
        },
        {
          "duration": 0.5593749999999886,
          "durationTicks": 358,
          "midi": 43,
          "name": "G2",
          "ticks": 89280,
          "time": 396,
          "velocity": 1
        },
        {
          "duration": 0.37187499999998863,
          "durationTicks": 238,
          "midi": 45,
          "name": "A2",
          "ticks": 89640,
          "time": 396.5625,
          "velocity": 1
        },
        {
          "duration": 0.18437499999998863,
          "durationTicks": 118,
          "midi": 47,
          "name": "B2",
          "ticks": 89880,
          "time": 396.9375,
          "velocity": 1
        },
        {
          "duration": 0.5593749999999886,
          "durationTicks": 358,
          "midi": 42,
          "name": "F#2",
          "ticks": 90000,
          "time": 397.125,
          "velocity": 1
        },
        {
          "duration": 0.5593749999999886,
          "durationTicks": 358,
          "midi": 42,
          "name": "F#2",
          "ticks": 90360,
          "time": 397.6875,
          "velocity": 1
        },
        {
          "duration": 0.5593749999999886,
          "durationTicks": 358,
          "midi": 47,
          "name": "B2",
          "ticks": 90720,
          "time": 398.25,
          "velocity": 1
        },
        {
          "duration": 0.5593749999999886,
          "durationTicks": 358,
          "midi": 52,
          "name": "E3",
          "ticks": 91080,
          "time": 398.8125,
          "velocity": 1
        },
        {
          "duration": 0.5593749999999886,
          "durationTicks": 358,
          "midi": 45,
          "name": "A2",
          "ticks": 91440,
          "time": 399.375,
          "velocity": 1
        },
        {
          "duration": 0.5593749999999886,
          "durationTicks": 358,
          "midi": 50,
          "name": "D3",
          "ticks": 91800,
          "time": 399.9375,
          "velocity": 1
        },
        {
          "duration": 0.5593749999999886,
          "durationTicks": 358,
          "midi": 43,
          "name": "G2",
          "ticks": 92160,
          "time": 400.5,
          "velocity": 1
        },
        {
          "duration": 0.5593749999999886,
          "durationTicks": 358,
          "midi": 45,
          "name": "A2",
          "ticks": 92520,
          "time": 401.0625,
          "velocity": 1
        },
        {
          "duration": 0.5593749999999886,
          "durationTicks": 358,
          "midi": 50,
          "name": "D3",
          "ticks": 92880,
          "time": 401.625,
          "velocity": 1
        },
        {
          "duration": 0.5593749999999886,
          "durationTicks": 358,
          "midi": 45,
          "name": "A2",
          "ticks": 93240,
          "time": 402.1875,
          "velocity": 1
        },
        {
          "duration": 0.5593749999999886,
          "durationTicks": 358,
          "midi": 45,
          "name": "A2",
          "ticks": 93600,
          "time": 402.75,
          "velocity": 1
        },
        {
          "duration": 0.5593749999999886,
          "durationTicks": 358,
          "midi": 45,
          "name": "A2",
          "ticks": 93960,
          "time": 403.3125,
          "velocity": 1
        },
        {
          "duration": 0.5593749999999886,
          "durationTicks": 358,
          "midi": 45,
          "name": "A2",
          "ticks": 94320,
          "time": 403.875,
          "velocity": 1
        },
        {
          "duration": 0.5593749999999886,
          "durationTicks": 358,
          "midi": 45,
          "name": "A2",
          "ticks": 94680,
          "time": 404.4375,
          "velocity": 1
        },
        {
          "duration": 0.5593749999999886,
          "durationTicks": 358,
          "midi": 45,
          "name": "A2",
          "ticks": 95040,
          "time": 405,
          "velocity": 1
        },
        {
          "duration": 0.5593749999999886,
          "durationTicks": 358,
          "midi": 45,
          "name": "A2",
          "ticks": 95400,
          "time": 405.5625,
          "velocity": 1
        },
        {
          "duration": 0.5593749999999886,
          "durationTicks": 358,
          "midi": 45,
          "name": "A2",
          "ticks": 95760,
          "time": 406.125,
          "velocity": 1
        },
        {
          "duration": 0.5593749999999886,
          "durationTicks": 358,
          "midi": 45,
          "name": "A2",
          "ticks": 96120,
          "time": 406.6875,
          "velocity": 1
        },
        {
          "duration": 0.5593749999999886,
          "durationTicks": 358,
          "midi": 38,
          "name": "D2",
          "ticks": 96480,
          "time": 407.25,
          "velocity": 1
        },
        {
          "duration": 0.5593749999999886,
          "durationTicks": 358,
          "midi": 38,
          "name": "D2",
          "ticks": 96840,
          "time": 407.8125,
          "velocity": 1
        },
        {
          "duration": 1.1218749999999886,
          "durationTicks": 718,
          "midi": 38,
          "name": "D2",
          "ticks": 97200,
          "time": 408.375,
          "velocity": 1
        },
        {
          "duration": 0.37187499999998863,
          "durationTicks": 238,
          "midi": 45,
          "name": "A2",
          "ticks": 97920,
          "time": 409.5,
          "velocity": 1
        },
        {
          "duration": 0.18437499999998863,
          "durationTicks": 118,
          "midi": 44,
          "name": "G#2",
          "ticks": 98160,
          "time": 409.875,
          "velocity": 1
        },
        {
          "duration": 0.5593749999999886,
          "durationTicks": 358,
          "midi": 45,
          "name": "A2",
          "ticks": 98280,
          "time": 410.0625,
          "velocity": 1
        },
        {
          "duration": 0.5593749999999886,
          "durationTicks": 358,
          "midi": 45,
          "name": "A2",
          "ticks": 98640,
          "time": 410.625,
          "velocity": 1
        },
        {
          "duration": 0.5593749999999886,
          "durationTicks": 358,
          "midi": 45,
          "name": "A2",
          "ticks": 99000,
          "time": 411.1875,
          "velocity": 1
        },
        {
          "duration": 0.37187499999998863,
          "durationTicks": 238,
          "midi": 50,
          "name": "D3",
          "ticks": 99360,
          "time": 411.75,
          "velocity": 1
        },
        {
          "duration": 0.18437499999998863,
          "durationTicks": 118,
          "midi": 49,
          "name": "C#3",
          "ticks": 99600,
          "time": 412.125,
          "velocity": 1
        },
        {
          "duration": 0.5593749999999886,
          "durationTicks": 358,
          "midi": 50,
          "name": "D3",
          "ticks": 99720,
          "time": 412.3125,
          "velocity": 1
        },
        {
          "duration": 0.5593749999999886,
          "durationTicks": 358,
          "midi": 50,
          "name": "D3",
          "ticks": 100080,
          "time": 412.875,
          "velocity": 1
        },
        {
          "duration": 0.5593749999999886,
          "durationTicks": 358,
          "midi": 50,
          "name": "D3",
          "ticks": 100440,
          "time": 413.4375,
          "velocity": 1
        },
        {
          "duration": 0.5593749999999886,
          "durationTicks": 358,
          "midi": 43,
          "name": "G2",
          "ticks": 100800,
          "time": 414,
          "velocity": 1
        },
        {
          "duration": 0.5593749999999886,
          "durationTicks": 358,
          "midi": 50,
          "name": "D3",
          "ticks": 101160,
          "time": 414.5625,
          "velocity": 1
        },
        {
          "duration": 0.37187499999998863,
          "durationTicks": 238,
          "midi": 43,
          "name": "G2",
          "ticks": 101520,
          "time": 415.125,
          "velocity": 1
        },
        {
          "duration": 0.18437499999998863,
          "durationTicks": 118,
          "midi": 50,
          "name": "D3",
          "ticks": 101760,
          "time": 415.5,
          "velocity": 1
        },
        {
          "duration": 0.37187499999998863,
          "durationTicks": 238,
          "midi": 43,
          "name": "G2",
          "ticks": 101880,
          "time": 415.6875,
          "velocity": 1
        },
        {
          "duration": 0.18437499999998863,
          "durationTicks": 118,
          "midi": 45,
          "name": "A2",
          "ticks": 102120,
          "time": 416.0625,
          "velocity": 1
        },
        {
          "duration": 0.37187499999998863,
          "durationTicks": 238,
          "midi": 50,
          "name": "D3",
          "ticks": 102240,
          "time": 416.25,
          "velocity": 1
        },
        {
          "duration": 0.18437499999998863,
          "durationTicks": 118,
          "midi": 49,
          "name": "C#3",
          "ticks": 102480,
          "time": 416.625,
          "velocity": 1
        },
        {
          "duration": 0.5593749999999886,
          "durationTicks": 358,
          "midi": 50,
          "name": "D3",
          "ticks": 102600,
          "time": 416.8125,
          "velocity": 1
        },
        {
          "duration": 0.5593749999999886,
          "durationTicks": 358,
          "midi": 50,
          "name": "D3",
          "ticks": 102960,
          "time": 417.375,
          "velocity": 1
        },
        {
          "duration": 0.5593749999999886,
          "durationTicks": 358,
          "midi": 50,
          "name": "D3",
          "ticks": 103320,
          "time": 417.9375,
          "velocity": 1
        },
        {
          "duration": 0.5593749999999886,
          "durationTicks": 358,
          "midi": 43,
          "name": "G2",
          "ticks": 103680,
          "time": 418.5,
          "velocity": 1
        },
        {
          "duration": 0.37187499999998863,
          "durationTicks": 238,
          "midi": 45,
          "name": "A2",
          "ticks": 104040,
          "time": 419.0625,
          "velocity": 1
        },
        {
          "duration": 0.18437499999998863,
          "durationTicks": 118,
          "midi": 47,
          "name": "B2",
          "ticks": 104280,
          "time": 419.4375,
          "velocity": 1
        },
        {
          "duration": 0.5593749999999886,
          "durationTicks": 358,
          "midi": 42,
          "name": "F#2",
          "ticks": 104400,
          "time": 419.625,
          "velocity": 1
        },
        {
          "duration": 0.5593749999999886,
          "durationTicks": 358,
          "midi": 42,
          "name": "F#2",
          "ticks": 104760,
          "time": 420.1875,
          "velocity": 1
        },
        {
          "duration": 0.5593749999999886,
          "durationTicks": 358,
          "midi": 47,
          "name": "B2",
          "ticks": 105120,
          "time": 420.75,
          "velocity": 1
        },
        {
          "duration": 0.5593749999999886,
          "durationTicks": 358,
          "midi": 52,
          "name": "E3",
          "ticks": 105480,
          "time": 421.3125,
          "velocity": 1
        },
        {
          "duration": 0.5593749999999886,
          "durationTicks": 358,
          "midi": 45,
          "name": "A2",
          "ticks": 105840,
          "time": 421.875,
          "velocity": 1
        },
        {
          "duration": 0.5593749999999886,
          "durationTicks": 358,
          "midi": 50,
          "name": "D3",
          "ticks": 106200,
          "time": 422.4375,
          "velocity": 1
        },
        {
          "duration": 0.5593749999999886,
          "durationTicks": 358,
          "midi": 43,
          "name": "G2",
          "ticks": 106560,
          "time": 423,
          "velocity": 1
        },
        {
          "duration": 0.5593749999999886,
          "durationTicks": 358,
          "midi": 45,
          "name": "A2",
          "ticks": 106920,
          "time": 423.5625,
          "velocity": 1
        },
        {
          "duration": 0.5593749999999886,
          "durationTicks": 358,
          "midi": 50,
          "name": "D3",
          "ticks": 107280,
          "time": 424.125,
          "velocity": 1
        },
        {
          "duration": 0.5593749999999886,
          "durationTicks": 358,
          "midi": 45,
          "name": "A2",
          "ticks": 107640,
          "time": 424.6875,
          "velocity": 1
        },
        {
          "duration": 0.5593749999999886,
          "durationTicks": 358,
          "midi": 45,
          "name": "A2",
          "ticks": 108000,
          "time": 425.25,
          "velocity": 1
        },
        {
          "duration": 0.5593749999999886,
          "durationTicks": 358,
          "midi": 45,
          "name": "A2",
          "ticks": 108360,
          "time": 425.8125,
          "velocity": 1
        },
        {
          "duration": 0.5593749999999886,
          "durationTicks": 358,
          "midi": 45,
          "name": "A2",
          "ticks": 108720,
          "time": 426.375,
          "velocity": 1
        },
        {
          "duration": 0.5593749999999886,
          "durationTicks": 358,
          "midi": 45,
          "name": "A2",
          "ticks": 109080,
          "time": 426.9375,
          "velocity": 1
        },
        {
          "duration": 0.5593749999999886,
          "durationTicks": 358,
          "midi": 45,
          "name": "A2",
          "ticks": 109440,
          "time": 427.5,
          "velocity": 1
        },
        {
          "duration": 0.5593749999999886,
          "durationTicks": 358,
          "midi": 45,
          "name": "A2",
          "ticks": 109800,
          "time": 428.0625,
          "velocity": 1
        },
        {
          "duration": 0.5593749999999886,
          "durationTicks": 358,
          "midi": 45,
          "name": "A2",
          "ticks": 110160,
          "time": 428.625,
          "velocity": 1
        },
        {
          "duration": 0.5593749999999886,
          "durationTicks": 358,
          "midi": 45,
          "name": "A2",
          "ticks": 110520,
          "time": 429.1875,
          "velocity": 1
        },
        {
          "duration": 0.5593749999999886,
          "durationTicks": 358,
          "midi": 38,
          "name": "D2",
          "ticks": 110880,
          "time": 429.75,
          "velocity": 1
        },
        {
          "duration": 0.5593749999999886,
          "durationTicks": 358,
          "midi": 38,
          "name": "D2",
          "ticks": 111240,
          "time": 430.3125,
          "velocity": 1
        },
        {
          "duration": 1.1218749999999886,
          "durationTicks": 718,
          "midi": 38,
          "name": "D2",
          "ticks": 111600,
          "time": 430.875,
          "velocity": 1
        }
      ],
      "endOfTrackTicks": 112318
    },
    {
      "channel": 0,
      "controlChanges": {},
      "pitchBends": [],
      "instrument": {
        "family": "piano",
        "number": 0,
        "name": "acoustic grand piano"
      },
      "name": "",
      "notes": [],
      "endOfTrackTicks": 1
    }
  ]
}